<svg width="48" height="48" viewBox="0 0 48 48" fill="none" xmlns="http://www.w3.org/2000/svg">
<rect width="48" height="48" rx="24" fill="#6764FD"/>
<path d="M24 15.9374C25.1603 15.9374 26.2731 16.3984 27.0936 17.2188C27.9141 18.0393 28.375 19.1521 28.375 20.3124C28.375 21.4728 27.9141 22.5856 27.0936 23.406C26.2731 24.2265 25.1603 24.6874 24 24.6874C22.8397 24.6874 21.7269 24.2265 20.9064 23.406C20.0859 22.5856 19.625 21.4728 19.625 20.3124C19.625 19.1521 20.0859 18.0393 20.9064 17.2188C21.7269 16.3984 22.8397 15.9374 24 15.9374ZM15.25 19.0624C15.95 19.0624 16.6 19.2499 17.1625 19.5874C16.975 21.3749 17.5 23.1499 18.575 24.5374C17.95 25.7374 16.7 26.5624 15.25 26.5624C14.2554 26.5624 13.3016 26.1674 12.5983 25.4641C11.8951 24.7608 11.5 23.807 11.5 22.8124C11.5 21.8179 11.8951 20.864 12.5983 20.1608C13.3016 19.4575 14.2554 19.0624 15.25 19.0624ZM32.75 19.0624C33.7446 19.0624 34.6984 19.4575 35.4017 20.1608C36.1049 20.864 36.5 21.8179 36.5 22.8124C36.5 23.807 36.1049 24.7608 35.4017 25.4641C34.6984 26.1674 33.7446 26.5624 32.75 26.5624C31.3 26.5624 30.05 25.7374 29.425 24.5374C30.5 23.1499 31.025 21.3749 30.8375 19.5874C31.4 19.2499 32.05 19.0624 32.75 19.0624ZM15.875 31.8749C15.875 29.2874 19.5125 27.1874 24 27.1874C28.4875 27.1874 32.125 29.2874 32.125 31.8749V34.0624H15.875V31.8749ZM9 34.0624V32.1874C9 30.4499 11.3625 28.9874 14.5625 28.5624C13.825 29.4124 13.375 30.5874 13.375 31.8749V34.0624H9ZM39 34.0624H34.625V31.8749C34.625 30.5874 34.175 29.4124 33.4375 28.5624C36.6375 28.9874 39 30.4499 39 32.1874V34.0624Z" fill="white"/>
</svg>
