<svg width="48" height="48" viewBox="0 0 48 48" fill="none" xmlns="http://www.w3.org/2000/svg">
<rect width="48" height="48" rx="24" fill="#34A853"/>
<path d="M35.3335 24.6667L37.2002 26.5467L28.4935 35.3334L23.8669 30.6667L25.7335 28.7867L28.4935 31.56L35.3335 24.6667ZM20.5335 30.6667L24.5335 34.6667H11.2002V32C11.2002 29.0534 15.9735 26.6667 21.8669 26.6667L24.3869 26.8134L20.5335 30.6667ZM21.8669 13.3334C23.2813 13.3334 24.6379 13.8953 25.6381 14.8955C26.6383 15.8957 27.2002 17.2522 27.2002 18.6667C27.2002 20.0812 26.6383 21.4377 25.6381 22.4379C24.6379 23.4381 23.2813 24 21.8669 24C20.4524 24 19.0958 23.4381 18.0956 22.4379C17.0954 21.4377 16.5335 20.0812 16.5335 18.6667C16.5335 17.2522 17.0954 15.8957 18.0956 14.8955C19.0958 13.8953 20.4524 13.3334 21.8669 13.3334Z" fill="white"/>
</svg>
