<svg width="48" height="48" viewBox="0 0 48 48" fill="none" xmlns="http://www.w3.org/2000/svg">
<rect width="48" height="48" rx="24" fill="#EA4335"/>
<path d="M27.6529 26.6666C31.2129 26.6666 38.3196 28.4399 38.3196 31.9999V34.6666H16.9863V31.9999C16.9863 28.4399 24.0929 26.6666 27.6529 26.6666ZM27.6529 23.9999C26.2385 23.9999 24.8819 23.438 23.8817 22.4378C22.8815 21.4376 22.3196 20.0811 22.3196 18.6666C22.3196 17.2521 22.8815 15.8955 23.8817 14.8953C24.8819 13.8952 26.2385 13.3333 27.6529 13.3333C29.0674 13.3333 30.424 13.8952 31.4242 14.8953C32.4244 15.8955 32.9863 17.2521 32.9863 18.6666C32.9863 20.0811 32.4244 21.4376 31.4242 22.4378C30.424 23.438 29.0674 23.9999 27.6529 23.9999ZM14.3196 20.7866L17.1463 17.9466L19.0396 19.8399L16.1996 22.6666L19.0396 25.4933L17.1463 27.3866L14.3196 24.5466L11.4929 27.3866L9.59961 25.4933L12.4396 22.6666L9.59961 19.8399L11.4929 17.9466L14.3196 20.7866Z" fill="white"/>
</svg>
