<svg width="48" height="48" viewBox="0 0 48 48" fill="none" xmlns="http://www.w3.org/2000/svg">
<rect width="48" height="48" rx="24" fill="#FD6612"/>
<path d="M36.9971 29.908C36.9971 33.819 33.8187 36.9973 29.9078 36.9973V35.225C32.8616 35.225 35.2247 32.8619 35.2247 29.908H36.9971ZM11.003 18.0925C11.003 14.1816 14.1813 11.0032 18.0923 11.0032V12.7756C15.1384 12.7756 12.7753 15.1387 12.7753 18.0925H11.003ZM19.2738 14.926L13.8505 20.3611C10.0459 24.1657 10.0459 30.3452 13.8505 34.1498C17.6551 37.9544 23.8346 37.9544 27.6392 34.1498L35.9928 25.7726C36.5717 25.2173 36.5717 24.2839 35.9928 23.7049C35.4138 23.1259 34.4804 23.1259 33.9014 23.7049L28.679 28.9273L27.8401 28.0884L35.5674 20.3611C36.1464 19.7822 36.1464 18.8487 35.5674 18.2698C34.9884 17.6908 34.0432 17.6908 33.4524 18.2698L26.5876 25.1818L25.7723 24.3193L33.8896 16.1784C34.4686 15.5995 34.4686 14.666 33.8896 14.0871C33.3106 13.5081 32.3772 13.5081 31.7983 14.0871L23.6574 22.228L22.8185 21.4009L29.317 14.926C29.9078 14.347 29.9078 13.4136 29.317 12.8346C28.7262 12.2557 27.8046 12.2557 27.2257 12.8346L18.2222 21.838C19.6637 23.6931 19.5338 26.3634 17.8323 28.0766L16.9934 27.2377C18.3758 25.8553 18.3758 23.6104 16.9934 22.228L16.5799 21.8144L21.3888 17.0055C21.9678 16.4265 21.9678 15.4931 21.3888 14.9142C20.798 14.347 19.8646 14.347 19.2738 14.926Z" fill="white"/>
</svg>
