<svg width="48" height="48" viewBox="0 0 48 48" fill="none" xmlns="http://www.w3.org/2000/svg">
<rect width="48" height="48" rx="24" fill="#F7B20F"/>
<path d="M28.1445 22.9875L26.9295 24.2295C25.9575 25.2015 25.35 26.025 25.35 28.05H22.65V27.375C22.65 25.8765 23.2575 24.5265 24.2295 23.5545L25.9035 21.8535C26.403 21.3675 26.7 20.6925 26.7 19.95C26.7 18.4515 25.485 17.25 24 17.25C23.2839 17.25 22.5972 17.5345 22.0908 18.0408C21.5845 18.5472 21.3 19.2339 21.3 19.95H18.6C18.6 18.5178 19.1689 17.1443 20.1816 16.1316C21.1943 15.1189 22.5678 14.55 24 14.55C25.4322 14.55 26.8057 15.1189 27.8184 16.1316C28.8311 17.1443 29.4 18.5178 29.4 19.95C29.4 21.138 28.914 22.2045 28.1445 22.9875ZM25.35 33.45H22.65V30.75H25.35M24 10.5C22.2272 10.5 20.4717 10.8492 18.8338 11.5276C17.1959 12.2061 15.7076 13.2005 14.4541 14.4541C11.9223 16.9858 10.5 20.4196 10.5 24C10.5 27.5804 11.9223 31.0142 14.4541 33.5459C15.7076 34.7995 17.1959 35.7939 18.8338 36.4724C20.4717 37.1508 22.2272 37.5 24 37.5C27.5804 37.5 31.0142 36.0777 33.5459 33.5459C36.0777 31.0142 37.5 27.5804 37.5 24C37.5 16.5345 31.425 10.5 24 10.5Z" fill="white"/>
</svg>
