<svg width="84" height="83" viewBox="0 0 84 83" fill="none" xmlns="http://www.w3.org/2000/svg">
<g filter="url(#filter0_d_8576_18262)">
<circle cx="42" cy="41" r="40" fill="white"/>
<circle cx="42" cy="41" r="39.7333" stroke="#E4E4E7" stroke-width="0.533333"/>
</g>
<path d="M21.667 67H63.0003" stroke="#263238" stroke-width="0.140926" stroke-linecap="round" stroke-linejoin="round"/>
<path d="M45.6297 22.6835C46.3301 22.6835 46.898 22.0841 46.898 21.3447C46.898 20.6053 46.3301 20.0059 45.6297 20.0059C44.9292 20.0059 44.3613 20.6053 44.3613 21.3447C44.3613 22.0841 44.9292 22.6835 45.6297 22.6835Z" fill="#263238" stroke="#263238" stroke-width="0.140926" stroke-linecap="round" stroke-linejoin="round"/>
<path d="M45.4421 52.5484C45.4421 52.5484 45.4886 56.7762 45.9579 59.1719C46.4272 61.5677 46.8978 64.5271 46.8978 64.5271C46.8978 64.5271 46.4286 66.3592 46.2876 66.4522C46.1467 66.5452 45.2067 67.1103 45.4886 67.3457C45.7704 67.581 48.4945 67.3457 48.4945 67.3457C48.4945 67.3457 48.8243 67.0159 48.7299 66.3592C48.6355 65.7025 48.6834 63.4927 48.6834 63.4927C48.6834 63.4927 48.9652 55.7897 48.9652 54.6144V52.2186L45.3477 51.9368L45.4421 52.5484Z" fill="white" stroke="#263238" stroke-width="0.140926" stroke-linecap="round" stroke-linejoin="round"/>
<path d="M48.7293 66.3593C48.6824 65.8384 48.6626 65.3153 48.6701 64.7922C48.5108 65.2925 48.1853 66.1606 47.7893 66.3593C47.2256 66.6412 46.287 66.4523 46.287 66.4523C46.1461 66.5468 45.2061 67.1105 45.488 67.3458C45.7698 67.5812 48.4939 67.3458 48.4939 67.3458C48.4939 67.3458 48.8237 67.0161 48.7293 66.3593Z" fill="#263238" stroke="#263238" stroke-width="0.140926" stroke-linecap="round" stroke-linejoin="round"/>
<path d="M53.4265 52.5484C53.4265 52.5484 53.38 56.7762 52.9107 59.1719C52.4414 61.5677 51.9707 64.5271 51.9707 64.5271C51.9707 64.5271 52.44 66.3592 52.5809 66.4522C52.7218 66.5452 53.6618 67.1103 53.38 67.3457C53.0981 67.581 50.374 67.3457 50.374 67.3457C50.374 67.3457 50.0442 67.0159 50.1387 66.3592C50.2331 65.7025 50.1852 63.4927 50.1852 63.4927C50.1852 63.4927 49.9033 55.7897 49.9033 54.6144V52.2186L53.5209 51.9368L53.4265 52.5484Z" fill="white" stroke="#263238" stroke-width="0.140926" stroke-linecap="round" stroke-linejoin="round"/>
<path d="M50.1391 66.3593C50.186 65.8384 50.2057 65.3153 50.1983 64.7922C50.3575 65.2925 50.683 66.1606 51.079 66.3593C51.6428 66.6412 52.5813 66.4523 52.5813 66.4523C52.7222 66.5468 53.6622 67.1105 53.3804 67.3458C53.0985 67.5812 50.3744 67.3458 50.3744 67.3458C50.3744 67.3458 50.0446 67.0161 50.1391 66.3593Z" fill="#263238" stroke="#263238" stroke-width="0.140926" stroke-linecap="round" stroke-linejoin="round"/>
<path d="M45.1599 36.1067C45.1599 36.1067 43.7506 39.7708 43.3279 42.5428C42.9051 45.3148 41.5423 50.6686 41.8242 51.0449C42.106 51.4212 42.9051 51.5142 42.9051 51.5142L42.8572 52.2667C42.8572 52.2667 44.4074 52.9234 45.911 52.9714C47.4147 53.0193 48.6351 52.5951 49.4807 52.7825C50.3263 52.9699 52.9109 53.1588 53.5676 52.7825C54.2243 52.4062 54.9768 52.0779 55.0248 51.8904C55.0491 51.6717 55.0491 51.451 55.0248 51.2323L55.7294 50.904C55.7294 50.904 55.5405 46.018 55.0713 43.1995C54.602 40.381 53.8973 38.0332 53.5676 37.1876C53.2378 36.342 52.0174 36.1532 52.0174 36.1532L45.1599 36.1067Z" fill="#263238" stroke="#263238" stroke-width="0.140926" stroke-linecap="round" stroke-linejoin="round"/>
<path d="M42.9053 51.514L43.2801 46.5815" stroke="#263238" stroke-width="0.140926" stroke-linecap="round" stroke-linejoin="round"/>
<path d="M55.0252 51.2323L54.1797 44.7976" stroke="#263238" stroke-width="0.140926" stroke-linecap="round" stroke-linejoin="round"/>
<path d="M47.3557 23.8813L47.1443 25.8895C47.1443 25.8895 43.1631 27.5102 43.0222 27.7216C42.8813 27.933 45.4532 36.459 45.4532 36.459C45.4532 36.459 46.7215 37.375 49.0116 37.3398C51.3016 37.3046 52.6052 36.1419 52.6052 36.1419C52.6052 36.1419 54.0497 27.7216 53.8031 27.2283C53.5564 26.7351 49.8571 25.6782 49.8571 25.6782L49.7867 24.1632L47.3557 23.8813Z" fill="#92B1CE" stroke="#263238" stroke-width="0.140926" stroke-linecap="round" stroke-linejoin="round"/>
<path d="M48.5535 30.6106L50.9112 25.998C50.3109 25.8078 49.8571 25.6781 49.8571 25.6781L49.7866 24.1632L47.0583 23.6333L47.1442 25.8881C47.1442 25.8881 46.8328 26.015 46.3818 26.2024L48.5535 30.6106Z" fill="white" stroke="#263238" stroke-width="0.140926" stroke-linecap="round" stroke-linejoin="round"/>
<path d="M49.832 25.1441L49.7869 24.1576L47.0586 23.6277L47.0797 24.1914C47.3813 24.5832 48.0944 25.4428 48.6623 25.6007C49.0428 25.712 49.4896 25.4372 49.832 25.1441Z" fill="#263238" stroke="#263238" stroke-width="0.140926" stroke-linecap="round" stroke-linejoin="round"/>
<path d="M46.1929 21.7674C46.1929 21.7674 46.1732 21.7195 46.1408 21.6533C46.0266 21.4193 45.7504 20.9486 45.5587 21.4151C45.3121 22.014 45.594 22.472 45.8406 22.7539C45.9079 22.8335 45.9986 22.8899 46.0997 22.9152C46.2009 22.9405 46.3074 22.9334 46.4043 22.8948C46.4043 22.8948 47.0737 24.0575 47.6022 24.6564C48.1306 25.2553 49.1524 25.361 49.5751 24.903C49.9979 24.445 50.5053 24.1026 50.7167 22.9752C50.7646 22.7229 50.7547 22.2254 50.7885 21.9408C50.8971 21.0653 50.9273 20.182 50.8787 19.3012C50.8083 18.5613 50.3502 17.4692 49.5047 17.0111C48.6591 16.5531 47.0032 16.7998 46.2281 17.7862C45.453 18.7727 45.2417 19.8297 45.5587 20.3229C45.7239 20.5673 45.8655 20.8268 45.9815 21.098L46.1929 21.7674Z" fill="white" stroke="#263238" stroke-width="0.140926" stroke-linecap="round" stroke-linejoin="round"/>
<path d="M45.6367 21.2799L46.1934 21.7675C46.1934 21.7675 46.1737 21.7196 46.1412 21.6534C46.0412 21.4505 45.8185 21.0671 45.6367 21.2799Z" fill="white" stroke="#263238" stroke-width="0.140926" stroke-linecap="round" stroke-linejoin="round"/>
<path d="M49.5047 17.0111C48.6591 16.5531 47.0032 16.7998 46.2281 17.7862C45.453 18.7727 45.2417 19.8297 45.5587 20.3229C45.7239 20.5673 45.8655 20.8268 45.9815 21.098L46.1929 21.7674C46.1929 21.7674 46.1929 20.8866 46.3338 20.5343C46.4748 20.182 47.1089 18.5261 48.8705 18.4909C50.6321 18.4556 50.5969 20.1468 50.773 20.5695C50.8011 20.6338 50.8391 20.6933 50.8858 20.7457C50.9147 20.2646 50.9124 19.782 50.8787 19.3012C50.8083 18.5613 50.3502 17.4692 49.5047 17.0111Z" fill="#263238" stroke="#263238" stroke-width="0.140926" stroke-linecap="round" stroke-linejoin="round"/>
<path d="M49.3985 21.2742C49.3985 21.2742 49.328 21.9788 49.4689 22.0493C49.6099 22.1197 49.9269 22.155 49.8565 22.4016C49.786 22.6482 49.4689 22.7187 49.4689 22.7187" stroke="#263238" stroke-width="0.140926" stroke-linecap="round" stroke-linejoin="round"/>
<path d="M48.0957 23.0359C48.0957 23.0359 48.3423 23.5644 49.364 23.5291" stroke="#263238" stroke-width="0.140926" stroke-linecap="round" stroke-linejoin="round"/>
<path d="M47.3203 21.6265C47.4757 21.5534 47.6462 21.5185 47.8178 21.5246C47.9894 21.5307 48.1571 21.5778 48.3068 21.6618" stroke="#263238" stroke-width="0.140926" stroke-linecap="round" stroke-linejoin="round"/>
<path d="M49.6455 21.6264C49.6455 21.6264 50.174 21.3798 50.4911 21.7321" stroke="#263238" stroke-width="0.140926" stroke-linecap="round" stroke-linejoin="round"/>
<path d="M47.25 20.8162C47.41 20.6353 47.6297 20.518 47.869 20.4856C48.1083 20.4533 48.3513 20.5081 48.5536 20.6401" stroke="#263238" stroke-width="0.140926" stroke-linecap="round" stroke-linejoin="round"/>
<path d="M49.5752 20.7809C49.5752 20.7809 50.2798 20.2525 50.7026 20.8162" stroke="#263238" stroke-width="0.140926" stroke-linecap="round" stroke-linejoin="round"/>
<path d="M43.9737 27.334C43.9737 27.334 42.6349 27.7215 42.5997 27.9329C42.5644 28.1443 43.4452 34.5917 43.4452 34.5917C43.4452 34.5917 42.9872 35.0145 43.1634 35.2611C43.3395 35.5077 43.7271 36.001 43.7271 36.001C43.6983 36.0934 43.6963 36.192 43.7212 36.2855C43.7462 36.3791 43.797 36.4636 43.868 36.5294C44.1146 36.7408 44.8193 39.4184 45.5239 40.6868C45.9822 41.4963 46.5129 42.2628 47.1093 42.9768C47.1093 42.9768 47.6025 43.8928 47.9549 44.1395C48.3072 44.3861 48.5538 44.5975 48.7652 44.4918C48.9766 44.3861 49.188 43.5405 49.2232 43.012C49.2584 42.4836 48.131 41.8142 47.9901 41.7437C47.8132 41.618 47.6481 41.4765 47.4969 41.3209C47.4969 41.3209 46.5456 39.3127 46.3694 38.3262C46.1933 37.3398 45.7353 35.8248 45.7353 35.8248C45.7353 35.8248 45.9819 35.2259 45.9819 35.0849C45.9819 34.944 45.5943 34.5917 45.5943 34.4508V33.3938L45.2773 29.7297" fill="#92B1CE"/>
<path d="M43.9737 27.334C43.9737 27.334 42.6349 27.7215 42.5997 27.9329C42.5644 28.1443 43.4452 34.5917 43.4452 34.5917C43.4452 34.5917 42.9872 35.0145 43.1634 35.2611C43.3395 35.5077 43.7271 36.001 43.7271 36.001C43.6983 36.0934 43.6963 36.192 43.7212 36.2855C43.7462 36.3791 43.797 36.4636 43.868 36.5294C44.1146 36.7408 44.8193 39.4184 45.5239 40.6868C45.9822 41.4963 46.5129 42.2628 47.1093 42.9768C47.1093 42.9768 47.6025 43.8928 47.9549 44.1395C48.3072 44.3861 48.5538 44.5975 48.7652 44.4918C48.9766 44.3861 49.188 43.5405 49.2232 43.012C49.2584 42.4836 48.131 41.8142 47.9901 41.7437C47.8132 41.618 47.6481 41.4765 47.4969 41.3209C47.4969 41.3209 46.5456 39.3127 46.3694 38.3262C46.1933 37.3398 45.7353 35.8248 45.7353 35.8248C45.7353 35.8248 45.9819 35.2259 45.9819 35.0849C45.9819 34.944 45.5943 34.5917 45.5943 34.4508V33.3938L45.2773 29.7297" stroke="#263238" stroke-width="0.140926" stroke-linecap="round" stroke-linejoin="round"/>
<path d="M47.9897 41.7439C47.8128 41.6183 47.6477 41.4768 47.4965 41.3212C47.4965 41.3212 46.5452 39.313 46.369 38.3265C46.2915 37.8938 46.1605 37.3597 46.0365 36.8961C45.1247 36.6058 44.5046 36.9637 44.1875 37.2442C44.5243 38.1785 45.0232 39.7808 45.5235 40.687C45.9818 41.4966 46.5125 42.2631 47.1089 42.977C47.1089 42.977 47.6021 43.8931 47.9545 44.1397C48.3068 44.3863 48.5534 44.5977 48.7648 44.492C48.9762 44.3863 49.1876 43.5407 49.2228 43.0123C49.258 42.4838 48.1306 41.8144 47.9897 41.7439Z" fill="white" stroke="#263238" stroke-width="0.140926" stroke-linecap="round" stroke-linejoin="round"/>
<path d="M44.0439 35.7544C44.0439 35.7544 44.9247 35.1555 45.5237 35.4021" stroke="#263238" stroke-width="0.140926" stroke-linecap="round" stroke-linejoin="round"/>
<path d="M43.4805 35.4017C43.4805 35.4017 44.6079 34.5914 45.3125 34.9437" stroke="#263238" stroke-width="0.140926" stroke-linecap="round" stroke-linejoin="round"/>
<path d="M52.4289 29.8705L52.147 34.7677C52.147 34.7677 51.5833 35.5428 51.6538 35.7542C51.6983 35.9028 51.7221 36.057 51.7242 36.2122L51.4071 36.5997L49.4342 41.8492C49.4342 41.8492 48.5886 42.4482 48.5534 42.5891C48.5182 42.73 48.2011 43.6813 48.2011 43.8927C48.2011 44.1041 48.1306 44.1041 48.3772 44.1041C48.6239 44.1041 48.9057 43.329 48.9057 43.329L48.8 44.245C48.5923 44.3072 48.3804 44.3543 48.1658 44.3859C48.0249 44.3859 48.3772 44.8792 48.9409 44.8087C49.5046 44.7382 49.857 44.4916 50.0331 43.9279C50.2093 43.3642 50.4559 41.6731 50.4559 41.6731C50.4559 41.6731 53.7324 37.3748 54.0495 36.8464C54.3666 36.3179 54.4723 35.8246 54.4371 35.578C54.3943 35.3295 54.4187 35.0741 54.5075 34.8381C54.6132 34.4858 54.6485 34.1687 54.578 34.0631C54.5075 33.9574 54.7189 30.5047 54.6132 29.3068C54.5075 28.1089 54.1904 27.51 53.8029 27.2281C53.4153 26.9463 52.7459 26.8406 52.7459 26.8406" fill="#92B1CE"/>
<path d="M52.4289 29.8705L52.147 34.7677C52.147 34.7677 51.5833 35.5428 51.6538 35.7542C51.6983 35.9028 51.7221 36.057 51.7242 36.2122L51.4071 36.5997L49.4342 41.8492C49.4342 41.8492 48.5886 42.4482 48.5534 42.5891C48.5182 42.73 48.2011 43.6813 48.2011 43.8927C48.2011 44.1041 48.1306 44.1041 48.3772 44.1041C48.6239 44.1041 48.9057 43.329 48.9057 43.329L48.8 44.245C48.5923 44.3072 48.3804 44.3543 48.1658 44.3859C48.0249 44.3859 48.3772 44.8792 48.9409 44.8087C49.5046 44.7382 49.857 44.4916 50.0331 43.9279C50.2093 43.3642 50.4559 41.6731 50.4559 41.6731C50.4559 41.6731 53.7324 37.3748 54.0495 36.8464C54.3666 36.3179 54.4723 35.8246 54.4371 35.578C54.3943 35.3295 54.4187 35.0741 54.5075 34.8381C54.6132 34.4858 54.6485 34.1687 54.578 34.0631C54.5075 33.9574 54.7189 30.5047 54.6132 29.3068C54.5075 28.1089 54.1904 27.51 53.8029 27.2281C53.4153 26.9463 52.7459 26.8406 52.7459 26.8406" stroke="#263238" stroke-width="0.140926" stroke-linecap="round" stroke-linejoin="round"/>
<path d="M51.3722 36.6844L49.4303 41.8494C49.4303 41.8494 48.5847 42.4483 48.5495 42.5892C48.5143 42.7302 48.1972 43.6814 48.1972 43.8928C48.1972 44.1042 48.1267 44.1042 48.3733 44.1042C48.6199 44.1042 48.9018 43.3291 48.9018 43.3291L48.7961 44.2451C48.5884 44.3073 48.3764 44.3544 48.1619 44.386C48.021 44.386 48.3733 44.8793 48.937 44.8088C49.5007 44.7384 49.8531 44.4917 50.0292 43.928C50.2054 43.3643 50.452 41.6732 50.452 41.6732C50.452 41.6732 52.5194 38.9618 53.5284 37.5863C52.9492 36.6379 51.9021 36.6224 51.3722 36.6844Z" fill="white" stroke="#263238" stroke-width="0.140926" stroke-linecap="round" stroke-linejoin="round"/>
<path d="M52.1113 35.9657C52.1113 35.9657 53.0978 35.4372 53.8024 36.1066" stroke="#263238" stroke-width="0.140926" stroke-linecap="round" stroke-linejoin="round"/>
<path d="M53.8385 35.2259C53.8385 35.2259 52.8168 35.0849 52.1826 35.6486" stroke="#263238" stroke-width="0.140926" stroke-linecap="round" stroke-linejoin="round"/>
<path d="M39.1817 64.3386L39.992 65.5252C39.992 65.5252 42.6499 66.9909 42.7528 67.0247C42.8557 67.0585 42.8557 67.3319 42.6851 67.3657C42.5146 67.3995 41.9002 67.4672 41.9002 67.4672H36.3124C36.3124 67.4672 36.1715 66.9232 36.1067 66.6216C36.0419 66.3201 36.2096 65.3265 36.2096 65.3265L36.2434 64.4401L39.1817 64.3386Z" fill="white" stroke="#263238" stroke-width="0.140926" stroke-linecap="round" stroke-linejoin="round"/>
<path d="M30.1628 38.1742L30.3502 43.7169L31.1493 62.1782L30.8209 63.1647L31.2902 64.6684C31.2902 64.6684 31.8539 64.1047 32.5585 64.4331C32.9717 64.6223 33.3522 64.8758 33.6859 65.1842C33.8278 64.9264 33.9535 64.66 34.0622 64.3866C34.1641 64.0515 34.2117 63.7023 34.2031 63.3522C34.2031 63.2112 34.8599 62.5545 34.8599 62.3192C34.8599 62.0838 34.2962 61.0973 34.2962 61.0973L35.1896 43.576L36.2226 62.0838C36.2226 62.0838 35.9408 62.4136 35.9408 62.5545C35.9408 62.6954 36.317 64.9503 36.317 64.9503C36.317 64.9503 36.3635 64.9968 36.9272 64.9968C37.491 64.9968 38.2421 64.8558 38.4774 64.6205C38.7128 64.3852 39.1821 64.3386 39.1821 64.3386L39.2765 63.3057L39.0876 62.5545L39.6993 51.186V39.7244L39.7458 37.9854L30.0684 37.8445L30.1628 38.1742Z" fill="#263238" stroke="#263238" stroke-width="0.140926" stroke-linecap="round" stroke-linejoin="round"/>
<path d="M31.9482 23.8462L28.5181 25.6782L26.4521 33.4757L23.7266 37.657L24.713 38.456L28.3771 34.885L29.4115 33.5701L29.7864 35.9659C29.7864 35.9659 29.0818 37.657 29.458 37.9853C29.7257 38.2045 30.0269 38.3791 30.3501 38.5025H39.7457C39.8284 38.2256 39.891 37.943 39.9331 37.657C39.9331 37.4695 39.6992 35.8714 39.6992 35.8714L39.8401 32.5836L40.3559 35.4966L40.8266 40.6164L42.2358 40.5699L42.5177 33.711L40.5447 25.6782L36.5988 24.0336L31.9482 23.8462Z" fill="white" stroke="#263238" stroke-width="0.140926" stroke-linecap="round" stroke-linejoin="round"/>
<path d="M32.8045 22.543L32.1351 22.6135L31.501 23.8114L31.959 26.7356L34.1081 25.2206L36.2572 26.8061L36.9971 23.7761L36.1163 22.5078L32.8045 22.543Z" fill="white" stroke="#263238" stroke-width="0.140926" stroke-linecap="round" stroke-linejoin="round"/>
<path d="M32.594 21.4508L32.4883 23.2476L34.2499 25.3615L35.8353 23.1771L35.6944 21.4155C35.6944 21.4155 33.8623 21.9088 32.594 21.4508Z" fill="white" stroke="#263238" stroke-width="0.140926" stroke-linecap="round" stroke-linejoin="round"/>
<path d="M35.7485 22.099L35.6936 21.4155C35.6936 21.4155 33.8615 21.9088 32.5932 21.4508L32.5664 21.9045C32.8342 22.3978 33.4458 23.3674 34.149 23.428C34.7423 23.4787 35.3638 22.6937 35.7485 22.099Z" fill="#263238" stroke="#263238" stroke-width="0.140926" stroke-linecap="round" stroke-linejoin="round"/>
<path d="M31.7129 18.597C31.7129 18.597 31.4663 18.0685 31.3254 18.4913C31.1844 18.9141 31.7481 19.7949 31.7481 19.7949L31.8538 18.6323L31.7129 18.597Z" fill="white" stroke="#263238" stroke-width="0.140926" stroke-linecap="round" stroke-linejoin="round"/>
<path d="M36.4114 18.597C36.4114 18.597 36.6581 18.0685 36.799 18.4913C36.9399 18.9141 36.3762 19.7949 36.3762 19.7949L36.2705 18.6323L36.4114 18.597Z" fill="white" stroke="#263238" stroke-width="0.140926" stroke-linecap="round" stroke-linejoin="round"/>
<path d="M36.2223 19.1958C36.2223 19.1958 36.2927 19.231 36.3984 18.9844C36.5041 18.7378 36.5746 17.3285 36.5746 17.3285C36.5746 17.3285 37.2792 16.2716 36.8917 15.5317C36.5041 14.7918 35.2005 14.4747 34.2493 14.2634C33.298 14.052 31.8535 14.4395 31.3955 14.968C30.9375 15.4965 30.4795 16.1306 30.7614 16.4829C31.0383 16.7836 31.3452 17.0551 31.6774 17.2933C31.6774 17.2933 31.5717 18.3855 31.7126 18.5968L31.8535 18.8082L32.0297 17.3637C32.0297 17.3637 33.2628 17.2228 34.0027 16.9762C34.7425 16.7296 35.0948 16.6239 35.0948 16.6239C35.0948 16.6239 35.4119 17.2228 35.6586 17.399C35.7901 17.4878 35.9087 17.5945 36.0109 17.7161L36.2223 19.1958Z" fill="#263238" stroke="#263238" stroke-width="0.140926" stroke-linecap="round" stroke-linejoin="round"/>
<path d="M31.8884 17.0819C31.8884 17.0819 31.6418 20.1471 31.8532 20.6051C32.0646 21.0631 32.9454 22.7542 34.3194 22.6133C35.6934 22.4724 36.2219 21.0983 36.2924 20.288C36.3628 19.4777 36.2219 17.2933 36.2219 17.2933C36.2219 17.2933 35.5525 17.0115 35.482 16.7296C35.435 16.4858 35.4114 16.238 35.4116 15.9897C35.4116 15.9897 33.3329 17.2581 31.8884 17.0819Z" fill="white" stroke="#263238" stroke-width="0.140926" stroke-linecap="round" stroke-linejoin="round"/>
<path d="M34.1796 19.7241C33.8067 19.7685 33.4532 19.9148 33.1579 20.1469C32.6647 20.5344 32.3828 20.5697 32.3828 20.5697C32.3828 20.5697 33.017 21.3448 33.9682 21.3448C34.9195 21.3448 35.5184 20.8868 35.6241 20.5697L35.7298 20.2526C35.3766 20.2127 35.0318 20.1176 34.7081 19.9707C34.541 19.8703 34.3639 19.7877 34.1796 19.7241Z" fill="#263238" stroke="#263238" stroke-width="0.140926" stroke-linecap="round" stroke-linejoin="round"/>
<path d="M33.8262 18.9844C33.8262 18.9844 33.7558 19.7595 33.8262 19.9004C33.8967 20.0413 34.4252 20.3232 34.4956 20.0061C34.5661 19.689 34.4956 18.9844 34.4956 18.9844" fill="white"/>
<path d="M33.8262 18.9844C33.8262 18.9844 33.7558 19.7595 33.8262 19.9004C33.8967 20.0413 34.4252 20.3232 34.4956 20.0061C34.5661 19.689 34.4956 18.9844 34.4956 18.9844" stroke="#263238" stroke-width="0.140926" stroke-linecap="round" stroke-linejoin="round"/>
<path d="M33.0343 18.9491C33.1417 18.9491 33.2288 18.8386 33.2288 18.7024C33.2288 18.5662 33.1417 18.4558 33.0343 18.4558C32.9269 18.4558 32.8398 18.5662 32.8398 18.7024C32.8398 18.8386 32.9269 18.9491 33.0343 18.9491Z" fill="#263238"/>
<path d="M35.13 18.9491C35.2374 18.9491 35.3245 18.8386 35.3245 18.7024C35.3245 18.5662 35.2374 18.4558 35.13 18.4558C35.0226 18.4558 34.9355 18.5662 34.9355 18.7024C34.9355 18.8386 35.0226 18.9491 35.13 18.9491Z" fill="#263238"/>
<path d="M32.4531 18.0333C32.4531 18.0333 32.6293 17.4696 33.5101 17.7867" stroke="#263238" stroke-width="0.140926" stroke-linecap="round" stroke-linejoin="round"/>
<path d="M34.5312 17.7514C34.5312 17.7514 35.0245 17.2934 35.6234 17.8924" stroke="#263238" stroke-width="0.140926" stroke-linecap="round" stroke-linejoin="round"/>
<path d="M28.7063 28.2617L29.411 33.5704L28.0947 29.7189" stroke="#263238" stroke-width="0.140926" stroke-linecap="round" stroke-linejoin="round"/>
<path d="M34.25 25.8657L34.7193 35.7785" stroke="#263238" stroke-width="0.140926" stroke-linecap="round" stroke-linejoin="round"/>
<path d="M39.8398 32.5836L39.8863 27.8386" stroke="#263238" stroke-width="0.140926" stroke-linecap="round" stroke-linejoin="round"/>
<path d="M34.3906 43.7169L36.2692 42.543" stroke="#808080" stroke-width="0.140926" stroke-linecap="round" stroke-linejoin="round"/>
<path d="M31.404 64.5121L30.9953 65.8072C30.9953 65.8072 30.0413 67.3405 30.0751 67.4772C30.1089 67.6139 33.8576 67.4772 33.8576 67.4772C33.8576 67.4772 34.131 67.4772 34.0971 66.898C34.0358 66.3145 33.9446 65.7345 33.8237 65.1604C33.8237 65.1604 33.4151 64.1034 32.6315 63.9329C31.848 63.7624 31.404 64.3078 31.404 64.5121Z" fill="white" stroke="#263238" stroke-width="0.140926" stroke-linecap="round" stroke-linejoin="round"/>
<path d="M42.3093 42.7742L42.0359 44.5062L41.8809 44.4286L42.3093 42.7742Z" stroke="#263238" stroke-width="0.140926" stroke-linecap="round" stroke-linejoin="round"/>
<path d="M40.8266 40.6164L40.5039 42.1496L40.6448 43.7322L40.876 43.7576L40.9633 42.6415L41.1268 44.4214L41.8159 44.5524C41.8159 44.5524 42.2754 43.0431 42.3092 42.781C42.343 42.5189 42.2359 40.5769 42.2359 40.5769L40.8266 40.6164Z" fill="white" stroke="#263238" stroke-width="0.140926" stroke-linecap="round" stroke-linejoin="round"/>
<path d="M41.3145 44.4019L41.5723 42.4966" stroke="#263238" stroke-width="0.140926" stroke-linecap="round" stroke-linejoin="round"/>
<path d="M41.5195 44.4796L41.9832 42.6504" stroke="#263238" stroke-width="0.140926" stroke-linecap="round" stroke-linejoin="round"/>
<path d="M23.7264 37.657C23.7264 37.657 22.599 38.1742 22.3171 38.2672C22.0353 38.3602 21.9423 38.69 21.6125 38.9253C21.2827 39.1607 20.8614 39.4425 21.0967 39.5355C21.2624 39.5923 21.4392 39.6087 21.6125 39.5834L22.0353 39.0662L21.2842 40.7109L21.2376 41.3211L21.8014 41.5564L23.1162 40.8518L24.7129 38.456L23.7264 37.657Z" fill="white" stroke="#263238" stroke-width="0.140926" stroke-linecap="round" stroke-linejoin="round"/>
<path d="M22.0352 39.0661C22.0352 39.0661 22.5876 39.5297 22.93 39.4325C23.2725 39.3353 23.5417 38.625 23.5417 38.625" fill="white"/>
<path d="M22.0352 39.0661C22.0352 39.0661 22.5876 39.5297 22.93 39.4325C23.2725 39.3353 23.5417 38.625 23.5417 38.625" stroke="#263238" stroke-width="0.140926" stroke-linecap="round" stroke-linejoin="round"/>
<path d="M21.291 41.0718L22.0746 39.9219" stroke="#263238" stroke-width="0.140926" stroke-linecap="round" stroke-linejoin="round"/>
<path d="M21.5127 41.3888L22.4174 40.0923" stroke="#263238" stroke-width="0.140926" stroke-linecap="round" stroke-linejoin="round"/>
<path d="M21.8018 41.5567L22.8573 40.2883" stroke="#263238" stroke-width="0.140926" stroke-linecap="round" stroke-linejoin="round"/>
<defs>
<filter id="filter0_d_8576_18262" x="0.933333" y="0.466667" width="82.1333" height="82.1333" filterUnits="userSpaceOnUse" color-interpolation-filters="sRGB">
<feFlood flood-opacity="0" result="BackgroundImageFix"/>
<feColorMatrix in="SourceAlpha" type="matrix" values="0 0 0 0 0 0 0 0 0 0 0 0 0 0 0 0 0 0 127 0" result="hardAlpha"/>
<feOffset dy="0.533333"/>
<feGaussianBlur stdDeviation="0.533333"/>
<feComposite in2="hardAlpha" operator="out"/>
<feColorMatrix type="matrix" values="0 0 0 0 0 0 0 0 0 0 0 0 0 0 0 0 0 0 0.02 0"/>
<feBlend mode="normal" in2="BackgroundImageFix" result="effect1_dropShadow_8576_18262"/>
<feBlend mode="normal" in="SourceGraphic" in2="effect1_dropShadow_8576_18262" result="shape"/>
</filter>
</defs>
</svg>
