<svg width="344" height="343" viewBox="0 0 344 343" fill="none" xmlns="http://www.w3.org/2000/svg">
<path d="M234.303 295.819L234.102 295.636L233.9 295.82L230.443 298.961L226.995 295.82L226.793 295.636L226.591 295.819L223.126 298.961L219.669 295.82L219.468 295.636L219.266 295.819L215.801 298.961L212.352 295.82L212.15 295.636L211.948 295.82L208.491 298.961L205.026 295.819L204.825 295.636L204.623 295.82L201.166 298.961L197.718 295.82L197.516 295.636L197.314 295.82L193.857 298.961L190.392 295.819L190.19 295.636L189.988 295.82L186.539 298.961L183.083 295.82L182.881 295.636L182.679 295.819L179.215 298.961L175.758 295.82L175.556 295.636L175.354 295.82L171.897 298.961L168.44 295.82L168.238 295.636L168.037 295.82L164.58 298.961L161.123 295.82L160.921 295.636L160.719 295.82L157.263 298.961L153.806 295.82L153.604 295.636L153.402 295.819L149.938 298.961L146.489 295.82L146.287 295.636L146.085 295.82L142.628 298.961L139.163 295.819L138.961 295.636L138.76 295.82L135.303 298.961L131.854 295.82L131.652 295.636L131.45 295.819L127.986 298.961L124.529 295.82L124.327 295.636L124.125 295.82L120.676 298.961L117.211 295.819L117.009 295.636L116.808 295.82L113.351 298.961L109.894 295.82L109.692 295.636L109.49 295.82L106.034 298.961L102.675 295.909V46.4484L106.034 43.3893L109.49 46.5377L109.692 46.7218L109.894 46.5377L113.351 43.3893L116.807 46.5377L117.009 46.7216L117.211 46.5379L120.676 43.3893L124.124 46.5375L124.327 46.722L124.529 46.5377L127.986 43.3891L131.45 46.5379L131.652 46.7218L131.854 46.5375L135.303 43.3895L138.759 46.5377L138.961 46.7216L139.163 46.5379L142.628 43.3891L146.084 46.5377L146.287 46.722L146.489 46.5375L149.938 43.3893L153.402 46.5379L153.604 46.7216L153.806 46.5377L157.263 43.3893L160.719 46.5377L160.921 46.7218L161.123 46.5377L164.58 43.3893L168.036 46.5377L168.238 46.7218L168.441 46.5377L171.897 43.3893L175.354 46.5377L175.556 46.7218L175.758 46.5377L179.215 43.3891L182.679 46.5379L182.881 46.7216L183.083 46.5377L186.539 43.3895L189.988 46.5375L190.19 46.7218L190.392 46.5379L193.857 43.3891L197.313 46.5377L197.516 46.722L197.718 46.5375L201.166 43.3895L204.623 46.5377L204.825 46.7216L205.027 46.5379L208.491 43.3891L211.948 46.5377L212.15 46.722L212.352 46.5375L215.801 43.3893L219.265 46.5379L219.468 46.7216L219.669 46.5377L223.126 43.3891L226.591 46.5379L226.793 46.7218L226.995 46.5375L230.443 43.3895L233.9 46.5377L234.102 46.7216L234.304 46.5379L237.768 43.3893L241.119 46.4482V295.909L237.768 298.961L234.303 295.819Z" fill="white" stroke="#263238" stroke-width="0.600324"/>
<path d="M241.443 46.3154C241.443 46.3949 241.84 296.232 241.626 296.24L237.975 299.565L237.792 299.732L237.601 299.565L233.942 296.248H234.284L230.626 299.573L230.435 299.74L230.244 299.573L226.593 296.256H226.975L223.309 299.573L223.118 299.748L222.927 299.573L219.26 296.256H219.65L215.991 299.581L215.8 299.764L215.602 299.581L211.943 296.264H212.341L208.682 299.589L208.483 299.772L208.276 299.589L204.618 296.272H205.023L201.365 299.589L201.158 299.78L200.951 299.589L197.3 296.272H197.698L194.039 299.597L193.833 299.787L193.618 299.597L189.951 296.28H190.381L186.73 299.597L186.515 299.795L186.301 299.597L182.634 296.288H183.071L179.413 299.605L179.19 299.803L178.967 299.605L175.309 296.288H175.754L172.104 299.612L171.881 299.811L171.65 299.612L167.992 296.296H168.445L164.786 299.612L164.556 299.819L164.325 299.612L160.666 296.296H161.128L157.469 299.62L157.238 299.835L157.008 299.62L153.341 296.304H153.81L150.152 299.628L149.913 299.843L149.674 299.628L146.024 296.312H146.501L142.842 299.628L142.604 299.851L142.357 299.628L138.699 296.312H139.184L135.525 299.636L135.279 299.859L135.032 299.636L131.373 296.32H131.874L128.216 299.636L127.961 299.867L127.715 299.636L124.048 296.32H124.557L120.906 299.644L120.652 299.875L120.397 299.644L116.731 296.328H117.248L113.589 299.652L113.327 299.883L113.064 299.652L109.406 296.336H109.931L106.28 299.652L106.009 299.891L105.747 299.652L102.088 296.336L101.953 296.216V296.041C101.953 296.041 101.953 46.1007 102.176 46.1245L105.842 42.7999L106.009 42.6409L106.184 42.7999L109.835 46.1245H109.493L113.16 42.7999L113.327 42.6488L113.494 42.7999L117.152 46.1325H116.826L120.485 42.8079L120.652 42.6568L120.811 42.8079L124.525 46.1325H124.207L127.866 42.8079L128.025 42.6647L128.184 42.8079L131.843 46.1404H131.532L135.191 42.8158L135.342 42.6727L135.493 42.8158L139.152 46.1484H138.842L142.508 42.8238L142.659 42.6886L142.811 42.8238L146.469 46.1484H146.175L149.826 42.8238L149.969 42.6965L150.12 42.8238L153.779 46.1563H153.492L157.151 42.8318L157.294 42.7045L157.437 42.8318L161.096 46.1643H160.817L164.476 42.8397L164.611 42.7125L164.746 42.8397L168.405 46.1643H168.135L171.809 42.8477L171.937 42.7363L172.056 42.8477L175.707 46.1802H175.428L179.095 42.8636L179.206 42.7602L179.317 42.8636L182.976 46.1961H182.761L186.428 42.8795L186.531 42.784L186.627 42.8795L190.277 46.212H190.087L193.761 42.8874L193.849 42.8158L193.928 42.8874L197.587 46.2279H197.428L201.086 42.9033L201.158 42.8397L201.229 42.9033L204.888 46.2438H204.753L208.42 42.9192L208.483 42.8636L208.539 42.9192L212.197 46.2518H212.094L215.753 42.9352H215.8H215.84L219.499 46.2677H219.419L223.086 42.9511L226.744 46.2836H226.689L230.347 42.967C230.347 42.967 234.094 46.3313 233.982 46.2995L237.649 42.9749C237.649 42.9749 241.292 46.3154 241.307 46.3154H241.443ZM241.443 46.3154L237.784 42.9908C237.84 42.9908 234.125 46.3313 234.141 46.3313C234.157 46.3313 230.467 43.0147 230.443 43.0067H230.483L226.84 46.3393L223.173 43.0226H223.149L219.499 46.3552L219.459 46.3949L219.419 46.3552L215.753 43.0385H215.84L212.197 46.3711L212.142 46.4188L212.094 46.3711L208.42 43.0545H208.539L204.896 46.4268H204.856L204.785 46.3711L201.118 43.0465H201.261L197.595 46.4268L197.515 46.4983L197.436 46.4268L193.769 43.1022H193.936L190.285 46.4268L190.19 46.5063L190.094 46.4268L186.436 43.1022H186.635L182.984 46.4268L182.881 46.5222L182.769 46.4268L179.103 43.1101H179.325L175.675 46.4268L175.555 46.5381L175.428 46.4268L171.769 43.1101H172.016L168.373 46.4268L168.238 46.5461L168.103 46.4268L164.444 43.1022H164.715L161.064 46.4347L160.921 46.562L160.786 46.4347L157.135 43.1419H157.421L153.763 46.4665L153.619 46.6017L153.476 46.4665L149.81 43.1419H150.104L146.453 46.4745L146.302 46.6097L146.159 46.4745L142.492 43.1499H142.787L139.128 46.4824L138.977 46.6177L138.826 46.4824L135.167 43.1578H135.469L131.819 46.4824L131.668 46.6256L131.509 46.4824L127.842 43.1578H128.16L124.525 46.4904L124.366 46.6336L124.207 46.4904L120.549 43.1658H120.875L117.216 46.4983L117.049 46.6415L116.89 46.4983L113.223 43.1738H113.557L109.899 46.4983L109.732 46.6574L109.557 46.4983L105.906 43.1738H106.232L102.574 46.5063C102.764 45.4246 102.748 296.312 102.796 296.041L102.669 295.747L106.328 299.072H105.795L109.453 295.755L109.716 295.516L109.978 295.755L113.637 299.08H113.112L116.779 295.763L117.033 295.524L117.296 295.763L120.954 299.08H120.445L124.096 295.763L124.35 295.532L124.605 295.763L128.264 299.088H127.707L131.365 295.771L131.62 295.54L131.866 295.771L135.517 299.088H135.024L138.691 295.771L138.929 295.556L139.176 295.771L142.834 299.096H142.349L146.016 295.779L146.254 295.564L146.493 295.779L150.144 299.103H149.674L153.333 295.787L153.572 295.572L153.802 295.787L157.461 299.103H157L160.658 295.787L160.897 295.58L161.128 295.787L164.778 299.111H164.317L167.984 295.795L168.206 295.588L168.437 295.795L172.096 299.119H171.642L175.301 295.803L175.524 295.596L175.746 295.803L179.405 299.119H178.967L182.626 295.803L182.849 295.604L183.064 295.803L186.722 299.127H186.293L189.943 295.811L190.158 295.612L190.373 295.811L194.032 299.127H193.61L197.277 295.811L197.483 295.628L197.69 295.811L201.341 299.135H200.927L204.594 295.819L204.801 295.636L204.999 295.819L208.658 299.143H208.252L211.919 295.827L212.118 295.644L212.317 295.827L215.967 299.143H215.578L219.236 295.827L219.435 295.652L219.626 295.827L223.285 299.151H222.903L226.57 295.835L226.76 295.66L226.951 295.835L230.602 299.151H230.22L233.887 295.842L234.07 295.668L234.261 295.842L237.919 299.159H237.545L241.204 295.842C241.037 297.036 241.411 45.9893 241.387 46.3154H241.443Z" fill="#263238"/>
<path d="M165.449 65.8337C165.449 66.3428 165.317 66.7712 165.054 67.119C164.791 67.4584 164.435 67.7171 163.985 67.8953C163.544 68.0735 163.061 68.1625 162.535 68.1625H158.17V59.1273H163.005C163.43 59.1273 163.794 59.2418 164.1 59.4709C164.414 59.6915 164.651 59.9799 164.812 60.3362C164.982 60.6841 165.067 61.0489 165.067 61.4306C165.067 61.8633 164.957 62.2748 164.736 62.665C164.516 63.0553 164.193 63.3437 163.769 63.5304C164.286 63.6831 164.694 63.9588 164.991 64.3576C165.296 64.7563 165.449 65.2484 165.449 65.8337ZM163.68 65.5029C163.68 65.2738 163.633 65.0702 163.54 64.892C163.447 64.7054 163.319 64.5612 163.158 64.4594C163.005 64.3491 162.827 64.2939 162.624 64.2939H159.926V66.6736H162.535C162.747 66.6736 162.938 66.6227 163.107 66.5209C163.285 66.4106 163.425 66.2664 163.527 66.0882C163.629 65.9101 163.68 65.715 163.68 65.5029ZM159.926 60.6289V62.9068H162.267C162.462 62.9068 162.641 62.8602 162.802 62.7668C162.963 62.6735 163.09 62.542 163.184 62.3723C163.285 62.2027 163.336 61.9991 163.336 61.7615C163.336 61.5324 163.29 61.3331 163.196 61.1634C163.111 60.9937 162.993 60.8622 162.84 60.7689C162.696 60.6756 162.53 60.6289 162.344 60.6289H159.926ZM167.837 68.1625V59.1273H169.593V68.1625H167.837ZM172.497 68.1625V59.1273H174.253V66.6227H178.859V68.1625H172.497ZM180.946 68.1625V59.1273H182.702V66.6227H187.309V68.1625H180.946Z" fill="#263238"/>
<path d="M153.157 276.96H151.98V280.937C151.981 280.99 151.972 281.043 151.952 281.093C151.932 281.143 151.902 281.188 151.864 281.226C151.826 281.264 151.781 281.294 151.731 281.314C151.681 281.334 151.628 281.343 151.575 281.342C151.467 281.342 151.364 281.3 151.288 281.223C151.212 281.147 151.169 281.044 151.169 280.937V276.96H149.976C149.922 276.96 149.869 276.949 149.819 276.928C149.769 276.907 149.724 276.877 149.686 276.838C149.649 276.8 149.619 276.754 149.599 276.704C149.579 276.654 149.569 276.6 149.57 276.546C149.569 276.493 149.579 276.439 149.599 276.39C149.619 276.34 149.649 276.295 149.687 276.257C149.725 276.219 149.77 276.189 149.82 276.169C149.869 276.149 149.922 276.14 149.976 276.141H153.157C153.265 276.141 153.368 276.183 153.444 276.259C153.52 276.336 153.563 276.439 153.563 276.546C153.563 276.655 153.521 276.759 153.445 276.836C153.369 276.913 153.266 276.958 153.157 276.96Z" fill="#263238"/>
<path d="M154.75 280.905V276.546C154.749 276.493 154.759 276.439 154.779 276.39C154.799 276.34 154.829 276.295 154.866 276.257C154.904 276.219 154.95 276.189 154.999 276.169C155.049 276.149 155.102 276.14 155.156 276.141C155.21 276.14 155.263 276.149 155.313 276.169C155.364 276.189 155.409 276.219 155.448 276.257C155.486 276.294 155.517 276.339 155.538 276.389C155.559 276.439 155.569 276.492 155.569 276.546V278.32H157.486V276.546C157.485 276.493 157.495 276.439 157.515 276.39C157.535 276.34 157.565 276.295 157.602 276.257C157.64 276.219 157.686 276.189 157.735 276.169C157.785 276.149 157.838 276.14 157.892 276.141C157.946 276.14 157.999 276.149 158.049 276.169C158.1 276.189 158.145 276.219 158.184 276.257C158.222 276.294 158.253 276.339 158.274 276.389C158.295 276.439 158.305 276.492 158.305 276.546V280.905C158.305 280.959 158.295 281.012 158.274 281.062C158.253 281.112 158.222 281.157 158.184 281.194C158.145 281.232 158.1 281.262 158.049 281.282C157.999 281.302 157.946 281.312 157.892 281.31C157.838 281.312 157.785 281.302 157.735 281.282C157.686 281.262 157.64 281.232 157.602 281.194C157.565 281.156 157.535 281.111 157.515 281.061C157.495 281.012 157.485 280.958 157.486 280.905V279.131H155.569V280.905C155.569 280.959 155.559 281.012 155.538 281.062C155.517 281.112 155.486 281.157 155.448 281.194C155.409 281.232 155.364 281.262 155.313 281.282C155.263 281.302 155.21 281.312 155.156 281.31C155.102 281.312 155.049 281.302 154.999 281.282C154.95 281.262 154.904 281.232 154.866 281.194C154.829 281.156 154.799 281.111 154.779 281.061C154.759 281.012 154.749 280.958 154.75 280.905Z" fill="#263238"/>
<path d="M162.169 280.095H160.372L160.014 281.057C159.981 281.133 159.927 281.198 159.857 281.243C159.788 281.289 159.707 281.312 159.624 281.312C159.579 281.32 159.534 281.32 159.489 281.312C159.388 281.271 159.306 281.193 159.26 281.094C159.215 280.995 159.208 280.883 159.242 280.779L160.873 276.428C160.905 276.35 160.96 276.282 161.031 276.236C161.102 276.189 161.186 276.164 161.271 276.166C161.355 276.163 161.438 276.186 161.508 276.233C161.578 276.281 161.632 276.349 161.66 276.428L163.291 280.779C163.325 280.882 163.32 280.993 163.276 281.092C163.232 281.191 163.152 281.27 163.052 281.312C163.005 281.32 162.956 281.32 162.909 281.312C162.827 281.313 162.747 281.289 162.679 281.244C162.611 281.198 162.558 281.133 162.527 281.057L162.169 280.095ZM161.867 279.3L161.271 277.709L160.666 279.3H161.867Z" fill="#263238"/>
<path d="M165.09 280.907C165.088 281.014 165.044 281.116 164.969 281.192C164.893 281.267 164.791 281.311 164.684 281.313C164.576 281.313 164.473 281.27 164.397 281.194C164.321 281.118 164.278 281.015 164.278 280.907V276.62C164.272 276.533 164.295 276.447 164.343 276.374C164.39 276.301 164.461 276.246 164.543 276.217C164.625 276.188 164.715 276.187 164.798 276.214C164.881 276.241 164.953 276.294 165.002 276.366L167.388 279.666V276.628C167.39 276.521 167.434 276.419 167.509 276.344C167.585 276.268 167.687 276.225 167.794 276.223C167.9 276.226 168.001 276.27 168.076 276.346C168.152 276.421 168.196 276.522 168.199 276.628V280.915C168.197 281.022 168.154 281.124 168.078 281.2C168.003 281.275 167.901 281.319 167.794 281.321C167.736 281.321 167.679 281.308 167.627 281.283C167.574 281.258 167.528 281.222 167.492 281.178L167.452 281.13L165.09 277.877V280.907Z" fill="#263238"/>
<path d="M170.004 280.906V276.587C170.022 276.496 170.072 276.413 170.145 276.353C170.217 276.294 170.308 276.262 170.402 276.262C170.495 276.262 170.586 276.294 170.659 276.353C170.731 276.413 170.781 276.496 170.799 276.587V278.671L173.185 276.285C173.222 276.246 173.266 276.214 173.315 276.193C173.365 276.171 173.418 276.16 173.472 276.16C173.525 276.16 173.579 276.171 173.628 276.193C173.677 276.214 173.721 276.246 173.758 276.285C173.834 276.361 173.876 276.464 173.876 276.571C173.876 276.679 173.834 276.782 173.758 276.858L172.167 278.449L173.806 280.604C173.841 280.644 173.867 280.691 173.883 280.741C173.899 280.792 173.905 280.845 173.9 280.898C173.895 280.951 173.879 281.002 173.853 281.049C173.827 281.095 173.792 281.136 173.75 281.169C173.678 281.233 173.584 281.267 173.488 281.264C173.43 281.264 173.373 281.251 173.32 281.227C173.268 281.202 173.222 281.166 173.185 281.121L171.595 279.029L170.799 279.824V280.874C170.781 280.966 170.731 281.049 170.659 281.108C170.586 281.168 170.495 281.2 170.402 281.2C170.308 281.2 170.217 281.168 170.145 281.108C170.072 281.049 170.022 280.966 170.004 280.874V280.906Z" fill="#263238"/>
<path d="M181.1 276.841L179.588 278.917V280.905C179.564 280.991 179.512 281.068 179.44 281.122C179.368 281.176 179.281 281.205 179.191 281.205C179.101 281.205 179.013 281.176 178.942 281.122C178.87 281.068 178.818 280.991 178.793 280.905V278.917L177.298 276.841C177.264 276.799 177.239 276.751 177.225 276.7C177.211 276.648 177.207 276.594 177.215 276.541C177.222 276.488 177.241 276.437 177.268 276.392C177.296 276.346 177.334 276.307 177.377 276.276C177.42 276.244 177.468 276.221 177.52 276.208C177.572 276.195 177.626 276.192 177.678 276.2C177.731 276.208 177.781 276.227 177.827 276.255C177.872 276.283 177.911 276.32 177.942 276.364L179.199 278.089L180.463 276.364C180.527 276.276 180.622 276.217 180.729 276.2C180.835 276.183 180.944 276.209 181.032 276.272C181.12 276.335 181.178 276.431 181.196 276.538C181.213 276.644 181.187 276.753 181.123 276.841H181.1Z" fill="#263238"/>
<path d="M185.6 276.785C186.08 277.289 186.347 277.959 186.347 278.654C186.347 279.35 186.08 280.019 185.6 280.523C185.376 280.77 185.104 280.967 184.8 281.104C184.496 281.241 184.168 281.314 183.835 281.319C183.494 281.316 183.158 281.245 182.846 281.108C182.534 280.971 182.254 280.772 182.021 280.523C181.551 280.015 181.289 279.347 181.289 278.654C181.289 277.961 181.551 277.294 182.021 276.785C182.252 276.535 182.533 276.335 182.845 276.198C183.157 276.061 183.494 275.99 183.835 275.99C184.168 275.992 184.498 276.063 184.802 276.2C185.106 276.337 185.378 276.537 185.6 276.785ZM185.505 278.654C185.505 278.173 185.323 277.71 184.996 277.358C184.848 277.197 184.669 277.067 184.469 276.978C184.269 276.889 184.053 276.843 183.835 276.841C183.609 276.837 183.386 276.881 183.179 276.97C182.971 277.059 182.786 277.192 182.634 277.358C182.308 277.711 182.129 278.174 182.133 278.654C182.128 279.132 182.307 279.594 182.634 279.943C182.787 280.109 182.972 280.241 183.179 280.331C183.386 280.422 183.609 280.468 183.835 280.468C184.054 280.465 184.27 280.417 184.47 280.327C184.67 280.236 184.849 280.106 184.996 279.943C185.321 279.599 185.503 279.144 185.505 278.67V278.654Z" fill="#263238"/>
<path d="M189.608 281.31C189.328 281.312 189.05 281.257 188.791 281.15C188.532 281.044 188.297 280.887 188.099 280.688C187.9 280.49 187.744 280.255 187.637 279.996C187.53 279.737 187.476 279.459 187.477 279.179V276.546C187.476 276.493 187.485 276.439 187.505 276.39C187.525 276.34 187.555 276.295 187.593 276.257C187.631 276.219 187.676 276.189 187.726 276.169C187.775 276.149 187.829 276.14 187.882 276.141C187.991 276.141 188.095 276.183 188.172 276.259C188.249 276.335 188.294 276.438 188.296 276.546V279.179C188.296 279.527 188.434 279.861 188.68 280.107C188.926 280.353 189.26 280.491 189.608 280.491C189.956 280.491 190.29 280.353 190.536 280.107C190.782 279.861 190.921 279.527 190.921 279.179V276.546C190.921 276.492 190.931 276.439 190.952 276.389C190.973 276.339 191.004 276.294 191.042 276.257C191.081 276.219 191.126 276.189 191.176 276.169C191.227 276.149 191.28 276.14 191.334 276.141C191.388 276.14 191.441 276.149 191.491 276.169C191.54 276.189 191.585 276.219 191.623 276.257C191.661 276.295 191.691 276.34 191.711 276.39C191.731 276.439 191.741 276.493 191.74 276.546V279.179C191.741 279.459 191.686 279.737 191.58 279.996C191.473 280.255 191.316 280.49 191.118 280.688C190.92 280.887 190.684 281.044 190.425 281.15C190.166 281.257 189.888 281.312 189.608 281.31Z" fill="#263238"/>
<path d="M193.404 279.537V276.546C193.404 276.439 193.447 276.335 193.523 276.259C193.599 276.183 193.702 276.141 193.81 276.141C193.863 276.141 193.915 276.151 193.964 276.172C194.013 276.192 194.057 276.222 194.094 276.26C194.131 276.298 194.16 276.342 194.18 276.392C194.199 276.441 194.209 276.493 194.208 276.546V279.537C194.209 279.59 194.199 279.642 194.18 279.691C194.16 279.741 194.131 279.785 194.094 279.823C194.057 279.861 194.013 279.891 193.964 279.911C193.915 279.932 193.863 279.942 193.81 279.942C193.702 279.942 193.599 279.9 193.523 279.824C193.447 279.747 193.404 279.644 193.404 279.537ZM193.81 281.31C193.702 281.31 193.599 281.268 193.523 281.192C193.447 281.115 193.404 281.012 193.404 280.905V280.762C193.404 280.654 193.447 280.551 193.523 280.475C193.599 280.399 193.702 280.356 193.81 280.356C193.863 280.356 193.915 280.366 193.964 280.387C194.013 280.407 194.057 280.437 194.094 280.475C194.131 280.513 194.16 280.558 194.18 280.607C194.199 280.656 194.209 280.709 194.208 280.762V280.905C194.209 280.958 194.199 281.01 194.18 281.059C194.16 281.109 194.131 281.153 194.094 281.191C194.057 281.229 194.013 281.259 193.964 281.279C193.915 281.3 193.863 281.31 193.81 281.31Z" fill="#263238"/>
<path d="M110.767 97.3535H109.176V97.7512H110.767V97.3535Z" fill="#263238"/>
<path d="M229.885 97.7516H226.752V97.3301H229.885V97.7516ZM223.618 97.7516H220.484V97.3301H223.618V97.7516ZM217.35 97.7516H214.217V97.3301H217.35V97.7516ZM211.083 97.7516H207.941V97.3301H211.083V97.7516ZM204.808 97.7516H201.674V97.3301H204.808V97.7516ZM198.54 97.7516H195.407V97.3301H198.54V97.7516ZM192.273 97.7516H189.139V97.3301H192.273V97.7516ZM185.997 97.7516H182.864V97.3301H185.997V97.7516ZM179.73 97.7516H176.596V97.3301H179.73V97.7516ZM173.463 97.7516H170.329V97.3301H173.463V97.7516ZM167.195 97.7516H164.062V97.3301H167.195V97.7516ZM160.92 97.7516H157.786V97.3301H160.92V97.7516ZM154.652 97.7516H151.519V97.3301H154.652V97.7516ZM148.385 97.7516H145.251V97.3301H148.385V97.7516ZM142.118 97.7516H138.976V97.3301H142.118V97.7516ZM135.842 97.7516H132.709V97.3301H135.842V97.7516ZM129.575 97.7516H126.441V97.3301H129.575V97.7516ZM123.307 97.7516H120.174V97.3301H123.307V97.7516ZM117.032 97.7516H113.898V97.3301H117.032V97.7516Z" fill="#263238"/>
<path d="M234.62 97.3535H233.029V97.7512H234.62V97.3535Z" fill="#263238"/>
<path d="M110.767 183.65H109.176V184.048H110.767V183.65Z" fill="#263238"/>
<path d="M229.885 184.023H226.752V183.625H229.885V184.023ZM223.618 184.023H220.484V183.625H223.618V184.023ZM217.35 184.023H214.217V183.625H217.35V184.023ZM211.083 184.023H207.941V183.625H211.083V184.023ZM204.808 184.023H201.674V183.625H204.808V184.023ZM198.54 184.023H195.407V183.625H198.54V184.023ZM192.273 184.023H189.139V183.625H192.273V184.023ZM185.997 184.023H182.864V183.625H185.997V184.023ZM179.73 184.023H176.596V183.625H179.73V184.023ZM173.463 184.023H170.329V183.625H173.463V184.023ZM167.195 184.023H164.062V183.625H167.195V184.023ZM160.92 184.023H157.786V183.625H160.92V184.023ZM154.652 184.023H151.519V183.625H154.652V184.023ZM148.385 184.023H145.251V183.625H148.385V184.023ZM142.118 184.023H138.976V183.625H142.118V184.023ZM135.842 184.023H132.709V183.625H135.842V184.023ZM129.575 184.023H126.441V183.625H129.575V184.023ZM123.307 184.023H120.174V183.625H123.307V184.023ZM117.032 184.023H113.898V183.625H117.032V184.023Z" fill="#263238"/>
<path d="M234.618 183.65H233.027V184.048H234.618V183.65Z" fill="#263238"/>
<path d="M110.767 219.99H109.176V220.388H110.767V219.99Z" fill="#263238"/>
<path d="M229.885 220.388H226.752V219.99H229.885V220.388ZM223.618 220.388H220.484V219.99H223.618V220.388ZM217.35 220.388H214.217V219.99H217.35V220.388ZM211.083 220.388H207.941V219.99H211.083V220.388ZM204.808 220.388H201.674V219.99H204.808V220.388ZM198.54 220.388H195.407V219.99H198.54V220.388ZM192.273 220.388H189.139V219.99H192.273V220.388ZM185.997 220.388H182.864V219.99H185.997V220.388ZM179.73 220.388H176.596V219.99H179.73V220.388ZM173.463 220.388H170.329V219.99H173.463V220.388ZM167.195 220.388H164.062V219.99H167.195V220.388ZM160.92 220.388H157.786V219.99H160.92V220.388ZM154.652 220.388H151.519V219.99H154.652V220.388ZM148.385 220.388H145.251V219.99H148.385V220.388ZM142.118 220.388H138.976V219.99H142.118V220.388ZM135.842 220.388H132.709V219.99H135.842V220.388ZM129.575 220.388H126.441V219.99H129.575V220.388ZM123.307 220.388H120.174V219.99H123.307V220.388ZM117.032 220.388H113.898V219.99H117.032V220.388Z" fill="#263238"/>
<path d="M234.62 219.99H233.029V220.388H234.62V219.99Z" fill="#263238"/>
<path d="M110.767 267.639H109.176V268.037H110.767V267.639Z" fill="#263238"/>
<path d="M229.885 268.029H226.752V267.631H229.885V268.029ZM223.618 268.029H220.484V267.631H223.618V268.029ZM217.35 268.029H214.217V267.631H217.35V268.029ZM211.083 268.029H207.941V267.631H211.083V268.029ZM204.808 268.029H201.674V267.631H204.808V268.029ZM198.54 268.029H195.407V267.631H198.54V268.029ZM192.273 268.029H189.139V267.631H192.273V268.029ZM185.997 268.029H182.864V267.631H185.997V268.029ZM179.73 268.029H176.596V267.631H179.73V268.029ZM173.463 268.029H170.329V267.631H173.463V268.029ZM167.195 268.029H164.062V267.631H167.195V268.029ZM160.92 268.029H157.786V267.631H160.92V268.029ZM154.652 268.029H151.519V267.631H154.652V268.029ZM148.385 268.029H145.251V267.631H148.385V268.029ZM142.118 268.029H138.976V267.631H142.118V268.029ZM135.842 268.029H132.709V267.631H135.842V268.029ZM129.575 268.029H126.441V267.631H129.575V268.029ZM123.307 268.029H120.174V267.631H123.307V268.029ZM117.032 268.029H113.898V267.631H117.032V268.029Z" fill="#263238"/>
<path d="M234.618 267.639H233.027V268.037H234.618V267.639Z" fill="#263238"/>
<path d="M110.767 80.8422H109.176V81.2399H110.767V80.8422Z" fill="#263238"/>
<path d="M229.885 81.2399H226.752V80.8422H229.885V81.2399ZM223.618 81.2399H220.484V80.8422H223.618V81.2399ZM217.35 81.2399H214.217V80.8422H217.35V81.2399ZM211.083 81.2399H207.941V80.8422H211.083V81.2399ZM204.808 81.2399H201.674V80.8422H204.808V81.2399ZM198.54 81.2399H195.407V80.8422H198.54V81.2399ZM192.273 81.2399H189.139V80.8422H192.273V81.2399ZM185.997 81.2399H182.864V80.8422H185.997V81.2399ZM179.73 81.2399H176.596V80.8422H179.73V81.2399ZM173.463 81.2399H170.329V80.8422H173.463V81.2399ZM167.195 81.2399H164.062V80.8422H167.195V81.2399ZM160.92 81.2399H157.786V80.8422H160.92V81.2399ZM154.652 81.2399H151.519V80.8422H154.652V81.2399ZM148.385 81.2399H145.251V80.8422H148.385V81.2399ZM142.118 81.2399H138.976V80.8422H142.118V81.2399ZM135.842 81.2399H132.709V80.8422H135.842V81.2399ZM129.575 81.2399H126.441V80.8422H129.575V81.2399ZM123.307 81.2399H120.174V80.8422H123.307V81.2399ZM117.032 81.2399H113.898V80.8422H117.032V81.2399Z" fill="#263238"/>
<path d="M234.62 80.8424H233.029V81.2401H234.62V80.8424Z" fill="#263238"/>
<path d="M152.699 90.8323C165.083 90.4426 178.715 90.4347 191.099 90.8323C178.715 91.23 165.083 91.2221 152.699 90.8323Z" fill="#263238"/>
<path d="M145.395 87.4586C162.367 87.0689 181.424 87.0609 198.397 87.4586C181.424 87.8483 162.367 87.8404 145.395 87.4586Z" fill="#263238"/>
<path d="M155.376 115.607H154.979V116.005H155.376V115.607Z" fill="#263238"/>
<path d="M200.291 116.004H199.496V115.622H200.291V116.004ZM197.905 116.004H197.11V115.622H197.905V116.004ZM195.519 116.004H194.724V115.622H195.519V116.004ZM193.133 116.004H192.338V115.622H193.133V116.004ZM190.747 116.004H189.952V115.622H190.747V116.004ZM188.361 116.004H187.566V115.622H188.361V116.004ZM185.975 116.004H185.18V115.622H185.975V116.004ZM183.589 116.004H182.794V115.622H183.589V116.004ZM181.203 116.004H180.408V115.622H181.203V116.004ZM178.817 116.004H178.021V115.622H178.817V116.004ZM176.431 116.004H175.635V115.622H176.431V116.004ZM174.045 116.004H173.249V115.622H174.045V116.004ZM171.659 116.004H170.863V115.622H171.659V116.004ZM169.273 116.004H168.477V115.622H169.273V116.004ZM166.887 116.004H166.091V115.622H166.887V116.004ZM164.5 116.004H163.705V115.622H164.5V116.004ZM162.114 116.004H161.319V115.622H162.114V116.004ZM159.728 116.004H158.933V115.622H159.728V116.004ZM157.342 116.004H156.547V115.622H157.342V116.004Z" fill="#263238"/>
<path d="M202.263 115.607H201.865V116.005H202.263V115.607Z" fill="#263238"/>
<path d="M115.49 115.806C127.087 115.401 139.271 115.409 150.876 115.806C139.271 116.196 127.087 116.204 115.49 115.806Z" fill="#263238"/>
<path d="M205.912 115.806C213.966 115.401 222.43 115.409 230.489 115.806C222.43 116.196 213.966 116.204 205.912 115.806Z" fill="#263238"/>
<path d="M204.34 126.758C213.619 126.361 222.898 126.361 232.177 126.758C222.893 127.167 213.614 127.167 204.34 126.758Z" fill="#263238"/>
<path d="M204.34 208.1C213.619 207.702 222.898 207.702 232.177 208.1C222.893 208.508 213.614 208.508 204.34 208.1Z" fill="#263238"/>
<path d="M205.912 138.311C213.966 137.906 222.43 137.914 230.489 138.311C222.43 138.701 213.966 138.709 205.912 138.311Z" fill="#263238"/>
<path d="M205.912 158.876C213.966 158.471 222.43 158.479 230.489 158.876C222.43 159.266 213.966 159.274 205.912 158.876Z" fill="#263238"/>
<path d="M205.912 197.297C213.966 196.892 222.43 196.9 230.489 197.297C222.43 197.687 213.966 197.695 205.912 197.297Z" fill="#263238"/>
<path d="M147.845 126.543H147.447V126.941H147.845V126.543Z" fill="#263238"/>
<path d="M200.276 126.941H199.48V126.543H200.276V126.941ZM197.89 126.941H197.094V126.543H197.89V126.941ZM195.504 126.941H194.708V126.543H195.504V126.941ZM193.118 126.941H192.322V126.543H193.118V126.941ZM190.732 126.941H189.936V126.543H190.732V126.941ZM188.345 126.941H187.55V126.543H188.345V126.941ZM185.959 126.941H185.164V126.543H185.959V126.941ZM183.573 126.941H182.778V126.543H183.573V126.941ZM181.187 126.941H180.392V126.543H181.187V126.941ZM178.801 126.941H178.006V126.543H178.801V126.941ZM176.415 126.941H175.62V126.543H176.415V126.941ZM174.029 126.941H173.234V126.543H174.029V126.941ZM171.643 126.941H170.848V126.543H171.643V126.941ZM169.257 126.941H168.462V126.543H169.257V126.941ZM166.871 126.941H166.076V126.543H166.871V126.941ZM164.485 126.941H163.689V126.543H164.485V126.941ZM162.099 126.941H161.303V126.543H162.099V126.941ZM159.713 126.941H158.917V126.543H159.713V126.941ZM157.327 126.941H156.531V126.543H157.327V126.941ZM154.941 126.941H154.145V126.543H154.941V126.941ZM152.554 126.941H151.759V126.543H152.554V126.941ZM150.168 126.941H149.373V126.543H150.168V126.941Z" fill="#263238"/>
<path d="M202.263 126.543H201.865V126.941H202.263V126.543Z" fill="#263238"/>
<path d="M115.49 126.758C124.769 126.361 134.049 126.361 143.328 126.758C134.043 127.167 124.764 127.167 115.49 126.758Z" fill="#263238"/>
<path d="M166.536 137.488H166.139V137.885H166.536V137.488Z" fill="#263238"/>
<path d="M200.258 137.892H199.462V137.494H200.258V137.892ZM197.872 137.892H197.076V137.494H197.872V137.892ZM195.485 137.892H194.69V137.494H195.485V137.892ZM193.099 137.892H192.304V137.494H193.099V137.892ZM190.713 137.892H189.918V137.494H190.713V137.892ZM188.327 137.892H187.532V137.494H188.327V137.892ZM185.941 137.892H185.146V137.494H185.941V137.892ZM183.555 137.892H182.76V137.494H183.555V137.892ZM181.169 137.892H180.374V137.494H181.169V137.892ZM178.783 137.892H177.988V137.494H178.783V137.892ZM176.397 137.892H175.602V137.494H176.397V137.892ZM174.011 137.892H173.215V137.494H174.011V137.892ZM171.625 137.892H170.829V137.494H171.625V137.892ZM169.239 137.892H168.443V137.494H169.239V137.892Z" fill="#263238"/>
<path d="M202.263 137.488H201.865V137.885H202.263V137.488Z" fill="#263238"/>
<path d="M115.49 137.687C130.507 137.297 147.018 137.289 162.034 137.687C147.026 138.076 130.507 138.076 115.49 137.687Z" fill="#263238"/>
<path d="M153.097 148.423H152.699V148.821H153.097V148.423Z" fill="#263238"/>
<path d="M200.291 148.821H199.495V148.423H200.291V148.821ZM197.905 148.821H197.109V148.423H197.905V148.821ZM195.519 148.821H194.723V148.423H195.519V148.821ZM193.133 148.821H192.337V148.423H193.133V148.821ZM190.747 148.821H189.951V148.423H190.747V148.821ZM188.36 148.821H187.565V148.423H188.36V148.821ZM185.974 148.821H185.179V148.423H185.974V148.821ZM183.588 148.821H182.793V148.423H183.588V148.821ZM181.202 148.821H180.407V148.423H181.202V148.821ZM178.816 148.821H178.021V148.423H178.816V148.821ZM176.43 148.821H175.635V148.423H176.43V148.821ZM174.044 148.821H173.249V148.423H174.044V148.821ZM171.658 148.821H170.863V148.423H171.658V148.821ZM169.272 148.821H168.477V148.423H169.272V148.821ZM166.886 148.821H166.09V148.423H166.886V148.821ZM164.5 148.821H163.704V148.423H164.5V148.821ZM162.114 148.821H161.318V148.423H162.114V148.821ZM159.728 148.821H158.932V148.423H159.728V148.821ZM157.342 148.821H156.546V148.423H157.342V148.821ZM154.956 148.821H154.16V148.423H154.956V148.821Z" fill="#263238"/>
<path d="M202.263 148.423H201.865V148.821H202.263V148.423Z" fill="#263238"/>
<path d="M115.49 148.622C126.524 148.224 137.559 148.224 148.593 148.622C137.559 149.025 126.524 149.025 115.49 148.622Z" fill="#263238"/>
<path d="M204.711 148.622C213.744 148.224 222.777 148.224 231.81 148.622C222.777 149.025 213.744 149.025 204.711 148.622Z" fill="#263238"/>
<path d="M160.484 159.367H160.086V159.765H160.484V159.367Z" fill="#263238"/>
<path d="M200.307 159.765H199.512V159.367H200.307V159.765ZM197.961 159.765H197.166V159.367H197.961V159.765ZM195.623 159.765H194.827V159.367H195.623V159.765ZM193.276 159.765H192.481V159.367H193.276V159.765ZM190.938 159.765H190.143V159.367H190.938V159.765ZM188.592 159.765H187.796V159.367H188.592V159.765ZM186.253 159.765H185.458V159.367H186.253V159.765ZM183.907 159.765H183.112V159.367H183.907V159.765ZM181.569 159.765H180.773V159.367H181.569V159.765ZM179.183 159.765H178.387V159.367H179.183V159.765ZM176.844 159.765H176.049V159.367H176.844V159.765ZM174.498 159.765H173.703V159.367H174.498V159.765ZM172.152 159.765H171.356V159.367H172.152V159.765ZM169.813 159.765H169.018V159.367H169.813V159.765ZM167.467 159.765H166.672V159.367H167.467V159.765ZM165.129 159.765H164.333V159.367H165.129V159.765ZM162.743 159.765H161.947V159.367H162.743V159.765Z" fill="#263238"/>
<path d="M202.263 159.367H201.865V159.765H202.263V159.367Z" fill="#263238"/>
<path d="M115.49 159.566C128.55 159.177 142.922 159.169 155.982 159.566C142.922 159.964 128.55 159.956 115.49 159.566Z" fill="#263238"/>
<path d="M139.773 170.312H139.375V170.709H139.773V170.312Z" fill="#263238"/>
<path d="M200.251 170.709H199.455V170.312H200.251V170.709ZM197.865 170.709H197.069V170.312H197.865V170.709ZM195.478 170.709H194.683V170.312H195.478V170.709ZM193.092 170.709H192.297V170.312H193.092V170.709ZM190.706 170.709H189.911V170.312H190.706V170.709ZM188.281 170.709H187.485V170.312H188.281V170.709ZM185.894 170.709H185.099V170.312H185.894V170.709ZM183.508 170.709H182.713V170.312H183.508V170.709ZM181.122 170.709H180.327V170.312H181.122V170.709ZM178.736 170.709H177.941V170.312H178.736V170.709ZM176.35 170.709H175.555V170.312H176.35V170.709ZM173.964 170.709H173.169V170.312H173.964V170.709ZM171.538 170.709H170.743V170.312H171.538V170.709ZM169.152 170.709H168.357V170.312H169.152V170.709ZM166.766 170.709H165.971V170.312H166.766V170.709ZM164.38 170.709H163.585V170.312H164.38V170.709ZM161.994 170.709H161.199V170.312H161.994V170.709ZM159.608 170.709H158.813V170.312H159.608V170.709ZM157.182 170.709H156.387V170.312H157.182V170.709ZM154.796 170.709H154.001V170.312H154.796V170.709ZM152.41 170.709H151.615V170.312H152.41V170.709ZM150.024 170.709H149.229V170.312H150.024V170.709ZM147.638 170.709H146.842V170.312H147.638V170.709ZM145.252 170.709H144.456V170.312H145.252V170.709ZM142.866 170.709H142.07V170.312H142.866V170.709Z" fill="#263238"/>
<path d="M202.263 170.312H201.865V170.709H202.263V170.312Z" fill="#263238"/>
<path d="M115.49 170.503C122.077 170.093 128.684 170.093 135.271 170.503C128.683 170.908 122.077 170.908 115.49 170.503Z" fill="#263238"/>
<path d="M205.912 170.503C212.499 170.093 219.105 170.093 225.693 170.503C219.105 170.909 212.499 170.909 205.912 170.503Z" fill="#263238"/>
<path d="M205.912 233.322C212.499 232.913 219.105 232.913 225.693 233.322C219.105 233.728 212.499 233.728 205.912 233.322Z" fill="#263238"/>
<path d="M151.273 197.315H150.875V197.713H151.273V197.315Z" fill="#263238"/>
<path d="M200.307 197.713H199.512V197.315H200.307V197.713ZM197.977 197.713H197.181V197.315H197.977V197.713ZM195.638 197.713H194.843V197.315H195.638V197.713ZM193.308 197.713H192.513V197.315H193.308V197.713ZM190.97 197.713H190.174V197.315H190.97V197.713ZM188.631 197.713H187.836V197.315H188.631V197.713ZM186.301 197.713H185.506V197.315H186.301V197.713ZM183.963 197.713H183.167V197.315H183.963V197.713ZM181.632 197.713H180.837V197.315H181.632V197.713ZM179.294 197.713H178.498V197.315H179.294V197.713ZM176.955 197.713H176.16V197.315H176.955V197.713ZM174.625 197.713H173.83V197.315H174.625V197.713ZM172.287 197.713H171.491V197.315H172.287V197.713ZM169.956 197.713H169.161V197.315H169.956V197.713ZM167.618 197.713H166.823V197.315H167.618V197.713ZM165.288 197.713H164.492V197.315H165.288V197.713ZM162.949 197.713H162.154V197.315H162.949V197.713ZM160.611 197.713H159.816V197.315H160.611V197.713ZM158.28 197.713H157.485V197.315H158.28V197.713ZM155.942 197.713H155.147V197.315H155.942V197.713ZM153.612 197.713H152.816V197.315H153.612V197.713Z" fill="#263238"/>
<path d="M202.263 197.315H201.865V197.713H202.263V197.315Z" fill="#263238"/>
<path d="M116.096 196.399C116.162 196.323 116.255 196.275 116.356 196.266C116.457 196.257 116.558 196.288 116.636 196.352C117.036 196.686 117.532 196.884 118.052 196.916C118.38 196.924 118.702 196.829 118.975 196.646C119.067 196.59 119.145 196.512 119.2 196.419C119.256 196.326 119.288 196.221 119.293 196.113C119.294 196.028 119.269 195.945 119.221 195.874C119.166 195.786 119.089 195.712 118.999 195.66C118.687 195.48 118.344 195.361 117.989 195.31C117.66 195.252 117.34 195.155 117.034 195.023C116.755 194.9 116.518 194.698 116.35 194.443C116.238 194.262 116.18 194.052 116.183 193.838C116.19 193.625 116.247 193.415 116.349 193.228C116.451 193.04 116.596 192.878 116.772 192.757C117.148 192.498 117.595 192.362 118.052 192.367C118.631 192.4 119.185 192.608 119.643 192.963C119.712 193.025 119.757 193.109 119.768 193.201C119.78 193.292 119.758 193.385 119.707 193.462C119.655 193.538 119.578 193.594 119.488 193.618C119.399 193.642 119.304 193.633 119.221 193.592C118.882 193.32 118.469 193.156 118.036 193.123C117.751 193.123 117.473 193.212 117.241 193.377C117.16 193.425 117.091 193.492 117.041 193.573C116.991 193.653 116.962 193.744 116.955 193.838C116.95 193.912 116.969 193.984 117.01 194.045C117.062 194.122 117.13 194.187 117.209 194.236C117.492 194.405 117.805 194.516 118.132 194.562C118.482 194.625 118.824 194.729 119.15 194.872C119.448 195.004 119.704 195.216 119.889 195.485C120.005 195.674 120.065 195.891 120.064 196.113C120.059 196.341 119.998 196.565 119.888 196.764C119.777 196.964 119.619 197.133 119.428 197.258C119.032 197.542 118.555 197.69 118.068 197.68C117.373 197.647 116.708 197.387 116.175 196.94C116.095 196.877 116.042 196.786 116.028 196.686C116.013 196.585 116.037 196.483 116.096 196.399Z" fill="#263238"/>
<path d="M122.568 197.687C122.162 197.685 121.773 197.523 121.485 197.235C121.198 196.948 121.035 196.559 121.033 196.152V194.363C121.035 194.26 121.077 194.162 121.15 194.089C121.222 194.017 121.32 193.975 121.423 193.973C121.474 193.973 121.525 193.983 121.572 194.003C121.619 194.022 121.662 194.051 121.699 194.087C121.735 194.123 121.763 194.166 121.783 194.214C121.803 194.261 121.813 194.312 121.813 194.363V196.128C121.811 196.231 121.831 196.334 121.871 196.428C121.911 196.523 121.971 196.609 122.045 196.68C122.12 196.751 122.209 196.806 122.305 196.841C122.402 196.876 122.505 196.891 122.608 196.884C122.812 196.884 123.009 196.806 123.157 196.665C123.305 196.525 123.393 196.332 123.403 196.128V194.363C123.402 194.312 123.411 194.261 123.43 194.214C123.449 194.167 123.477 194.124 123.512 194.088C123.548 194.051 123.59 194.023 123.637 194.003C123.684 193.983 123.734 193.973 123.785 193.973C123.889 193.975 123.987 194.016 124.061 194.089C124.135 194.161 124.179 194.259 124.183 194.363V196.128C124.174 196.549 124 196.949 123.697 197.241C123.395 197.533 122.989 197.694 122.568 197.687Z" fill="#263238"/>
<path d="M125.639 195.85V192.923C125.657 192.831 125.707 192.748 125.78 192.689C125.852 192.63 125.943 192.597 126.037 192.597C126.13 192.597 126.221 192.63 126.294 192.689C126.366 192.748 126.416 192.831 126.434 192.923V194.315C126.722 194.111 127.067 194.002 127.421 194.005C127.711 193.999 127.998 194.063 128.259 194.189C128.52 194.316 128.747 194.502 128.923 194.733C129.098 194.964 129.217 195.233 129.269 195.518C129.321 195.803 129.305 196.097 129.223 196.375C129.14 196.653 128.993 196.908 128.793 197.118C128.594 197.329 128.348 197.49 128.075 197.587C127.801 197.685 127.509 197.717 127.221 197.68C126.934 197.643 126.659 197.54 126.418 197.377C126.408 197.482 126.356 197.579 126.274 197.646C126.192 197.714 126.086 197.745 125.981 197.735C125.876 197.724 125.779 197.672 125.711 197.59C125.644 197.508 125.613 197.403 125.623 197.297L125.639 195.85ZM126.434 195.85C126.434 196.123 126.539 196.385 126.729 196.581C126.817 196.677 126.924 196.753 127.043 196.805C127.162 196.857 127.291 196.884 127.421 196.884C127.552 196.883 127.681 196.856 127.801 196.804C127.921 196.752 128.03 196.676 128.12 196.581C128.31 196.382 128.416 196.117 128.416 195.842C128.416 195.567 128.31 195.302 128.12 195.102C128.03 195.007 127.921 194.932 127.801 194.88C127.681 194.828 127.552 194.801 127.421 194.8C127.291 194.8 127.162 194.827 127.043 194.879C126.924 194.931 126.817 195.007 126.729 195.102C126.539 195.304 126.436 195.573 126.442 195.85H126.434Z" fill="#263238"/>
<path d="M132.176 194.402C132.174 194.511 132.13 194.614 132.053 194.69C131.975 194.766 131.871 194.808 131.763 194.808H131.572V196.868C131.682 196.868 131.787 196.912 131.864 196.989C131.942 197.067 131.986 197.172 131.986 197.282C131.986 197.335 131.975 197.389 131.954 197.439C131.933 197.488 131.902 197.533 131.864 197.571C131.825 197.609 131.78 197.639 131.73 197.659C131.68 197.679 131.626 197.688 131.572 197.687C131.361 197.687 131.159 197.603 131.01 197.454C130.86 197.305 130.777 197.103 130.777 196.892V194.832H130.562C130.454 194.832 130.351 194.789 130.275 194.713C130.199 194.637 130.156 194.534 130.156 194.426C130.156 194.319 130.199 194.215 130.275 194.139C130.351 194.063 130.454 194.021 130.562 194.021H130.777V192.947C130.777 192.893 130.787 192.839 130.808 192.79C130.829 192.74 130.86 192.695 130.898 192.657C130.937 192.619 130.982 192.59 131.033 192.57C131.083 192.55 131.136 192.54 131.19 192.541C131.244 192.54 131.297 192.55 131.347 192.57C131.396 192.59 131.442 192.62 131.479 192.658C131.517 192.695 131.547 192.741 131.567 192.79C131.587 192.84 131.597 192.893 131.596 192.947V194.021H131.787C131.888 194.024 131.983 194.066 132.055 194.136C132.127 194.207 132.171 194.302 132.176 194.402Z" fill="#263238"/>
<path d="M133.695 197.147C133.362 196.798 133.179 196.333 133.186 195.85C133.188 195.37 133.369 194.908 133.695 194.554C133.858 194.379 134.055 194.24 134.273 194.144C134.492 194.048 134.728 193.998 134.967 193.997C135.201 193.998 135.431 194.047 135.644 194.143C135.856 194.239 136.046 194.379 136.2 194.554C136.535 194.902 136.72 195.367 136.717 195.85C136.723 196.09 136.68 196.329 136.591 196.552C136.503 196.775 136.369 196.977 136.2 197.147C136.049 197.326 135.86 197.47 135.647 197.567C135.434 197.665 135.202 197.714 134.967 197.712C134.728 197.711 134.491 197.661 134.272 197.563C134.052 197.466 133.856 197.324 133.695 197.147ZM133.989 195.85C133.977 196.14 134.073 196.424 134.259 196.646C134.353 196.737 134.464 196.809 134.585 196.857C134.707 196.904 134.837 196.927 134.967 196.924C135.093 196.925 135.217 196.901 135.333 196.853C135.449 196.805 135.555 196.735 135.643 196.646C135.828 196.43 135.93 196.155 135.93 195.87C135.93 195.586 135.828 195.311 135.643 195.095C135.458 194.925 135.219 194.826 134.967 194.817C134.706 194.821 134.454 194.92 134.259 195.095C134.082 195.306 133.986 195.574 133.989 195.85Z" fill="#263238"/>
<path d="M139.495 194.402C139.493 194.511 139.448 194.614 139.371 194.69C139.294 194.766 139.189 194.808 139.081 194.808H138.898V196.868C138.952 196.868 139.006 196.879 139.055 196.9C139.105 196.92 139.15 196.951 139.188 196.99C139.226 197.028 139.255 197.074 139.275 197.124C139.295 197.174 139.305 197.228 139.304 197.282C139.305 197.335 139.295 197.388 139.275 197.438C139.255 197.488 139.225 197.533 139.187 197.571C139.15 197.609 139.104 197.638 139.055 197.658C139.005 197.678 138.952 197.688 138.898 197.687C138.687 197.687 138.485 197.603 138.336 197.454C138.187 197.305 138.103 197.103 138.103 196.892V194.832H137.888C137.781 194.832 137.677 194.789 137.601 194.713C137.525 194.637 137.483 194.534 137.483 194.426C137.481 194.373 137.491 194.319 137.511 194.27C137.531 194.22 137.561 194.175 137.599 194.137C137.637 194.099 137.682 194.069 137.732 194.049C137.781 194.029 137.835 194.019 137.888 194.021H138.047V192.947C138.047 192.893 138.058 192.839 138.079 192.79C138.1 192.74 138.13 192.695 138.169 192.657C138.207 192.619 138.253 192.59 138.303 192.57C138.353 192.55 138.407 192.54 138.461 192.541C138.514 192.54 138.568 192.55 138.617 192.57C138.667 192.59 138.712 192.62 138.75 192.658C138.788 192.695 138.818 192.741 138.838 192.79C138.858 192.84 138.867 192.893 138.866 192.947V194.021H139.049C139.104 194.015 139.159 194.021 139.211 194.037C139.264 194.054 139.312 194.081 139.354 194.116C139.395 194.152 139.429 194.196 139.454 194.245C139.478 194.294 139.492 194.348 139.495 194.402Z" fill="#263238"/>
<path d="M143.694 195.85V197.298C143.694 197.349 143.684 197.4 143.665 197.447C143.645 197.494 143.616 197.537 143.58 197.574C143.544 197.61 143.501 197.639 143.454 197.658C143.406 197.678 143.356 197.688 143.304 197.688C143.214 197.685 143.126 197.652 143.056 197.595C142.985 197.537 142.936 197.458 142.915 197.37C142.63 197.576 142.288 197.687 141.936 197.688C141.701 197.688 141.468 197.641 141.252 197.548C141.036 197.455 140.841 197.318 140.68 197.147C140.358 196.79 140.18 196.327 140.18 195.847C140.18 195.366 140.358 194.903 140.68 194.546C140.841 194.374 141.035 194.236 141.251 194.142C141.467 194.047 141.701 193.998 141.936 193.997C142.288 193.998 142.63 194.109 142.915 194.315C142.934 194.226 142.984 194.146 143.054 194.089C143.125 194.031 143.213 193.999 143.304 193.997C143.356 193.997 143.408 194.008 143.456 194.028C143.503 194.048 143.547 194.077 143.583 194.114C143.619 194.151 143.648 194.195 143.667 194.243C143.686 194.292 143.695 194.343 143.694 194.395V195.85ZM142.899 195.85C142.908 195.705 142.887 195.56 142.838 195.423C142.789 195.286 142.712 195.161 142.613 195.055C142.525 194.959 142.419 194.883 142.301 194.831C142.182 194.778 142.054 194.751 141.925 194.751C141.795 194.751 141.667 194.778 141.548 194.831C141.43 194.883 141.324 194.959 141.237 195.055C141.057 195.268 140.959 195.537 140.959 195.815C140.959 196.093 141.057 196.362 141.237 196.574C141.326 196.667 141.432 196.741 141.551 196.791C141.669 196.841 141.796 196.867 141.925 196.867C142.053 196.867 142.18 196.841 142.298 196.791C142.417 196.741 142.523 196.667 142.613 196.574C142.798 196.379 142.903 196.12 142.907 195.85H142.899Z" fill="#263238"/>
<path d="M145.706 192.519C145.815 192.519 145.919 192.561 145.996 192.637C146.073 192.713 146.118 192.816 146.12 192.924V197.283C146.118 197.391 146.073 197.494 145.996 197.57C145.919 197.646 145.815 197.688 145.706 197.688C145.599 197.688 145.496 197.646 145.42 197.57C145.344 197.494 145.301 197.39 145.301 197.283V192.924C145.301 192.817 145.344 192.713 145.42 192.637C145.496 192.561 145.599 192.519 145.706 192.519Z" fill="#263238"/>
<path d="M139.773 208.249H139.375V208.647H139.773V208.249Z" fill="#263238"/>
<path d="M200.251 208.679H199.456V208.281H200.251V208.679ZM197.865 208.679H197.069V208.281H197.865V208.679ZM195.479 208.679H194.683V208.281H195.479V208.679ZM193.093 208.679H192.297V208.281H193.093V208.679ZM190.707 208.679H189.911V208.281H190.707V208.679ZM188.154 208.679H187.358V208.281H188.154V208.679ZM185.767 208.679H184.972V208.281H185.767V208.679ZM183.381 208.679H182.586V208.281H183.381V208.679ZM180.995 208.679H180.2V208.281H180.995V208.679ZM178.609 208.679H177.814V208.281H178.609V208.679ZM176.223 208.679H175.428V208.281H176.223V208.679ZM173.837 208.679H173.042V208.281H173.837V208.679ZM171.411 208.679H170.616V208.281H171.411V208.679ZM169.025 208.679H168.23V208.281H169.025V208.679ZM166.639 208.679H165.844V208.281H166.639V208.679ZM164.253 208.679H163.458V208.281H164.253V208.679ZM161.867 208.679H161.072V208.281H161.867V208.679ZM159.481 208.679H158.686V208.281H159.481V208.679ZM157.055 208.679H156.26V208.281H157.055V208.679ZM154.669 208.679H153.874V208.281H154.669V208.679ZM152.283 208.679H151.488V208.281H152.283V208.679ZM149.897 208.679H149.102V208.281H149.897V208.679ZM147.511 208.679H146.715V208.281H147.511V208.679ZM145.125 208.679H144.329V208.281H145.125V208.679ZM142.739 208.679H141.943V208.281H142.739V208.679Z" fill="#263238"/>
<path d="M202.263 208.249H201.865V208.647H202.263V208.249Z" fill="#263238"/>
<path d="M119.309 204.282H118.163V208.258C118.145 208.35 118.095 208.433 118.023 208.492C117.95 208.552 117.86 208.584 117.766 208.584C117.672 208.584 117.581 208.552 117.509 208.492C117.436 208.433 117.387 208.35 117.368 208.258V204.282H116.199C116.094 204.284 115.993 204.247 115.915 204.178C115.836 204.108 115.787 204.012 115.777 203.908C115.776 203.854 115.786 203.8 115.806 203.75C115.826 203.7 115.856 203.654 115.893 203.616C115.931 203.577 115.976 203.547 116.026 203.526C116.076 203.505 116.129 203.494 116.183 203.494H119.364C119.474 203.494 119.579 203.538 119.657 203.615C119.734 203.693 119.778 203.798 119.778 203.908C119.764 204.019 119.707 204.12 119.62 204.19C119.532 204.26 119.42 204.293 119.309 204.282Z" fill="#263238"/>
<path d="M122.983 206.787V208.234C122.993 208.34 122.962 208.445 122.895 208.527C122.827 208.609 122.73 208.661 122.625 208.672C122.52 208.682 122.414 208.65 122.332 208.583C122.25 208.516 122.198 208.419 122.188 208.314C121.9 208.52 121.555 208.631 121.201 208.632C120.966 208.633 120.733 208.585 120.517 208.492C120.301 208.399 120.106 208.262 119.945 208.091C119.617 207.736 119.438 207.269 119.444 206.787C119.436 206.306 119.616 205.841 119.945 205.49C120.223 205.18 120.607 204.985 121.022 204.942C121.436 204.899 121.852 205.013 122.188 205.26C122.197 205.154 122.248 205.057 122.329 204.989C122.411 204.921 122.516 204.888 122.621 204.898C122.727 204.907 122.824 204.958 122.892 205.039C122.96 205.121 122.992 205.226 122.983 205.331V206.787ZM122.188 206.787C122.191 206.647 122.167 206.509 122.116 206.379C122.066 206.25 121.99 206.131 121.893 206.031C121.808 205.935 121.702 205.858 121.584 205.805C121.466 205.753 121.338 205.727 121.209 205.729C121.08 205.727 120.952 205.752 120.834 205.805C120.716 205.857 120.611 205.934 120.525 206.031C120.43 206.132 120.355 206.25 120.306 206.38C120.257 206.51 120.234 206.648 120.239 206.787C120.231 206.932 120.252 207.077 120.301 207.213C120.35 207.35 120.427 207.475 120.525 207.582C120.614 207.674 120.72 207.747 120.838 207.796C120.955 207.846 121.082 207.87 121.209 207.868C121.337 207.869 121.463 207.844 121.58 207.795C121.698 207.746 121.804 207.673 121.893 207.582C121.996 207.477 122.077 207.353 122.13 207.216C122.183 207.079 122.208 206.933 122.203 206.787H122.188Z" fill="#263238"/>
<path d="M127.101 205.586L126.219 206.795L127.101 208.02C127.158 208.103 127.18 208.203 127.166 208.302C127.151 208.401 127.1 208.49 127.022 208.553C126.955 208.601 126.874 208.629 126.791 208.632C126.665 208.621 126.548 208.562 126.465 208.465L125.726 207.455L124.986 208.465C124.951 208.514 124.906 208.554 124.853 208.583C124.801 208.611 124.743 208.628 124.684 208.632C124.598 208.629 124.515 208.601 124.445 208.553C124.364 208.493 124.31 208.403 124.295 208.303C124.28 208.203 124.306 208.101 124.365 208.02L125.248 206.795L124.365 205.586C124.336 205.547 124.315 205.501 124.303 205.454C124.291 205.406 124.288 205.356 124.296 205.307C124.303 205.258 124.32 205.211 124.346 205.169C124.371 205.127 124.405 205.09 124.445 205.061C124.528 205.001 124.631 204.975 124.732 204.99C124.833 205.005 124.924 205.059 124.986 205.141L125.726 206.135L126.465 205.141C126.53 205.058 126.624 205.004 126.728 204.989C126.831 204.974 126.937 205 127.022 205.061C127.099 205.122 127.15 205.211 127.165 205.308C127.18 205.405 127.157 205.505 127.101 205.586Z" fill="#263238"/>
<path d="M128.129 206.787C128.123 206.303 128.308 205.837 128.645 205.489C128.982 205.142 129.443 204.942 129.927 204.934C130.389 204.93 130.836 205.107 131.169 205.428C131.502 205.75 131.696 206.189 131.708 206.652C131.712 206.676 131.712 206.7 131.708 206.723C131.694 206.812 131.647 206.892 131.576 206.947C131.505 207.002 131.416 207.027 131.326 207.018H128.94C128.975 207.2 129.06 207.368 129.187 207.503C129.376 207.694 129.627 207.813 129.895 207.837C130.173 207.873 130.455 207.808 130.69 207.654C130.766 207.585 130.866 207.546 130.968 207.546C131.071 207.546 131.171 207.585 131.247 207.654C131.279 207.685 131.304 207.722 131.321 207.763C131.338 207.804 131.347 207.848 131.347 207.893C131.347 207.937 131.338 207.981 131.321 208.022C131.304 208.063 131.279 208.1 131.247 208.131C130.885 208.462 130.409 208.639 129.919 208.624C129.439 208.614 128.983 208.416 128.648 208.072C128.313 207.728 128.127 207.267 128.129 206.787ZM128.924 206.421H131.016C130.935 206.194 130.786 205.996 130.59 205.854C130.395 205.712 130.16 205.633 129.919 205.626C129.689 205.627 129.466 205.707 129.287 205.851C129.108 205.996 128.983 206.197 128.932 206.421H128.924Z" fill="#263238"/>
<path d="M132.71 207.574C132.741 207.533 132.78 207.499 132.825 207.473C132.87 207.447 132.919 207.431 132.97 207.425C133.022 207.419 133.074 207.424 133.123 207.438C133.173 207.453 133.219 207.478 133.258 207.511C133.48 207.705 133.76 207.82 134.054 207.837C134.232 207.837 134.408 207.791 134.563 207.702C134.599 207.677 134.63 207.643 134.652 207.605C134.674 207.566 134.687 207.523 134.69 207.479C134.69 207.439 134.69 207.423 134.69 207.407C134.667 207.368 134.634 207.335 134.595 207.312C134.409 207.211 134.207 207.141 133.998 207.105C133.776 207.068 133.56 207.004 133.354 206.914C133.149 206.819 132.973 206.671 132.845 206.485C132.764 206.345 132.722 206.185 132.726 206.023C132.732 205.867 132.774 205.714 132.849 205.576C132.923 205.439 133.028 205.32 133.155 205.228C133.424 205.044 133.744 204.947 134.07 204.95C134.472 204.966 134.858 205.108 135.175 205.355C135.261 205.415 135.32 205.505 135.342 205.606C135.364 205.708 135.347 205.814 135.295 205.904C135.235 205.99 135.144 206.049 135.041 206.068C134.939 206.088 134.833 206.066 134.746 206.008C134.551 205.855 134.316 205.761 134.07 205.737C133.912 205.734 133.757 205.779 133.624 205.864C133.529 205.936 133.505 206 133.505 206.039C133.501 206.048 133.499 206.058 133.499 206.067C133.499 206.077 133.501 206.086 133.505 206.095C133.525 206.128 133.552 206.155 133.585 206.175C133.753 206.264 133.936 206.323 134.125 206.35C134.362 206.388 134.593 206.461 134.809 206.564C135.024 206.654 135.207 206.807 135.334 207.002C135.426 207.147 135.475 207.315 135.478 207.487C135.473 207.657 135.428 207.824 135.346 207.973C135.265 208.122 135.149 208.25 135.008 208.346C134.725 208.54 134.389 208.643 134.046 208.64C133.564 208.62 133.103 208.441 132.734 208.131C132.657 208.06 132.612 207.962 132.608 207.858C132.603 207.754 132.64 207.652 132.71 207.574Z" fill="#263238"/>
<path d="M143.741 233.104H143.344V233.502H143.741V233.104Z" fill="#263238"/>
<path d="M200.3 233.502H199.505V233.104H200.3V233.502ZM197.914 233.502H197.119V233.104H197.914V233.502ZM195.528 233.502H194.732V233.104H195.528V233.502ZM193.142 233.502H192.346V233.104H193.142V233.502ZM190.756 233.502H189.96V233.104H190.756V233.502ZM188.37 233.502H187.574V233.104H188.37V233.502ZM185.984 233.502H185.188V233.104H185.984V233.502ZM183.597 233.502H182.802V233.104H183.597V233.502ZM181.211 233.502H180.416V233.104H181.211V233.502ZM178.825 233.502H178.03V233.104H178.825V233.502ZM176.439 233.502H175.644V233.104H176.439V233.502ZM174.053 233.502H173.258V233.104H174.053V233.502ZM171.667 233.502H170.872V233.104H171.667V233.502ZM169.281 233.502H168.486V233.104H169.281V233.502ZM166.895 233.502H166.1V233.104H166.895V233.502ZM164.509 233.502H163.714V233.104H164.509V233.502ZM162.123 233.502H161.327V233.104H162.123V233.502ZM159.737 233.502H158.941V233.104H159.737V233.502ZM157.351 233.502H156.555V233.104H157.351V233.502ZM154.965 233.502H154.169V233.104H154.965V233.502ZM152.579 233.502H151.783V233.104H152.579V233.502ZM150.192 233.502H149.397V233.104H150.192V233.502ZM147.806 233.502H147.011V233.104H147.806V233.502ZM145.42 233.502H144.625V233.104H145.42V233.502Z" fill="#263238"/>
<path d="M202.263 233.104H201.865V233.502H202.263V233.104Z" fill="#263238"/>
<path d="M119.946 229.128H118.777V233.104C118.777 233.212 118.734 233.315 118.658 233.391C118.582 233.467 118.479 233.51 118.371 233.51C118.317 233.511 118.264 233.501 118.213 233.481C118.163 233.461 118.118 233.432 118.079 233.394C118.041 233.356 118.01 233.311 117.989 233.261C117.968 233.212 117.958 233.158 117.958 233.104V229.128H116.796C116.742 229.128 116.689 229.117 116.639 229.096C116.59 229.075 116.544 229.044 116.507 229.006C116.469 228.967 116.439 228.922 116.419 228.872C116.399 228.821 116.39 228.768 116.391 228.714C116.39 228.66 116.399 228.607 116.419 228.557C116.439 228.508 116.469 228.463 116.507 228.425C116.545 228.387 116.59 228.357 116.64 228.337C116.69 228.317 116.743 228.307 116.796 228.308H119.978C120.085 228.308 120.189 228.351 120.265 228.427C120.341 228.503 120.383 228.606 120.383 228.714C120.384 228.77 120.372 228.826 120.35 228.878C120.328 228.93 120.295 228.976 120.254 229.015C120.213 229.054 120.165 229.084 120.112 229.103C120.059 229.123 120.002 229.131 119.946 229.128Z" fill="#263238"/>
<path d="M125.242 228.953C125.721 229.456 125.988 230.123 125.988 230.818C125.988 231.512 125.721 232.18 125.242 232.683C125.02 232.932 124.748 233.131 124.443 233.268C124.139 233.405 123.81 233.477 123.476 233.478C123.137 233.477 122.801 233.406 122.49 233.269C122.18 233.132 121.901 232.933 121.671 232.683C121.201 232.176 120.939 231.51 120.939 230.818C120.939 230.126 121.201 229.46 121.671 228.953C121.9 228.702 122.178 228.501 122.489 228.364C122.8 228.227 123.136 228.157 123.476 228.157C123.81 228.159 124.139 228.231 124.443 228.368C124.748 228.505 125.02 228.704 125.242 228.953ZM125.146 230.814C125.146 230.337 124.968 229.877 124.645 229.525C124.496 229.356 124.313 229.221 124.107 229.128C123.901 229.035 123.678 228.987 123.452 228.987C123.227 228.987 123.004 229.035 122.798 229.128C122.592 229.221 122.409 229.356 122.259 229.525C121.934 229.875 121.754 230.336 121.758 230.814C121.752 231.292 121.932 231.754 122.259 232.102C122.409 232.272 122.592 232.407 122.798 232.5C123.004 232.593 123.227 232.641 123.452 232.641C123.678 232.641 123.901 232.593 124.107 232.5C124.313 232.407 124.496 232.272 124.645 232.102C124.97 231.752 125.149 231.292 125.146 230.814Z" fill="#263238"/>
<path d="M130.204 229.128H129.027V233.105C129.028 233.159 129.018 233.212 128.998 233.262C128.978 233.311 128.948 233.356 128.91 233.394C128.872 233.432 128.827 233.462 128.778 233.482C128.728 233.502 128.675 233.512 128.621 233.511C128.514 233.511 128.41 233.468 128.334 233.392C128.258 233.316 128.216 233.213 128.216 233.105V229.128H127.046C126.992 229.128 126.939 229.118 126.889 229.097C126.84 229.076 126.794 229.045 126.757 229.007C126.719 228.968 126.689 228.922 126.669 228.872C126.649 228.822 126.64 228.769 126.641 228.715C126.64 228.661 126.649 228.608 126.669 228.558C126.689 228.508 126.719 228.463 126.757 228.425C126.795 228.388 126.84 228.358 126.89 228.338C126.94 228.318 126.993 228.308 127.046 228.309H130.228C130.335 228.309 130.439 228.352 130.515 228.428C130.591 228.504 130.633 228.607 130.633 228.715C130.633 228.77 130.622 228.825 130.6 228.877C130.579 228.928 130.547 228.974 130.507 229.013C130.467 229.052 130.419 229.082 130.367 229.101C130.315 229.121 130.26 229.13 130.204 229.128Z" fill="#263238"/>
<path d="M133.768 232.262H131.971L131.605 233.217C131.576 233.294 131.523 233.361 131.455 233.408C131.387 233.455 131.306 233.48 131.223 233.479C131.176 233.488 131.127 233.488 131.08 233.479C130.978 233.44 130.895 233.362 130.851 233.262C130.806 233.162 130.803 233.049 130.841 232.946L132.48 228.564C132.512 228.487 132.566 228.422 132.635 228.377C132.705 228.331 132.787 228.308 132.87 228.309C132.953 228.305 133.036 228.328 133.106 228.374C133.175 228.419 133.229 228.486 133.259 228.564L134.898 232.915C134.934 233.018 134.928 233.131 134.882 233.231C134.836 233.33 134.753 233.408 134.651 233.447C134.604 233.456 134.555 233.456 134.508 233.447C134.426 233.447 134.346 233.422 134.28 233.375C134.213 233.328 134.162 233.262 134.134 233.185L133.768 232.262ZM133.466 231.467L132.862 229.876L132.265 231.467H133.466Z" fill="#263238"/>
<path d="M135.899 233.073V228.715C135.899 228.607 135.941 228.504 136.017 228.428C136.093 228.352 136.197 228.309 136.304 228.309C136.358 228.308 136.412 228.318 136.462 228.338C136.512 228.358 136.558 228.387 136.596 228.425C136.635 228.463 136.665 228.508 136.686 228.558C136.707 228.607 136.718 228.661 136.718 228.715V232.691H138.722C138.808 232.716 138.885 232.768 138.939 232.84C138.993 232.912 139.022 232.999 139.022 233.089C139.022 233.179 138.993 233.266 138.939 233.338C138.885 233.41 138.808 233.462 138.722 233.487H136.336C136.279 233.491 136.223 233.484 136.169 233.465C136.116 233.446 136.067 233.416 136.025 233.377C135.984 233.338 135.952 233.291 135.93 233.239C135.908 233.186 135.897 233.13 135.899 233.073Z" fill="#263238"/>
<path d="M143.311 240.779H138.57V257.951H143.311V240.779Z" fill="#263238"/>
<path d="M124 240.78H121.67V257.935H124V240.78Z" fill="#263238"/>
<path d="M134.881 240.779H133.752V257.959H134.881V240.779Z" fill="#263238"/>
<path d="M189.165 240.781H188.027V257.953H189.165V240.781Z" fill="#263238"/>
<path d="M166.217 240.765H163.895V257.944H166.217V240.765Z" fill="#263238"/>
<path d="M173.448 240.772H172.326V261.444H173.448V240.772Z" fill="#263238"/>
<path d="M168.659 240.779H167.529V257.951H168.659V240.779Z" fill="#263238"/>
<path d="M201.215 240.779H200.086V257.951H201.215V240.779Z" fill="#263238"/>
<path d="M219.309 240.765H216.986V257.944H219.309V240.765Z" fill="#263238"/>
<path d="M160.206 240.765H159.068V257.936H160.206V240.765Z" fill="#263238"/>
<path d="M151.75 240.764H150.629V257.935H151.75V240.764Z" fill="#263238"/>
<path d="M149.342 240.764H147.027V257.983H149.342V240.764Z" fill="#263238"/>
<path d="M157.771 240.765H155.465V257.944H157.771V240.765Z" fill="#263238"/>
<path d="M115.561 240.772H114.439V261.451H115.561V240.772Z" fill="#263238"/>
<path d="M206.057 240.764H202.518V257.943H206.057V240.764Z" fill="#263238"/>
<path d="M215.691 240.773H212.176V257.953H215.691V240.773Z" fill="#263238"/>
<path d="M228.955 240.764H227.834V261.435H228.955V240.764Z" fill="#263238"/>
<path d="M117.989 240.779H116.852V261.451H117.989V240.779Z" fill="#263238"/>
<path d="M125.32 240.765H126.442V257.944C126.259 257.944 126.076 257.944 125.885 257.944H125.32V240.765Z" fill="#263238"/>
<path d="M186.738 240.772H183.223V257.96H186.738V240.772Z" fill="#263238"/>
<path d="M137.276 240.765H136.154V257.936H137.276V240.765Z" fill="#263238"/>
<path d="M208.54 240.764H209.629V257.943C209.454 257.943 209.263 257.943 209.073 257.943H208.508L208.54 240.764Z" fill="#263238"/>
<path d="M222.926 240.731H220.596V257.951H222.926V240.731Z" fill="#263238"/>
<path d="M226.561 240.772H225.432V261.451H226.561V240.772Z" fill="#263238"/>
<path d="M193.967 240.733H191.652V257.952H193.967V240.733Z" fill="#263238"/>
<path d="M132.463 240.779H127.715V257.959H132.463V240.779Z" fill="#263238"/>
<path d="M198.803 240.764H196.488V257.943H198.803V240.764Z" fill="#263238"/>
<path d="M171.055 240.764H169.941V261.435H171.055V240.764Z" fill="#263238"/>
<path d="M177.092 240.764H174.77V257.943H177.092V240.764Z" fill="#263238"/>
<path d="M180.701 240.733H178.379V257.952H180.701V240.733Z" fill="#263238"/>
</svg>
