<svg width="20" height="20" viewBox="0 0 20 20" fill="none" xmlns="http://www.w3.org/2000/svg">
<g opacity="0.5">
<path d="M6.6665 4.79163C6.32484 4.79163 6.0415 4.50829 6.0415 4.16663V1.66663C6.0415 1.32496 6.32484 1.04163 6.6665 1.04163C7.00817 1.04163 7.2915 1.32496 7.2915 1.66663V4.16663C7.2915 4.50829 7.00817 4.79163 6.6665 4.79163Z" fill="#09090B"/>
<path d="M13.3335 4.79163C12.9918 4.79163 12.7085 4.50829 12.7085 4.16663V1.66663C12.7085 1.32496 12.9918 1.04163 13.3335 1.04163C13.6752 1.04163 13.9585 1.32496 13.9585 1.66663V4.16663C13.9585 4.50829 13.6752 4.79163 13.3335 4.79163Z" fill="#18181B"/>
<path d="M7.08333 12.0833C6.975 12.0833 6.86667 12.0583 6.76667 12.0167C6.65833 11.975 6.575 11.9166 6.49167 11.8416C6.34167 11.6833 6.25 11.475 6.25 11.25C6.25 11.1416 6.275 11.0333 6.31667 10.9333C6.35833 10.8333 6.41667 10.7416 6.49167 10.6583C6.575 10.5833 6.65833 10.525 6.76667 10.4833C7.06667 10.3583 7.44167 10.425 7.675 10.6583C7.825 10.8166 7.91667 11.0333 7.91667 11.25C7.91667 11.3 7.90833 11.3583 7.9 11.4167C7.89167 11.4667 7.875 11.5166 7.85 11.5666C7.83333 11.6166 7.80833 11.6666 7.775 11.7166C7.75 11.7583 7.70833 11.8 7.675 11.8416C7.51667 11.9916 7.3 12.0833 7.08333 12.0833Z" fill="#18181B"/>
<path d="M9.99984 12.0833C9.8915 12.0833 9.78317 12.0584 9.68317 12.0167C9.57484 11.975 9.4915 11.9167 9.40817 11.8417C9.25817 11.6833 9.1665 11.475 9.1665 11.25C9.1665 11.1417 9.19151 11.0333 9.23317 10.9333C9.27484 10.8333 9.33317 10.7417 9.40817 10.6584C9.4915 10.5834 9.57484 10.525 9.68317 10.4833C9.98317 10.35 10.3582 10.425 10.5915 10.6584C10.7415 10.8167 10.8332 11.0333 10.8332 11.25C10.8332 11.3 10.8248 11.3584 10.8165 11.4167C10.8082 11.4667 10.7915 11.5167 10.7665 11.5667C10.7498 11.6167 10.7248 11.6667 10.6915 11.7167C10.6665 11.7583 10.6248 11.8 10.5915 11.8417C10.4332 11.9917 10.2165 12.0833 9.99984 12.0833Z" fill="#18181B"/>
<path d="M12.9168 12.0833C12.8085 12.0833 12.7002 12.0584 12.6002 12.0167C12.4918 11.975 12.4085 11.9167 12.3252 11.8417C12.2918 11.8 12.2585 11.7583 12.2252 11.7167C12.1918 11.6667 12.1668 11.6167 12.1502 11.5667C12.1252 11.5167 12.1085 11.4667 12.1002 11.4167C12.0918 11.3584 12.0835 11.3 12.0835 11.25C12.0835 11.0333 12.1752 10.8167 12.3252 10.6584C12.4085 10.5834 12.4918 10.525 12.6002 10.4833C12.9085 10.35 13.2752 10.425 13.5085 10.6584C13.6585 10.8167 13.7502 11.0333 13.7502 11.25C13.7502 11.3 13.7418 11.3584 13.7335 11.4167C13.7252 11.4667 13.7085 11.5167 13.6835 11.5667C13.6668 11.6167 13.6418 11.6667 13.6085 11.7167C13.5835 11.7583 13.5418 11.8 13.5085 11.8417C13.3502 11.9917 13.1335 12.0833 12.9168 12.0833Z" fill="#18181B"/>
<path d="M7.08333 15C6.975 15 6.86667 14.975 6.76667 14.9333C6.66667 14.8917 6.575 14.8333 6.49167 14.7583C6.34167 14.6 6.25 14.3833 6.25 14.1667C6.25 14.0583 6.275 13.95 6.31667 13.85C6.35833 13.7417 6.41667 13.65 6.49167 13.575C6.8 13.2667 7.36667 13.2667 7.675 13.575C7.825 13.7333 7.91667 13.95 7.91667 14.1667C7.91667 14.3833 7.825 14.6 7.675 14.7583C7.51667 14.9083 7.3 15 7.08333 15Z" fill="#18181B"/>
<path d="M9.99984 15C9.78317 15 9.5665 14.9083 9.40817 14.7583C9.25817 14.6 9.1665 14.3833 9.1665 14.1667C9.1665 14.0583 9.19151 13.95 9.23317 13.85C9.27484 13.7417 9.33317 13.65 9.40817 13.575C9.7165 13.2667 10.2832 13.2667 10.5915 13.575C10.6665 13.65 10.7248 13.7417 10.7665 13.85C10.8082 13.95 10.8332 14.0583 10.8332 14.1667C10.8332 14.3833 10.7415 14.6 10.5915 14.7583C10.4332 14.9083 10.2165 15 9.99984 15Z" fill="#18181B"/>
<path d="M12.9168 15C12.7002 15 12.4835 14.9084 12.3252 14.7584C12.2502 14.6834 12.1918 14.5917 12.1502 14.4834C12.1085 14.3834 12.0835 14.275 12.0835 14.1667C12.0835 14.0584 12.1085 13.95 12.1502 13.85C12.1918 13.7417 12.2502 13.6501 12.3252 13.5751C12.5168 13.3834 12.8085 13.2917 13.0752 13.35C13.1335 13.3584 13.1835 13.375 13.2335 13.4C13.2835 13.4167 13.3335 13.4417 13.3835 13.4751C13.4252 13.5001 13.4668 13.5417 13.5085 13.5751C13.6585 13.7334 13.7502 13.95 13.7502 14.1667C13.7502 14.3834 13.6585 14.6 13.5085 14.7584C13.3502 14.9084 13.1335 15 12.9168 15Z" fill="#18181B"/>
<path d="M17.0832 8.19995H2.9165C2.57484 8.19995 2.2915 7.91662 2.2915 7.57495C2.2915 7.23328 2.57484 6.94995 2.9165 6.94995H17.0832C17.4248 6.94995 17.7082 7.23328 17.7082 7.57495C17.7082 7.91662 17.4248 8.19995 17.0832 8.19995Z" fill="#18181B"/>
<path d="M13.3333 18.9583H6.66667C3.625 18.9583 1.875 17.2083 1.875 14.1666V7.08329C1.875 4.04163 3.625 2.29163 6.66667 2.29163H13.3333C16.375 2.29163 18.125 4.04163 18.125 7.08329V14.1666C18.125 17.2083 16.375 18.9583 13.3333 18.9583ZM6.66667 3.54163C4.28333 3.54163 3.125 4.69996 3.125 7.08329V14.1666C3.125 16.55 4.28333 17.7083 6.66667 17.7083H13.3333C15.7167 17.7083 16.875 16.55 16.875 14.1666V7.08329C16.875 4.69996 15.7167 3.54163 13.3333 3.54163H6.66667Z" fill="#18181B"/>
</g>
</svg>
