<svg width="251" height="248" viewBox="0 0 251 248" fill="none" xmlns="http://www.w3.org/2000/svg">
<g id="Group 13908">
<g id="freepik--Floor--inject-63">
<path id="freepik--floor--inject-63" d="M124.748 247.031C187.623 247.031 238.593 217.604 238.593 181.305C238.593 145.005 187.623 115.579 124.748 115.579C61.8729 115.579 10.9028 145.005 10.9028 181.305C10.9028 217.604 61.8729 247.031 124.748 247.031Z" fill="#F5F5F5"/>
</g>
<g id="freepik--Shadows--inject-63">
<path id="freepik--Shadow--inject-63" d="M61.6808 215.528C75.3748 215.528 86.4759 209.118 86.4759 201.212C86.4759 193.305 75.3748 186.896 61.6808 186.896C47.9869 186.896 36.8857 193.305 36.8857 201.212C36.8857 209.118 47.9869 215.528 61.6808 215.528Z" fill="#EBEBEB"/>
<path id="freepik--shadow--inject-63" d="M190.07 215.528C203.764 215.528 214.865 209.118 214.865 201.212C214.865 193.305 203.764 186.896 190.07 186.896C176.376 186.896 165.275 193.305 165.275 201.212C165.275 209.118 176.376 215.528 190.07 215.528Z" fill="#EBEBEB"/>
<path id="freepik--shadow--inject-63_2" d="M125.799 223.991C141.347 223.991 153.951 216.713 153.951 207.735C153.951 198.757 141.347 191.479 125.799 191.479C110.251 191.479 97.6473 198.757 97.6473 207.735C97.6473 216.713 110.251 223.991 125.799 223.991Z" fill="#EBEBEB"/>
</g>
<g id="freepik--Balloons--inject-63">
<path id="Vector" d="M14.0962 74.2009C15.4836 76.921 16.0371 79.9902 15.6875 83.0236C15.3605 85.6121 14.4613 88.1189 14.7883 90.7564C15.3005 94.9198 18.2215 98.2385 20.5811 101.514C21.9522 103.27 23.0542 105.22 23.8508 107.301C24.7118 109.862 24.5047 112.527 24.0251 115.143C23.1205 120.113 21.8454 124.783 24.63 129.399C26.1668 131.938 28.243 134.091 29.6871 136.69C31.2441 139.559 32.2183 142.707 32.5536 145.954C32.5863 146.248 33.153 146.346 33.1258 146.014C32.9338 143.289 32.2604 140.619 31.1367 138.129C29.9978 135.611 28.3411 133.497 26.7063 131.295C25.0714 129.093 23.6491 126.663 23.502 123.791C23.3658 121.11 24.0469 118.467 24.5919 115.862C25.0605 113.47 25.4093 111.001 24.9025 108.587C24.4188 106.569 23.5612 104.66 22.374 102.958C19.9871 99.3502 16.6139 96.0533 15.6221 91.7264C14.8973 88.5548 16.167 85.5522 16.3741 82.4133C16.5948 79.5051 15.8992 76.6009 14.385 74.1083C14.2706 73.923 13.9872 73.9666 14.1017 74.2009H14.0962Z" fill="#37474F"/>
<path id="Vector_2" d="M13.3769 78.8548C13.2407 77.9883 14.6739 75.3181 15.0117 75.269C15.3496 75.22 17.3387 77.2962 17.4858 78.2227C17.4959 78.4067 17.4573 78.5902 17.3741 78.7547C17.2909 78.9192 17.1659 79.059 17.0117 79.16C16.5975 79.4591 16.1182 79.6556 15.6132 79.7333C15.1083 79.811 14.5921 79.7677 14.1071 79.6068C13.9282 79.5592 13.7655 79.4642 13.636 79.3318C13.5066 79.1995 13.4152 79.0347 13.3714 78.8548H13.3769Z" fill="#92B1CE"/>
<path id="Vector_3" opacity="0.1" d="M13.3769 78.8548C13.2407 77.9883 14.6739 75.3181 15.0117 75.269C15.3496 75.22 17.3387 77.2962 17.4858 78.2227C17.4959 78.4067 17.4573 78.5902 17.3741 78.7547C17.2909 78.9192 17.1659 79.059 17.0117 79.16C16.5975 79.4591 16.1182 79.6556 15.6132 79.7333C15.1083 79.811 14.5921 79.7677 14.1071 79.6068C13.9282 79.5592 13.7655 79.4642 13.636 79.3318C13.5066 79.1995 13.4152 79.0347 13.3714 78.8548H13.3769Z" fill="#263238"/>
<path id="Vector_4" d="M0.559715 61.4873C1.56242 68.1466 8.10178 75.754 15.1861 76.2935C21.7636 73.3181 25.709 64.4409 24.6845 57.7653C23.66 51.0897 18.4176 45.5476 10.6521 46.741C2.88664 47.9345 -0.464785 54.828 0.559715 61.4873Z" fill="#92B1CE"/>
<path id="Vector_5" opacity="0.05" d="M24.69 61.3456C24.69 61.3456 23.9053 68.0103 16.0471 69.7323C8.50506 71.3999 1.01749 63.9831 0.401699 58.4083C0.348541 59.4373 0.401498 60.4691 0.559733 61.4873C1.56244 68.1465 8.1018 75.754 15.1861 76.2935C20.6356 73.8303 24.2758 67.3128 24.7826 61.3619L24.69 61.3456Z" fill="#263238"/>
<path id="Vector_6" d="M235.405 100.582C234.174 102.299 233.342 104.268 232.969 106.347C232.609 108.413 232.969 110.473 233.072 112.543C233.236 115.268 232.647 117.551 230.838 119.628C229.405 121.263 227.672 122.625 226.375 124.391C223.77 127.938 223.182 131.905 223.716 136.194C224.321 141.05 225.449 145.616 223.111 150.226C221.857 152.701 220.201 154.957 219.323 157.616C218.539 160.205 218.204 162.909 218.332 165.61C218.332 165.91 218.904 166.003 218.909 165.67C218.865 163.093 219.197 160.522 219.896 158.041C220.609 155.763 221.896 153.763 223.062 151.698C224.244 149.755 224.988 147.577 225.242 145.317C225.348 143.284 225.211 141.246 224.833 139.246C224.473 136.919 224.037 134.559 224.152 132.2C224.294 129.857 225.035 127.591 226.304 125.617C228.538 122.069 232.876 119.889 233.623 115.481C233.982 113.344 233.525 111.176 233.421 109.039C233.279 106.075 234.255 103.372 235.688 100.822C235.781 100.664 235.514 100.407 235.394 100.576L235.405 100.582Z" fill="#37474F"/>
<path id="Vector_7" d="M236.119 105.454C236.304 104.593 235.029 101.841 234.707 101.764C234.386 101.688 232.255 103.644 232.053 104.56C232.031 104.742 232.057 104.928 232.128 105.097C232.2 105.266 232.315 105.414 232.462 105.525C232.858 105.847 233.324 106.072 233.823 106.182C234.322 106.291 234.839 106.283 235.334 106.157C235.515 106.118 235.682 106.033 235.82 105.91C235.958 105.787 236.061 105.629 236.119 105.454Z" fill="#92B1CE"/>
<path id="Vector_8" opacity="0.1" d="M236.119 105.454C236.304 104.593 235.029 101.841 234.707 101.764C234.386 101.688 232.255 103.644 232.053 104.56C232.031 104.742 232.057 104.928 232.128 105.097C232.2 105.266 232.315 105.414 232.462 105.525C232.858 105.847 233.324 106.072 233.823 106.182C234.322 106.291 234.839 106.283 235.334 106.157C235.515 106.118 235.682 106.033 235.82 105.91C235.958 105.787 236.061 105.629 236.119 105.454Z" fill="#263238"/>
<path id="Vector_9" d="M250.015 88.969C248.571 95.5465 241.579 102.723 234.484 102.811C228.108 99.4156 224.74 90.3095 226.19 83.7375C227.639 77.1654 233.225 71.9448 240.903 73.6342C248.582 75.3235 251.464 82.3588 250.015 88.969Z" fill="#92B1CE"/>
<path id="Vector_10" opacity="0.05" d="M225.944 87.2524C225.944 87.2524 226.331 93.9553 234.031 96.1787C241.454 98.3203 249.399 91.3995 250.38 85.8737C250.362 86.9058 250.242 87.9336 250.02 88.9418C248.576 95.5193 241.584 102.696 234.489 102.783C229.203 99.9715 225.994 93.2359 225.868 87.2633L225.944 87.2524Z" fill="#263238"/>
</g>
<g id="freepik--Confetti--inject-63">
<path id="Vector_11" d="M154.322 5.91357C151.777 5.6629 148.328 9.91349 150.823 11.957C152.208 13.0905 155.221 12.6001 155.183 10.4802C155.177 10.4214 155.152 10.3662 155.111 10.323C155.071 10.2797 155.018 10.2508 154.96 10.2405C152.96 9.7827 150.976 10.6437 151.314 12.9652C151.495 13.9659 152.011 14.8756 152.776 15.5457C153.541 16.2158 154.51 16.6067 155.526 16.6545C155.646 16.6545 155.603 16.4474 155.526 16.4256C153.783 16.0605 152.137 14.976 151.793 13.1123C151.716 12.7825 151.709 12.4399 151.774 12.1074C151.839 11.7748 151.974 11.4598 152.169 11.1832C152.403 10.9031 152.711 10.6951 153.058 10.5838C153.357 10.4911 154.431 10.3222 154.693 10.5838C155.161 11.0688 153.886 11.8916 153.505 12.0224C153.128 12.1576 152.726 12.2081 152.328 12.1705C151.929 12.1328 151.544 12.0078 151.199 11.8045C150.142 11.0633 150.404 9.66826 150.916 8.6819C151.608 7.34678 152.818 6.26234 154.377 6.20785C154.518 6.20785 154.442 5.94082 154.333 5.92992L154.322 5.91357Z" fill="#92B1CE"/>
<path id="Vector_12" d="M155.167 89.6393C155.968 87.8355 155.881 85.9663 158.213 85.3723C159.237 85.1108 161.662 84.871 162.431 85.7811C162.571 86.0008 162.627 86.2635 162.59 86.5214C162.554 86.7793 162.425 87.0155 162.229 87.187C161.624 87.732 161.172 87.078 161.014 86.5004C160.892 85.967 160.939 85.4091 161.148 84.9035C161.357 84.3979 161.718 83.9695 162.18 83.6776C163.159 83.033 164.343 82.7785 165.5 82.9641C166.657 83.1497 167.703 83.762 168.431 84.6803C168.518 84.7893 168.611 84.6803 168.572 84.5604C166.785 80.446 158.218 83.307 160.943 87.2524C161.777 88.4459 163.248 87.3941 162.97 86.1298C162.665 84.7293 160.278 84.8002 159.221 84.871C158.15 84.8716 157.117 85.2697 156.322 85.9881C155.39 86.9037 155.265 88.3532 155.069 89.5848C155.069 89.6393 155.118 89.721 155.156 89.6393H155.167Z" fill="#92B1CE"/>
<path id="Vector_13" d="M216.272 1.16711C217.945 0.676653 220.244 0.812888 221.645 1.94093C222.735 2.81284 223.345 4.70381 221.748 5.3523C221.122 5.60298 219.056 5.60297 218.811 4.75286C218.637 4.15886 219.274 3.80465 219.787 3.72836C221.285 3.49403 222.691 5.07438 222.653 6.48579C222.604 8.60563 220.135 9.30862 218.391 9.32496C218.277 9.32496 218.304 9.54294 218.391 9.54839C221.361 9.83721 224.675 7.08523 222.032 4.3278C221.323 3.58667 220.212 3.05807 219.187 3.46678C218.609 3.70111 218.152 4.22426 218.441 4.85095C218.904 5.8591 220.767 6.03348 221.672 5.77736C221.912 5.71356 222.136 5.60124 222.331 5.44735C222.525 5.29347 222.687 5.10128 222.804 4.88268C222.921 4.66408 222.993 4.42371 223.014 4.17642C223.035 3.92914 223.005 3.68019 222.925 3.44498C222.195 0.763844 218.441 0.175301 216.217 1.00907C216.152 1.00907 216.179 1.1889 216.255 1.16711H216.272Z" fill="#92B1CE"/>
<path id="Vector_14" d="M238.195 113.661C239.868 113.17 242.167 113.306 243.568 114.434C244.658 115.306 245.268 117.197 243.672 117.846C243.045 118.096 240.979 118.096 240.734 117.241C240.56 116.652 241.197 116.298 241.704 116.216C243.208 115.987 244.609 117.568 244.576 118.979C244.527 121.099 242.058 121.802 240.315 121.818C240.2 121.818 240.227 122.036 240.315 122.042C243.285 122.331 246.598 119.579 243.955 116.821C243.246 116.08 242.135 115.552 241.11 115.96C240.533 116.189 240.075 116.718 240.364 117.344C240.827 118.353 242.691 118.527 243.595 118.265C243.835 118.203 244.06 118.092 244.255 117.938C244.45 117.785 244.611 117.593 244.729 117.375C244.847 117.157 244.918 116.916 244.939 116.669C244.959 116.422 244.929 116.173 244.849 115.938C244.118 113.252 240.364 112.669 238.14 113.503C238.075 113.503 238.097 113.682 238.178 113.661H238.195Z" fill="#92B1CE"/>
<path id="Vector_15" d="M225.934 32.1801C223.939 32.7741 222.086 36.2835 223.939 37.8802C225.514 39.2371 228.696 38.932 228.168 36.3435C228.163 36.314 228.15 36.2863 228.131 36.2633C228.112 36.2404 228.087 36.2229 228.059 36.2127C225.966 35.7113 225.274 38.1527 225.716 39.7657C226.397 42.2725 228.925 42.2398 230.751 40.9319C230.811 40.8883 230.784 40.7139 230.696 40.7575C229.203 41.5041 227.111 42.1689 226.201 40.2616C225.716 39.2426 225.699 37.5369 226.636 36.7685C226.88 36.541 227.202 36.4161 227.536 36.4198C228.233 36.5015 228.113 37.2535 227.721 37.7331C227.094 38.496 225.835 38.4143 224.996 38.12C222.124 37.1009 224.097 33.3789 225.972 32.3326C226.026 32.3 226.015 32.1583 225.934 32.1801Z" fill="#92B1CE"/>
<path id="Vector_16" d="M181.58 23.4118C179.226 23.1121 174.164 25.0957 175.482 28.3164C176.185 30.0329 179.324 31.1337 180.354 29.1665C180.376 29.1129 180.377 29.0528 180.355 28.9989C180.334 28.945 180.292 28.9015 180.24 28.8777C175.335 26.0984 170.169 34.1255 175.373 37.0519C175.537 37.1445 175.531 36.8666 175.439 36.7957C174.99 36.4883 174.606 36.0944 174.311 35.6371C174.016 35.1798 173.816 34.6682 173.721 34.1324C173.626 33.5965 173.639 33.0471 173.759 32.5163C173.879 31.9856 174.103 31.484 174.42 31.0411C174.95 30.1946 175.704 29.5117 176.599 29.0684C177.27 28.7523 178.954 28.3055 179.58 28.9594C179.864 29.2646 179.858 28.8831 179.711 29.2373C179.571 29.4477 179.357 29.5976 179.112 29.6569C178.577 29.8268 177.999 29.8076 177.477 29.6024C176.387 29.221 175.531 28.2183 175.842 27.0139C176.414 24.5998 179.488 23.7442 181.64 23.7061C181.787 23.7061 181.695 23.4282 181.58 23.4118Z" fill="#92B1CE"/>
<path id="Vector_17" d="M192.294 1.68481C192.294 1.68481 192.152 4.32236 194.109 5.78827L196.158 5.16158C196.158 5.16158 194.79 4.50764 194.109 1.68481H192.294Z" fill="#455A64"/>
<path id="Vector_18" d="M157.777 65.5363C157.777 65.5363 157.63 68.1738 159.586 69.6397L161.641 69.013C161.641 69.013 160.267 68.3591 159.586 65.5363H157.777Z" fill="#455A64"/>
<path id="Vector_19" d="M174.529 95.2577C174.529 95.2577 174.381 97.8898 176.343 99.3557L178.392 98.7345C178.392 98.7345 177.024 98.0751 176.343 95.2577H174.529Z" fill="#37474F"/>
<path id="Vector_20" d="M238.756 14.8998C238.756 14.8998 237.557 17.2539 235.132 17.5428L233.666 15.9733C233.666 15.9733 235.181 16.0932 237.187 13.9951L238.756 14.8998Z" fill="#455A64"/>
<path id="Vector_21" d="M224.702 99.0723C224.702 99.0723 223.508 101.426 221.078 101.71L219.612 100.146C219.612 100.146 221.132 100.26 223.132 98.1622L224.702 99.0723Z" fill="#455A64"/>
<path id="Vector_22" d="M191.16 49.6292C191.16 49.6292 189.967 51.9834 187.536 52.2668L186.071 50.7028C186.071 50.7028 187.591 50.8172 189.591 48.7192L191.16 49.6292Z" fill="#92B1CE"/>
<path id="Vector_23" d="M169.357 20.5781C169.357 20.5781 168.164 22.9323 165.739 23.2211L164.273 21.6517C164.273 21.6517 165.788 21.7716 167.793 19.6735L169.357 20.5781Z" fill="#455A64"/>
<path id="Vector_24" d="M214.637 24.1202C214.637 24.1202 212.015 24.4472 210.419 22.5889L210.904 20.5018C210.904 20.5018 211.65 21.826 214.511 22.311L214.637 24.1202Z" fill="#92B1CE"/>
<path id="Vector_25" d="M176.632 11.2541C176.632 11.2541 174.016 11.581 172.42 9.7282L172.899 7.64105C172.899 7.64105 173.651 8.95983 176.512 9.45028L176.632 11.2541Z" fill="#92B1CE"/>
<path id="Vector_26" d="M132.562 5.53213C132.562 5.53213 129.947 5.8591 128.35 4.00628L128.829 1.91913C128.829 1.91913 129.581 3.2379 132.437 3.72836L132.562 5.53213Z" fill="#92B1CE"/>
<path id="Vector_27" d="M163.918 40.6921C163.918 40.6921 161.303 41.0136 159.706 39.1608L160.186 37.0737C160.186 37.0737 160.938 38.3979 163.799 38.8829L163.918 40.6921Z" fill="#92B1CE"/>
<path id="Vector_28" d="M242.331 60.2067C242.331 60.2067 239.71 60.5282 238.119 58.6754L238.598 56.5883C238.598 56.5883 239.35 57.9125 242.206 58.3975L242.331 60.2067Z" fill="#92B1CE"/>
<path id="Vector_29" d="M196.692 33.7931C196.692 33.7931 195.498 36.1473 193.068 36.4361L191.602 34.8666C191.602 34.8666 193.395 35.1446 195.416 33.0465L196.692 33.7931Z" fill="#455A64"/>
<path id="Vector_30" d="M199.329 37.2699C199.329 37.2699 198.86 39.8693 196.604 40.8393L194.751 39.7494C196.062 39.1579 197.152 38.1657 197.863 36.9156L199.329 37.2699Z" fill="#37474F"/>
<path id="Vector_31" d="M107.222 3.87547C109.773 3.62479 113.217 7.86993 110.721 9.91349C109.342 11.0524 106.323 10.5565 106.361 8.43668C106.368 8.37886 106.394 8.3249 106.434 8.28273C106.475 8.24055 106.527 8.21238 106.585 8.20235C108.59 7.7446 110.568 8.60016 110.23 10.9271C110.05 11.9268 109.536 12.8357 108.771 13.5049C108.007 14.1742 107.038 14.5641 106.023 14.6109C105.898 14.6109 105.942 14.4039 106.023 14.3875C107.767 14.0169 109.413 12.9325 109.751 11.0688C109.83 10.7399 109.837 10.3979 109.772 10.0661C109.707 9.73416 109.572 9.42008 109.375 9.14511C109.139 8.85532 108.822 8.64273 108.465 8.53477C108.17 8.44213 107.091 8.2732 106.857 8.53477C106.383 9.02522 107.664 9.84264 108.045 9.97343C108.42 10.1104 108.822 10.1619 109.22 10.1242C109.617 10.0865 110.002 9.96053 110.345 9.75545C111.402 9.01977 111.14 7.62471 110.628 6.6329C109.941 5.30323 108.726 4.21334 107.168 4.16429C107.031 4.16429 107.102 3.89727 107.211 3.88637L107.222 3.87547Z" fill="#92B1CE"/>
<path id="Vector_32" d="M103.135 93.2033C102.334 91.3995 102.416 89.5303 100.089 88.9309C99.0643 88.6693 96.6393 88.4295 95.8655 89.345C95.727 89.5643 95.6712 89.8258 95.7081 90.0825C95.7451 90.3392 95.8724 90.5743 96.0671 90.7455C96.6775 91.2905 97.157 90.6366 97.2878 90.0644C97.4098 89.5302 97.3632 88.9714 97.1544 88.4648C96.9455 87.9583 96.5847 87.529 96.1216 87.2361C95.1401 86.5842 93.949 86.3259 92.7856 86.5127C91.6222 86.6996 90.5719 87.3178 89.8438 88.2442C89.7621 88.3478 89.6694 88.2442 89.7076 88.1243C91.495 84.01 100.062 86.871 97.3368 90.8164C96.5031 92.0098 95.0263 90.9526 95.3042 89.6938C95.6148 88.2933 98.0289 88.3641 99.0534 88.4295C100.126 88.4319 101.16 88.8296 101.958 89.5467C102.89 90.4676 103.015 91.9172 103.211 93.1433C103.211 93.2033 103.162 93.2796 103.124 93.2033H103.135Z" fill="#92B1CE"/>
<path id="Vector_33" d="M36.1665 1.16711C34.4935 0.676653 32.1939 0.812888 30.7879 1.94093C29.698 2.81284 29.0931 4.70381 30.6898 5.3523C31.3165 5.60298 33.3818 5.60297 33.6271 4.75286C33.8014 4.15886 33.1639 3.80465 32.6516 3.72836C31.153 3.49403 29.747 5.07438 29.7797 6.48579C29.8342 8.60563 32.3028 9.30862 34.0467 9.32496C34.1611 9.32496 34.1339 9.54294 34.0467 9.54839C31.0767 9.83721 27.7634 7.08523 30.401 4.3278C31.1149 3.58667 32.2266 3.05807 33.2511 3.46678C33.8287 3.70111 34.2865 4.22426 33.9976 4.85095C33.5344 5.8591 31.6707 6.03348 30.7661 5.77736C30.5263 5.71356 30.3021 5.60124 30.1074 5.44735C29.9127 5.29347 29.7516 5.10128 29.6342 4.88268C29.5167 4.66408 29.4453 4.42371 29.4244 4.17642C29.4035 3.92914 29.4336 3.68019 29.5127 3.44498C30.2429 0.763844 33.9922 0.175301 36.221 1.00907C36.2864 1.00907 36.2592 1.1889 36.1829 1.16711H36.1665Z" fill="#92B1CE"/>
<path id="Vector_34" d="M16.7065 111.644C15.0335 111.154 12.7338 111.29 11.3278 112.418C10.2379 113.29 9.62761 115.181 11.2298 115.829C11.8564 116.08 13.9163 116.08 14.167 115.23C14.336 114.636 13.6984 114.282 13.1916 114.205C11.6875 113.971 10.287 115.552 10.3197 116.963C10.3687 119.083 12.8373 119.786 14.5812 119.802C14.7011 119.802 14.6684 120.02 14.5812 120.031C11.6112 120.314 8.29794 117.562 10.9355 114.805C11.6494 114.064 12.7556 113.535 13.7801 113.944C14.3632 114.178 14.821 114.701 14.5321 115.328C14.0689 116.336 12.1998 116.511 11.2951 116.254C11.0554 116.191 10.8313 116.078 10.6368 115.925C10.4422 115.771 10.2815 115.578 10.1644 115.359C10.0474 115.141 9.97659 114.9 9.95643 114.653C9.93626 114.406 9.96717 114.157 10.0472 113.922C10.772 111.241 14.5267 110.68 16.7555 111.486C16.8209 111.486 16.7937 111.666 16.7174 111.644H16.7065Z" fill="#92B1CE"/>
<path id="Vector_35" d="M20.9952 33.1882C22.9897 33.7822 24.8425 37.2916 22.9897 38.8883C21.4148 40.2507 18.2323 39.9401 18.7609 37.3516C18.7669 37.3225 18.7799 37.2953 18.799 37.2725C18.818 37.2496 18.8424 37.2319 18.8699 37.2208C20.9625 36.7249 21.6546 39.1663 21.2132 40.7793C20.532 43.2806 18.0034 43.2534 16.1779 41.94C16.1179 41.8964 16.1452 41.7275 16.2324 41.7711C17.7255 42.5177 19.8181 43.1771 20.7282 41.2697C21.2132 40.2507 21.2295 38.545 20.2922 37.7821C20.049 37.5531 19.7271 37.4263 19.3931 37.4279C18.6955 37.5096 18.8154 38.2671 19.2078 38.7412C19.8345 39.5041 21.0933 39.4224 21.9325 39.1281C24.8044 38.1145 22.8317 34.3871 20.9571 33.3408C20.9026 33.3081 20.9135 33.1664 20.9952 33.1882Z" fill="#92B1CE"/>
<path id="Vector_36" d="M27.3329 77.8194C23.9379 78.0918 24.5483 84.5386 27.2893 85.4105C27.4578 85.4708 27.6366 85.497 27.8152 85.4876C27.9939 85.4783 28.1689 85.4335 28.3302 85.356C28.5313 85.2081 28.6927 85.0128 28.8002 84.7875C28.9076 84.5622 28.9577 84.3138 28.946 84.0645C28.619 82.9746 26.7662 84.3587 26.5537 84.7892C26.2009 85.3566 26.0362 86.0208 26.0832 86.6872C26.1301 87.3536 26.3863 87.9881 26.8152 88.5003C28.2103 90.0098 30.8805 90.0589 32.6244 89.187C32.7116 89.1379 32.7279 89.3069 32.668 89.3505C30.7879 90.5548 27.6381 90.3804 26.243 88.4731C25.1532 86.9472 25.8997 82.8983 28.3302 83.2579C30.5972 83.5904 29.0277 86.1734 27.3111 85.8301C25.5946 85.4868 24.9733 83.2089 24.8098 81.7975C24.6028 80.021 25.1314 77.6232 27.3329 77.6613C27.4038 77.6613 27.3983 77.8139 27.3329 77.8194Z" fill="#92B1CE"/>
<path id="Vector_37" d="M69.9696 23.4118C72.3238 23.1121 77.3864 25.0957 76.0676 28.3164C75.3646 30.0329 72.2257 31.1337 71.1958 29.1665C71.1736 29.1129 71.1732 29.0528 71.1946 28.9989C71.2159 28.945 71.2574 28.9015 71.3102 28.8777C76.2147 26.0984 81.3808 34.1255 76.1766 37.0519C76.0131 37.1445 76.0185 36.8666 76.1112 36.7957C76.561 36.4883 76.9449 36.0941 77.2403 35.6364C77.5358 35.1786 77.7369 34.6665 77.8318 34.13C77.9267 33.5934 77.9136 33.0434 77.7931 32.512C77.6726 31.9807 77.4473 31.4787 77.1302 31.0356C76.6001 30.1891 75.8455 29.5063 74.9504 29.0629C74.2802 28.7469 72.5963 28.3 71.9696 28.9539C71.6862 29.2591 71.6917 28.8776 71.8388 29.2319C71.9786 29.4423 72.1927 29.5921 72.4382 29.6515C72.9733 29.8214 73.5505 29.8022 74.0731 29.597C75.163 29.2155 76.0185 28.2128 75.7079 27.0085C75.1357 24.5944 72.0622 23.7388 69.9097 23.7007C69.7626 23.7007 69.8552 23.4227 69.9696 23.4064V23.4118Z" fill="#92B1CE"/>
<path id="Vector_38" d="M60.4167 6.48033C60.4167 6.48033 60.5638 9.11788 58.602 10.5838L56.553 9.95165C56.553 9.95165 57.9209 9.29771 58.602 6.47488L60.4167 6.48033Z" fill="#455A64"/>
<path id="Vector_39" d="M102.765 71.7541C102.765 71.7541 102.912 74.3916 100.95 75.8575L98.9009 75.2363C98.9009 75.2363 100.269 74.5769 100.95 71.7541H102.765Z" fill="#455A64"/>
<path id="Vector_40" d="M94.6667 103.279C94.6667 103.279 94.8083 105.917 92.852 107.383L90.803 106.756C90.803 106.756 92.1708 106.102 92.852 103.279H94.6667Z" fill="#37474F"/>
<path id="Vector_41" d="M12.7938 14.8998C12.7938 14.8998 13.9926 17.2539 16.4177 17.5428L17.9108 15.9733C17.9108 15.9733 16.3959 16.0932 14.3905 13.9951L12.7938 14.8998Z" fill="#455A64"/>
<path id="Vector_42" d="M38.1447 96.2005C38.1447 96.2005 39.3381 98.5546 41.7686 98.8434L43.2345 97.274C43.2345 97.274 41.7141 97.3939 39.7142 95.2958L38.1447 96.2005Z" fill="#455A64"/>
<path id="Vector_43" d="M63.9534 52.681C63.9534 52.681 65.1468 55.0351 67.5773 55.324L69.0377 53.7545C69.0377 53.7545 67.5228 53.8744 65.5228 51.7764L63.9534 52.681Z" fill="#92B1CE"/>
<path id="Vector_44" d="M87.6641 21.8696C87.6641 21.8696 88.8575 24.2238 91.288 24.5126L92.7484 22.9432C92.7484 22.9432 91.2335 23.0631 89.2335 20.965L87.6641 21.8696Z" fill="#455A64"/>
<path id="Vector_45" d="M36.9077 24.1203C36.9077 24.1203 39.5288 24.4473 41.1255 22.589L40.6405 20.5018C40.6405 20.5018 39.894 21.8261 37.033 22.3111L36.9077 24.1203Z" fill="#92B1CE"/>
<path id="Vector_46" d="M81.6696 3.712C81.6696 3.712 84.2908 4.03897 85.8875 2.18615L85.408 0.098999C85.408 0.098999 84.6559 1.41777 81.795 1.90823L81.6696 3.712Z" fill="#92B1CE"/>
<path id="Vector_47" d="M87.615 38.4905C87.615 38.4905 90.2307 38.812 91.8274 36.9592L91.3479 34.8721C91.3479 34.8721 90.5959 36.1963 87.7349 36.6813L87.615 38.4905Z" fill="#92B1CE"/>
<path id="Vector_48" d="M2.65228 90.3096C2.65228 90.3096 5.27348 90.6365 6.87018 88.7837L6.39062 86.6911C6.39062 86.6911 5.63859 88.0153 2.77762 88.5003L2.65228 90.3096Z" fill="#92B1CE"/>
<path id="Vector_49" d="M54.8582 33.7931C54.8582 33.7931 56.0516 36.1473 58.4821 36.4361L59.948 34.8666C59.948 34.8666 58.1551 35.1446 56.1334 33.0465L54.8582 33.7931Z" fill="#455A64"/>
<path id="Vector_50" d="M52.2425 37.2699C52.2425 37.2699 52.7111 39.8693 54.9672 40.8393L56.8201 39.7494C55.5091 39.1579 54.4196 38.1657 53.7084 36.9156L52.2425 37.2699Z" fill="#37474F"/>
<path id="Vector_51" d="M138.279 23.7061C138.279 23.7061 137.085 26.0603 134.655 26.3491L133.189 24.7851C133.189 24.7851 134.982 25.0576 137.004 22.9595L138.279 23.7061Z" fill="#455A64"/>
<path id="Vector_52" d="M126.53 20.8833C126.53 20.8833 126.061 23.4827 123.805 24.4581L121.952 23.3682C123.264 22.7759 124.354 21.7816 125.064 20.5291L126.53 20.8833Z" fill="#37474F"/>
</g>
<g id="freepik--character-3--inject-63">
<path id="Vector_53" d="M195.847 150.155C195.903 152.022 196.122 153.88 196.501 155.708C197.405 167.098 198.588 169.774 199.95 177.659C200.097 178.542 200.452 180.291 200.495 180.874C200.561 181.61 200.898 187.174 201.198 188.83C201.629 191.261 205.667 191.321 205.977 188.498C206.184 186.618 205.683 181.659 205.645 180.754C205.645 180.754 205.645 179.152 205.645 178.373C205.645 174.831 206.228 168.019 206.566 161.866C206.822 157.229 205.863 154.924 205.291 152.602C205.291 152.602 206.457 145.087 207.874 136.799C209.291 128.51 212.74 119.017 205.841 111.508L196.321 114.777C196.321 114.777 195.345 129.992 195.716 142.363C195.792 145.894 195.852 148.428 195.847 150.155Z" fill="#FFBDA7"/>
<path id="Vector_54" d="M191.427 163.572C192.893 165.518 193.831 167.877 194.795 170.112C194.373 171.282 193.809 172.396 193.117 173.43L189.226 168.357C189.983 166.76 190.703 165.163 191.427 163.572Z" fill="#263238"/>
<path id="Vector_55" d="M193.117 173.436C191.389 173.436 189.656 173.436 187.923 173.436C187.057 172.319 186.179 171.212 185.318 170.095C187.128 170.15 188.937 170.259 190.768 170.308L193.117 173.436Z" fill="#263238"/>
<path id="Vector_56" d="M186.844 161.387C187.934 160.586 188.032 161.54 188.97 161.976C189.624 162.281 190.714 162.689 191.351 163.561C192.245 164.782 191.542 166.956 191.106 168.52C190.689 170.042 190.706 171.65 191.155 173.163C191.673 175.419 191.624 177.261 189.896 179.234C188.517 180.814 184.141 182.733 182.637 181.757C180.071 180.122 183.836 176.46 183.782 174.28C183.717 171.504 183.352 168.744 182.692 166.046C182.594 165.616 182.545 165.158 182.806 164.956C183.978 163.905 185.755 162.188 186.844 161.387Z" fill="#37474F"/>
<path id="Vector_57" d="M188.768 111.497C186.67 113.976 176.545 126.543 173.908 130.843C172.175 133.665 173.363 137.382 174.322 140.488C175.57 144.635 177.346 149.376 178.387 152.433C180.332 158.134 181.771 161.153 183.335 166.09C184.24 167.033 185.858 166.221 186.752 165.588C187.52 165.043 188.343 163.114 188.245 162.144C187.962 159.332 188 158.875 187.64 155.605C187.095 150.384 187.193 142.232 183.646 137.518C188.959 131.627 194.784 127.491 198.659 120.598C194.474 118.341 191.825 107.884 188.768 111.497Z" fill="#FFBDA7"/>
<path id="Vector_58" d="M200.392 180.149C199.733 180.231 199.7 180.76 199.678 183.332C199.714 186.08 199.547 188.827 199.177 191.55C198.697 194.443 198.19 197.544 200.55 200.105C201.934 201.615 204.207 201.969 205.809 199.528C207.302 197.255 208.245 195.103 207.52 192.52C206.851 190.311 206.467 188.025 206.376 185.719C206.261 182.128 206.463 180.209 205.645 180.215V180.76C205.378 181.234 204.555 181.85 203.106 181.91C201.471 181.975 200.735 181.365 200.496 180.88C200.468 180.634 200.43 180.395 200.392 180.149Z" fill="#37474F"/>
<path id="Vector_59" d="M189.051 109.132C188.005 111.11 184.425 115.268 180.24 120.985C177.346 124.941 172.272 130.946 172.005 133.894C171.738 136.843 178.855 154.51 178.855 154.51C178.855 154.51 184.79 155.207 187.471 152.216C187.564 147.273 186.926 141.268 184.299 137.774C185.466 136.592 193.907 127.802 195.444 125.965C195.444 125.965 195.193 134.619 195.177 139.524C195.16 144.428 195.721 154.237 196.147 157.376C196.572 160.515 197.144 165.174 197.389 166.64C197.389 166.64 201.057 170.03 206.653 166.526C206.653 166.526 207.198 161.578 207.024 159.393C206.849 157.207 206.103 154.57 205.656 152.684C205.656 152.684 207.836 139.366 208.898 133.464C209.961 127.562 211.977 118.538 206.642 109.879C206.664 109.873 196.577 113.186 189.051 109.132Z" fill="#455A64"/>
<path id="Vector_60" d="M195.443 125.954C195.443 125.954 192.059 123.807 190.659 121.322C190.659 121.322 191.395 124.276 193.384 125.954L187.389 134.554L195.443 125.954Z" fill="#37474F"/>
<path id="Vector_61" d="M175.46 72.9201C179.656 82.4676 185.335 85.7972 187.994 91.9224C191.351 91.6554 195.961 86.0643 193.416 82.6256C190.544 81.454 181.182 71.5087 180.594 67.2745C180.076 63.5143 177.978 57.6779 178.032 54.5445C178.054 54.0222 178.263 53.5251 178.621 53.144C179.64 52.0214 179.629 51.1331 180.256 49.8743C180.757 48.9152 181.318 48.5501 181.155 48.3376C180.941 48.1123 180.649 47.9765 180.339 47.9573C180.029 47.9381 179.722 48.0369 179.482 48.234C179.007 48.5815 178.584 48.9964 178.229 49.4656C178.388 48.2941 178.713 47.1511 179.193 46.0706C180.283 43.4766 180.011 42.1633 176.539 43.1224C174.359 43.7273 173.013 45.5583 172.752 50.8116C172.627 52.99 172.64 55.1742 172.79 57.351C173.221 61.3836 173.678 65.2473 174.218 68.5823C174.444 70.0755 174.862 71.5334 175.46 72.9201Z" fill="#FFBDA7"/>
<path id="Vector_62" d="M188.654 106.456C188.354 105.05 188 102.396 187.787 100.462C184.251 97.1485 185.242 93.5355 186.529 90.8762C189.101 85.5575 191.591 82.5385 193.918 82.6257L200.294 83.0998C203.771 83.5085 206.152 83.9063 206.991 84.0861C209.138 84.5548 209.073 86.1133 209.171 88.3858C209.436 90.7261 209.357 93.0927 208.937 95.4101L206.005 101.748L205.743 105.65C205.743 105.65 209.296 112.783 209.939 117.415C208.163 116.902 206.576 115.876 205.378 114.467C205.378 114.467 202.615 118.636 195.76 118.979C188.905 119.322 185.515 113.23 185.515 113.23L188.654 106.456Z" fill="#92B1CE"/>
<path id="Vector_63" opacity="0.1" d="M202.359 98.5164C201.856 99.4898 201.082 100.297 200.131 100.84C199.179 101.384 198.091 101.64 196.997 101.579C195.941 101.555 194.91 101.253 194.009 100.703C193.107 100.152 192.367 99.3738 191.863 98.4456C191.863 98.4456 192.065 102.631 197.008 102.582C201.95 102.533 202.359 98.5164 202.359 98.5164Z" fill="#263238"/>
<path id="Vector_64" d="M203.939 59.1712C206.272 60.3756 207.465 61.8251 209.389 62.3592C211.312 62.8932 212.865 62.321 214.293 61.133C215.928 59.787 216.702 58.0868 218.397 57.0405C220.091 55.9942 222.211 55.3457 224.091 55.9887C226.445 56.7898 227.753 59.3129 228.364 61.7216C229.116 64.7134 228.832 68.0811 227.138 70.7023C224.056 75.3568 219.455 78.7969 214.119 80.4351C207.565 82.4319 200.491 81.7966 194.397 78.664C191.89 77.3779 191.084 76.2608 189.269 74.1736C187.455 72.0865 186.779 69.5361 187.346 66.1575C187.89 62.9259 189.612 60.8442 192.909 59.1167C194.604 58.1958 196.503 57.718 198.431 57.7275C200.36 57.737 202.254 58.2336 203.939 59.1712Z" fill="#92B1CE"/>
<path id="Vector_65" d="M203.939 59.1712C206.272 60.3756 207.465 61.8251 209.389 62.3592C211.312 62.8932 212.865 62.321 214.293 61.133C215.928 59.787 216.702 58.0868 218.397 57.0405C220.091 55.9942 222.211 55.3457 224.091 55.9887C226.445 56.7898 227.753 59.3129 228.364 61.7216C229.116 64.7134 228.832 68.0811 227.138 70.7023C224.056 75.3568 219.455 78.7969 214.119 80.4351C207.565 82.4319 200.491 81.7966 194.397 78.664C191.89 77.3779 191.084 76.2608 189.269 74.1736C187.455 72.0865 186.779 69.5361 187.346 66.1575C187.89 62.9259 189.612 60.8442 192.909 59.1167C194.604 58.1958 196.503 57.718 198.431 57.7275C200.36 57.737 202.254 58.2336 203.939 59.1712Z" fill="#263238"/>
<path id="Vector_66" d="M192.038 63.2474C190.828 63.9232 189.313 66.8822 189.28 73.1709C189.28 78.4951 190.97 79.852 191.825 80.2552C192.681 80.6585 194.359 80.4623 195.989 80.2552L195.912 83.4541C195.912 83.4541 191.307 88.2551 195.029 88.8164C196.888 89.0997 199.269 87.9771 200.882 86.7619C201.92 85.908 202.67 84.7548 203.029 83.4595L203.16 76.506C203.16 76.506 204.092 77.4597 205.749 76.0809C207.116 74.942 207.612 72.9802 206.593 71.8957C206.329 71.6378 206.006 71.4464 205.653 71.3373C205.3 71.2283 204.926 71.2047 204.562 71.2686C204.198 71.3325 203.854 71.4819 203.56 71.7046C203.265 71.9274 203.027 72.217 202.866 72.5497C202.866 72.5497 201.912 72.6042 201.002 70.8113C199.402 70.9481 197.801 70.5494 196.452 69.6778C195.321 68.9583 194.347 68.0178 193.589 66.9129C192.83 65.8079 192.303 64.5612 192.038 63.2474Z" fill="#FFBDA7"/>
<path id="Vector_67" d="M196.195 71.6614C196.18 71.841 196.236 72.0194 196.351 72.1581C196.467 72.2968 196.632 72.3846 196.811 72.4025C196.993 72.4115 197.171 72.3484 197.307 72.227C197.442 72.1057 197.525 71.9357 197.536 71.754C197.542 71.666 197.531 71.5776 197.503 71.494C197.475 71.4103 197.43 71.333 197.372 71.2665C197.314 71.2 197.244 71.1455 197.165 71.1062C197.086 71.0669 197 71.0435 196.912 71.0374C196.824 71.0313 196.736 71.0427 196.652 71.0707C196.568 71.0988 196.491 71.1431 196.424 71.201C196.358 71.2589 196.303 71.3294 196.264 71.4084C196.225 71.4874 196.201 71.5734 196.195 71.6614Z" fill="#263238"/>
<g id="Group" style="mix-blend-mode:multiply" opacity="0.5">
<path id="Vector_68" d="M195.259 76.0972L193.155 76.713C193.191 76.8526 193.255 76.9837 193.342 77.0987C193.429 77.2136 193.538 77.3101 193.663 77.3826C193.787 77.4551 193.925 77.5021 194.068 77.5209C194.211 77.5397 194.357 77.53 194.496 77.4922C194.779 77.4039 195.017 77.2091 195.159 76.9488C195.301 76.6886 195.337 76.3832 195.259 76.0972Z" fill="#F0997A"/>
</g>
<path id="Vector_69" d="M190.196 69.4326L191.574 68.528C191.52 68.4345 191.448 68.353 191.361 68.2887C191.274 68.2244 191.175 68.1786 191.07 68.1541C190.965 68.1296 190.855 68.1269 190.749 68.1462C190.643 68.1655 190.542 68.2064 190.452 68.2664C190.268 68.3909 190.139 68.5813 190.091 68.7983C190.043 69.0154 190.081 69.2424 190.196 69.4326Z" fill="#263238"/>
<path id="Vector_70" d="M197.199 69.3507L198.724 69.9829C198.774 69.8846 198.802 69.7771 198.807 69.6673C198.812 69.5575 198.795 69.4479 198.755 69.3453C198.716 69.2427 198.655 69.1495 198.578 69.0716C198.5 68.9937 198.407 68.9329 198.305 68.893C198.097 68.8123 197.866 68.8148 197.66 68.9001C197.454 68.9853 197.289 69.1467 197.199 69.3507Z" fill="#263238"/>
<path id="Vector_71" d="M190.517 71.3781C190.513 71.5094 190.548 71.6389 190.617 71.7506C190.686 71.8623 190.786 71.9512 190.905 72.0064C191.025 72.0615 191.157 72.0805 191.287 72.0608C191.417 72.0412 191.538 71.9839 191.636 71.8959C191.733 71.808 191.803 71.6934 191.836 71.5662C191.869 71.4391 191.864 71.3051 191.821 71.1809C191.778 71.0567 191.7 70.9477 191.596 70.8674C191.492 70.7872 191.367 70.7393 191.236 70.7296C191.146 70.7245 191.056 70.7372 190.971 70.7671C190.886 70.797 190.808 70.8435 190.741 70.9038C190.674 70.9641 190.62 71.037 190.582 71.1185C190.543 71.1999 190.521 71.2881 190.517 71.3781Z" fill="#263238"/>
<g id="Group_2" style="mix-blend-mode:multiply" opacity="0.5">
<path id="Vector_72" d="M193.738 71.0728L193.536 75.0999L191.433 74.3915L193.738 71.0728Z" fill="#F0997A"/>
</g>
<g id="Group_3" style="mix-blend-mode:multiply" opacity="0.5">
<path id="Vector_73" d="M195.989 80.2498C197.711 80.0699 201.253 79.1599 201.836 77.7593C201.601 78.4597 201.156 79.0706 200.561 79.5086C199.471 80.386 195.967 81.3179 195.967 81.3179L195.989 80.2498Z" fill="#F0997A"/>
</g>
<path id="Vector_74" d="M202.866 72.5223L202.8 75.3179C202.55 75.3122 202.303 75.2572 202.074 75.1561C201.846 75.0549 201.639 74.9095 201.466 74.7282C201.294 74.547 201.158 74.3334 201.068 74.0999C200.978 73.8663 200.936 73.6172 200.942 73.367L201.002 70.7839L202.866 72.5223Z" fill="#92B1CE"/>
<path id="Vector_75" opacity="0.5" d="M202.866 72.5223L202.8 75.3179C202.55 75.3122 202.303 75.2572 202.074 75.1561C201.846 75.0549 201.639 74.9095 201.466 74.7282C201.294 74.547 201.158 74.3334 201.068 74.0999C200.978 73.8663 200.936 73.6172 200.942 73.367L201.002 70.7839L202.866 72.5223Z" fill="#263238"/>
<path id="Vector_76" d="M221.029 73.7103C217.067 83.3559 212.163 89.2631 208.964 95.4319C203.515 95.7534 203.019 87.334 205.476 83.8354C205.476 83.8354 214.948 72.3915 215.787 68.19C216.528 64.468 218.174 58.5335 218.037 55.4001C218.008 54.878 217.786 54.3851 217.416 54.0159C216.375 52.926 216.364 52.0268 215.683 50.8062C215.138 49.858 214.593 49.5092 214.746 49.2912C214.955 49.0604 215.244 48.9174 215.554 48.8911C215.865 48.8648 216.174 48.9572 216.419 49.1495C216.901 49.4854 217.333 49.8892 217.699 50.3484C217.51 49.1824 217.158 48.0488 216.653 46.9806C215.482 44.4139 215.743 43.0897 219.236 43.9671C221.416 44.512 222.817 46.3213 223.209 51.5636C223.387 53.7388 223.425 55.923 223.323 58.103C222.996 62.1465 222.626 66.0156 222.174 69.3671C221.978 70.8575 221.593 72.317 221.029 73.7103Z" fill="#FFBDA7"/>
</g>
<g id="freepik--character-2--inject-63">
<path id="Vector_77" d="M112.448 187.73C112.846 188.787 113.44 189.839 114.628 190.231C117.069 191.043 120.241 188.945 121.554 187.381C123.145 185.485 123.385 183.463 124.551 181.888C125.718 180.313 127.363 179.316 128.159 177.953C128.487 177.444 128.68 176.86 128.721 176.256C128.762 175.652 128.649 175.047 128.393 174.498C128.019 173.816 127.45 173.26 126.758 172.902C126.579 172.793 126.263 172.782 126.066 172.673L112.448 187.73Z" fill="#263238"/>
<path id="Vector_78" d="M117.522 177.795C117.352 178.775 116.969 179.705 116.399 180.52C115.385 181.872 114.083 182.869 112.89 184.04C112.46 184.386 112.11 184.822 111.865 185.316C111.364 186.624 111.952 187.681 112.873 188.7C113.275 189.066 113.759 189.332 114.285 189.474C115.059 189.686 115.876 189.686 116.65 189.474C118.142 188.962 119.476 188.074 120.524 186.896C122.59 184.585 122.459 181.55 124.922 179.523C127.385 177.496 129.042 175.332 126.53 172.716C125.309 171.441 123.947 170.896 123.581 170.439C122.927 169.627 121.402 171.049 120.917 171.463C120.432 171.877 119.963 172.368 119.467 172.804C119.01 173.318 118.592 173.864 118.214 174.439C118.057 174.599 117.926 174.783 117.827 174.983C117.741 175.251 117.708 175.532 117.729 175.812C117.726 176.478 117.657 177.143 117.522 177.795Z" fill="#37474F"/>
<path id="Vector_79" d="M120.563 186.879C120.85 186.577 121.109 186.248 121.337 185.899C120.948 184.731 120.181 183.726 119.157 183.043C118.522 182.612 117.802 182.32 117.046 182.189C116.289 182.057 115.513 182.088 114.77 182.28C114.015 182.744 113.302 183.273 112.639 183.86C112.206 184.235 111.877 184.716 111.686 185.256C111.515 185.891 111.54 186.564 111.758 187.185C111.976 187.807 112.376 188.348 112.906 188.738C113.289 189.091 113.756 189.339 114.263 189.457C115.039 189.67 115.858 189.67 116.634 189.457C118.131 188.925 119.478 188.041 120.563 186.879Z" fill="#263238"/>
<path id="Vector_80" d="M121.854 166.308L123.326 170.814C123.326 170.814 124.454 172.291 122.677 174.002C120.901 175.714 118.912 175.637 118.056 174.596L115.522 169.812L121.854 166.308Z" fill="#B16668"/>
<path id="Vector_81" d="M158.905 157.196C159.554 157.501 161.265 157.616 162.208 156.973C164.175 155.632 164.595 151.681 163.979 149.496C163.227 146.848 161.755 145.507 161.254 143.916C160.753 142.325 160.889 140.047 160.224 138.657C159.954 138.119 159.571 137.645 159.1 137.269C158.63 136.893 158.084 136.623 157.499 136.477C157.129 136.376 156.74 136.36 156.363 136.431C155.985 136.502 155.628 136.658 155.32 136.886L154.726 137.322L158.905 157.196Z" fill="#263238"/>
<path id="Vector_82" d="M153.903 147.191C154.601 147.912 155.115 148.791 155.401 149.752C155.903 151.333 155.946 153.022 156.159 154.657C156.204 155.204 156.346 155.739 156.578 156.237C157.178 157.387 158.546 157.599 159.908 157.425C160.451 157.307 160.96 157.067 161.396 156.722C162.026 156.226 162.506 155.566 162.785 154.815C163.253 153.296 163.324 151.683 162.993 150.128C162.497 147.175 159.527 145.224 159.565 142.314C159.603 139.404 157.897 135.638 154.235 137.567C152.416 138.581 150.762 139.868 149.331 141.382C150.203 142.69 151.096 143.992 151.952 145.311C152.118 145.645 152.329 145.955 152.579 146.232C152.955 146.564 153.445 146.744 153.821 147.104L153.903 147.191Z" fill="#37474F"/>
<path id="Vector_83" d="M162.992 150.177C162.92 149.77 162.805 149.372 162.649 148.989C161.495 148.585 160.237 148.596 159.091 149.022C158.347 149.253 157.669 149.657 157.11 150.199C156.551 150.742 156.128 151.408 155.875 152.145C155.799 153.027 155.799 153.915 155.875 154.798C155.931 155.367 156.118 155.916 156.42 156.401C157.221 157.561 158.513 157.648 159.875 157.49C160.418 157.372 160.927 157.131 161.363 156.787C161.991 156.29 162.472 155.631 162.753 154.88C163.234 153.359 163.316 151.74 162.992 150.177Z" fill="#263238"/>
<path id="Vector_84" d="M150.158 139.595L152.464 139.496C153.06 139.763 153.584 140.167 153.993 140.676C154.402 141.185 154.685 141.784 154.818 142.423C154.924 143.08 154.892 143.752 154.725 144.396C154.558 145.041 154.26 145.644 153.848 146.167L150.033 146.668L150.148 139.747" fill="#B16668"/>
<path id="Vector_85" d="M150.333 139.3L134.415 139.458C134.415 139.458 137.303 118.102 136.349 105.601L110.802 102.664L110.726 102.822C106.535 113.977 102.11 128.527 99.7018 139.491C98.9607 142.87 99.3421 143.791 101.969 148.755C105.658 155.72 111.936 165.038 116.432 172.112C119.985 171.796 121.881 170.717 122.699 167.779C119.908 161.278 117.549 147.251 111.255 141.3C114.77 135.033 118.067 127.835 121.423 120.919C121.527 125.322 121.968 139.758 123.5 145.703C124.448 149.436 126.519 151.665 130.649 151.006C136.404 150.085 151.608 146.679 151.608 146.679C154.66 146.243 153.897 140.537 150.333 139.3Z" fill="#92B1CE"/>
<path id="Vector_86" opacity="0.2" d="M150.333 139.3L134.415 139.458C134.415 139.458 137.303 118.102 136.349 105.601L110.802 102.664L110.726 102.822C106.535 113.977 102.11 128.527 99.7018 139.491C98.9607 142.87 99.3421 143.791 101.969 148.755C105.658 155.72 111.936 165.038 116.432 172.112C119.985 171.796 121.881 170.717 122.699 167.779C119.908 161.278 117.549 147.251 111.255 141.3C114.77 135.033 118.067 127.835 121.423 120.919C121.527 125.322 121.968 139.758 123.5 145.703C124.448 149.436 126.519 151.665 130.649 151.006C136.404 150.085 151.608 146.679 151.608 146.679C154.66 146.243 153.897 140.537 150.333 139.3Z" fill="#263238"/>
<path id="Vector_87" opacity="0.2" d="M134.432 139.458C134.432 139.458 134.65 142.341 133.418 144.494C134.29 143.676 134.967 142.672 135.396 141.556C136.05 139.78 141.151 140.199 144.966 139.376L134.432 139.458Z" fill="#263238"/>
<path id="Vector_88" opacity="0.2" d="M121.418 120.93L121.168 116.908C118.989 115.66 117.054 114.028 115.457 112.091C116.689 114.052 118.223 115.806 120.001 117.29L120.383 120.134L114.824 134.597L121.418 120.93Z" fill="#263238"/>
<path id="Vector_89" opacity="0.2" d="M111.261 141.284C110.918 141.784 110.483 142.215 109.98 142.554C111.468 143.369 112.779 144.471 113.838 145.796C114.99 147.361 116.038 149 116.977 150.701C115.457 146.984 113.653 143.562 111.261 141.284Z" fill="#263238"/>
<path id="Vector_90" d="M101.637 60.0267C102.421 62.0485 112.111 76.3751 114.438 79.8028C121.053 76.98 116.65 69.2036 116.65 69.2036C116.65 69.2036 109.696 57.9505 108.568 56.054C108.303 55.5705 108.136 55.0388 108.078 54.49C107.936 53.4873 107.446 41.1824 108.045 37.4659C108.157 36.806 108.509 36.2105 109.032 35.7929C110.421 34.6649 110.906 33.6131 111.893 32.2943C112.661 31.2535 113.391 30.9265 113.233 30.6595C113.022 30.3553 112.703 30.1423 112.341 30.0635C111.979 29.9846 111.601 30.0457 111.282 30.2344C110.563 30.6276 109.894 31.1051 109.288 31.6568C109.639 30.2287 110.218 28.8669 111.004 27.6241C112.792 24.7686 112.688 23.1719 108.421 23.6678C105.746 23.9784 103.141 26.0492 101.882 32.1908C101.517 33.9564 101.435 36.6212 101.299 38.91C101.005 44.1088 100.808 52.3375 100.906 55.9396C100.939 57.7488 100.857 58.0104 101.637 60.0267Z" fill="#B16668"/>
<path id="Vector_91" d="M120.84 67.7161C118.546 67.3782 111.031 59.1549 111.031 59.1549C108.933 59.035 103.789 64.4137 104.808 66.6044C107.865 71.6942 111.751 76.4134 112.808 79.6831C113.685 81.525 116.034 79.961 117.047 76.0864C118.47 70.7296 122.704 68.0103 120.84 67.7161Z" fill="#92B1CE"/>
<path id="Vector_92" opacity="0.3" d="M120.84 67.7161C118.546 67.3782 111.031 59.1549 111.031 59.1549C108.933 59.035 103.789 64.4137 104.808 66.6044C107.865 71.6942 111.751 76.4134 112.808 79.6831C113.685 81.525 116.034 79.961 117.047 76.0864C118.47 70.7296 122.704 68.0103 120.84 67.7161Z" fill="#263238"/>
<path id="Vector_93" d="M137.848 77.4324L137.303 87.1979L136.709 107.966C129.173 111.492 118.045 109.366 110.475 103.268C110.475 103.268 110.906 79.367 112.464 73.8412C114.023 68.3155 116.824 67.2201 120.72 67.34C124.835 67.4708 130.121 68.0484 130.121 68.0484L134.622 69.2473C134.622 69.2473 137.941 75.4761 137.848 77.4324Z" fill="#455A64"/>
<path id="Vector_94" d="M141.037 61.3509C141.549 61.0893 143.908 62.2664 145.347 64.299C146.786 66.3317 146.884 69.2036 146.437 69.7485C145.99 70.2935 140.197 67.7159 140.197 67.7159L141.037 61.3509Z" fill="#92B1CE"/>
<path id="Vector_95" opacity="0.6" d="M141.037 61.3509C141.549 61.0893 143.908 62.2664 145.347 64.299C146.786 66.3317 146.884 69.2036 146.437 69.7485C145.99 70.2935 140.197 67.7159 140.197 67.7159L141.037 61.3509Z" fill="#263238"/>
<path id="Vector_96" d="M150.54 62.8824C149.575 64.8224 138.578 78.1681 135.935 81.367C129.619 77.9338 134.736 70.6097 134.736 70.6097C134.736 70.6097 142.704 60.0868 144.011 58.2776C144.323 57.8213 144.541 57.3085 144.655 56.7681C144.883 55.7763 146.535 43.5749 146.289 39.8202C146.239 39.1542 145.947 38.5298 145.466 38.0655C144.191 36.8066 143.804 35.7222 142.949 34.3053C142.279 33.2154 141.586 32.8067 141.766 32.5397C142.006 32.2574 142.343 32.0759 142.711 32.0315C143.079 31.9871 143.45 32.0829 143.75 32.2999C144.43 32.7592 145.052 33.2989 145.603 33.9075C145.385 32.4516 144.934 31.0402 144.268 29.7278C142.758 26.7197 143.014 25.1339 147.216 26.0276C149.848 26.5725 152.251 28.9049 152.943 35.1337C153.139 36.9265 152.97 39.5859 152.889 41.8747C152.692 47.0844 152.115 55.2913 151.679 58.8716C151.45 60.6808 151.51 60.9478 150.54 62.8824Z" fill="#B16668"/>
<path id="Vector_97" d="M133.118 68.9531L141.036 61.3238C141.036 61.3238 140.322 67.8632 146.426 69.7323L137.33 81.2362C136.279 82.9909 133.396 80.6912 132.753 76.7567C131.854 71.2745 133.118 68.9531 133.118 68.9531Z" fill="#92B1CE"/>
<path id="Vector_98" opacity="0.3" d="M133.118 68.9531L141.036 61.3238C141.036 61.3238 140.322 67.8632 146.426 69.7323L137.33 81.2362C136.279 82.9909 133.396 80.6912 132.753 76.7567C131.854 71.2745 133.118 68.9531 133.118 68.9531Z" fill="#263238"/>
<path id="Vector_99" d="M128.911 50.5557C128.847 51.9481 128.371 53.2902 127.544 54.4123C126.717 55.5343 125.576 56.3859 124.265 56.8593C122.954 57.3326 121.532 57.4065 120.179 57.0715C118.826 56.7366 117.603 56.0079 116.664 54.9775C115.725 53.9472 115.113 52.6616 114.905 51.2833C114.697 49.9051 114.902 48.4961 115.495 47.2346C116.088 45.9731 117.042 44.9158 118.236 44.1965C119.43 43.4771 120.81 43.1281 122.203 43.1934C124.068 43.2824 125.821 44.1075 127.079 45.4876C128.336 46.8678 128.995 48.6904 128.911 50.5557Z" fill="#263238"/>
<path id="Vector_100" d="M133.805 55.8033C133.805 55.8033 132.41 61.1056 131.914 61.9666C131.586 62.5048 131.063 62.8953 130.454 63.0565L130.715 59.2855L133.805 55.8033Z" fill="#263238"/>
<path id="Vector_101" d="M132.736 48.0543C133.137 48.0266 133.539 48.0907 133.911 48.2418C134.283 48.393 134.616 48.627 134.884 48.9262C135.777 49.9344 135.112 52.9153 133.794 55.8035L131.614 55.9452L132.736 48.0543Z" fill="#263238"/>
<path id="Vector_102" d="M130.998 55.9178C131.418 56.1957 132.088 55.4001 132.633 54.866C133.178 54.332 134.966 53.6563 135.745 55.52C136.524 57.3837 134.775 59.7978 133.391 60.1629C130.998 60.7896 130.721 59.2638 130.721 59.2638L130.132 67.9829C127.031 71.5959 118.922 70.8929 122.503 67.1328L122.628 64.5498C121.572 64.6626 120.507 64.6626 119.451 64.5498C117.729 64.201 116.726 62.7787 116.269 60.8823C115.566 57.836 115.364 55.3892 116.356 49.5038C117.446 43.0516 124.999 43.3404 128.95 46.0978C132.9 48.8553 130.998 55.9178 130.998 55.9178Z" fill="#B16668"/>
<path id="Vector_103" d="M130.965 56.6427C131.183 56.6427 132.055 55.3294 132.628 54.8662C133.407 54.2232 132.737 48.0544 132.737 48.0544C133.017 47.5272 133.133 46.9279 133.068 46.3343C133.004 45.7406 132.763 45.1799 132.377 44.7247C131.412 43.5585 130.055 42.1199 125.412 42.4468C122.099 42.6812 118.464 43.5367 115.636 41.9836C115.321 42.9147 115.292 43.9191 115.555 44.8666C115.817 45.814 116.358 46.6607 117.107 47.2969C117.107 47.2969 118.121 48.0271 120.862 48.4903C123.393 48.7974 125.947 48.8703 128.491 48.7083C129.292 48.632 129.429 49.4167 129.761 51.5529C130.072 53.433 130.235 56.5937 130.965 56.6427Z" fill="#263238"/>
<path id="Vector_104" d="M132.709 48.5339L135.38 47.2533C135.305 47.074 135.194 46.9119 135.055 46.7767C134.915 46.6415 134.75 46.536 134.568 46.4667C134.387 46.3974 134.193 46.3657 133.999 46.3735C133.805 46.3813 133.615 46.4285 133.44 46.5121C133.08 46.6889 132.802 46.9984 132.666 47.3756C132.53 47.7527 132.545 48.168 132.709 48.5339Z" fill="#263238"/>
<path id="Vector_105" d="M122.611 64.5771C122.611 64.5771 126.513 63.9831 127.897 63.3292C128.71 62.9507 129.392 62.3378 129.854 61.569C129.613 62.3507 129.216 63.0755 128.688 63.6998C127.641 64.915 122.568 65.6071 122.568 65.6071L122.611 64.5771Z" fill="#9A4A4D"/>
<path id="Vector_106" d="M124.012 54.6373C124.01 54.7904 124.053 54.9408 124.136 55.0695C124.219 55.1983 124.338 55.2997 124.478 55.3612C124.619 55.4227 124.774 55.4415 124.925 55.4152C125.076 55.3889 125.215 55.3188 125.327 55.2135C125.438 55.1082 125.516 54.9725 125.55 54.8233C125.585 54.6741 125.575 54.518 125.521 54.3745C125.467 54.2311 125.373 54.1066 125.249 54.0167C125.125 53.9267 124.977 53.8753 124.824 53.8689C124.72 53.866 124.617 53.8836 124.52 53.9206C124.423 53.9577 124.334 54.0135 124.259 54.0848C124.183 54.1562 124.123 54.2417 124.08 54.3365C124.038 54.4313 124.015 54.5335 124.012 54.6373Z" fill="#263238"/>
<path id="Vector_107" d="M124.972 51.7381L126.606 52.7299C126.736 52.508 126.774 52.2448 126.715 51.9951C126.655 51.7454 126.501 51.5284 126.285 51.3893C126.177 51.3212 126.056 51.276 125.93 51.2567C125.804 51.2373 125.675 51.2443 125.552 51.277C125.429 51.3097 125.314 51.3676 125.214 51.4469C125.114 51.5263 125.031 51.6254 124.972 51.7381Z" fill="#263238"/>
<path id="Vector_108" d="M123.184 59.945L121.386 60.5227C121.417 60.6423 121.472 60.7545 121.548 60.8525C121.623 60.9506 121.718 61.0325 121.825 61.0934C121.933 61.1544 122.052 61.1931 122.175 61.2074C122.298 61.2217 122.422 61.2112 122.541 61.1766C122.789 61.0976 122.996 60.9239 123.116 60.6932C123.237 60.4625 123.261 60.1936 123.184 59.945Z" fill="#9A4A4D"/>
<path id="Vector_109" d="M117.216 52.0161L118.78 50.9262C118.715 50.8205 118.628 50.7293 118.526 50.6582C118.424 50.5871 118.309 50.5375 118.187 50.5125C118.065 50.4875 117.939 50.4876 117.817 50.5128C117.695 50.5381 117.58 50.5878 117.478 50.6592C117.27 50.8095 117.127 51.0336 117.078 51.2858C117.029 51.5379 117.079 51.7991 117.216 52.0161Z" fill="#263238"/>
<path id="Vector_110" d="M117.582 54.0923C117.569 54.1987 117.579 54.3065 117.61 54.4089C117.642 54.5113 117.694 54.6062 117.763 54.6876C117.833 54.769 117.918 54.8351 118.015 54.882C118.111 54.9288 118.216 54.9554 118.323 54.9599C118.43 54.9644 118.537 54.9468 118.637 54.9082C118.736 54.8696 118.827 54.8108 118.903 54.7356C118.98 54.6603 119.039 54.5701 119.079 54.4707C119.119 54.3713 119.138 54.2647 119.135 54.1577C119.147 54.0513 119.137 53.9436 119.106 53.8412C119.074 53.7388 119.022 53.6439 118.953 53.5625C118.883 53.4811 118.798 53.4149 118.701 53.368C118.605 53.3212 118.5 53.2947 118.393 53.2902C118.286 53.2857 118.179 53.3033 118.08 53.3419C117.98 53.3805 117.889 53.4392 117.813 53.5145C117.737 53.5897 117.677 53.6799 117.637 53.7793C117.597 53.8787 117.578 53.9853 117.582 54.0923Z" fill="#263238"/>
<path id="Vector_111" d="M121.565 53.5474L121.091 58.1958L118.699 57.2476L121.565 53.5474Z" fill="#9A4A4D"/>
</g>
<g id="freepik--character-1--inject-63">
<path id="Vector_112" d="M70.6291 186.482L70.8471 185.724C70.8852 186.7 71.1577 190.923 72.6944 193.452C73.9206 195.457 75.6862 197.882 75.7679 199.746C75.8497 201.61 71.9152 201.179 70.4329 200.449C68.7163 199.599 66.6728 197.888 65.8553 195.948C65.2777 194.585 65.0924 193.114 64.7 192.062C64.3077 191.01 63.1197 189.61 63.0652 188.504C63.038 187.899 63.6102 186.76 64.1551 185.817C64.7 184.874 65.3812 183.959 65.6755 184.139C65.6428 184.253 65.3649 184.76 65.3649 184.76C65.621 185.305 66.5638 186.03 67.7463 186.422C68.5365 186.678 70.4601 187.059 70.6291 186.482Z" fill="#263238"/>
<path id="Vector_113" d="M35.4255 171.992L35.9704 171.823C35.4255 172.629 33.3111 176.504 33.055 179.452C32.8479 181.795 32.8315 184.793 31.7907 186.34C30.7498 187.888 27.8344 185.207 27.0823 183.741C26.1995 182.041 25.5728 179.447 26.0633 177.403C26.4121 175.964 27.1532 174.678 27.442 173.588C27.7308 172.499 27.6273 170.678 28.2376 169.774C28.5755 169.267 29.7144 168.684 30.728 168.27C31.6599 167.883 32.8206 167.501 32.9514 167.823C32.8588 167.894 32.3302 168.133 32.3302 168.133C32.2212 168.722 32.5427 169.872 33.262 170.891C33.8248 171.509 34.5942 171.901 35.4255 171.992Z" fill="#263238"/>
<path id="Vector_114" d="M83.8495 153.333C84.3944 151.66 85.7623 148.107 85.4843 146.368C84.2909 138.243 81.6425 128.974 80.7542 126.047C79.5608 122.124 78.1657 116.336 76.6616 109.699C76.6998 107.851 76.7161 106.206 76.7161 106.206L59.2778 107.71C57.267 112.614 54.0736 121.045 55.2834 131.687C55.8427 136.654 56.1229 141.648 56.1226 146.646C54.4877 147.66 52.6731 148.826 51.218 149.834C47.3271 152.559 33.6925 166.951 33.6925 166.951L32.2866 168.074L32.1776 168.155V168.188C31.4256 169.093 30.5427 172.951 29.8289 175.272C29.3548 176.847 29.1204 179.332 30.2158 181.267C31.2512 183.081 32.3956 183.528 32.8424 181.506C32.9024 180.782 32.946 180.068 33.0059 179.403C33.1857 177.343 34.3574 174.983 35.2347 173.474C35.9486 172.248 36.4227 171.218 37.7633 170.351C37.7633 170.351 54.0627 159.714 61.899 154.711C63.1907 153.907 64.3051 152.848 65.1745 151.599C66.0439 150.351 66.6501 148.938 66.9561 147.447C67.5011 144.624 69.4356 137.676 70.095 134.178L73.9096 148.712C73.0432 150.118 71.4301 155.115 70.4765 161.245C69.2013 169.42 66.1877 181.915 66.1877 181.915L65.4194 184.771L65.3812 184.902C65.3158 186.073 66.8907 189.708 67.7136 192.013C68.2585 193.561 69.5446 195.702 71.5609 196.596C73.4737 197.441 74.6726 197.108 73.8225 195.223C73.4587 194.6 73.1365 193.954 72.8579 193.288C71.984 191.397 71.3893 189.389 71.0923 187.327C70.9255 185.947 71.113 184.548 71.6372 183.261C71.6372 183.261 80.9558 162.281 83.8495 153.333Z" fill="#FFA8A7"/>
<path id="Vector_115" d="M58.3024 110.304C58.3024 110.304 54.8965 115.432 54.2098 119.759C53.0327 127.126 54.6403 138.892 54.6403 138.892C54.6403 138.892 56.9073 137.573 57.2288 135.077C57.2288 135.077 58.1662 137.328 59.8827 138.461C62.0353 139.894 65.3322 140.706 69.5011 139.447L70.0841 134.172L70.907 138.614C73.6094 138.868 76.3344 138.51 78.8796 137.567C82.9503 136.009 83.855 131.508 83.855 131.508L76.8033 110.298C76.8033 110.298 77.2012 113.824 68.7981 114.151C60.395 114.478 58.3024 110.304 58.3024 110.304Z" fill="#455A64"/>
<path id="Vector_116" d="M88.8194 75.4161C84.7432 85.0072 79.103 88.4077 76.5363 94.5656C73.174 94.3367 68.5038 88.8 71.0051 85.3342C73.8606 84.1298 83.1084 74.0701 83.6424 69.8304C84.1165 66.0648 86.1437 60.2012 86.0511 57.0678C86.0221 56.5471 85.8075 56.0541 85.4462 55.6782C84.4162 54.5883 84.4108 53.6727 83.7514 52.4466C83.2337 51.493 82.6615 51.1333 82.8304 50.9208C83.0419 50.6923 83.3319 50.5524 83.6423 50.5292C83.9527 50.5059 84.2603 50.601 84.5034 50.7954C84.9812 51.1415 85.4085 51.5523 85.7732 52.0161C85.5967 50.8465 85.2574 49.7074 84.765 48.632C83.6206 46.0489 83.8985 44.7356 87.3862 45.6511C89.566 46.2288 90.9393 48.0489 91.2662 53.2804C91.4159 55.4572 91.4286 57.6413 91.3044 59.8197C90.9229 63.8578 90.5087 67.7215 90.0128 71.0675C89.8037 72.5623 89.4025 74.0239 88.8194 75.4161Z" fill="#FFA8A7"/>
<path id="Vector_117" d="M58.9073 108.505L58.5967 104.604L55.5886 98.3039C55.1454 95.9899 55.0389 93.624 55.2725 91.2796C55.3706 89.0071 55.2725 87.4649 57.4523 86.9581C58.2915 86.7674 60.6675 86.3423 64.1442 85.8682L70.5092 85.3233C72.8361 85.2034 75.3592 88.1952 77.9968 93.4975C79.3156 96.1459 80.351 99.748 76.8524 103.099C76.8524 103.792 76.9396 106.129 76.8524 107.53C74.0943 108.934 71.0733 109.746 67.9829 109.914C64.8926 110.082 61.8013 109.602 58.9073 108.505Z" fill="#92B1CE"/>
<path id="Vector_118" d="M75.599 68.5116V68.3155C75.0268 62.2066 71.5228 61.0731 65.1197 61.727C60.3895 62.212 56.1008 64.4518 54.673 68.6206C54.1454 70.1878 53.9859 71.8555 54.2071 73.4942C54.4282 75.133 55.024 76.6988 55.9482 78.07C57.9046 80.9691 61.2124 82.5876 65.888 82.1517C71.9806 82.8655 76.1712 74.615 75.599 68.5116Z" fill="#263238"/>
<path id="Vector_119" d="M35.3492 75.3453C34.2539 74.5056 33.3725 73.4188 32.777 72.1737C31.8179 70.1738 31.3765 67.1112 33.6108 65.7433C33.8644 65.5805 34.1511 65.4763 34.45 65.4382C35.4418 65.3401 36.2375 66.1739 37.0113 66.7951C37.7621 67.381 38.6216 67.8123 39.5402 68.0639C40.4587 68.3155 41.4181 68.3825 42.3627 68.261C44.4117 67.9994 46.2427 66.8605 47.8503 65.569C48.3441 65.1343 48.894 64.7677 49.4851 64.4791C49.9737 64.2775 50.4938 64.1632 51.0219 64.1412C52.7754 64.0547 54.5059 64.5699 55.9264 65.6017C56.1946 65.7557 56.4291 65.9619 56.6163 66.208C56.8035 66.4542 56.9395 66.7353 57.0163 67.0349C57.048 67.2462 57.0168 67.4622 56.9267 67.656C56.8366 67.8498 56.6915 68.0128 56.5095 68.1248C56.0953 68.3591 55.5558 68.1248 55.1199 68.0757C54.0262 67.9212 52.9131 68.1566 51.9755 68.7406C51.0818 69.3509 50.5205 70.3318 49.9211 71.231C48.0247 74.0701 45.2236 76.5333 41.8504 77.0238C40.7096 77.1875 39.5477 77.1235 38.4318 76.8354C37.3159 76.5473 36.2681 76.0409 35.3492 75.3453Z" fill="#263238"/>
<path id="Vector_120" d="M71.3974 65.6125C72.6508 66.2011 74.3946 69.0457 74.8361 75.3181C75.2066 80.6313 73.6154 82.1027 72.7871 82.5604C71.9587 83.0182 70.2694 82.9419 68.6291 82.8274L68.9234 86.0099C68.9234 86.0099 73.8279 90.4785 70.1768 91.2959C68.3457 91.7101 65.8935 90.751 64.1823 89.6611C63.087 88.88 62.2592 87.7801 61.8118 86.5113L61.2015 79.585C61.2015 79.585 60.335 80.5986 58.5912 79.3398C57.1471 78.2989 56.5149 76.3753 57.4577 75.22C57.7037 74.9449 58.0116 74.7322 58.3558 74.5993C58.7001 74.4664 59.071 74.417 59.438 74.4553C59.8051 74.4936 60.1578 74.6185 60.4672 74.8196C60.7766 75.0207 61.0338 75.2924 61.2178 75.6123C61.2178 75.6123 62.1769 75.6123 62.9617 73.7486C64.5667 73.7758 66.1351 73.2676 67.4193 72.3045C68.4993 71.5148 69.4084 70.5149 70.092 69.3649C70.7757 68.2149 71.2197 66.9385 71.3974 65.6125Z" fill="#FFA8A7"/>
<path id="Vector_121" d="M67.828 74.2881C67.8582 74.4642 67.8181 74.6452 67.7161 74.792C67.6142 74.9388 67.4586 75.0396 67.283 75.0728C67.1035 75.093 66.9232 75.0421 66.7806 74.9311C66.6381 74.8201 66.5446 74.6578 66.5201 74.4788C66.5013 74.3892 66.5011 74.2966 66.5195 74.2069C66.5379 74.1172 66.5745 74.0321 66.627 73.9571C66.6795 73.8821 66.7469 73.8186 66.8249 73.7706C66.9029 73.7226 66.9899 73.6911 67.0806 73.6781C67.1712 73.665 67.2636 73.6707 67.352 73.6947C67.4404 73.7187 67.5229 73.7606 67.5945 73.8178C67.666 73.8749 67.7251 73.9462 67.7681 74.027C67.8111 74.1079 67.837 74.1968 67.8443 74.2881H67.828Z" fill="#263238"/>
<g id="Group_4" style="mix-blend-mode:multiply" opacity="0.5">
<path id="Vector_122" d="M69.0705 78.6477L71.2121 79.1218C71.186 79.2635 71.132 79.3986 71.0533 79.5193C70.9747 79.64 70.8728 79.7439 70.7537 79.8249C70.6346 79.906 70.5007 79.9627 70.3595 79.9917C70.2184 80.0206 70.0729 80.0213 69.9315 79.9937C69.6415 79.9247 69.3896 79.7458 69.229 79.4947C69.0684 79.2436 69.0116 78.9399 69.0705 78.6477Z" fill="#F28F8F"/>
</g>
<path id="Vector_123" d="M73.6644 71.6506L72.2258 70.8441C72.274 70.7492 72.3408 70.6651 72.4221 70.5965C72.5034 70.5279 72.5977 70.4764 72.6993 70.4449C72.8009 70.4134 72.9078 70.4026 73.0137 70.4131C73.1196 70.4236 73.2223 70.4553 73.3157 70.5062C73.5108 70.6146 73.6562 70.7944 73.7213 71.0079C73.7863 71.2214 73.7659 71.4518 73.6644 71.6506Z" fill="#263238"/>
<path id="Vector_124" d="M66.6836 72.032L65.2014 72.7677C65.1507 72.6739 65.1193 72.5709 65.1091 72.4648C65.099 72.3588 65.1103 72.2517 65.1423 72.15C65.1743 72.0484 65.2264 71.9542 65.2956 71.8731C65.3647 71.7919 65.4494 71.7255 65.5447 71.6778C65.744 71.5811 65.9727 71.5639 66.1842 71.6297C66.3957 71.6955 66.5743 71.8393 66.6836 72.032Z" fill="#263238"/>
<path id="Vector_125" d="M73.4955 73.6124C73.5091 73.7431 73.4839 73.8749 73.4232 73.9915C73.3625 74.108 73.2689 74.2041 73.1539 74.2679C73.039 74.3316 72.9079 74.3602 72.7769 74.35C72.6458 74.3398 72.5207 74.2914 72.417 74.2106C72.3133 74.1299 72.2357 74.0205 72.1937 73.8959C72.1517 73.7714 72.1472 73.6373 72.1808 73.5102C72.2144 73.3832 72.2847 73.2688 72.3828 73.1814C72.4809 73.094 72.6025 73.0373 72.7326 73.0184C72.9124 72.9968 73.0934 73.0471 73.2363 73.1583C73.3792 73.2696 73.4723 73.4328 73.4955 73.6124Z" fill="#263238"/>
<g id="Group_5" style="mix-blend-mode:multiply" opacity="0.5">
<path id="Vector_126" d="M70.2429 73.5305L70.7224 77.5359L72.7769 76.6858L70.2429 73.5305Z" fill="#F28F8F"/>
</g>
<g id="Group_6" style="mix-blend-mode:multiply" opacity="0.5">
<path id="Vector_127" d="M68.6297 82.8273C66.9023 82.7619 63.3002 82.0807 62.6353 80.7456C62.9225 81.4202 63.4094 81.9907 64.0304 82.3804C65.1639 83.1761 68.7387 83.8627 68.7387 83.8627L68.6297 82.8273Z" fill="#F28F8F"/>
</g>
<path id="Vector_128" d="M55.9863 65.836L56.771 62.9695C56.9621 63.0115 57.1426 63.0918 57.3019 63.2054C57.4611 63.319 57.5956 63.4637 57.6975 63.6307C57.7993 63.7977 57.8663 63.9835 57.8944 64.1771C57.9225 64.3707 57.9111 64.5679 57.8609 64.757C57.7477 65.1437 57.4895 65.4718 57.1402 65.6728C56.791 65.8738 56.3776 65.9323 55.9863 65.836Z" fill="#263238"/>
<path id="Vector_129" d="M55.7357 66.0812L54.1008 63.6071C54.2579 63.4918 54.4366 63.4094 54.6264 63.3649C54.8161 63.3205 55.0129 63.3149 55.2048 63.3485C55.3968 63.3821 55.5799 63.4542 55.7433 63.5604C55.9066 63.6667 56.0468 63.8049 56.1553 63.9668C56.3699 64.3058 56.446 64.7143 56.3679 65.1078C56.2898 65.5014 56.0635 65.8498 55.7357 66.0812Z" fill="#263238"/>
<path id="Vector_130" d="M61.2342 75.6069L61.4958 78.397C61.7452 78.3738 61.9876 78.3016 62.2091 78.1847C62.4306 78.0678 62.6269 77.9084 62.7868 77.7156C62.9467 77.5228 63.0671 77.3003 63.141 77.061C63.215 76.8217 63.2411 76.5702 63.2178 76.3208L62.978 73.7432L61.2342 75.6069Z" fill="#263238"/>
<path id="Vector_131" d="M43.2673 76.7294C47.3435 86.326 52.3188 92.1733 55.5885 98.3039C61.038 98.56 61.4412 90.1297 58.9399 86.6638C58.9399 86.6638 49.3325 75.3289 48.4443 71.1492C47.6541 67.4326 45.943 61.5145 46.0356 58.3811C46.0601 57.8594 46.2754 57.3649 46.6405 56.9915C47.6704 55.9016 47.6704 54.9915 48.3353 53.7654C48.8475 52.8063 49.4252 52.452 49.2562 52.2341C49.0418 52.0083 48.7508 51.8709 48.4403 51.8487C48.1297 51.8265 47.8221 51.9212 47.5778 52.1142C47.1018 52.4584 46.6763 52.8674 46.3135 53.3294C46.487 52.1598 46.8245 51.0206 47.3162 49.9453C48.4606 47.3677 48.1827 46.0489 44.7005 46.9699C42.5207 47.5148 41.1474 49.3622 40.8204 54.5991C40.6716 56.7889 40.6643 58.986 40.7986 61.1766C41.1747 65.2147 41.5888 69.0838 42.0847 72.4244C42.2953 73.9036 42.6926 75.3502 43.2673 76.7294Z" fill="#FFA8A7"/>
<path id="Vector_132" d="M70.9073 138.467L70.0845 134.401L70.9291 126.652C72.7152 125.9 74.3967 124.92 75.9318 123.737C74.9852 125.086 73.83 126.276 72.5095 127.262L70.6294 133.927L70.9073 138.467Z" fill="#37474F"/>
<path id="Vector_133" opacity="0.1" d="M62.2314 101.334C62.7474 102.3 63.5315 103.097 64.4895 103.629C65.4475 104.161 66.5387 104.405 67.6319 104.331C68.6877 104.294 69.7151 103.979 70.6099 103.417C71.5046 102.855 72.2351 102.067 72.7271 101.132C72.7271 101.132 72.5745 105.317 67.6319 105.328C62.6892 105.339 62.2314 101.334 62.2314 101.334Z" fill="#263238"/>
</g>
</g>
</svg>
