<svg width="20" height="20" viewBox="0 0 20 20" fill="none" xmlns="http://www.w3.org/2000/svg">
<g opacity="0.5">
<path d="M10.0003 18.9583C5.05866 18.9583 1.04199 14.9416 1.04199 9.99996C1.04199 5.05829 5.05866 1.04163 10.0003 1.04163C14.942 1.04163 18.9587 5.05829 18.9587 9.99996C18.9587 14.9416 14.942 18.9583 10.0003 18.9583ZM10.0003 2.29163C5.75033 2.29163 2.29199 5.74996 2.29199 9.99996C2.29199 14.25 5.75033 17.7083 10.0003 17.7083C14.2503 17.7083 17.7087 14.25 17.7087 9.99996C17.7087 5.74996 14.2503 2.29163 10.0003 2.29163Z" fill="#09090B"/>
<path d="M13.0919 13.275C12.9835 13.275 12.8752 13.25 12.7752 13.1833L10.1919 11.6416C9.55019 11.2583 9.0752 10.4166 9.0752 9.67497V6.2583C9.0752 5.91663 9.35853 5.6333 9.7002 5.6333C10.0419 5.6333 10.3252 5.91663 10.3252 6.2583V9.67497C10.3252 9.97497 10.5752 10.4166 10.8335 10.5666L13.4169 12.1083C13.7169 12.2833 13.8085 12.6666 13.6335 12.9666C13.5085 13.1666 13.3002 13.275 13.0919 13.275Z" fill="#18181B"/>
</g>
</svg>
