<svg id="Layer_1-2" xmlns="http://www.w3.org/2000/svg" xmlns:xlink="http://www.w3.org/1999/xlink" width="240.747" height="64.343" viewBox="0 0 240.747 64.343">
  <defs>
    <clipPath id="clip-path">
      <path id="Path_14" data-name="Path 14" d="M29.995,21.884h0L19.551,15.854a12.723,12.723,0,0,0-13.037,0A12.712,12.712,0,0,0,0,27.141V51.259A12.732,12.732,0,0,0,6.514,62.546a12.723,12.723,0,0,0,13.037,0l10.444-6.029-5.4-3.113L16.85,57.872a7.346,7.346,0,0,1-7.635,0A7.332,7.332,0,0,1,5.4,51.259V27.141a7.349,7.349,0,0,1,3.813-6.613,7.346,7.346,0,0,1,7.635,0L24.593,25l5.4,3.113h0l7.743,4.468a7.631,7.631,0,0,1,0,13.225l-7.743,4.468,5.4,3.113,5.042-2.916a13.036,13.036,0,0,0,0-22.574L35.4,24.979l-5.4-3.113h0ZM11.305,0a5.41,5.41,0,1,1-5.41,5.41A5.411,5.411,0,0,1,11.305,0Z" fill="none"/>
    </clipPath>
    <linearGradient id="linear-gradient" x1="0.506" y1="0.681" x2="0.663" y2="0.122" gradientUnits="objectBoundingBox">
      <stop offset="0" stop-color="#ffcd03"/>
      <stop offset="1" stop-color="#f16122"/>
    </linearGradient>
  </defs>
  <g id="Group_5" data-name="Group 5" clip-path="url(#clip-path)">
    <rect id="Rectangle_336" data-name="Rectangle 336" width="5.5" height="59.559" transform="matrix(0.696, -0.718, 0.718, 0.696, -24.664, 33.96)" fill="#00d0ff"/>
    <rect id="Rectangle_337" data-name="Rectangle 337" width="0.422" height="59.559" transform="matrix(0.696, -0.718, 0.718, 0.696, -20.925, 30.098)" fill="#00d0ff"/>
    <rect id="Rectangle_338" data-name="Rectangle 338" width="0.422" height="59.559" transform="matrix(0.696, -0.718, 0.718, 0.696, -20.738, 29.906)" fill="#00cfff"/>
    <rect id="Rectangle_339" data-name="Rectangle 339" width="0.413" height="59.559" transform="translate(-20.54 29.711) rotate(-45.91)" fill="#00cfff"/>
    <rect id="Rectangle_340" data-name="Rectangle 340" width="0.422" height="59.559" transform="matrix(0.696, -0.718, 0.718, 0.696, -20.349, 29.506)" fill="#00ceff"/>
    <rect id="Rectangle_341" data-name="Rectangle 341" width="0.413" height="59.559" transform="matrix(0.696, -0.718, 0.718, 0.696, -20.16, 29.299)" fill="#00ceff"/>
    <rect id="Rectangle_342" data-name="Rectangle 342" width="0.422" height="59.559" transform="translate(-19.965 29.107) rotate(-45.91)" fill="#00ceff"/>
    <rect id="Rectangle_343" data-name="Rectangle 343" width="0.422" height="59.559" transform="matrix(0.696, -0.718, 0.718, 0.696, -19.765, 28.903)" fill="#00cdff"/>
    <rect id="Rectangle_344" data-name="Rectangle 344" width="0.422" height="59.559" transform="matrix(0.695, -0.719, 0.719, 0.695, -19.588, 28.727)" fill="#00cdff"/>
    <rect id="Rectangle_345" data-name="Rectangle 345" width="0.413" height="59.559" transform="translate(-19.394 28.516) rotate(-45.92)" fill="#0cf"/>
    <rect id="Rectangle_346" data-name="Rectangle 346" width="0.422" height="59.559" transform="translate(-19.194 28.311) rotate(-45.91)" fill="#01ccff"/>
    <rect id="Rectangle_347" data-name="Rectangle 347" width="0.422" height="59.559" transform="matrix(0.696, -0.718, 0.718, 0.696, -18.987, 28.109)" fill="#01ccff"/>
    <rect id="Rectangle_348" data-name="Rectangle 348" width="0.422" height="59.559" transform="matrix(0.696, -0.718, 0.718, 0.696, -18.792, 27.908)" fill="#01cbff"/>
    <rect id="Rectangle_349" data-name="Rectangle 349" width="0.422" height="59.559" transform="matrix(0.696, -0.718, 0.718, 0.696, -18.603, 27.701)" fill="#01cbff"/>
    <rect id="Rectangle_350" data-name="Rectangle 350" width="0.422" height="59.559" transform="translate(-18.421 27.522) rotate(-45.92)" fill="#01caff"/>
    <rect id="Rectangle_351" data-name="Rectangle 351" width="0.422" height="59.559" transform="matrix(0.696, -0.718, 0.718, 0.696, -18.216, 27.305)" fill="#01caff"/>
    <rect id="Rectangle_352" data-name="Rectangle 352" width="0.413" height="59.559" transform="matrix(0.696, -0.718, 0.718, 0.696, -18.027, 27.106)" fill="#01c9ff"/>
    <rect id="Rectangle_353" data-name="Rectangle 353" width="0.422" height="59.559" transform="translate(-17.839 26.912) rotate(-45.91)" fill="#01c9ff"/>
    <rect id="Rectangle_354" data-name="Rectangle 354" width="0.422" height="59.559" transform="matrix(0.696, -0.718, 0.718, 0.696, -17.64, 26.71)" fill="#01c9ff"/>
    <rect id="Rectangle_355" data-name="Rectangle 355" width="0.422" height="59.559" transform="matrix(0.696, -0.718, 0.718, 0.696, -17.456, 26.525)" fill="#01c8ff"/>
    <rect id="Rectangle_356" data-name="Rectangle 356" width="0.422" height="59.559" transform="matrix(0.696, -0.718, 0.718, 0.696, -17.249, 26.304)" fill="#01c8ff"/>
    <rect id="Rectangle_357" data-name="Rectangle 357" width="0.422" height="59.559" transform="translate(-17.068 26.116) rotate(-45.91)" fill="#01c7ff"/>
    <rect id="Rectangle_358" data-name="Rectangle 358" width="0.422" height="59.559" transform="matrix(0.696, -0.718, 0.718, 0.696, -16.859, 25.911)" fill="#01c7ff"/>
    <rect id="Rectangle_359" data-name="Rectangle 359" width="0.422" height="59.559" transform="translate(-16.68 25.726) rotate(-45.91)" fill="#01c7ff"/>
    <rect id="Rectangle_360" data-name="Rectangle 360" width="0.413" height="59.559" transform="translate(-16.483 25.509) rotate(-45.92)" fill="#01c6ff"/>
    <rect id="Rectangle_361" data-name="Rectangle 361" width="0.422" height="59.559" transform="matrix(0.696, -0.718, 0.718, 0.696, -16.276, 25.301)" fill="#01c6ff"/>
    <rect id="Rectangle_362" data-name="Rectangle 362" width="0.422" height="59.559" transform="matrix(0.696, -0.718, 0.718, 0.696, -16.082, 25.103)" fill="#01c5ff"/>
    <rect id="Rectangle_363" data-name="Rectangle 363" width="0.422" height="59.559" transform="matrix(0.696, -0.718, 0.718, 0.696, -15.887, 24.911)" fill="#01c5ff"/>
    <rect id="Rectangle_364" data-name="Rectangle 364" width="0.422" height="59.559" transform="matrix(0.696, -0.718, 0.718, 0.696, -15.707, 24.704)" fill="#02c5ff"/>
    <rect id="Rectangle_365" data-name="Rectangle 365" width="0.422" height="59.559" transform="matrix(0.696, -0.718, 0.718, 0.696, -15.505, 24.505)" fill="#02c4ff"/>
    <rect id="Rectangle_366" data-name="Rectangle 366" width="0.422" height="59.559" transform="matrix(0.695, -0.719, 0.719, 0.695, -15.33, 24.336)" fill="#02c4ff"/>
    <rect id="Rectangle_367" data-name="Rectangle 367" width="0.413" height="59.559" transform="matrix(0.696, -0.718, 0.718, 0.696, -15.122, 24.109)" fill="#02c3ff"/>
    <rect id="Rectangle_368" data-name="Rectangle 368" width="0.422" height="59.559" transform="translate(-14.935 23.92) rotate(-45.92)" fill="#02c3ff"/>
    <rect id="Rectangle_369" data-name="Rectangle 369" width="0.422" height="59.559" transform="matrix(0.696, -0.718, 0.718, 0.696, -14.726, 23.703)" fill="#02c3ff"/>
    <rect id="Rectangle_370" data-name="Rectangle 370" width="0.422" height="59.559" transform="translate(-14.548 23.524) rotate(-45.91)" fill="#02c2ff"/>
    <rect id="Rectangle_371" data-name="Rectangle 371" width="0.413" height="59.559" transform="translate(-14.358 23.314) rotate(-45.92)" fill="#02c2ff"/>
    <rect id="Rectangle_372" data-name="Rectangle 372" width="0.422" height="59.559" transform="matrix(0.696, -0.718, 0.718, 0.696, -14.149, 23.105)" fill="#02c1ff"/>
    <rect id="Rectangle_373" data-name="Rectangle 373" width="0.422" height="59.559" transform="matrix(0.696, -0.718, 0.718, 0.696, -13.962, 22.914)" fill="#02c1ff"/>
    <rect id="Rectangle_374" data-name="Rectangle 374" width="0.422" height="59.559" transform="matrix(0.696, -0.718, 0.718, 0.696, -13.76, 22.715)" fill="#02c1ff"/>
    <rect id="Rectangle_375" data-name="Rectangle 375" width="0.422" height="59.559" transform="matrix(0.696, -0.718, 0.718, 0.696, -13.574, 22.502)" fill="#02c0ff"/>
    <rect id="Rectangle_376" data-name="Rectangle 376" width="0.413" height="59.559" transform="translate(-13.386 22.313) rotate(-45.91)" fill="#02c0ff"/>
    <rect id="Rectangle_377" data-name="Rectangle 377" width="0.422" height="59.559" transform="translate(-13.184 22.115) rotate(-45.91)" fill="#02bfff"/>
    <rect id="Rectangle_378" data-name="Rectangle 378" width="0.413" height="59.559" transform="matrix(0.696, -0.718, 0.718, 0.696, -12.988, 21.917)" fill="#02bfff"/>
    <rect id="Rectangle_379" data-name="Rectangle 379" width="0.422" height="59.559" transform="translate(-12.81 21.718) rotate(-45.91)" fill="#02beff"/>
    <rect id="Rectangle_380" data-name="Rectangle 380" width="0.422" height="59.559" transform="matrix(0.696, -0.718, 0.718, 0.696, -12.6, 21.507)" fill="#02beff"/>
    <rect id="Rectangle_381" data-name="Rectangle 381" width="0.422" height="59.559" transform="matrix(0.695, -0.719, 0.719, 0.695, -12.43, 21.338)" fill="#02beff"/>
    <rect id="Rectangle_382" data-name="Rectangle 382" width="0.413" height="59.559" transform="translate(-12.226 21.112) rotate(-45.92)" fill="#03bdff"/>
    <rect id="Rectangle_383" data-name="Rectangle 383" width="0.422" height="59.559" transform="translate(-12.031 20.923) rotate(-45.91)" fill="#03bdff"/>
    <rect id="Rectangle_384" data-name="Rectangle 384" width="0.422" height="59.559" transform="matrix(0.696, -0.718, 0.718, 0.696, -11.82, 20.705)" fill="#03bcff"/>
    <rect id="Rectangle_385" data-name="Rectangle 385" width="0.422" height="59.559" transform="matrix(0.696, -0.718, 0.718, 0.696, -11.633, 20.52)" fill="#03bcff"/>
    <rect id="Rectangle_386" data-name="Rectangle 386" width="0.422" height="59.559" transform="matrix(0.696, -0.718, 0.718, 0.696, -11.447, 20.312)" fill="#03bcff"/>
    <rect id="Rectangle_387" data-name="Rectangle 387" width="0.413" height="59.559" transform="translate(-11.253 20.127) rotate(-45.92)" fill="#03bbff"/>
    <rect id="Rectangle_388" data-name="Rectangle 388" width="0.422" height="59.559" transform="matrix(0.696, -0.718, 0.718, 0.696, -11.049, 19.916)" fill="#03bbff"/>
    <rect id="Rectangle_389" data-name="Rectangle 389" width="0.413" height="59.559" transform="matrix(0.696, -0.718, 0.718, 0.696, -10.856, 19.717)" fill="#03baff"/>
    <rect id="Rectangle_390" data-name="Rectangle 390" width="0.422" height="59.559" transform="translate(-10.676 19.523) rotate(-45.91)" fill="#03baff"/>
    <rect id="Rectangle_391" data-name="Rectangle 391" width="0.422" height="59.559" transform="matrix(0.696, -0.718, 0.718, 0.696, -10.473, 19.305)" fill="#03baff"/>
    <rect id="Rectangle_392" data-name="Rectangle 392" width="0.422" height="59.559" transform="matrix(0.696, -0.718, 0.718, 0.696, -10.296, 19.137)" fill="#03b9ff"/>
    <rect id="Rectangle_393" data-name="Rectangle 393" width="0.422" height="59.559" transform="matrix(0.696, -0.718, 0.718, 0.696, -10.085, 18.913)" fill="#03b9ff"/>
    <rect id="Rectangle_394" data-name="Rectangle 394" width="0.422" height="59.559" transform="translate(-9.898 18.721) rotate(-45.91)" fill="#03b8ff"/>
    <rect id="Rectangle_395" data-name="Rectangle 395" width="0.422" height="59.559" transform="matrix(0.696, -0.718, 0.718, 0.696, -9.703, 18.522)" fill="#03b8ff"/>
    <rect id="Rectangle_396" data-name="Rectangle 396" width="0.422" height="59.559" transform="matrix(0.696, -0.718, 0.718, 0.696, -9.501, 18.315)" fill="#03b8ff"/>
    <rect id="Rectangle_397" data-name="Rectangle 397" width="0.422" height="59.559" transform="translate(-9.33 18.121) rotate(-45.92)" fill="#03b7ff"/>
    <rect id="Rectangle_398" data-name="Rectangle 398" width="0.422" height="59.559" transform="matrix(0.696, -0.718, 0.718, 0.696, -9.118, 17.912)" fill="#03b7ff"/>
    <rect id="Rectangle_399" data-name="Rectangle 399" width="0.422" height="59.559" transform="matrix(0.696, -0.718, 0.718, 0.696, -8.922, 17.714)" fill="#03b6ff"/>
    <rect id="Rectangle_400" data-name="Rectangle 400" width="0.422" height="59.559" transform="matrix(0.696, -0.718, 0.718, 0.696, -8.729, 17.522)" fill="#04b6ff"/>
    <rect id="Rectangle_401" data-name="Rectangle 401" width="0.422" height="59.559" transform="translate(-8.543 17.321) rotate(-45.91)" fill="#04b5ff"/>
    <rect id="Rectangle_402" data-name="Rectangle 402" width="0.422" height="59.559" transform="matrix(0.696, -0.718, 0.718, 0.696, -8.347, 17.116)" fill="#04b5ff"/>
    <rect id="Rectangle_403" data-name="Rectangle 403" width="0.422" height="59.559" transform="matrix(0.695, -0.719, 0.719, 0.695, -8.166, 16.932)" fill="#04b5ff"/>
    <rect id="Rectangle_404" data-name="Rectangle 404" width="0.413" height="59.559" transform="matrix(0.696, -0.718, 0.718, 0.696, -7.958, 16.717)" fill="#04b4ff"/>
    <rect id="Rectangle_405" data-name="Rectangle 405" width="0.422" height="59.559" transform="translate(-7.774 16.532) rotate(-45.92)" fill="#04b4ff"/>
    <rect id="Rectangle_406" data-name="Rectangle 406" width="0.422" height="59.559" transform="matrix(0.696, -0.718, 0.718, 0.696, -7.569, 16.314)" fill="#04b3ff"/>
    <rect id="Rectangle_407" data-name="Rectangle 407" width="0.422" height="59.559" transform="translate(-7.384 16.126) rotate(-45.91)" fill="#04b3ff"/>
    <rect id="Rectangle_408" data-name="Rectangle 408" width="0.413" height="59.559" transform="translate(-7.183 15.925) rotate(-45.92)" fill="#04b3ff"/>
    <rect id="Rectangle_409" data-name="Rectangle 409" width="0.422" height="59.559" transform="matrix(0.696, -0.718, 0.718, 0.696, -6.991, 15.717)" fill="#04b2ff"/>
    <rect id="Rectangle_410" data-name="Rectangle 410" width="0.422" height="59.559" transform="matrix(0.696, -0.718, 0.718, 0.696, -6.789, 15.518)" fill="#04b2ff"/>
    <rect id="Rectangle_411" data-name="Rectangle 411" width="0.422" height="59.559" transform="matrix(0.696, -0.718, 0.718, 0.696, -6.602, 15.326)" fill="#04b1ff"/>
    <rect id="Rectangle_412" data-name="Rectangle 412" width="0.422" height="59.559" transform="matrix(0.696, -0.718, 0.718, 0.696, -6.406, 15.113)" fill="#04b1ff"/>
    <rect id="Rectangle_413" data-name="Rectangle 413" width="0.413" height="59.559" transform="translate(-6.216 14.918) rotate(-45.91)" fill="#04b1ff"/>
    <rect id="Rectangle_414" data-name="Rectangle 414" width="0.422" height="59.559" transform="translate(-6.029 14.726) rotate(-45.91)" fill="#04b0ff"/>
    <rect id="Rectangle_415" data-name="Rectangle 415" width="0.413" height="59.559" transform="matrix(0.696, -0.718, 0.718, 0.696, -5.826, 14.521)" fill="#04b0ff"/>
    <rect id="Rectangle_416" data-name="Rectangle 416" width="0.422" height="59.559" transform="translate(-5.647 14.33) rotate(-45.91)" fill="#04afff"/>
    <rect id="Rectangle_417" data-name="Rectangle 417" width="0.422" height="59.559" transform="matrix(0.696, -0.718, 0.718, 0.696, -5.442, 14.119)" fill="#04afff"/>
    <rect id="Rectangle_418" data-name="Rectangle 418" width="0.422" height="59.559" transform="matrix(0.695, -0.719, 0.719, 0.695, -5.263, 13.941)" fill="#05afff"/>
    <rect id="Rectangle_419" data-name="Rectangle 419" width="0.413" height="59.559" transform="translate(-5.058 13.73) rotate(-45.92)" fill="#05aeff"/>
    <rect id="Rectangle_420" data-name="Rectangle 420" width="0.413" height="59.559" transform="matrix(0.696, -0.718, 0.718, 0.696, -4.858, 13.515)" fill="#05aeff"/>
    <rect id="Rectangle_421" data-name="Rectangle 421" width="0.422" height="59.559" transform="matrix(0.696, -0.718, 0.718, 0.696, -4.66, 13.316)" fill="#05adff"/>
    <rect id="Rectangle_422" data-name="Rectangle 422" width="0.422" height="59.559" transform="matrix(0.696, -0.718, 0.718, 0.696, -4.469, 13.115)" fill="#05adff"/>
    <rect id="Rectangle_423" data-name="Rectangle 423" width="0.422" height="59.559" transform="matrix(0.696, -0.718, 0.718, 0.696, -4.29, 12.924)" fill="#05adff"/>
    <rect id="Rectangle_424" data-name="Rectangle 424" width="0.413" height="59.559" transform="translate(-4.101 12.729) rotate(-45.92)" fill="#05acff"/>
    <rect id="Rectangle_425" data-name="Rectangle 425" width="0.422" height="59.559" transform="translate(-3.903 12.531) rotate(-45.91)" fill="#05acff"/>
    <rect id="Rectangle_426" data-name="Rectangle 426" width="0.413" height="59.559" transform="matrix(0.696, -0.718, 0.718, 0.696, -3.698, 12.32)" fill="#05abff"/>
    <rect id="Rectangle_427" data-name="Rectangle 427" width="0.422" height="59.559" transform="translate(-3.515 12.128) rotate(-45.91)" fill="#05abff"/>
    <rect id="Rectangle_428" data-name="Rectangle 428" width="0.422" height="59.559" transform="matrix(0.696, -0.718, 0.718, 0.696, -3.304, 11.917)" fill="#05aaff"/>
    <rect id="Rectangle_429" data-name="Rectangle 429" width="0.422" height="59.559" transform="matrix(0.696, -0.718, 0.718, 0.696, -3.13, 11.742)" fill="#05aaff"/>
    <rect id="Rectangle_430" data-name="Rectangle 430" width="0.422" height="59.559" transform="matrix(0.696, -0.718, 0.718, 0.696, -2.926, 11.524)" fill="#05aaff"/>
    <rect id="Rectangle_431" data-name="Rectangle 431" width="0.422" height="59.559" transform="translate(-2.735 11.332) rotate(-45.91)" fill="#05a9ff"/>
    <rect id="Rectangle_432" data-name="Rectangle 432" width="0.422" height="59.559" transform="matrix(0.696, -0.718, 0.718, 0.696, -2.54, 11.118)" fill="#05a9ff"/>
    <rect id="Rectangle_433" data-name="Rectangle 433" width="0.422" height="59.559" transform="matrix(0.696, -0.718, 0.718, 0.696, -2.344, 10.926)" fill="#05a8ff"/>
    <rect id="Rectangle_434" data-name="Rectangle 434" width="0.422" height="59.559" transform="translate(-2.156 10.732) rotate(-45.92)" fill="#05a8ff"/>
    <rect id="Rectangle_435" data-name="Rectangle 435" width="0.422" height="59.559" transform="matrix(0.696, -0.718, 0.718, 0.696, -1.96, 10.523)" fill="#05a8ff"/>
    <rect id="Rectangle_436" data-name="Rectangle 436" width="0.422" height="59.559" transform="matrix(0.696, -0.718, 0.718, 0.696, -1.755, 10.319)" fill="#05a7ff"/>
    <rect id="Rectangle_437" data-name="Rectangle 437" width="0.422" height="59.559" transform="matrix(0.696, -0.718, 0.718, 0.696, -1.571, 10.124)" fill="#06a7ff"/>
    <rect id="Rectangle_438" data-name="Rectangle 438" width="0.422" height="59.559" transform="translate(-1.389 9.932) rotate(-45.91)" fill="#06a6ff"/>
    <rect id="Rectangle_439" data-name="Rectangle 439" width="0.422" height="59.559" transform="matrix(0.696, -0.718, 0.718, 0.696, -1.182, 9.721)" fill="#06a6ff"/>
    <rect id="Rectangle_440" data-name="Rectangle 440" width="0.422" height="59.559" transform="matrix(0.695, -0.719, 0.719, 0.695, -1.008, 9.544)" fill="#06a6ff"/>
    <rect id="Rectangle_441" data-name="Rectangle 441" width="0.413" height="59.559" transform="matrix(0.696, -0.718, 0.718, 0.696, -0.793, 9.322)" fill="#06a5ff"/>
    <rect id="Rectangle_442" data-name="Rectangle 442" width="0.422" height="59.559" transform="translate(-0.609 9.137) rotate(-45.91)" fill="#06a5ff"/>
    <rect id="Rectangle_443" data-name="Rectangle 443" width="0.422" height="59.559" transform="matrix(0.696, -0.718, 0.718, 0.696, -0.402, 8.925)" fill="#06a4ff"/>
    <rect id="Rectangle_444" data-name="Rectangle 444" width="0.422" height="59.559" transform="matrix(0.696, -0.718, 0.718, 0.696, -0.218, 8.731)" fill="#06a4ff"/>
    <rect id="Rectangle_445" data-name="Rectangle 445" width="0.422" height="59.559" transform="translate(-0.03 8.536) rotate(-45.92)" fill="#06a4ff"/>
    <rect id="Rectangle_446" data-name="Rectangle 446" width="0.422" height="59.559" transform="matrix(0.696, -0.718, 0.718, 0.696, 0.174, 8.322)" fill="#06a3ff"/>
    <rect id="Rectangle_447" data-name="Rectangle 447" width="0.422" height="59.559" transform="matrix(0.696, -0.718, 0.718, 0.696, 0.369, 8.13)" fill="#06a3ff"/>
    <rect id="Rectangle_448" data-name="Rectangle 448" width="0.422" height="59.559" transform="matrix(0.696, -0.718, 0.718, 0.696, 0.562, 7.922)" fill="#06a2ff"/>
    <rect id="Rectangle_449" data-name="Rectangle 449" width="0.422" height="59.559" transform="translate(0.752 7.743) rotate(-45.91)" fill="#06a2ff"/>
    <rect id="Rectangle_450" data-name="Rectangle 450" width="0.413" height="59.559" transform="translate(0.939 7.53) rotate(-45.91)" fill="#06a2ff"/>
    <rect id="Rectangle_451" data-name="Rectangle 451" width="0.422" height="59.559" transform="translate(1.135 7.338) rotate(-45.91)" fill="#06a1ff"/>
    <rect id="Rectangle_452" data-name="Rectangle 452" width="0.413" height="59.559" transform="matrix(0.696, -0.718, 0.718, 0.696, 1.33, 7.133)" fill="#06a1ff"/>
    <rect id="Rectangle_453" data-name="Rectangle 453" width="0.422" height="59.559" transform="translate(1.523 6.935) rotate(-45.91)" fill="#06a0ff"/>
    <rect id="Rectangle_454" data-name="Rectangle 454" width="0.422" height="59.559" transform="matrix(0.696, -0.718, 0.718, 0.696, 1.725, 6.73)" fill="#06a0ff"/>
    <rect id="Rectangle_455" data-name="Rectangle 455" width="0.422" height="59.559" transform="matrix(0.695, -0.719, 0.719, 0.695, 1.902, 6.546)" fill="#079fff"/>
    <rect id="Rectangle_456" data-name="Rectangle 456" width="0.413" height="59.559" transform="translate(2.104 6.341) rotate(-45.92)" fill="#079fff"/>
    <rect id="Rectangle_457" data-name="Rectangle 457" width="0.413" height="59.559" transform="matrix(0.696, -0.718, 0.718, 0.696, 2.301, 6.126)" fill="#079fff"/>
    <rect id="Rectangle_458" data-name="Rectangle 458" width="0.422" height="59.559" transform="matrix(0.696, -0.718, 0.718, 0.696, 2.506, 5.921)" fill="#079eff"/>
    <rect id="Rectangle_459" data-name="Rectangle 459" width="0.422" height="59.559" transform="matrix(0.696, -0.718, 0.718, 0.696, 2.689, 5.727)" fill="#079eff"/>
    <rect id="Rectangle_460" data-name="Rectangle 460" width="0.422" height="59.559" transform="matrix(0.696, -0.718, 0.718, 0.696, 2.888, 5.535)" fill="#079dff"/>
    <rect id="Rectangle_461" data-name="Rectangle 461" width="0.413" height="59.559" transform="translate(3.061 5.341) rotate(-45.92)" fill="#079dff"/>
    <rect id="Rectangle_462" data-name="Rectangle 462" width="0.422" height="59.559" transform="translate(3.267 5.136) rotate(-45.91)" fill="#079dff"/>
    <rect id="Rectangle_463" data-name="Rectangle 463" width="0.413" height="59.559" transform="matrix(0.696, -0.718, 0.718, 0.696, 3.461, 4.931)" fill="#079cff"/>
    <rect id="Rectangle_464" data-name="Rectangle 464" width="0.422" height="59.559" transform="translate(3.655 4.745) rotate(-45.91)" fill="#079cff"/>
    <rect id="Rectangle_465" data-name="Rectangle 465" width="0.422" height="59.559" transform="matrix(0.696, -0.718, 0.718, 0.696, 3.862, 4.521)" fill="#079bff"/>
    <rect id="Rectangle_466" data-name="Rectangle 466" width="0.422" height="59.559" transform="matrix(0.696, -0.718, 0.718, 0.696, 4.03, 4.344)" fill="#079bff"/>
    <rect id="Rectangle_467" data-name="Rectangle 467" width="0.422" height="59.559" transform="matrix(0.696, -0.718, 0.718, 0.696, 4.247, 4.129)" fill="#079bff"/>
    <rect id="Rectangle_468" data-name="Rectangle 468" width="0.413" height="59.559" transform="matrix(0.696, -0.718, 0.718, 0.696, 4.427, 3.931)" fill="#079aff"/>
    <rect id="Rectangle_469" data-name="Rectangle 469" width="0.422" height="59.559" transform="matrix(0.696, -0.718, 0.718, 0.696, 4.629, 3.732)" fill="#079aff"/>
    <rect id="Rectangle_470" data-name="Rectangle 470" width="0.422" height="59.559" transform="matrix(0.696, -0.718, 0.718, 0.696, 4.812, 3.538)" fill="#0799ff"/>
    <rect id="Rectangle_471" data-name="Rectangle 471" width="0.422" height="59.559" transform="translate(5.006 3.343) rotate(-45.92)" fill="#0799ff"/>
    <rect id="Rectangle_472" data-name="Rectangle 472" width="0.422" height="59.559" transform="matrix(0.696, -0.718, 0.718, 0.696, 5.205, 3.128)" fill="#0799ff"/>
    <rect id="Rectangle_473" data-name="Rectangle 473" width="0.422" height="59.559" transform="translate(5.392 2.94) rotate(-45.91)" fill="#0898ff"/>
    <rect id="Rectangle_474" data-name="Rectangle 474" width="0.422" height="59.559" transform="matrix(0.696, -0.718, 0.718, 0.696, 5.594, 2.729)" fill="#0898ff"/>
    <rect id="Rectangle_475" data-name="Rectangle 475" width="0.422" height="59.559" transform="translate(5.781 2.55) rotate(-45.91)" fill="#0897ff"/>
    <rect id="Rectangle_476" data-name="Rectangle 476" width="0.413" height="59.559" transform="translate(5.972 2.334) rotate(-45.92)" fill="#0897ff"/>
    <rect id="Rectangle_477" data-name="Rectangle 477" width="0.422" height="59.559" transform="matrix(0.695, -0.719, 0.719, 0.695, 6.159, 2.155)" fill="#0896ff"/>
    <rect id="Rectangle_478" data-name="Rectangle 478" width="0.413" height="59.559" transform="matrix(0.696, -0.718, 0.718, 0.696, 6.374, 1.933)" fill="#0896ff"/>
    <rect id="Rectangle_479" data-name="Rectangle 479" width="0.422" height="59.559" transform="translate(6.558 1.748) rotate(-45.91)" fill="#0896ff"/>
    <rect id="Rectangle_480" data-name="Rectangle 480" width="0.422" height="59.559" transform="matrix(0.696, -0.718, 0.718, 0.696, 6.756, 1.528)" fill="#0895ff"/>
    <rect id="Rectangle_481" data-name="Rectangle 481" width="0.422" height="59.559" transform="matrix(0.696, -0.718, 0.718, 0.696, 6.945, 1.336)" fill="#0895ff"/>
    <rect id="Rectangle_482" data-name="Rectangle 482" width="0.422" height="59.559" transform="translate(7.131 1.148) rotate(-45.92)" fill="#0894ff"/>
    <rect id="Rectangle_483" data-name="Rectangle 483" width="0.422" height="59.559" transform="matrix(0.696, -0.718, 0.718, 0.696, 7.332, 0.933)" fill="#0894ff"/>
    <rect id="Rectangle_484" data-name="Rectangle 484" width="0.422" height="59.559" transform="matrix(0.696, -0.718, 0.718, 0.696, 7.534, 0.725)" fill="#0894ff"/>
    <rect id="Rectangle_485" data-name="Rectangle 485" width="0.422" height="59.559" transform="matrix(0.696, -0.718, 0.718, 0.696, 7.721, 0.533)" fill="#0893ff"/>
    <rect id="Rectangle_486" data-name="Rectangle 486" width="0.422" height="59.559" transform="translate(7.913 0.348) rotate(-45.91)" fill="#0893ff"/>
    <rect id="Rectangle_487" data-name="Rectangle 487" width="0.413" height="59.559" transform="translate(8.102 0.141) rotate(-45.91)" fill="#0892ff"/>
    <rect id="Rectangle_488" data-name="Rectangle 488" width="0.422" height="59.559" transform="translate(8.295 -0.067) rotate(-45.91)" fill="#0892ff"/>
    <rect id="Rectangle_489" data-name="Rectangle 489" width="0.413" height="59.559" transform="matrix(0.696, -0.718, 0.718, 0.696, 8.496, -0.256)" fill="#0892ff"/>
    <rect id="Rectangle_490" data-name="Rectangle 490" width="0.422" height="59.559" transform="translate(8.693 -0.457) rotate(-45.91)" fill="#0891ff"/>
    <rect id="Rectangle_491" data-name="Rectangle 491" width="0.422" height="59.559" transform="matrix(0.696, -0.718, 0.718, 0.696, 8.89, -0.674)" fill="#0991ff"/>
    <rect id="Rectangle_492" data-name="Rectangle 492" width="0.413" height="59.559" transform="translate(9.07 -0.856) rotate(-45.92)" fill="#0990ff"/>
    <rect id="Rectangle_493" data-name="Rectangle 493" width="0.422" height="59.559" transform="matrix(0.696, -0.718, 0.718, 0.696, 9.278, -1.065)" fill="#0990ff"/>
    <rect id="Rectangle_494" data-name="Rectangle 494" width="0.413" height="59.559" transform="matrix(0.696, -0.718, 0.718, 0.696, 9.459, -1.263)" fill="#0990ff"/>
    <rect id="Rectangle_495" data-name="Rectangle 495" width="0.422" height="59.559" transform="matrix(0.696, -0.718, 0.718, 0.696, 9.661, -1.47)" fill="#098fff"/>
    <rect id="Rectangle_496" data-name="Rectangle 496" width="0.422" height="59.559" transform="matrix(0.696, -0.718, 0.718, 0.696, 9.853, -1.669)" fill="#098fff"/>
    <rect id="Rectangle_497" data-name="Rectangle 497" width="0.422" height="59.559" transform="translate(10.048 -1.848) rotate(-45.91)" fill="#098eff"/>
    <rect id="Rectangle_498" data-name="Rectangle 498" width="0.413" height="59.559" transform="translate(10.229 -2.054) rotate(-45.92)" fill="#098eff"/>
    <rect id="Rectangle_499" data-name="Rectangle 499" width="0.422" height="59.559" transform="translate(10.43 -2.253) rotate(-45.91)" fill="#098eff"/>
    <rect id="Rectangle_500" data-name="Rectangle 500" width="0.413" height="59.559" transform="matrix(0.696, -0.718, 0.718, 0.696, 10.634, -2.464)" fill="#098dff"/>
    <rect id="Rectangle_501" data-name="Rectangle 501" width="0.422" height="59.559" transform="translate(10.819 -2.652) rotate(-45.91)" fill="#098dff"/>
    <rect id="Rectangle_502" data-name="Rectangle 502" width="0.422" height="59.559" transform="matrix(0.696, -0.718, 0.718, 0.696, 11.016, -2.87)" fill="#098cff"/>
    <path id="Path_13" data-name="Path 13" d="M12.486-3.41l-.036.036L55.23,38.078l.027-.036Z" transform="translate(-1.279 0.35)" fill="#098cff" fill-rule="evenodd"/>
  </g>
  <path id="Path_15" data-name="Path 15" d="M31.488,21.884h0l10.444-6.029A13.032,13.032,0,0,1,61.482,27.141V51.259A13.032,13.032,0,0,1,41.932,62.546L31.488,56.517l5.4-3.113-5.4-3.113-7.743-4.468a7.631,7.631,0,0,1,0-13.225l7.743-4.468h0l-5.4-3.113-5.042,2.916a13.036,13.036,0,0,0,0,22.574l5.042,2.916h0l5.4,3.113,5.4-3.113,7.743,4.468A7.64,7.64,0,0,0,56.09,51.277V27.159a7.64,7.64,0,0,0-11.458-6.613l-7.743,4.468L31.5,21.9h0ZM50.177,0a5.41,5.41,0,1,0,5.41,5.41A5.411,5.411,0,0,0,50.177,0Z" transform="translate(-1.493)" fill-rule="evenodd" fill="url(#linear-gradient)"/>
  <path id="Path_16" data-name="Path 16" d="M25.27,28.973l.35.2,5.051,2.916,1.92-1.113-5.4-3.113Z" transform="translate(-2.597 -2.863)" fill="#ff7a00" fill-rule="evenodd"/>
  <path id="Path_17" data-name="Path 17" d="M25.27,60.623l.35.2,5.051,2.916,1.92-1.1-5.4-3.122Z" transform="translate(-2.597 -6.115)" fill="#0892ff" fill-rule="evenodd"/>
  <path id="Path_18" data-name="Path 18" d="M88.31,18.378V55.649H82.2V18.378Zm22.951,7.241a13.3,13.3,0,0,1,6.245,1.445,10.3,10.3,0,0,1,4.316,4.289,14.058,14.058,0,0,1,1.552,6.864V55.649h-6.056V39.131a8.577,8.577,0,0,0-1.983-6.083,7.075,7.075,0,0,0-5.419-2.117,7.176,7.176,0,0,0-5.446,2.117,8.518,8.518,0,0,0-2.01,6.083V55.649h-6.11V26.1h6.11v3.383a10.145,10.145,0,0,1,3.831-2.844,12.22,12.22,0,0,1,4.962-1.023h0Zm31.314,24.557,8.362-24.082h6.487L146.164,55.64h-7.295L127.663,26.094H134.2l8.362,24.082h0Zm22.583-27.994a3.861,3.861,0,0,1-3.921-3.921,3.861,3.861,0,0,1,3.921-3.921,3.662,3.662,0,0,1,2.737,1.131,3.782,3.782,0,0,1,1.131,2.79,3.782,3.782,0,0,1-1.131,2.79,3.718,3.718,0,0,1-2.737,1.131Zm3,3.921V55.649h-6.11V26.1Zm15.181,4.989V47.448a3.129,3.129,0,0,0,.781,2.387,3.855,3.855,0,0,0,2.656.727h3.75v5.1H185.7a9.307,9.307,0,0,1-6.326-1.929c-1.463-1.283-2.2-3.383-2.2-6.272V31.1h-3.481V26.112h3.481V18.763h6.164v7.348h7.187V31.1h-7.187Zm25.634,25.042a15.177,15.177,0,0,1-7.564-1.9,13.7,13.7,0,0,1-5.312-5.365,16.227,16.227,0,0,1-1.929-8.021,15.819,15.819,0,0,1,1.983-7.994,13.727,13.727,0,0,1,5.419-5.365,16.629,16.629,0,0,1,15.343,0,13.726,13.726,0,0,1,5.419,5.365,15.913,15.913,0,0,1,1.983,7.994,15.58,15.58,0,0,1-2.037,7.994,14.135,14.135,0,0,1-5.554,5.392,16.049,16.049,0,0,1-7.752,1.9Zm0-5.312a9.064,9.064,0,0,0,4.423-1.131,8.627,8.627,0,0,0,3.356-3.383,10.833,10.833,0,0,0,1.283-5.473,11.182,11.182,0,0,0-1.229-5.446,8.371,8.371,0,0,0-3.275-3.356,8.913,8.913,0,0,0-4.4-1.131,8.764,8.764,0,0,0-4.37,1.131,8.081,8.081,0,0,0-3.194,3.356,11.472,11.472,0,0,0-1.175,5.446q0,4.778,2.44,7.375a8.06,8.06,0,0,0,6.137,2.6h0Zm26.818-.162h13.4v4.989H228.71V50.66l13.459-19.578H228.71V26.094h20.484v4.989l-13.4,19.578Z" transform="translate(-8.447 -1.474)" fill="#011233" fill-rule="evenodd"/>
</svg>
