<svg width="84" height="83" viewBox="0 0 84 83" fill="none" xmlns="http://www.w3.org/2000/svg">
<g id="Group 14158">
<g id="Ellipse 391" filter="url(#filter0_d_8576_18334)">
<circle cx="42" cy="41" r="40" fill="white"/>
<circle cx="42" cy="41" r="39.7333" stroke="#E4E4E7" stroke-width="0.533333"/>
</g>
<g id="Group 14161">
<g id="freepik--Floor--inject-80">
<path id="Vector" d="M19.7861 66.7537H64.8808" stroke="#263238" stroke-width="0.153383" stroke-linecap="round" stroke-linejoin="round"/>
</g>
<g id="Group 14160">
<g id="freepik--character-4--inject-80">
<path id="Vector_2" d="M46.7003 60.4148L46.3935 64.6574C46.3935 64.6574 44.9624 66.0378 44.6557 66.2434C44.3489 66.4489 43.0191 66.6007 43.2246 67.0103C43.4301 67.4198 44.2983 67.3677 44.2983 67.3677H48.2862C48.4508 67.0173 48.5043 66.625 48.4396 66.2434C48.3369 65.5777 48.2341 64.3506 48.2341 64.3506L49.001 60.516L46.7003 60.4148Z" fill="white" stroke="#263238" stroke-width="0.153383" stroke-linecap="round" stroke-linejoin="round"/>
<path id="Vector_3" d="M44.2983 67.3673H48.2862C48.4508 67.017 48.5043 66.6247 48.4396 66.243C48.4136 66.0805 48.389 65.8841 48.366 65.6801H46.8536C46.8536 65.6801 46.7524 65.1694 46.7003 64.6064C46.6757 64.335 46.5469 64.315 46.415 64.3641L46.3935 64.6571C46.3935 64.6571 44.9624 66.0375 44.6557 66.243C44.3489 66.4486 43.0191 66.6004 43.2246 67.01C43.4301 67.4195 44.2983 67.3673 44.2983 67.3673Z" fill="white" stroke="#263238" stroke-width="0.153383" stroke-linecap="round" stroke-linejoin="round"/>
<path id="Vector_4" d="M53.9619 60.6187L54.4727 66.1911C54.4727 66.1911 54.7288 67.7249 55.0356 67.7771C55.3424 67.8292 56.5694 68.0317 56.7734 67.3675C56.9774 66.7034 55.9559 64.6572 55.9559 64.6572L56.3639 60.6187H53.9619Z" fill="white" stroke="#263238" stroke-width="0.153383" stroke-linecap="round" stroke-linejoin="round"/>
<path id="Vector_5" d="M54.4721 66.191C54.4721 66.191 54.7282 67.7248 55.035 67.777C55.3417 67.8291 56.5688 68.0316 56.7728 67.3674C56.9768 66.7033 55.9553 64.6572 55.9553 64.6572C55.9553 64.6572 55.443 64.2492 55.1884 64.5559C55.0122 64.7883 54.874 65.0472 54.7788 65.3228L54.377 65.1556L54.4721 66.191Z" fill="white" stroke="#263238" stroke-width="0.153383" stroke-linecap="round" stroke-linejoin="round"/>
<path id="Vector_6" d="M46.3939 38.8381C46.1758 40.5508 46.0734 42.2761 46.0872 44.0026C46.0872 47.1208 46.3433 60.005 46.3433 60.005L49.3082 59.9023L50.8942 45.9965L51.2516 46.5073L53.3483 59.9023C53.3483 59.9023 54.1152 60.3118 54.626 60.3118C55.1368 60.3118 56.62 59.8516 56.62 59.8516C56.62 59.8516 56.416 44.5133 56.4666 43.6436C56.5172 42.7739 56.2105 40.2186 56.2105 40.2186C56.2105 40.2186 54.7794 40.6281 52.3253 40.2692C49.8711 39.9103 48.4401 39.401 48.0305 39.1955C47.621 38.99 46.3939 38.8381 46.3939 38.8381Z" fill="#263238" stroke="#263238" stroke-width="0.153383" stroke-linecap="round" stroke-linejoin="round"/>
<path id="Vector_7" d="M50.1016 46.1241L52.1722 45.2805" stroke="#808080" stroke-width="0.153383" stroke-linecap="round" stroke-linejoin="round"/>
<path id="Vector_8" d="M47.4941 40.5254C47.4941 40.5254 47.3407 41.5224 46.4971 42.7494" stroke="#808080" stroke-width="0.153383" stroke-linecap="round" stroke-linejoin="round"/>
<path id="Vector_9" d="M54.7031 41.2156C54.9685 41.9745 55.448 42.6404 56.0836 43.1329" stroke="#808080" stroke-width="0.153383" stroke-linecap="round" stroke-linejoin="round"/>
<path id="Vector_10" d="M52.2027 22.9983C52.2027 22.9983 47.4294 24.4769 47.3051 24.7852C47.1809 25.0935 43.2221 32.4237 43.4982 32.64C43.7743 32.8562 46.3818 32.6998 46.5045 32.64C46.6272 32.5801 47.7055 29.8377 47.7055 29.8377C47.7055 29.8377 47.6441 32.732 47.6441 32.9467C47.6441 33.1615 47.6441 34.6339 47.0904 35.7506C46.5367 36.8672 46.1348 39.0146 46.1348 39.26V39.6603C46.1348 39.6603 49.4004 41.7525 51.8944 41.415C53.4071 41.2084 54.9004 40.8786 56.3594 40.4288C56.3594 40.4288 56.2673 38.5207 56.0204 37.6265C55.7734 36.7322 55.2535 33.8394 55.2535 33.5311C55.2535 33.2228 55.6538 32.6384 55.6845 32.5449C55.7151 32.4513 57.1017 27.6489 57.1017 27.6489L58.272 31.5908L60.2737 31.2841C60.2737 31.2841 59.6264 25.1871 59.2261 24.842C58.8258 24.4968 54.0218 23.2406 54.0218 23.2406L52.2027 22.9983Z" fill="white"/>
<path id="Vector_11" d="M46.5041 32.6384C46.6112 32.48 46.6983 32.3089 46.7634 32.1292H43.6251C43.5086 32.4221 43.458 32.6077 43.4978 32.6399C43.7755 32.8562 46.3814 32.7028 46.5041 32.6384Z" fill="#92B1CE"/>
<path id="Vector_12" d="M47.3084 35.2156C47.2476 35.3981 47.1749 35.5764 47.0906 35.7493C46.9277 36.0912 46.7913 36.445 46.6826 36.8077H55.8289C55.7276 36.3291 55.6157 35.7524 55.5221 35.2156H47.3084Z" fill="#92B1CE"/>
<path id="Vector_13" d="M56.157 38.3015H46.3052C46.2317 38.617 46.1774 38.9366 46.1426 39.2586V39.659C46.1426 39.659 46.2883 39.7525 46.5368 39.8936H56.3334C56.295 39.4626 56.2398 38.8384 56.157 38.3015Z" fill="#92B1CE"/>
<path id="Vector_14" d="M55.8042 32.1292H47.6596C47.6504 32.5494 47.6442 32.8792 47.6442 32.9452C47.6442 33.0111 47.6442 33.3286 47.6074 33.7228H55.2689C55.2582 33.6323 55.2505 33.5694 55.2505 33.5311C55.2505 33.2243 55.6508 32.6384 55.6815 32.5448C55.6877 32.5295 55.7337 32.373 55.8042 32.1292Z" fill="#92B1CE"/>
<path id="Vector_15" d="M56.2368 30.6366C56.3902 30.1058 56.5528 29.5399 56.6969 29.0444H45.1012C44.8189 29.5981 44.5444 30.1442 44.3066 30.6366H47.3866C47.5691 30.1856 47.7056 29.8359 47.7056 29.8359C47.7056 29.8359 47.7056 30.1779 47.6887 30.6366H56.2368Z" fill="#92B1CE"/>
<path id="Vector_16" d="M52.2028 22.9983C52.2028 22.9983 49.2057 23.9278 47.9004 24.4662H58.2783C56.7659 23.9677 54.0189 23.2391 54.0189 23.2391L52.2028 22.9983Z" fill="#92B1CE"/>
<path id="Vector_17" d="M46.7005 25.9539C46.4627 26.414 46.1744 26.957 45.8691 27.546H59.8025C59.7197 26.9677 59.6307 26.4109 59.5448 25.9539H46.7005Z" fill="#92B1CE"/>
<path id="Vector_18" d="M57.5127 29.0444L57.9851 30.6366H60.1984C60.1524 30.2286 60.0865 29.6641 60.0082 29.0444H57.5127Z" fill="#92B1CE"/>
<path id="Vector_19" d="M52.2027 22.9983C52.2027 22.9983 47.4294 24.4769 47.3051 24.7852C47.1809 25.0935 43.2221 32.4237 43.4982 32.64C43.7743 32.8562 46.3818 32.6998 46.5045 32.64C46.6272 32.5801 47.7055 29.8377 47.7055 29.8377C47.7055 29.8377 47.6441 32.732 47.6441 32.9467C47.6441 33.1615 47.6441 34.6339 47.0904 35.7506C46.5367 36.8672 46.1348 39.0146 46.1348 39.26V39.6603C46.1348 39.6603 49.4004 41.7525 51.8944 41.415C53.4071 41.2084 54.9004 40.8786 56.3594 40.4288C56.3594 40.4288 56.2673 38.5207 56.0204 37.6265C55.7734 36.7322 55.2535 33.8394 55.2535 33.5311C55.2535 33.2228 55.6538 32.6384 55.6845 32.5449C55.7151 32.4513 57.1017 27.6489 57.1017 27.6489L58.272 31.5908L60.2737 31.2841C60.2737 31.2841 59.6264 25.1871 59.2261 24.842C58.8258 24.4968 54.0218 23.2406 54.0218 23.2406L52.2027 22.9983Z" stroke="#263238" stroke-width="0.153383" stroke-linecap="round" stroke-linejoin="round"/>
<path id="Vector_20" d="M52.6032 20.782L51.8945 23.276L52.7565 26.109L54.5112 23.615L55.2812 22.2299L52.6032 20.782Z" fill="white" stroke="#263238" stroke-width="0.153383" stroke-linecap="round" stroke-linejoin="round"/>
<path id="Vector_21" d="M52.497 21.1545L52.2822 21.9107L52.3635 22.3448C52.5456 22.8646 52.8496 23.3333 53.2501 23.7114C53.51 23.9203 53.8127 24.0695 54.1366 24.1486L54.5124 23.6148L55.2042 22.3693L52.497 21.1545Z" fill="#263238" stroke="#263238" stroke-width="0.153383" stroke-linecap="round" stroke-linejoin="round"/>
<path id="Vector_22" d="M52.2715 18.3861C52.2715 18.3861 52.1089 17.926 52.0767 16.9581C52.0445 15.9903 52.2393 15.1068 52.5645 15.2709C52.8896 15.435 52.8237 15.9519 52.8237 15.9519C52.9728 15.5493 53.2369 15.1993 53.5832 14.9454C53.9295 14.6916 54.3428 14.545 54.7717 14.5239C56.2978 14.4273 55.8745 15.0439 55.8745 15.0439C55.8745 15.0439 58.3102 14.8491 59.1538 15.8875C59.9974 16.9259 59.8348 17.9321 59.614 17.9321H59.1277C59.1277 17.9321 59.8747 20.1086 59.3225 20.5304C58.7704 20.9522 57.7642 19.4568 57.7642 19.4568C57.7642 19.4568 57.6338 19.9767 57.3746 20.1071C57.2177 20.185 57.0545 20.2497 56.8868 20.3004C56.8868 20.3004 55.8806 20.0089 55.3622 19.6193C54.8437 19.2297 54.0308 18.061 54.0308 18.061C54.0308 18.061 53.155 19.1346 52.8298 19.262C52.6405 19.3372 52.456 19.4243 52.2776 19.5227L52.2715 18.3861Z" fill="#263238" stroke="#263238" stroke-width="0.153383" stroke-linecap="round" stroke-linejoin="round"/>
<path id="Vector_23" d="M52.5182 19.0077C52.5182 19.0077 52.5182 17.7683 52.0872 18.1993C51.6562 18.6303 51.4951 19.385 51.7651 19.7623L52.0335 20.1396L52.3034 20.3559C52.3034 20.3559 52.0872 21.3253 52.3034 21.9189C52.5197 22.5125 52.8955 23.3193 53.8127 23.2119C54.73 23.1045 55.4999 22.6797 55.8742 21.925C56.2485 21.1704 57.0414 19.9725 57.0414 19.9725C57.0414 19.9725 55.6947 19.9188 54.9401 18.8405C54.1854 17.7622 54.0198 17.1165 54.0198 17.1165C54.0198 17.1165 53.2728 18.6856 52.5182 19.0077Z" fill="white" stroke="#263238" stroke-width="0.153383" stroke-linecap="round" stroke-linejoin="round"/>
<path id="Vector_24" d="M53.1484 19.6838C53.227 19.8321 53.3521 19.9506 53.5045 20.0209C53.6569 20.0913 53.8282 20.1098 53.992 20.0734" stroke="#263238" stroke-width="0.153383" stroke-linecap="round" stroke-linejoin="round"/>
<path id="Vector_25" d="M54.8359 20.4324C54.866 20.5296 54.9155 20.6197 54.9813 20.6973C55.0471 20.7749 55.1279 20.8384 55.2189 20.884C55.3099 20.9295 55.4092 20.9562 55.5107 20.9624C55.6123 20.9686 55.7141 20.9543 55.8099 20.9201" stroke="#263238" stroke-width="0.153383" stroke-linecap="round" stroke-linejoin="round"/>
<path id="Vector_26" d="M53.5391 21.2742C53.5391 21.2742 53.6357 21.6316 54.2523 21.5027" stroke="#263238" stroke-width="0.153383" stroke-linecap="round" stroke-linejoin="round"/>
<path id="Vector_27" d="M53.1152 21.4368C53.1152 21.4368 53.1812 22.1515 54.3178 22.1515" stroke="#263238" stroke-width="0.153383" stroke-linecap="round" stroke-linejoin="round"/>
<path id="Vector_28" d="M53.376 19.1652C53.5475 19.1527 53.7195 19.1815 53.8775 19.2493C54.0355 19.3171 54.1749 19.4219 54.284 19.5548" stroke="#263238" stroke-width="0.153383" stroke-linecap="round" stroke-linejoin="round"/>
<path id="Vector_29" d="M55.0957 20.0087C55.0957 20.0087 55.6157 19.9443 56.0053 20.6223" stroke="#263238" stroke-width="0.153383" stroke-linecap="round" stroke-linejoin="round"/>
<path id="Vector_30" d="M52.1408 19.0886C52.1408 19.0886 51.6469 19.0886 51.6162 19.3034C51.5856 19.5181 51.6162 22.506 51.8632 24.138C52.1101 25.77 52.4169 27.4342 52.5089 27.4649C52.601 27.4956 55.3128 22.6916 55.4355 22.506" stroke="#263238" stroke-width="0.153383" stroke-linecap="round" stroke-linejoin="round"/>
<path id="Vector_31" d="M47.4756 28.3269L47.9066 32.7305L49.6613 32.6385L49.2916 28.2026L47.4756 28.3269Z" fill="#263238" stroke="#263238" stroke-width="0.153383" stroke-miterlimit="10"/>
<path id="Vector_32" d="M46.7512 32.3609L47.0902 30.3899L47.6132 29.4973L47.6439 30.2642C47.6439 30.2642 49.2452 29.1905 49.2759 29.4328C49.3066 29.6752 48.1056 30.6338 48.1056 30.6338V30.9099C48.1056 30.9099 49.2145 30.2964 49.3327 30.2642C49.4508 30.232 49.7652 29.9574 49.7345 30.2335C49.7038 30.5096 49.302 30.7565 49.1486 30.8792C48.9952 31.0019 48.3479 31.4038 48.3479 31.4038C48.3479 31.4038 49.575 30.7259 49.575 30.9437C49.575 31.1615 49.2682 31.4376 49.1747 31.5296C49.0811 31.6216 48.7743 32.0526 48.5903 32.2689C48.4062 32.4852 47.1117 32.9453 47.1117 32.9453C47.1117 32.9453 44.0041 34.2368 43.4565 34.3626C42.909 34.4884 42.8614 33.1018 43.2311 32.6401C43.6007 32.1784 43.9489 32.114 44.4413 31.9913C44.9336 31.8686 46.7512 32.3609 46.7512 32.3609Z" fill="white" stroke="#263238" stroke-width="0.153383" stroke-miterlimit="10"/>
<path id="Vector_33" d="M49.1533 32.7029C49.1533 32.7029 49.3374 34.2121 49.7669 34.9192C50.1963 35.6263 51.3682 35.9668 51.9219 35.4131C52.4756 34.8594 52.787 33.6232 52.7563 32.0893C52.7256 30.5555 52.5093 27.4709 52.5093 27.4709" stroke="#263238" stroke-width="0.153383" stroke-linecap="round" stroke-linejoin="round"/>
<path id="Vector_34" d="M45.9854 58.8809L46.1893 60.9761H49.6144L49.7172 58.9315L45.9854 58.8809Z" fill="white" stroke="#263238" stroke-width="0.153383" stroke-linecap="round" stroke-linejoin="round"/>
<path id="Vector_35" d="M53.041 59.2381L53.2956 60.9759L56.8234 61.0281L56.9262 58.9819L53.041 59.2381Z" fill="white" stroke="#263238" stroke-width="0.153383" stroke-linecap="round" stroke-linejoin="round"/>
<path id="Vector_36" d="M56.2981 20.9047L56.0512 21.9523C56.0512 21.9523 54.7275 22.7192 54.6707 23.0612C54.614 23.4033 57.6571 30.8209 57.9347 31.3132C58.2123 31.8056 58.5482 32.6385 59.3826 32.4529C60.217 32.2673 60.553 31.0724 60.2753 30.5126C59.9977 29.9527 55.6861 23.457 55.6861 23.457L57.4117 21.8863C57.4117 21.8863 57.4423 20.469 57.381 20.1607C57.3196 19.8524 57.2874 19.7297 57.2874 19.7297C57.2874 19.7297 56.4822 20.7206 56.2981 20.9047Z" fill="white" stroke="#263238" stroke-width="0.153383" stroke-linecap="round" stroke-linejoin="round"/>
<path id="Vector_37" d="M56.5254 20.7358V22.0733L56.2539 22.5335" stroke="#263238" stroke-width="0.153383" stroke-linecap="round" stroke-linejoin="round"/>
<path id="Vector_38" d="M56.8885 20.3003C56.8885 20.3003 56.9299 21.7191 56.9299 21.8863C56.9058 22.036 56.8487 22.1785 56.7627 22.3035" stroke="#263238" stroke-width="0.153383" stroke-linecap="round" stroke-linejoin="round"/>
<path id="Vector_39" d="M57.1113 20.0256C57.1113 20.0256 57.2356 21.6346 57.2356 21.8018C57.222 21.9255 57.1712 22.0421 57.0898 22.1362" stroke="#263238" stroke-width="0.153383" stroke-linecap="round" stroke-linejoin="round"/>
</g>
<g id="freepik--character-1--inject-80">
<path id="Vector_40" d="M36.8192 63.7857C36.8973 64.0628 36.9999 64.3323 37.126 64.591C37.2794 64.8594 37.5095 65.7797 37.8162 65.9331C38.123 66.0865 38.238 66.5466 38.238 66.8534C38.238 67.1602 38.1613 67.2369 37.9696 67.2369H34.135C34.135 67.2369 34.0967 66.7384 34.0967 66.2782C34.0967 65.8181 34.1734 65.0895 34.1734 64.8978V63.6707C34.7461 63.602 35.3221 63.5636 35.8989 63.5557C36.7042 63.5557 36.8192 63.7857 36.8192 63.7857Z" fill="white" stroke="#263238" stroke-width="0.153383" stroke-linecap="round" stroke-linejoin="round"/>
<path id="Vector_41" d="M30.1083 63.6709L29.4181 65.4348C29.4181 65.4348 28.5361 66.2784 28.5361 66.6235C28.5361 66.9687 28.7279 67.122 28.8429 67.122H32.7542C32.8424 66.7189 32.8554 66.3029 32.7925 65.895C32.6775 65.3198 32.4474 64.4378 32.4474 64.4378L30.9136 63.6326L30.1083 63.6709Z" fill="white" stroke="#263238" stroke-width="0.153383" stroke-linecap="round" stroke-linejoin="round"/>
<path id="Vector_42" d="M29.3799 48.2178L30.1085 61.7922C30.1085 61.7922 29.61 62.6358 29.725 62.8659C29.8411 63.2035 29.9309 63.5497 29.9934 63.9012L31.4122 64.7448C31.4122 64.7448 32.4092 64.5914 32.4475 64.4381C32.4859 64.2847 32.6009 63.4411 32.6393 62.9042C32.6776 62.3674 32.4475 61.8689 32.4859 61.332C32.5242 60.7952 33.3295 50.4035 33.3295 50.4035L33.5979 50.3268L34.1731 62.7508C34.0864 62.9475 34.0221 63.1533 33.9814 63.3644C33.943 63.6328 34.3265 64.1696 34.3265 64.1696C34.3265 64.1696 34.3265 64.6298 34.5566 64.7065C34.7866 64.7832 35.2851 64.6298 35.4385 64.4764C35.5919 64.323 35.5152 63.8629 35.8603 63.7862C36.2054 63.7095 36.8957 64.0546 36.8957 64.0546C36.9159 63.6842 36.9159 63.313 36.8957 62.9426C36.8573 62.5975 36.4739 62.0606 36.4739 62.0606L36.9724 52.0524L36.819 48.2178H29.3799Z" fill="#263238" stroke="#263238" stroke-width="0.153383" stroke-linecap="round" stroke-linejoin="round"/>
<path id="Vector_43" d="M39.0437 41.9673L38.7369 49.3297C38.7369 49.3297 39.0437 51.0936 39.0437 51.2086C39.0437 51.3237 38.8903 52.0906 38.6218 52.3207C38.5928 52.3519 38.5563 52.3753 38.5157 52.3888C38.4752 52.4022 38.432 52.4053 38.39 52.3976C38.348 52.39 38.3086 52.3719 38.2754 52.3451C38.2422 52.3182 38.2163 52.2834 38.2 52.244L38.2767 51.8222L38.085 50.9019L37.8166 51.9372C37.8166 51.9372 37.4715 51.9755 37.5482 51.5154C37.6249 51.0552 37.5865 50.25 37.6632 49.9816C37.7134 49.7679 37.7391 49.5492 37.7399 49.3297C37.7399 49.3297 36.973 45.3801 36.973 45.265C36.973 45.15 36.7812 42.2357 36.7812 42.2357L39.0437 41.9673Z" fill="white" stroke="#263238" stroke-width="0.153383" stroke-linecap="round" stroke-linejoin="round"/>
<path id="Vector_44" d="M26.5619 48.6392C28.1612 48.6392 29.4578 47.3426 29.4578 45.7433C29.4578 44.1439 28.1612 42.8474 26.5619 42.8474C24.9625 42.8474 23.666 44.1439 23.666 45.7433C23.666 47.3426 24.9625 48.6392 26.5619 48.6392Z" fill="white" stroke="#263238" stroke-width="0.153383" stroke-linecap="round" stroke-linejoin="round"/>
<path id="Vector_45" d="M25.2768 40.0115C25.2768 40.0115 24.0113 41.5837 23.9346 41.7754C23.858 41.9671 22.5925 46.2235 22.7076 46.6453C22.8226 47.0671 23.2828 47.9874 23.3978 48.2942C23.5128 48.6009 24.7783 49.2528 25.2001 49.2528C25.4424 49.2528 25.7492 49.0749 25.967 48.923C25.996 48.9028 26.0194 48.8754 26.0347 48.8435C26.0501 48.8116 26.057 48.7763 26.0546 48.7409C26.0523 48.7056 26.0409 48.6714 26.0215 48.6418C26.0021 48.6122 25.9754 48.5881 25.944 48.5718C25.7803 48.4893 25.622 48.3965 25.47 48.2942C25.2016 48.1024 24.9715 47.9107 24.9715 47.9107C24.9715 47.9107 25.5084 48.3325 25.5467 48.0258C25.5851 47.719 25.2399 47.4889 25.1249 47.2588C24.9088 46.944 24.6508 46.6602 24.358 46.4152L23.8978 46.1085C23.8978 46.1085 23.7445 44.8814 24.0896 44.3062C24.2958 43.9614 24.5691 43.6615 24.8933 43.4243L25.6602 42.2739L26.3888 41.6603L25.2768 40.0115Z" fill="white" stroke="#263238" stroke-width="0.153383" stroke-linecap="round" stroke-linejoin="round"/>
<path id="Vector_46" d="M24.9696 47.9109L23.9727 47.374" stroke="#263238" stroke-width="0.153383" stroke-linecap="round" stroke-linejoin="round"/>
<path id="Vector_47" d="M32.2177 34.5664L28.4598 35.8702L24.7402 40.1649L26.4658 42.3889L29.0733 40.5867L29.15 48.4859C30.3416 48.8894 31.5777 49.1469 32.8312 49.2528C34.8252 49.4062 36.9726 48.4859 36.9726 48.4859L37.2793 43.0025L39.9252 42.1972C39.9252 42.1972 38.0846 37.0972 37.7395 36.4837C37.3944 35.8702 34.3267 34.7581 34.3267 34.7581C34.3267 34.7581 33.0613 34.413 32.2177 34.5664Z" fill="#92B1CE" stroke="#263238" stroke-width="0.153383" stroke-linecap="round" stroke-linejoin="round"/>
<path id="Vector_48" d="M37.2793 43.0026L37.3943 37.7876" stroke="#263238" stroke-width="0.153383" stroke-linecap="round" stroke-linejoin="round"/>
<path id="Vector_49" d="M29.0732 40.5866L28.6514 38.3242" stroke="#263238" stroke-width="0.153383" stroke-linecap="round" stroke-linejoin="round"/>
<path id="Vector_50" d="M31.9873 33.0708C31.9873 33.0708 32.1023 34.758 32.064 35.0648C32.0257 35.3715 32.2174 36.4452 32.9843 36.5603C33.7512 36.6753 34.4798 35.2949 34.5565 35.1798C34.6332 35.0648 34.4798 34.0294 34.4798 34.0294L31.9873 33.0708Z" fill="white" stroke="#263238" stroke-width="0.153383" stroke-linecap="round" stroke-linejoin="round"/>
<path id="Vector_51" d="M34.5779 35.0034C34.5779 34.6752 34.4798 34.0294 34.4798 34.0294L31.9873 33.0708C31.9873 33.0708 32.0026 33.2963 32.0195 33.5969C32.3846 34.0838 32.881 34.4563 33.4506 34.6706C33.8184 34.807 34.195 34.9182 34.5779 35.0034Z" fill="#263238" stroke="#263238" stroke-width="0.153383" stroke-linecap="round" stroke-linejoin="round"/>
<path id="Vector_52" d="M35.5153 28.7378C35.5153 28.7378 35.0935 27.7792 33.598 27.5107C32.1025 27.2423 30.4536 27.9325 29.8784 29.313C29.3032 30.6934 30.5687 32.1122 30.5687 32.1122C30.5687 32.1122 31.8724 33.3777 32.1408 33.6461C32.4093 33.9145 32.7544 34.298 33.4446 34.3746C34.1348 34.4513 35.1702 34.5664 35.5536 34.3746C35.9371 34.1829 36.0904 33.4543 36.1671 33.301C36.2438 33.1476 36.5506 31.9589 36.3205 31.3837C36.1935 31.0523 35.9974 30.7516 35.7453 30.5017C35.7453 30.5017 35.7837 29.3897 35.5153 28.7378Z" fill="white" stroke="#263238" stroke-width="0.153383" stroke-linecap="round" stroke-linejoin="round"/>
<path id="Vector_53" d="M35.3619 29.0446C35.4301 28.9778 35.4927 28.9055 35.549 28.8283C35.5383 28.7976 35.5275 28.7669 35.5153 28.7378C35.5153 28.7378 35.0935 27.7792 33.598 27.5107C32.1025 27.2423 30.4536 27.9325 29.8784 29.313C29.3032 30.6934 30.5687 32.1122 30.5687 32.1122L31.015 32.5494C31.0665 32.4662 31.1369 32.3963 31.2205 32.3454C31.489 32.192 31.7957 32.7288 31.7957 32.7288C31.8632 32.709 31.9256 32.6747 31.9786 32.6283C32.0316 32.582 32.0738 32.5247 32.1025 32.4604C32.2175 32.2303 31.719 31.5018 31.719 31.5018C31.856 31.2306 32.0375 30.9844 32.2559 30.7732C32.6393 30.3897 33.2912 29.2394 33.2912 29.2394L33.3679 29.8146C33.585 29.777 33.7931 29.699 33.9814 29.5845C34.1732 29.4311 34.5183 29.1243 34.5183 29.1243L34.4416 29.7379C34.7707 29.538 35.079 29.3058 35.3619 29.0446Z" fill="#263238" stroke="#263238" stroke-width="0.153383" stroke-linecap="round" stroke-linejoin="round"/>
<path id="Vector_54" d="M35.4385 31.499C35.4385 31.499 36.0904 31.9975 35.8986 32.2276C35.8417 32.2953 35.7715 32.3506 35.6923 32.3902C35.6132 32.4298 35.5268 32.4527 35.4385 32.4577" stroke="#263238" stroke-width="0.153383" stroke-linecap="round" stroke-linejoin="round"/>
<path id="Vector_55" d="M34.3262 32.9561C34.4746 33.0905 34.6601 33.1771 34.8585 33.2044C35.0569 33.2318 35.2589 33.1987 35.4382 33.1094" stroke="#263238" stroke-width="0.153383" stroke-linecap="round" stroke-linejoin="round"/>
<path id="Vector_56" d="M34.2499 31.5463C34.2729 31.692 34.2069 31.824 34.0965 31.8408C33.9861 31.8577 33.8879 31.7519 33.8664 31.6046C33.8449 31.4574 33.9094 31.327 34.0198 31.3101C34.1302 31.2932 34.2253 31.3991 34.2499 31.5463Z" fill="#263238"/>
<path id="Vector_57" d="M35.6298 31.0154C35.6528 31.1611 35.5868 31.293 35.4764 31.3099C35.3659 31.3268 35.2678 31.2209 35.2463 31.0737C35.2248 30.9264 35.2892 30.7961 35.3997 30.7792C35.5101 30.7623 35.6052 30.862 35.6298 31.0154Z" fill="#263238"/>
<path id="Vector_58" d="M33.4824 31.1154C33.5474 30.9773 33.6504 30.8605 33.7795 30.779C33.9086 30.6975 34.0583 30.6545 34.211 30.6553" stroke="#263238" stroke-width="0.153383" stroke-linecap="round" stroke-linejoin="round"/>
<path id="Vector_59" d="M35.0547 30.4631C35.0547 30.4631 35.4381 30.1179 35.6682 30.1563" stroke="#263238" stroke-width="0.153383" stroke-linecap="round" stroke-linejoin="round"/>
<g id="Vector_60">
<path d="M32.217 32.7639C32.217 32.7639 31.7185 31.6902 31.1816 31.7669C30.6448 31.8436 30.6065 32.6872 31.0666 33.1473C31.5268 33.6075 32.1403 33.339 32.1403 33.339" fill="white"/>
<path d="M32.217 32.7639C32.217 32.7639 31.7185 31.6902 31.1816 31.7669C30.6448 31.8436 30.6065 32.6872 31.0666 33.1473C31.5268 33.6075 32.1403 33.339 32.1403 33.339" stroke="#263238" stroke-width="0.153383" stroke-linecap="round" stroke-linejoin="round"/>
</g>
</g>
</g>
</g>
</g>
<defs>
<filter id="filter0_d_8576_18334" x="0.933333" y="0.466667" width="82.1333" height="82.1333" filterUnits="userSpaceOnUse" color-interpolation-filters="sRGB">
<feFlood flood-opacity="0" result="BackgroundImageFix"/>
<feColorMatrix in="SourceAlpha" type="matrix" values="0 0 0 0 0 0 0 0 0 0 0 0 0 0 0 0 0 0 127 0" result="hardAlpha"/>
<feOffset dy="0.533333"/>
<feGaussianBlur stdDeviation="0.533333"/>
<feComposite in2="hardAlpha" operator="out"/>
<feColorMatrix type="matrix" values="0 0 0 0 0 0 0 0 0 0 0 0 0 0 0 0 0 0 0.02 0"/>
<feBlend mode="normal" in2="BackgroundImageFix" result="effect1_dropShadow_8576_18334"/>
<feBlend mode="normal" in="SourceGraphic" in2="effect1_dropShadow_8576_18334" result="shape"/>
</filter>
</defs>
</svg>
