<svg width="250" height="250" viewBox="0 0 250 250" fill="none" xmlns="http://www.w3.org/2000/svg">
<path d="M125 250C194.036 250 250 194.036 250 125C250 55.9644 194.036 0 125 0C55.9644 0 0 55.9644 0 125C0 194.036 55.9644 250 125 250Z" fill="#F5F5F5"/>
<path d="M125 70.8335C110.808 70.8335 99.271 82.371 99.271 96.5627C99.271 110.483 110.158 121.75 124.35 122.238C124.783 122.183 125.217 122.183 125.542 122.238C125.65 122.238 125.704 122.238 125.813 122.238C125.867 122.238 125.867 122.238 125.921 122.238C139.788 121.75 150.675 110.483 150.729 96.5627C150.729 82.371 139.192 70.8335 125 70.8335Z" fill="#92B1CE"/>
<path d="M152.517 136.646C137.404 126.571 112.758 126.571 97.5375 136.646C90.6584 141.25 86.8667 147.479 86.8667 154.141C86.8667 160.804 90.6584 166.979 97.4834 171.529C105.067 176.621 115.033 179.166 125 179.166C134.967 179.166 144.933 176.621 152.517 171.529C159.342 166.925 163.133 160.75 163.133 154.033C163.079 147.371 159.342 141.196 152.517 136.646Z" fill="#92B1CE"/>
</svg>
