<svg width="246" height="255" viewBox="0 0 246 255" fill="none" xmlns="http://www.w3.org/2000/svg">
<path d="M245.898 52.952C246.013 51.8899 245.799 50.8182 245.283 49.8824C244.768 48.9466 243.977 48.1922 243.018 47.7217L146.789 0.689043C146.177 0.389659 145.512 0.213734 144.832 0.171319C144.152 0.128905 143.47 0.220827 142.826 0.44184C142.182 0.662852 141.587 1.00863 141.076 1.45942C140.565 1.91021 140.148 2.45719 139.849 3.06914L139.847 3.07275L103.755 76.9179C103.153 78.1548 103.065 79.5801 103.512 80.8813C103.959 82.1825 104.904 83.2534 106.139 83.8593L202.368 130.892C203.605 131.494 205.03 131.582 206.332 131.135C207.633 130.688 208.704 129.743 209.31 128.508L245.402 54.6631C245.665 54.1259 245.833 53.5469 245.898 52.952Z" fill="#F5F5F5"/>
<path d="M189.522 216.852H64.6597C63.0877 216.85 61.5806 216.225 60.469 215.113C59.3575 214.001 58.7322 212.494 58.7305 210.922V41.4163C58.7322 39.8443 59.3575 38.3372 60.469 37.2256C61.5806 36.1141 63.0877 35.4888 64.6597 35.4871H189.522C191.094 35.4888 192.601 36.1141 193.713 37.2256C194.824 38.3372 195.45 39.8443 195.451 41.4163V210.922C195.45 212.494 194.824 214.001 193.713 215.113C192.601 216.225 191.094 216.85 189.522 216.852Z" fill="white"/>
<path d="M97.7771 86.0322C102.276 86.0322 105.923 82.385 105.923 77.886C105.923 73.3869 102.276 69.7397 97.7771 69.7397C93.2781 69.7397 89.6309 73.3869 89.6309 77.886C89.6309 82.385 93.2781 86.0322 97.7771 86.0322Z" fill="#E6E6E6"/>
<path d="M85.3613 100.151C86.5124 100.805 87.7171 101.36 88.9624 101.81L89.1824 101.886C91.6906 102.767 94.3301 103.215 96.9884 103.212C97.5233 103.212 98.0385 103.194 98.5199 103.157C99.6913 103.085 100.856 102.925 102.003 102.677C102.632 102.539 103.26 102.375 103.867 102.188C104.014 102.145 104.15 102.103 104.299 102.056C106.773 101.254 109.098 100.049 111.181 98.4897C111.014 98.1735 110.831 97.866 110.633 97.5683C109.562 95.9323 108.1 94.5891 106.379 93.6604C104.659 92.7316 102.734 92.2466 100.779 92.2492H96.491C94.2296 92.2496 92.0159 92.9 90.1136 94.1229C88.2113 95.3458 86.7006 97.0897 85.7614 99.1468C85.6112 99.4745 85.4777 99.8095 85.3613 100.151Z" fill="#E6E6E6"/>
<path d="M100.543 102.474C100.269 102.494 100.006 102.587 99.7793 102.742C100.929 102.67 102.071 102.512 103.197 102.267L100.543 102.474Z" fill="#263238"/>
<path d="M98.2726 55.7796C93.0259 55.7801 87.9262 57.5126 83.7649 60.7081C79.6037 63.9036 76.6137 68.3834 75.259 73.4522C73.9043 78.5209 74.2608 83.8951 76.273 88.7405C78.2852 93.5859 81.8407 97.6316 86.3875 100.25C87.5945 100.948 88.8615 101.538 90.1734 102.012L90.3964 102.089C92.9271 102.977 95.5904 103.43 98.2726 103.427C98.7914 103.427 99.3101 103.409 99.8203 103.371C101.001 103.298 102.175 103.136 103.332 102.886C103.979 102.745 104.614 102.578 105.214 102.393C105.36 102.35 105.497 102.308 105.647 102.26C111.039 100.504 115.628 96.8818 118.589 92.0448C121.55 87.2079 122.688 81.4735 121.8 75.8723C120.911 70.2712 118.054 65.1707 113.741 61.4877C109.429 57.8047 103.944 55.7807 98.2726 55.7796ZM112.095 97.4498C110.04 99.0358 107.727 100.256 105.257 101.056C105.124 101.098 104.987 101.141 104.85 101.184C104.279 101.36 103.679 101.514 103.062 101.647C101.968 101.886 100.857 102.041 99.7389 102.11C99.2544 102.145 98.7612 102.162 98.2726 102.162C95.7337 102.163 93.2129 101.736 90.8166 100.897L90.6066 100.824C89.3016 100.355 88.0441 99.7636 86.8506 99.0576C82.6942 96.6106 79.4322 92.8949 77.544 88.4566C75.6558 84.0183 75.241 79.0914 76.3605 74.3998C77.48 69.7083 80.0748 65.4995 83.7636 62.392C87.4524 59.2845 92.0407 57.4421 96.8542 57.1355C101.668 56.8289 106.453 58.0744 110.506 60.6888C114.559 63.3032 117.667 67.1488 119.373 71.6604C121.078 76.172 121.292 81.1118 119.982 85.7538C118.672 90.3958 115.908 94.4953 112.095 97.4498Z" fill="#CCCCCC"/>
<path d="M189.522 216.852H64.6597C63.0877 216.85 61.5806 216.225 60.469 215.113C59.3575 214.001 58.7322 212.494 58.7305 210.922V41.4163C58.7322 39.8443 59.3575 38.3372 60.469 37.2256C61.5806 36.1141 63.0877 35.4888 64.6597 35.4871H189.522C191.094 35.4888 192.601 36.1141 193.713 37.2256C194.824 38.3372 195.45 39.8443 195.451 41.4163V210.922C195.45 212.494 194.824 214.001 193.713 215.113C192.601 216.225 191.094 216.85 189.522 216.852ZM64.6597 36.1846C63.2727 36.1862 61.9429 36.7379 60.9621 37.7187C59.9813 38.6995 59.4296 40.0292 59.428 41.4163V210.922C59.4296 212.309 59.9813 213.639 60.9621 214.62C61.9429 215.601 63.2727 216.152 64.6597 216.154H189.522C190.909 216.152 192.239 215.601 193.22 214.62C194.201 213.639 194.752 212.309 194.754 210.922V41.4163C194.752 40.0292 194.201 38.6995 193.22 37.7187C192.239 36.7379 190.909 36.1862 189.522 36.1846L64.6597 36.1846Z" fill="#CCCCCC"/>
<path d="M165.352 79.5112H130.02C129.278 79.5112 128.567 79.2167 128.043 78.6925C127.519 78.1683 127.225 77.4574 127.225 76.716C127.225 75.9747 127.519 75.2638 128.043 74.7396C128.567 74.2154 129.278 73.9209 130.02 73.9209H165.352C166.093 73.9209 166.804 74.2154 167.328 74.7396C167.852 75.2638 168.147 75.9747 168.147 76.716C168.147 77.4574 167.852 78.1683 167.328 78.6925C166.804 79.2167 166.093 79.5112 165.352 79.5112Z" fill="#E6E6E6"/>
<path d="M176.882 88.9447H130.02C129.278 88.9447 128.567 88.6502 128.043 88.126C127.519 87.6019 127.225 86.8909 127.225 86.1496C127.225 85.4083 127.519 84.6973 128.043 84.1731C128.567 83.6489 129.278 83.3544 130.02 83.3544H176.882C177.623 83.3544 178.334 83.6489 178.858 84.1731C179.382 84.6973 179.677 85.4083 179.677 86.1496C179.677 86.8909 179.382 87.6019 178.858 88.126C178.334 88.6502 177.623 88.9447 176.882 88.9447Z" fill="#E6E6E6"/>
<path d="M165.3 125.127H77.303C76.5616 125.127 75.8507 124.832 75.3265 124.308C74.8023 123.784 74.5078 123.073 74.5078 122.331C74.5078 121.59 74.8023 120.879 75.3265 120.355C75.8507 119.831 76.5616 119.536 77.303 119.536H165.3C166.042 119.536 166.752 119.831 167.277 120.355C167.801 120.879 168.095 121.59 168.095 122.331C168.095 123.073 167.801 123.784 167.277 124.308C166.752 124.832 166.042 125.127 165.3 125.127Z" fill="#E6E6E6"/>
<path d="M176.83 134.56H77.303C76.5616 134.56 75.8507 134.266 75.3265 133.742C74.8023 133.218 74.5078 132.507 74.5078 131.765C74.5078 131.024 74.8023 130.313 75.3265 129.789C75.8507 129.265 76.5616 128.97 77.303 128.97H176.83C177.572 128.97 178.282 129.265 178.807 129.789C179.331 130.313 179.625 131.024 179.625 131.765C179.625 132.507 179.331 133.218 178.807 133.742C178.282 134.266 177.572 134.56 176.83 134.56Z" fill="#E6E6E6"/>
<path d="M165.3 156.242H77.303C76.5616 156.242 75.8507 155.948 75.3265 155.424C74.8023 154.9 74.5078 154.189 74.5078 153.447C74.5078 152.706 74.8023 151.995 75.3265 151.471C75.8507 150.947 76.5616 150.652 77.303 150.652H165.3C166.042 150.652 166.752 150.947 167.277 151.471C167.801 151.995 168.095 152.706 168.095 153.447C168.095 154.189 167.801 154.9 167.277 155.424C166.752 155.948 166.042 156.242 165.3 156.242Z" fill="#E6E6E6"/>
<path d="M176.83 165.676H77.303C76.5616 165.676 75.8507 165.381 75.3265 164.857C74.8023 164.333 74.5078 163.622 74.5078 162.881C74.5078 162.139 74.8023 161.429 75.3265 160.904C75.8507 160.38 76.5616 160.086 77.303 160.086H176.83C177.572 160.086 178.282 160.38 178.807 160.904C179.331 161.429 179.625 162.139 179.625 162.881C179.625 163.622 179.331 164.333 178.807 164.857C178.282 165.381 177.572 165.676 176.83 165.676Z" fill="#E6E6E6"/>
<path d="M165.3 187.358H77.303C76.5616 187.358 75.8507 187.064 75.3265 186.539C74.8023 186.015 74.5078 185.304 74.5078 184.563C74.5078 183.822 74.8023 183.111 75.3265 182.586C75.8507 182.062 76.5616 181.768 77.303 181.768H165.3C166.042 181.768 166.752 182.062 167.277 182.586C167.801 183.111 168.095 183.822 168.095 184.563C168.095 185.304 167.801 186.015 167.277 186.539C166.752 187.064 166.042 187.358 165.3 187.358Z" fill="#E6E6E6"/>
<path d="M176.83 196.792H77.303C76.5616 196.792 75.8507 196.497 75.3265 195.973C74.8023 195.449 74.5078 194.738 74.5078 193.997C74.5078 193.255 74.8023 192.544 75.3265 192.02C75.8507 191.496 76.5616 191.201 77.303 191.201H176.83C177.571 191.202 178.281 191.497 178.804 192.021C179.328 192.545 179.622 193.256 179.622 193.997C179.622 194.737 179.328 195.448 178.804 195.972C178.281 196.496 177.571 196.791 176.83 196.792Z" fill="#E6E6E6"/>
<path d="M241.609 101.401C241.724 100.339 241.51 99.2669 240.994 98.3311C240.479 97.3953 239.688 96.6409 238.729 96.1704L142.5 49.1378C141.888 48.8384 141.223 48.6625 140.543 48.62C139.863 48.5776 139.181 48.6696 138.537 48.8906C137.892 49.1116 137.298 49.4574 136.787 49.9081C136.276 50.3589 135.859 50.9059 135.56 51.5179L135.558 51.5215L99.466 125.367C98.8637 126.604 98.7763 128.029 99.2232 129.33C99.67 130.631 100.615 131.702 101.85 132.308L198.079 179.341C199.316 179.943 200.741 180.03 202.042 179.584C203.344 179.137 204.415 178.192 205.021 176.957L241.113 103.112C241.376 102.575 241.544 101.996 241.609 101.401Z" fill="white"/>
<path d="M241.609 101.401C241.724 100.339 241.51 99.2669 240.994 98.3311C240.479 97.3953 239.688 96.6409 238.729 96.1704L142.5 49.1378C141.888 48.8384 141.223 48.6625 140.543 48.62C139.863 48.5776 139.181 48.6696 138.537 48.8906C137.892 49.1116 137.298 49.4574 136.787 49.9081C136.276 50.3589 135.859 50.9059 135.56 51.5179L135.558 51.5215L99.466 125.367C98.8637 126.604 98.7763 128.029 99.2232 129.33C99.67 130.631 100.615 131.702 101.85 132.308L198.079 179.341C199.316 179.943 200.741 180.03 202.042 179.584C203.344 179.137 204.415 178.192 205.021 176.957L241.113 103.112C241.376 102.575 241.544 101.996 241.609 101.401ZM204.472 176.689C203.938 177.779 202.993 178.613 201.844 179.007C200.696 179.401 199.439 179.324 198.347 178.792L102.118 131.76C101.028 131.225 100.194 130.28 99.7999 129.132C99.4056 127.984 99.4828 126.726 100.015 125.635L136.107 51.7896C136.641 50.6995 137.586 49.8659 138.734 49.4716C139.883 49.0774 141.14 49.1546 142.232 49.6863L238.461 96.7189C239.551 97.2534 240.385 98.1983 240.779 99.3465C241.173 100.495 241.096 101.752 240.564 102.844L204.472 176.689Z" fill="#263238"/>
<path d="M231.115 104.758L205.912 156.322C205.744 156.666 205.446 156.93 205.084 157.054C204.722 157.179 204.325 157.154 203.981 156.986L116.447 114.204C116.384 114.174 116.325 114.139 116.268 114.098C115.981 113.903 115.774 113.611 115.685 113.275C115.596 112.94 115.631 112.583 115.783 112.271L140.985 60.7073C141.069 60.5369 141.185 60.3845 141.327 60.2589C141.469 60.1332 141.634 60.0369 141.814 59.9752C141.993 59.9135 142.183 59.8878 142.372 59.8995C142.562 59.9111 142.747 59.96 142.917 60.0432L230.451 102.826C230.795 102.994 231.058 103.292 231.183 103.654C231.308 104.016 231.283 104.413 231.115 104.758L231.115 104.758Z" fill="#F5F5F5"/>
<path d="M154.267 102.14C161.268 102.14 166.943 96.4641 166.943 89.463C166.943 82.4618 161.268 76.7863 154.267 76.7863C147.265 76.7863 141.59 82.4618 141.59 89.463C141.59 96.4641 147.265 102.14 154.267 102.14Z" fill="#92B1CE"/>
<path d="M172.826 142.016L116.955 114.708C116.884 114.675 116.817 114.635 116.754 114.59L165.55 81.7336C165.85 81.5273 166.2 81.4046 166.564 81.3779C166.927 81.3511 167.292 81.4214 167.619 81.5815C167.947 81.7416 168.226 81.9857 168.428 82.289C168.63 82.5922 168.749 82.9438 168.77 83.3077L171.492 122.692L171.623 124.577L172.826 142.016Z" fill="#263238"/>
<path opacity="0.2" d="M172.828 142.016L153.752 132.693L169.764 123.667L170.917 123.018L171.494 122.692L171.625 124.577L172.828 142.016Z" fill="black"/>
<path d="M203.936 157.221L155.611 133.602L171.624 124.577L172.777 123.926L193.643 112.164C195.011 111.393 196.971 112.262 197.415 113.736C197.444 113.837 197.467 113.938 197.484 114.041L203.936 157.221Z" fill="#263238"/>
<path d="M54.8333 161.722L60.0894 161.721L62.5903 141.447L54.832 141.447L54.8333 161.722Z" fill="#FFB8B8"/>
<path d="M53.4922 160.005L63.8438 160.005C64.7102 160.005 65.5684 160.176 66.3688 160.507C67.1692 160.839 67.8964 161.325 68.509 161.937C69.1216 162.55 69.6075 163.277 69.9391 164.077C70.2706 164.878 70.4412 165.736 70.4412 166.602V166.816L53.4925 166.817L53.4922 160.005Z" fill="#263238"/>
<path d="M13.9766 158.375L19.4225 159.44L26.123 138.941L18.0857 137.369L13.9766 158.375Z" fill="#FFB8B8"/>
<path d="M12.9351 156.325L23.66 158.423L23.6604 158.423C24.558 158.598 25.4122 158.949 26.1742 159.455C26.9362 159.96 27.5912 160.611 28.1017 161.37C28.6122 162.129 28.9682 162.981 29.1495 163.877C29.3307 164.774 29.3336 165.697 29.158 166.595L29.1145 166.817L11.5547 163.382L12.9351 156.325Z" fill="#263238"/>
<path d="M226.599 254.96H15.0257C11.2745 254.956 7.67819 253.464 5.02571 250.811C2.37322 248.159 0.88119 244.562 0.876953 240.811V124.62C0.88119 120.869 2.37322 117.272 5.02571 114.62C7.67819 111.967 11.2745 110.475 15.0257 110.471H40.9662C44.4859 110.468 47.8798 111.78 50.4824 114.15L78.6133 134.237C80.4473 135.913 82.8425 136.841 85.327 136.839H227.912C229.788 136.839 231.645 137.212 233.375 137.936C235.105 138.66 236.673 139.721 237.99 141.057C239.306 142.392 240.344 143.977 241.043 145.717C241.741 147.458 242.087 149.319 242.06 151.195L240.746 241.018C240.676 244.729 239.157 248.266 236.513 250.872C233.869 253.477 230.311 254.945 226.599 254.96Z" fill="white"/>
<path d="M224.718 248.1H16.2766C14.467 248.098 12.7321 247.378 11.4526 246.098C10.173 244.819 9.45322 243.084 9.45117 241.274V123.183C9.45322 121.374 10.173 119.639 11.4526 118.359C12.7321 117.08 14.467 116.36 16.2766 116.358C17.8772 116.36 19.4117 116.996 20.5435 118.128C21.6753 119.26 22.3119 120.794 22.3137 122.395V233.128C22.3156 234.824 22.9902 236.45 24.1894 237.649C25.3886 238.848 27.0145 239.523 28.7104 239.525H224.014C224.984 239.514 225.93 239.828 226.701 240.418C227.472 241.008 228.022 241.839 228.265 242.778C228.538 243.669 228.504 244.625 228.169 245.494C227.835 246.363 227.218 247.095 226.419 247.573C225.912 247.903 225.323 248.086 224.718 248.1Z" fill="#F5F5F5"/>
<path d="M122.395 191.388L121.846 190.839C121.732 190.733 121.666 190.585 121.66 190.43C121.655 190.274 121.712 190.123 121.819 190.009C121.828 189.999 121.837 189.99 121.846 189.982L126.661 185.162C126.714 185.106 126.777 185.061 126.847 185.029C126.917 184.997 126.993 184.979 127.07 184.977C127.147 184.974 127.224 184.987 127.297 185.014C127.369 185.041 127.435 185.082 127.491 185.135C127.501 185.144 127.51 185.153 127.518 185.162L132.333 189.977C132.39 190.032 132.435 190.097 132.466 190.168C132.497 190.24 132.514 190.317 132.515 190.396C132.517 190.474 132.503 190.552 132.474 190.624C132.445 190.697 132.402 190.764 132.348 190.82L132.333 190.835L131.784 191.384C131.73 191.44 131.665 191.485 131.593 191.516C131.522 191.547 131.444 191.564 131.366 191.566C131.288 191.567 131.21 191.553 131.137 191.524C131.065 191.496 130.998 191.453 130.942 191.398L130.927 191.384L128.08 188.382V195.504C128.081 195.582 128.066 195.659 128.037 195.731C128.007 195.803 127.964 195.868 127.91 195.924C127.855 195.979 127.79 196.023 127.719 196.053C127.647 196.083 127.57 196.099 127.493 196.1L127.488 196.1H126.695C126.537 196.1 126.386 196.037 126.274 195.925C126.162 195.814 126.099 195.662 126.099 195.504V188.391L123.252 191.392C123.142 191.505 122.991 191.57 122.833 191.572C122.675 191.574 122.523 191.513 122.41 191.403L122.395 191.388Z" fill="#92B1CE"/>
<path d="M127.081 180.785C129.013 180.785 130.903 181.358 132.51 182.432C134.116 183.505 135.369 185.031 136.108 186.817C136.848 188.602 137.041 190.567 136.664 192.462C136.287 194.358 135.357 196.099 133.99 197.465C132.624 198.832 130.883 199.763 128.987 200.14C127.092 200.517 125.127 200.323 123.342 199.584C121.556 198.844 120.03 197.592 118.956 195.985C117.883 194.378 117.31 192.489 117.31 190.556C117.312 187.965 118.342 185.481 120.174 183.649C122.006 181.817 124.49 180.787 127.081 180.785ZM127.081 179.499C124.894 179.499 122.756 180.147 120.938 181.362C119.119 182.577 117.702 184.304 116.865 186.325C116.028 188.345 115.809 190.568 116.236 192.713C116.663 194.858 117.716 196.829 119.262 198.375C120.809 199.921 122.779 200.975 124.924 201.401C127.069 201.828 129.292 201.609 131.312 200.772C133.333 199.935 135.06 198.518 136.275 196.699C137.49 194.881 138.138 192.743 138.138 190.556C138.138 187.624 136.973 184.811 134.9 182.737C132.826 180.664 130.014 179.499 127.081 179.499Z" fill="#263238"/>
<path d="M226.599 254.96H15.0257C11.2745 254.956 7.67819 253.464 5.02571 250.811C2.37322 248.159 0.88119 244.562 0.876953 240.811V124.62C0.88119 120.869 2.37322 117.272 5.02571 114.62C7.67819 111.967 11.2745 110.475 15.0257 110.471H40.9662C44.4859 110.468 47.8798 111.78 50.4824 114.15L78.6133 134.237C80.4473 135.913 82.8425 136.841 85.327 136.839H227.912C229.788 136.839 231.645 137.212 233.375 137.936C235.105 138.66 236.673 139.721 237.99 141.057C239.306 142.392 240.344 143.977 241.043 145.717C241.741 147.458 242.087 149.319 242.06 151.195L240.746 241.018C240.676 244.729 239.157 248.266 236.513 250.872C233.869 253.477 230.311 254.945 226.599 254.96ZM15.0257 111.329C11.5019 111.333 8.12352 112.734 5.6318 115.226C3.14007 117.718 1.73846 121.096 1.73445 124.62V240.811C1.73846 244.335 3.14007 247.713 5.6318 250.205C8.12352 252.697 11.5019 254.098 15.0257 254.102H226.599C230.086 254.088 233.429 252.71 235.912 250.262C238.396 247.814 239.823 244.492 239.888 241.005L241.202 151.182C241.228 149.421 240.903 147.671 240.247 146.036C239.591 144.401 238.616 142.913 237.379 141.658C236.143 140.404 234.669 139.407 233.044 138.727C231.418 138.047 229.674 137.697 227.912 137.697H85.327C82.6376 137.699 80.0441 136.697 78.0545 134.888L49.9236 114.8C47.4766 112.564 44.281 111.326 40.9662 111.329H15.0257Z" fill="#263238"/>
</svg>
