<svg width="289" height="119" viewBox="0 0 289 119" fill="none" xmlns="http://www.w3.org/2000/svg">
<path d="M141.003 48C121.442 48 105.503 63.9395 105.503 83.5C105.503 103.061 121.442 119 141.003 119C160.563 119 176.503 103.061 176.503 83.5C176.503 63.9395 160.563 48 141.003 48ZM157.972 75.335L137.843 95.4635C137.346 95.9605 136.672 96.2445 135.962 96.2445C135.252 96.2445 134.577 95.9605 134.08 95.4635L124.034 85.417C123.004 84.3875 123.004 82.6835 124.034 81.654C125.063 80.6245 126.767 80.6245 127.797 81.654L135.962 89.819L154.209 71.572C155.238 70.5425 156.942 70.5425 157.972 71.572C159.001 72.6015 159.001 74.27 157.972 75.335Z" fill="#92B1CE"/>
<path d="M191.503 34.9999L194.744 43.7589L203.503 46.9999L194.744 50.241L191.503 58.9999L188.262 50.241L179.503 46.9999L188.262 43.7589L191.503 34.9999Z" fill="#FCBB06"/>
<path d="M256.503 72.9999L258.664 78.8392L264.503 80.9999L258.664 83.1607L256.503 88.9999L254.342 83.1607L248.503 80.9999L254.342 78.8392L256.503 72.9999Z" fill="#FCBB06"/>
<path d="M18.5029 0.999939L20.1235 5.37939L24.5029 6.99994L20.1235 8.62048L18.5029 12.9999L16.8824 8.62048L12.5029 6.99994L16.8824 5.37939L18.5029 0.999939Z" fill="#32A655"/>
<path d="M98.5029 48.9999L100.664 54.8392L106.503 56.9999L100.664 59.1607L98.5029 64.9999L96.3422 59.1607L90.5029 56.9999L96.3422 54.8392L98.5029 48.9999Z" fill="#FCBB06"/>
<rect x="39.9199" y="73.0306" width="11.0844" height="4.43378" rx="2.21689" transform="rotate(-17.882 39.9199 73.0306)" fill="#4384F6"/>
<rect x="281.299" y="4.99994" width="11.0844" height="4.43378" rx="2.21689" transform="rotate(58.8953 281.299 4.99994)" fill="#4384F6"/>
<rect x="74.5029" y="87.8685" width="11.0844" height="4.43378" rx="2.21689" transform="rotate(-62.912 74.5029 87.8685)" fill="#E74238"/>
<rect x="12.0186" y="81.2314" width="11.0844" height="4.43378" rx="2.21689" transform="rotate(-55.2227 12.0186 81.2314)" fill="#E74238"/>
<rect x="13.6377" y="28.9999" width="11.0844" height="4.43378" rx="2.21689" transform="rotate(45 13.6377 28.9999)" fill="#F8BC05"/>
<rect x="68.1875" y="2.86469" width="11.0844" height="4.43378" rx="2.21689" transform="rotate(114.871 68.1875 2.86469)" fill="#F8BC05"/>
<rect x="94.1152" y="10.9999" width="11.0844" height="4.43378" rx="2.21689" transform="rotate(54.5576 94.1152 10.9999)" fill="#34A553"/>
<rect x="177.758" y="8.99994" width="11.0844" height="4.43378" rx="2.21689" transform="rotate(16.4433 177.758 8.99994)" fill="#34A553"/>
<rect x="279.503" y="67.8685" width="11.0844" height="4.43378" rx="2.21689" transform="rotate(-62.912 279.503 67.8685)" fill="#E74238"/>
<rect x="217.503" y="6.28192" width="11.0844" height="4.43378" rx="2.21689" transform="rotate(-34.5228 217.503 6.28192)" fill="#E74238"/>
<path d="M63.6765 38.6909C63.981 37.6235 63.3598 36.5207 62.302 36.2189L56.2245 34.4848L58.4016 30.3536C58.4483 30.2629 58.4881 30.1599 58.5183 30.0541C58.6308 29.6599 58.5716 29.2478 58.386 28.9141L57.6548 27.6135L49.5219 32.1356C49.0646 32.3899 48.7158 32.8103 48.5649 33.3392L45.8211 42.9554C45.6756 43.4655 45.7386 44.0125 45.9964 44.4761C46.2541 44.9397 46.6855 45.2819 47.1956 45.4274L55.8502 47.8968C56.6483 48.1246 57.4683 47.8386 57.9543 47.2285L62.7928 41.2777C62.9424 41.0812 63.0564 40.8642 63.1277 40.6142L63.6765 38.6909ZM39.5026 43.2324L43.3491 44.3299L46.6417 32.7904L42.7952 31.6929L39.5026 43.2324Z" fill="#4385F5"/>
<path d="M251.97 22.7237C251.631 21.9629 250.742 21.628 249.988 21.9641L245.657 23.8954L244.918 20.4701C244.902 20.3954 244.875 20.317 244.841 20.2416C244.716 19.9606 244.483 19.7521 244.216 19.6496L243.168 19.2539L240.67 25.7741C240.529 26.1407 240.531 26.5506 240.699 26.9276L243.755 33.7809C243.917 34.1444 244.217 34.4286 244.589 34.5711C244.96 34.7135 245.373 34.7025 245.737 34.5404L251.905 31.7902C252.474 31.5365 252.807 30.9769 252.793 30.3918L252.708 24.6374C252.7 24.4523 252.661 24.2725 252.581 24.0943L251.97 22.7237ZM240.254 36.985L242.995 35.7627L239.329 27.5387L236.587 28.761L240.254 36.985Z" fill="#4385F2"/>
<rect x="215.503" y="75.8685" width="11.0844" height="4.43378" rx="2.21689" transform="rotate(-62.912 215.503 75.8685)" fill="#E74238"/>
<circle cx="3.50293" cy="60.9999" r="3" fill="#34A553"/>
<circle cx="132.503" cy="7.99994" r="3" fill="#34A553"/>
<circle cx="116.503" cy="28.9999" r="3" fill="#F9BC04"/>
<circle cx="202.503" cy="24.9999" r="3" fill="#4385F2"/>
<circle cx="191.503" cy="77.9999" r="3" fill="#4385F2"/>
<circle cx="144.503" cy="32.9999" r="3" fill="#E74238"/>
<circle cx="242.503" cy="56.9999" r="3" fill="#E74238"/>
</svg>
