<svg width="300" height="300" viewBox="0 0 300 300" fill="none" xmlns="http://www.w3.org/2000/svg">
<path d="M43.9358 279.99C102.517 306.655 197.486 306.655 256.067 279.99C314.648 253.325 314.641 210.038 256.067 183.359C197.492 156.681 102.517 156.694 43.9358 183.359C-14.6453 210.025 -14.6453 253.325 43.9358 279.99Z" fill="#F5F5F5"/>
<path d="M251.368 243.678C270.667 243.678 286.313 236.221 286.313 227.022C286.313 217.824 270.667 210.367 251.368 210.367C232.068 210.367 216.423 217.824 216.423 227.022C216.423 236.221 232.068 243.678 251.368 243.678Z" fill="#E0E0E0"/>
<path d="M46.5748 252.368C65.8743 252.368 81.5197 244.911 81.5197 235.712C81.5197 226.514 65.8743 219.057 46.5748 219.057C27.2753 219.057 11.6299 226.514 11.6299 235.712C11.6299 244.911 27.2753 252.368 46.5748 252.368Z" fill="#E0E0E0"/>
<path d="M25.8099 232.185H32.2163V221.218H25.8099V232.185Z" fill="#B16668"/>
<path d="M52.0029 223.884L58.4094 224.103L58.7307 212.5L52.0029 212.281V223.884Z" fill="#B16668"/>
<path d="M27.7255 143.451C27.7255 149.564 28.0468 185.008 28.0468 185.008C27.8964 186.765 26.2076 189.896 26.0709 196.234C25.8795 205.423 25.5376 226.708 25.5376 226.708C26.6442 227.25 27.856 227.543 29.088 227.567C30.32 227.59 31.5423 227.344 32.6688 226.844C32.6688 226.844 39.4581 196.576 40.6068 187.496C41.605 179.552 43.3417 157.98 43.3417 157.98L48.2371 184.823C47.4851 188.161 47.2066 191.588 47.4098 195.004C47.7106 199.208 51.6078 220.301 51.6078 220.301C52.7242 220.932 53.9654 221.309 55.2437 221.407C56.522 221.505 57.8062 221.321 59.0057 220.869C59.0057 220.869 59.3886 187.777 59.4569 183.948C59.5458 179.545 57.6246 141.673 57.6246 141.673L27.7255 143.451Z" fill="#263238"/>
<path d="M32.2168 229.026V228.109C32.5586 228.109 32.7706 228.444 32.9005 229.265C32.9914 229.875 33.1147 230.48 33.2697 231.077C33.5566 232.198 33.9315 233.296 34.391 234.359C35.2935 236.588 36.0525 237.422 38.131 240.027C38.8397 240.749 39.5041 241.514 40.1206 242.317C40.5035 243.001 40.6402 244.922 39.9838 245.36C37.5635 246.973 33.8919 247.021 31.2938 246.255C30.3256 245.986 29.4555 245.444 28.7874 244.694C28.1193 243.943 27.6815 243.016 27.5265 242.023C27.4307 241.428 27.4649 240.827 27.3966 240.232C27.1717 238.881 26.6228 237.605 25.7967 236.512C25.3119 235.876 24.8991 235.188 24.566 234.461C24.0258 233.142 24.4566 231.665 24.7984 230.359C25.0993 229.224 25.4206 227.979 25.8035 228.089V228.773C26.7175 229.489 27.8492 229.87 29.0101 229.853C29.9537 229.928 32.2236 229.737 32.2168 229.026Z" fill="#263238"/>
<path d="M58.4788 222.127C58.807 222.127 59.0805 222.612 59.8462 223.405C60.9424 224.519 62.2154 225.443 63.6135 226.14C66.0134 227.343 70.6764 229.189 72.7822 230.14C74.1018 230.735 74.0403 232.328 72.6797 233.23C71.3191 234.133 68.0235 234.789 64.0785 233.914C61.9248 233.435 59.1215 231.446 57.3507 231.555C55.5798 231.665 52.257 231.637 50.9511 230.735C49.6451 229.832 50.1648 227.904 50.534 226.249C50.9374 224.438 51.4433 221.621 52.0382 221.744V222.366C52.8108 223.535 56.7832 224.007 58.4788 223.152V222.127Z" fill="#263238"/>
<path d="M43.3066 157.981C46.6066 156.944 49.6401 155.198 52.195 152.867C52.195 152.867 50.472 156.087 45.3578 159.088L47.8329 182.964L43.3066 157.981Z" fill="#263238"/>
<path d="M53.4876 128.82C49.3032 114.885 50.1305 103.084 49.3442 99.4743L60.0718 114.455C60.5258 119.392 61.2586 124.3 62.2665 129.155C63.5041 134.481 65.1929 141.12 67.2167 145.249C67.5839 145.977 68.2037 146.546 68.9602 146.849C71.0113 147.677 71.9275 148.723 73.5479 149.919C74.8196 150.863 75.7837 150.986 75.7085 151.369C75.568 151.799 75.2706 152.162 74.8754 152.383C74.4802 152.605 74.0161 152.67 73.5753 152.565C72.5969 152.36 71.6467 152.039 70.7447 151.608C71.6544 153.152 72.809 154.537 74.1633 155.71C77.2674 158.411 77.7118 160.319 72.5565 161.255C69.3225 161.85 66.403 160.298 62.7178 153.584C61.3219 151.14 60.104 148.6 59.0736 145.981C56.6122 139.144 54.7525 133.038 53.4876 128.82Z" fill="#B16668"/>
<path d="M48.4751 96.0076C51.8048 96.5956 55.1003 97.3751 57.1447 100.575C59.189 103.775 62.1427 118.878 62.1427 118.878C62.1427 118.878 57.8489 121.893 52.9261 121.763L48.4751 96.0076Z" fill="#92B1CE"/>
<path opacity="0.1" d="M48.4751 96.0076C51.8048 96.5956 55.1003 97.3751 57.1447 100.575C59.189 103.775 62.1427 118.878 62.1427 118.878C62.1427 118.878 57.8489 121.893 52.9261 121.763L48.4751 96.0076Z" fill="black"/>
<path d="M25.5312 101.621C23.2954 103.214 11.5012 129.852 11.05 131.705C10.4415 134.228 10.7218 137.051 11.9593 137.968C13.1969 138.884 15.9249 137.571 17.3539 136.176C20.0888 133.441 29.6608 113.518 29.6608 113.518L25.5312 101.621Z" fill="#9A4A4D"/>
<path d="M37.2558 96.0689C31.786 97.3817 24.9488 99.5764 22.508 104.581C20.0671 109.586 16.3545 117.716 16.3545 117.716C18.8844 120.184 21.9702 122.008 25.3522 123.035L28.0871 118.249L27.6837 143.546C32.0937 146.76 48.291 148.51 57.576 141.728C57.576 141.728 56.441 111.398 56.441 106.673C56.441 101.949 53.8155 96.2809 46.5749 95.857L37.2558 96.0689Z" fill="#92B1CE"/>
<path opacity="0.1" d="M28.1275 118.188C28.1275 118.188 30.8623 113.463 31.4435 112.321L28.0249 123.945L28.1275 118.188Z" fill="black"/>
<path d="M47.6217 83.7903C52.4816 83.7903 56.4212 79.8507 56.4212 74.9909C56.4212 70.1311 52.4816 66.1914 47.6217 66.1914C42.7619 66.1914 38.8223 70.1311 38.8223 74.9909C38.8223 79.8507 42.7619 83.7903 47.6217 83.7903Z" fill="#263238"/>
<path d="M32.4019 81.2461C32.4019 81.2461 33.8308 87.9465 34.4052 89.0473C34.7846 89.7269 35.4116 90.2339 36.1555 90.4626L36.0598 85.7518L32.4019 81.2461Z" fill="#263238"/>
<path d="M34.1922 71.6469C33.6931 71.59 33.1875 71.6472 32.7138 71.8142C32.24 71.9812 31.8104 72.2536 31.4573 72.611C30.2881 73.8075 30.9445 77.568 32.4008 81.2464L35.0879 81.554L34.1922 71.6469Z" fill="#263238"/>
<path d="M35.8952 81.5612C35.3551 81.8826 34.5893 80.8433 33.9261 80.1528C33.2629 79.4622 31.0887 78.505 30.0084 80.7818C28.9281 83.0586 30.9656 86.1764 32.6749 86.7165C35.6149 87.6395 36.0935 85.7524 36.0935 85.7524L36.3055 96.692C39.9634 101.382 50.1166 100.986 45.8775 96.0903V92.8563C47.188 93.0688 48.5177 93.1375 49.8431 93.0614C52.0105 92.7264 53.3711 91.0102 54.0275 88.6788C55.0804 84.9183 55.4838 81.8416 54.5881 74.4779C53.6104 66.369 44.1751 66.2733 39.0814 69.4936C33.9877 72.7139 35.8952 81.5612 35.8952 81.5612Z" fill="#B16668"/>
<path d="M35.8953 82.4635C35.6218 82.4635 34.5962 80.761 33.9262 80.1525C32.9963 79.3047 34.1928 71.647 34.1928 71.647C33.8781 70.9772 33.7711 70.2285 33.8856 69.4974C34.0002 68.7662 34.331 68.0861 34.8355 67.5447C36.1072 66.1431 37.8849 64.4269 43.6555 65.1106C47.7578 65.6029 52.2567 66.8815 55.8804 65.1106C56.2172 66.292 56.1928 67.5471 55.8102 68.7145C55.4276 69.8818 54.7043 70.9079 53.7335 71.6607C53.7335 71.6607 52.4208 72.5016 48.9475 72.9256C45.7581 73.1648 42.5532 73.103 39.3754 72.741C38.3772 72.6042 38.1652 73.5751 37.6251 76.2211C37.2012 78.5116 36.8046 82.4498 35.8953 82.4635Z" fill="#263238"/>
<path d="M34.2008 72.2417L30.9463 70.4914C31.0508 70.2731 31.1984 70.0781 31.3801 69.9182C31.5618 69.7582 31.7739 69.6366 32.0038 69.5606C32.2336 69.4847 32.4764 69.4559 32.7177 69.476C32.9589 69.4961 33.1936 69.5648 33.4077 69.6778C33.8445 69.9209 34.1708 70.3231 34.3185 70.8007C34.4662 71.2783 34.4241 71.7945 34.2008 72.2417Z" fill="#263238"/>
<path d="M45.8444 92.8496C45.8444 92.8496 41.0173 91.8788 39.3286 90.9831C38.3349 90.4648 37.5202 89.6596 36.9902 88.6721C37.2454 89.6632 37.6964 90.5931 38.3166 91.407C39.5542 92.9864 45.8376 94.1419 45.8376 94.1419L45.8444 92.8496Z" fill="#9A4A4D"/>
<path d="M44.6753 80.3438C44.6789 80.6055 44.5789 80.8581 44.397 81.0464C44.2151 81.2347 43.9661 81.3434 43.7044 81.3488C43.4456 81.3382 43.2011 81.2274 43.0225 81.0399C42.8439 80.8523 42.7452 80.6027 42.7472 80.3438C42.7435 80.082 42.8435 79.8294 43.0254 79.6411C43.2073 79.4528 43.4563 79.3441 43.718 79.3387C43.9768 79.3493 44.2213 79.4601 44.3999 79.6476C44.5785 79.8352 44.6772 80.0848 44.6753 80.3438Z" fill="#263238"/>
<path d="M43.6558 76.6928L41.6046 77.8415C41.4556 77.5572 41.4222 77.2263 41.5114 76.918C41.6006 76.6097 41.8055 76.3477 42.0832 76.1869C42.2192 76.1142 42.3683 76.0696 42.5219 76.0557C42.6754 76.0419 42.8301 76.0591 42.9769 76.1063C43.1236 76.1535 43.2593 76.2298 43.376 76.3305C43.4926 76.4313 43.5878 76.5545 43.6558 76.6928Z" fill="#263238"/>
<path d="M45.4803 86.5052L48.5096 87.5622C48.4446 87.7525 48.3389 87.9285 48.1989 88.0796C48.059 88.2307 47.8877 88.3536 47.6953 88.441C47.503 88.5284 47.2937 88.5784 47.0801 88.588C46.8665 88.5976 46.6531 88.5666 46.4527 88.4968C46.0454 88.348 45.7161 88.0568 45.5346 87.6851C45.3531 87.3133 45.3336 86.8901 45.4803 86.5052Z" fill="#9A4A4D"/>
<path d="M53.3158 77.4995L51.4287 76.05C51.5163 75.9213 51.6295 75.8119 51.7612 75.7287C51.8929 75.6456 52.0403 75.5904 52.1942 75.5667C52.3481 75.543 52.5052 75.5512 52.6559 75.5908C52.8065 75.6304 52.9473 75.7006 53.0696 75.797C53.3206 75.9955 53.4859 76.2826 53.5317 76.5993C53.5774 76.9159 53.5002 77.2381 53.3158 77.4995Z" fill="#263238"/>
<path d="M52.7348 80.0768C52.7268 80.2669 52.6631 80.4504 52.5517 80.6045C52.4402 80.7587 52.2859 80.8767 52.108 80.944C51.93 81.0112 51.7362 81.0247 51.5506 80.9827C51.3651 80.9408 51.196 80.8452 51.0643 80.7079C50.9325 80.5707 50.8441 80.3977 50.8098 80.2106C50.7756 80.0235 50.797 79.8304 50.8716 79.6554C50.9461 79.4803 51.0704 79.3311 51.2291 79.2261C51.3877 79.1211 51.5737 79.0651 51.764 79.0649C51.8942 79.0675 52.0226 79.0958 52.1418 79.1481C52.2611 79.2004 52.3689 79.2757 52.459 79.3697C52.5492 79.4637 52.62 79.5745 52.6673 79.6958C52.7146 79.8171 52.7376 79.9466 52.7348 80.0768Z" fill="#263238"/>
<path d="M47.8057 79.1544L48.1202 84.9797L51.1627 83.9405L47.8057 79.1544Z" fill="#9A4A4D"/>
<path d="M22.0362 147.943C21.9455 147.943 21.8586 147.907 21.7945 147.843C21.7304 147.779 21.6943 147.692 21.6943 147.601V40.0656C21.6943 39.9749 21.7304 39.888 21.7945 39.8239C21.8586 39.7598 21.9455 39.7238 22.0362 39.7238C22.1269 39.7238 22.2138 39.7598 22.2779 39.8239C22.342 39.888 22.3781 39.9749 22.3781 40.0656V147.601C22.3781 147.692 22.342 147.779 22.2779 147.843C22.2138 147.907 22.1269 147.943 22.0362 147.943Z" fill="#263238"/>
<path d="M24.6338 49.4262C24.6338 48.3254 22.357 45.3239 21.8989 45.3239C21.4408 45.3239 19.4102 48.2707 19.4102 49.4262C19.4309 49.6553 19.5121 49.8747 19.6455 50.0621C19.7788 50.2495 19.9595 50.3981 20.1691 50.4928C20.7376 50.7828 21.3667 50.9339 22.0049 50.9339C22.643 50.9339 23.2721 50.7828 23.8407 50.4928C24.0515 50.3991 24.2336 50.2509 24.3682 50.0634C24.5028 49.8759 24.585 49.656 24.6064 49.4262H24.6338Z" fill="#92B1CE"/>
<path opacity="0.1" d="M24.6338 49.4262C24.6338 48.3254 22.357 45.3239 21.8989 45.3239C21.4408 45.3239 19.4102 48.2707 19.4102 49.4262C19.4309 49.6553 19.5121 49.8747 19.6455 50.0621C19.7788 50.2495 19.9595 50.3981 20.1691 50.4928C20.7376 50.7828 21.3667 50.9339 22.0049 50.9339C22.643 50.9339 23.2721 50.7828 23.8407 50.4928C24.0515 50.3991 24.2336 50.2509 24.3682 50.0634C24.5028 49.8759 24.585 49.656 24.6064 49.4262H24.6338Z" fill="black"/>
<path d="M37.1531 25.5643C37.1531 33.974 30.5483 44.599 21.9198 46.6092C13.2229 44.182 6.69336 33.974 6.69336 25.5643C6.69336 17.1545 12.1084 9.29175 21.9266 9.29175C31.7449 9.29175 37.1531 17.1477 37.1531 25.5643Z" fill="#92B1CE"/>
<path opacity="0.05" d="M7.25409 20.9492C6.87728 22.4585 6.68896 24.0086 6.69344 25.5643C6.69344 33.974 13.2435 44.182 21.9267 46.6092C29.0989 44.934 34.8695 37.3106 36.613 29.9537C36.613 29.9537 34.3431 38.0285 24.3539 38.678C14.3648 39.3275 6.30372 27.9094 7.25409 20.9492Z" fill="black"/>
<path d="M12.3007 138.131C10.482 137.612 8.61546 132.169 8.7522 128.682C8.88895 125.195 13.5793 110.113 14.222 107.214C14.9535 104.014 14.9057 101.58 15.5552 99.9183C16.5124 97.4638 19.6575 96.1169 19.6575 96.1169C19.6575 96.1169 23.7598 94.1546 25.2367 93.8606C26.7135 93.5666 27.2878 94.5443 27.1238 95.3169C26.9597 96.0895 26.44 98.0518 26.3033 99.1184C26.2059 100.483 25.8065 101.81 25.1341 103.002C24.3615 104.239 21.2096 107.2 21.0865 108.848C20.9634 110.495 20.0541 119.439 19.5345 125.941C19.1037 131.26 18.5704 133.462 17.4149 134.87C16.2594 136.279 13.716 138.528 12.3007 138.131Z" fill="#B16668"/>
<path d="M268.983 215.064H262.487V226.181H268.983V215.064Z" fill="#FFA8A7"/>
<path d="M246.468 214.476L239.979 214.695L239.658 202.935L246.468 202.71V214.476Z" fill="#FFA8A7"/>
<path d="M266.882 132.341C266.882 138.543 267.853 175.785 267.853 175.785C268.004 177.569 269.72 180.742 269.857 187.169C270.048 196.488 269.241 220.623 269.241 220.623C268.12 221.173 266.892 221.471 265.644 221.496C264.395 221.521 263.156 221.272 262.014 220.767C262.014 220.767 256.285 187.531 255.122 178.308C254.111 170.26 252.388 148.388 252.388 148.388L248.88 174.698C249.632 178.082 249.903 181.555 249.687 185.015C249.379 189.282 246.884 210.86 246.884 210.86C245.748 211.5 244.486 211.883 243.186 211.981C241.887 212.079 240.581 211.89 239.363 211.427C239.363 211.427 236.081 178.609 236.006 174.698C235.924 170.233 238.166 124.677 238.166 124.677L266.882 132.341Z" fill="#92B1CE"/>
<path d="M241.435 119.535C245.62 105.594 244.792 93.7927 245.579 90.1827L234.851 105.163C234.397 110.103 233.664 115.013 232.656 119.87C231.419 125.196 229.73 131.835 227.706 135.965C227.339 136.69 226.719 137.257 225.963 137.558C223.911 138.385 222.995 139.431 221.375 140.634C220.103 141.571 219.139 141.694 219.214 142.077C219.36 142.503 219.66 142.859 220.054 143.075C220.449 143.291 220.91 143.352 221.348 143.246C222.326 143.04 223.276 142.719 224.178 142.289C223.267 143.832 222.113 145.217 220.76 146.391C217.655 149.085 217.211 150.993 222.366 151.929C225.6 152.524 228.52 150.972 232.205 144.258C233.608 141.81 234.832 139.265 235.87 136.641C238.311 129.818 240.17 123.746 241.435 119.535Z" fill="#FFA8A7"/>
<path d="M246.44 86.7159C243.11 87.3039 239.822 88.0833 237.777 91.2831C235.733 94.4829 232.779 109.586 232.779 109.586C232.779 109.586 237.073 112.602 241.996 112.472L246.44 86.7159Z" fill="#E0E0E0"/>
<path d="M269.385 92.3363C271.621 93.9225 283.415 120.56 283.866 122.42C284.468 124.943 284.194 127.774 282.957 128.683C281.719 129.592 278.991 128.286 277.562 126.892C274.827 124.157 265.221 104.24 265.221 104.24L269.385 92.3363Z" fill="#F28F8F"/>
<path d="M257.777 86.7093C263.212 88.0221 270.084 90.2168 272.518 95.2216C274.952 100.226 278.671 108.349 278.671 108.349C276.139 110.818 273.051 112.643 269.667 113.668L266.932 108.882L267.335 134.146C262.925 137.359 246.728 139.103 237.443 132.327C237.443 132.327 238.585 101.99 238.585 97.2728C238.585 92.5551 241.203 86.8803 248.451 86.4564L257.777 86.7093Z" fill="#F0F0F0"/>
<path d="M266.884 108.862C266.884 108.862 264.15 104.131 263.568 102.996L266.987 114.619L266.884 108.862Z" fill="#E0E0E0"/>
<path d="M262.486 222.974V222.045C261.864 222.318 260.435 227.822 257.844 230.174C255.792 232.041 253.003 234.201 252.292 236.28C251.581 238.358 256.182 239.643 258.097 239.302C260.319 238.912 264.175 237.346 265.139 235.883C266.103 234.42 266.561 232.293 267.347 231.234C268.134 230.174 269.945 228.977 270.369 227.747C270.602 227.063 270.328 225.593 270 224.328C269.672 223.063 269.371 221.915 268.981 222.024V222.708C268.055 223.433 266.909 223.819 265.734 223.802C264.783 223.925 262.479 223.699 262.486 222.974Z" fill="#263238"/>
<path d="M239.91 212.692C239.575 212.692 239.302 213.184 238.543 213.984C237.434 215.104 236.144 216.028 234.728 216.719C232.294 217.936 227.569 219.809 225.429 220.773C224.062 221.375 224.157 222.988 225.539 223.905C226.92 224.821 230.249 225.491 234.256 224.588C236.437 224.096 239.281 222.086 241.093 222.188C242.905 222.291 246.255 222.277 247.582 221.361C248.908 220.445 248.382 218.489 248.006 216.814C247.595 214.982 247.083 212.124 246.474 212.254V212.883C245.695 214.066 241.688 214.544 239.951 213.676L239.91 212.692Z" fill="#263238"/>
<path opacity="0.1" d="M252.402 148.388C249.045 147.34 245.958 145.571 243.356 143.205C243.356 143.205 245.107 146.473 250.289 149.509L249.182 172.42L252.402 148.388Z" fill="black"/>
<path d="M259.813 62.567C260.3 62.509 260.795 62.5633 261.258 62.7257C261.721 62.888 262.141 63.1541 262.486 63.5037C263.635 64.6797 263.395 66.854 262.486 71.8451L258.938 72.2553L259.813 62.567Z" fill="#263238"/>
<path d="M239.131 61.104C238.367 61.1075 237.611 60.9539 236.909 60.6528C235.822 60.0237 235.542 61.2613 236.13 62.3347C236.523 63.1026 237.107 63.757 237.825 64.2357C238.543 64.7144 239.372 65.0014 240.232 65.0696C240.232 64.9192 241.251 62.3347 241.251 62.3347L239.131 61.104Z" fill="#263238"/>
<path d="M258.153 72.235C258.679 72.5496 259.432 71.5513 260.081 70.8676C260.731 70.1839 262.85 69.254 263.903 71.4829C264.956 73.7119 262.536 76.7749 261.1 77.7732C259.39 78.9628 258.153 78.033 258.153 78.033L257.777 86.7162C257.777 86.7162 255.89 91.3245 250.789 92.0151C245.689 92.7056 246.742 88.5076 248.417 86.4427V83.284C248.417 83.284 245.784 83.8036 244.54 83.4822C243.638 83.1978 242.821 82.6942 242.161 82.0165C241.501 81.3388 241.019 80.5081 240.759 79.5987C239.357 74.9661 239.064 70.0687 239.904 65.3021C241.204 57.4188 250.092 57.2889 255.069 60.4204C260.047 63.5518 258.153 72.235 258.153 72.235Z" fill="#FFA8A7"/>
<path d="M258.153 73.1241C258.413 73.1241 259.425 71.4558 260.081 70.861C260.99 70.0337 259.814 62.5469 259.814 62.5469C259.814 62.5469 260.737 59.7095 258.939 57.8224C257.141 55.9354 253.661 56.2567 251.117 56.1678C247.993 56.1881 244.898 55.5668 242.024 54.3423C238.414 52.7697 238.14 52.5851 237.689 54.1714C237.238 55.7576 237.074 59.395 239.234 61.829L241.026 62.5127C241.026 62.5127 241.997 63.3674 245.367 63.7776C248.477 64.0132 251.602 63.9536 254.7 63.5999C255.678 63.47 255.89 64.4135 256.416 67.0185C256.874 69.2542 257.257 73.1036 258.153 73.1241Z" fill="#263238"/>
<path d="M259.806 63.1284L262.992 61.4191C262.891 61.2051 262.747 61.0139 262.569 60.857C262.392 60.7001 262.184 60.5807 261.96 60.506C261.735 60.4312 261.497 60.4027 261.261 60.4222C261.025 60.4416 260.795 60.5086 260.586 60.6192C260.158 60.8566 259.838 61.25 259.692 61.7174C259.547 62.1848 259.588 62.6903 259.806 63.1284Z" fill="#263238"/>
<path d="M248.423 83.2767C248.423 83.2767 253.148 82.3263 254.796 81.4512C255.768 80.9454 256.565 80.1562 257.079 79.188C256.83 80.1553 256.388 81.0623 255.78 81.8546C254.577 83.3998 248.423 84.5347 248.423 84.5347V83.2767Z" fill="#F28F8F"/>
<path d="M249.551 70.8951C249.558 71.0814 249.619 71.2617 249.728 71.4134C249.836 71.5652 249.987 71.6816 250.161 71.7484C250.335 71.8151 250.525 71.8291 250.707 71.7886C250.889 71.7482 251.055 71.6551 251.185 71.5209C251.314 71.3868 251.401 71.2174 251.435 71.0341C251.469 70.8507 251.448 70.6614 251.376 70.4897C251.303 70.3181 251.181 70.1716 251.026 70.0686C250.87 69.9656 250.688 69.9106 250.501 69.9105C250.374 69.9123 250.249 69.9392 250.132 69.9897C250.015 70.0403 249.91 70.1134 249.821 70.2049C249.733 70.2965 249.664 70.4045 249.617 70.523C249.571 70.6414 249.548 70.7679 249.551 70.8951Z" fill="#263238"/>
<path d="M250.728 66.9768L252.779 68.0981C252.924 67.8204 252.957 67.497 252.869 67.196C252.781 66.895 252.579 66.6399 252.307 66.4845C252.172 66.4072 252.023 66.3586 251.869 66.3416C251.714 66.3247 251.558 66.3398 251.41 66.386C251.262 66.4322 251.124 66.5085 251.007 66.6102C250.89 66.7119 250.794 66.8367 250.728 66.9768Z" fill="#263238"/>
<path d="M250.568 77.1249L246.538 78.7209C246.625 79.0037 246.767 79.2652 246.953 79.4898C247.14 79.7143 247.368 79.8973 247.624 80.0277C247.88 80.1581 248.159 80.2333 248.443 80.2487C248.728 80.2641 249.012 80.2194 249.28 80.1174C249.828 79.8941 250.269 79.4554 250.51 78.8958C250.751 78.3361 250.772 77.7002 250.568 77.1249Z" fill="#F28F8F"/>
<path d="M240.677 68.3308L242.523 66.9087C242.436 66.7816 242.324 66.6738 242.194 66.5922C242.063 66.5105 241.917 66.4567 241.765 66.4343C241.613 66.4118 241.458 66.4211 241.309 66.4615C241.161 66.502 241.022 66.5728 240.902 66.6694C240.66 66.8656 240.502 67.1467 240.46 67.4554C240.418 67.7641 240.496 68.0772 240.677 68.3308Z" fill="#263238"/>
<path d="M241.736 70.6284C241.743 70.8151 241.804 70.9956 241.913 71.1475C242.022 71.2993 242.173 71.4158 242.347 71.4823C242.522 71.5488 242.712 71.5624 242.894 71.5214C243.077 71.4804 243.243 71.3866 243.372 71.2518C243.501 71.1169 243.588 70.947 243.621 70.7632C243.654 70.5794 243.632 70.3899 243.559 70.2184C243.485 70.0468 243.362 69.9008 243.206 69.7987C243.049 69.6965 242.866 69.6427 242.679 69.6439C242.424 69.651 242.182 69.7584 242.006 69.9426C241.829 70.1269 241.732 70.3732 241.736 70.6284Z" fill="#263238"/>
<path d="M246.913 69.8902L246.599 75.5787L243.631 74.5668L246.913 69.8902Z" fill="#F28F8F"/>
<path d="M272.885 138.651C272.795 138.651 272.708 138.615 272.644 138.551C272.579 138.487 272.543 138.4 272.543 138.309V30.7739C272.543 30.6832 272.579 30.5963 272.644 30.5322C272.708 30.4681 272.795 30.432 272.885 30.432C272.976 30.432 273.063 30.4681 273.127 30.5322C273.191 30.5963 273.227 30.6832 273.227 30.7739V138.309C273.227 138.4 273.191 138.487 273.127 138.551C273.063 138.615 272.976 138.651 272.885 138.651Z" fill="#263238"/>
<path d="M270.302 40.1345C270.302 39.0405 272.579 36.0321 273.037 36.0321C273.495 36.0321 275.526 38.979 275.526 40.1345C275.506 40.3637 275.425 40.5835 275.291 40.771C275.158 40.9585 274.977 41.107 274.767 41.2011C274.198 41.491 273.569 41.6421 272.931 41.6421C272.293 41.6421 271.664 41.491 271.095 41.2011C270.879 41.1124 270.69 40.9662 270.55 40.7782C270.41 40.5902 270.325 40.3676 270.302 40.1345Z" fill="#92B1CE"/>
<path opacity="0.1" d="M270.302 40.1345C270.302 39.0405 272.579 36.0321 273.037 36.0321C273.495 36.0321 275.526 38.979 275.526 40.1345C275.506 40.3637 275.425 40.5835 275.291 40.771C275.158 40.9585 274.977 41.107 274.767 41.2011C274.198 41.491 273.569 41.6421 272.931 41.6421C272.293 41.6421 271.664 41.491 271.095 41.2011C270.879 41.1124 270.69 40.9662 270.55 40.7782C270.41 40.5902 270.325 40.3676 270.302 40.1345Z" fill="black"/>
<path d="M257.763 16.2725C257.763 24.6823 264.361 35.3073 272.996 37.3174C281.679 34.8902 288.229 24.6823 288.229 16.2725C288.229 7.86278 282.814 0 272.996 0C263.178 0 257.763 7.86962 257.763 16.2725Z" fill="#92B1CE"/>
<path opacity="0.05" d="M287.573 20.6688C287.573 20.6688 285.344 28.7367 275.314 29.3862C265.687 30.0084 257.858 19.4381 258.152 12.4368C257.892 13.6987 257.761 14.984 257.763 16.2725C257.763 24.6823 264.361 35.3073 272.996 37.3174C280.196 35.3073 285.918 27.9504 287.675 20.703L287.573 20.6688Z" fill="black"/>
<path d="M282.608 128.841C284.427 128.321 286.293 122.886 286.156 119.392C286.02 115.898 281.329 100.829 280.687 97.9229C279.955 94.7231 280.003 92.2891 279.353 90.6276C278.396 88.1799 275.251 86.833 275.251 86.833C275.251 86.833 271.149 84.8639 269.672 84.5699C268.195 84.2759 267.621 85.2536 267.785 86.0262C267.949 86.7988 268.469 88.7611 268.605 89.8277C268.702 91.193 269.101 92.5196 269.775 93.7112C270.547 94.9488 273.699 97.9093 273.822 99.557C273.945 101.205 274.855 110.155 275.374 116.65C275.805 121.969 276.338 124.171 277.494 125.579C278.649 126.988 281.241 129.244 282.608 128.841Z" fill="#FFA8A7"/>
<path d="M106.053 228.69C125.352 228.69 140.998 221.233 140.998 212.035C140.998 202.836 125.352 195.379 106.053 195.379C86.7533 195.379 71.1079 202.836 71.1079 212.035C71.1079 221.233 86.7533 228.69 106.053 228.69Z" fill="#E0E0E0"/>
<path d="M180.303 233.756C199.603 233.756 215.248 226.299 215.248 217.101C215.248 207.902 199.603 200.445 180.303 200.445C161.004 200.445 145.358 207.902 145.358 217.101C145.358 226.299 161.004 233.756 180.303 233.756Z" fill="#E0E0E0"/>
<path d="M114.844 74.6691C116.656 74.4093 118.188 74.6691 121.353 78.9902C124.184 82.86 129.825 89.3554 129.825 89.3554C129.825 89.3554 134.925 75.9886 134.775 74.1905C134.624 72.3923 133.496 71.2847 132.758 67.9755C132.019 64.6663 131.807 64.0372 131.254 63.0732C130.7 62.1091 132.621 61.8767 133.394 63.0732C134.166 64.2697 134.262 65.9585 134.802 65.6576C135.342 65.3568 135.711 61.7194 135.253 59.1076C134.795 56.4958 135.985 55.9078 136.525 56.7419C136.838 57.2083 137.059 57.7306 137.175 58.2803C137.733 58.1661 138.313 58.2022 138.853 58.3847C139.394 58.5673 139.876 58.8898 140.251 59.3196C141.619 60.8101 142.754 63.1005 142.747 66.9772C142.74 70.8539 140.949 72.9256 140.696 74.6759C140.443 76.4262 137.277 92.6509 135.034 98.1343C133.626 101.553 131.677 102.592 129.298 100.589C126.091 97.8882 117.292 87.0717 117.292 87.0717L114.844 74.6691Z" fill="#FFA8A7"/>
<path d="M114.844 74.6686C116.478 74.1831 118.262 74.566 119.917 76.5488C121.572 78.5316 127.629 86.2029 127.629 86.2029C127.629 86.2029 127.452 90.1275 122.385 93.7649L116.608 87.543L114.844 74.6686Z" fill="#92B1CE"/>
<path d="M123.406 201.266L123.351 200.357C123.782 201.403 125.724 205.915 128.397 208.069C130.517 209.785 133.395 211.747 134.216 213.751C135.036 215.754 130.565 216.827 128.664 216.602C126.456 216.349 123.55 215.275 121.895 213.477C120.733 212.212 119.953 210.681 119.119 209.683C118.285 208.684 116.432 207.631 115.94 206.435C115.673 205.785 115.858 204.308 116.104 203.064C116.35 201.82 116.719 200.548 117.109 200.63C117.093 200.898 117.061 201.165 117.013 201.43C117.964 202.092 119.113 202.406 120.268 202.319C121.205 202.298 123.461 201.977 123.406 201.266Z" fill="#263238"/>
<path d="M130.317 209.567C129.634 209.047 128.998 208.541 128.396 208.056C126.53 206.545 125.019 203.885 124.13 202.066V202.032C123.45 200.56 123.153 198.939 123.268 197.321L123.35 195.168L116.513 195.304L117.012 201.417V201.574H117.046C117.436 202.88 120.574 206.237 122.379 208.411C123.583 209.881 125.798 211.721 128.376 211.905C130.823 212.138 131.986 211.304 130.317 209.567Z" fill="#FFA8A7"/>
<path d="M85.2322 202.046C84.904 201.854 84.3638 202.969 83.7964 203.816C83.1872 204.871 82.8974 206.08 82.9622 207.296C83.1135 208.666 83.0419 210.052 82.7503 211.399C82.3674 213.669 81.7042 216.274 83.9878 218.366C85.9501 220.157 90.3259 220.991 91.7207 219.733C92.0041 219.503 92.2292 219.209 92.3776 218.875C92.5261 218.541 92.5939 218.177 92.5753 217.812C92.2955 216.821 91.9104 215.863 91.4267 214.954C90.8872 213.923 90.4033 212.864 89.9772 211.782L85.2322 202.046Z" fill="#263238"/>
<path d="M91.3997 198.203C91.0989 197.95 90.4494 206.346 90.2648 208.343C90.0802 210.339 90.4289 211.385 90.757 213.512C90.9205 214.014 90.8838 214.56 90.6545 215.036C90.4812 215.257 90.2585 215.434 90.0043 215.552C89.7502 215.671 89.4717 215.729 89.1913 215.72C87.7418 215.72 86.5932 215.187 85.3762 213.812C84.7745 213.129 84.7335 211.317 84.7677 210.661C84.8668 209.56 84.8873 208.454 84.8292 207.351C84.7198 206.182 84.3779 204.808 84.5283 203.933C84.6569 203.255 84.8875 202.6 85.2121 201.991C85.7659 200.726 86.1351 197.266 86.1351 197.266L91.3997 198.203Z" fill="#FFA8A7"/>
<path d="M94.2634 109.19C90.7149 113.75 90.0722 118.454 90.8448 131.753C91.6174 145.051 90.4961 155.915 90.2978 156.661C90.0995 157.406 87.8501 164.749 86.7903 169.692C85.5528 175.483 85.3818 199.325 85.3818 199.325C85.3818 199.325 87.9048 200.692 91.802 199.762C91.802 199.762 101.21 162.506 102.208 159.505C103.206 156.503 110.762 125.545 110.762 125.545L109.797 107.72L94.2634 109.19Z" fill="#263238"/>
<path d="M121.4 124.518C120.86 118.365 119.54 107.706 119.54 107.706L103.815 106.783C101.265 110.755 102.372 117.36 103.07 123.329L112.067 158.554C111.883 160.243 110.331 163.819 112.067 172.912C114.002 183.045 116.375 196.439 116.375 196.439C116.375 196.439 120.067 197.943 123.458 196.514C123.458 196.514 124.757 164.434 123.93 155.675C123.021 146.165 121.769 128.73 121.4 124.518Z" fill="#263238"/>
<path d="M108.015 139.465L110.579 126.542C112.851 125.733 115.009 124.632 116.999 123.267C115.728 124.873 114.212 126.269 112.507 127.404L108.015 139.465Z" fill="#263238"/>
<path d="M95.2144 77.8956C93.4504 78.9144 90.531 79.8442 89.3139 83.2765C87.6525 88.0625 83.2425 100.493 81.5469 104.957H89.6968L95.3375 93.4024C99.6996 89.6556 99.1116 79.2426 95.2144 77.8956Z" fill="#FFA8A7"/>
<path d="M118.515 97.7173C118.905 101.307 120.354 114.585 120.354 114.585C108.492 120.909 93.7851 116.718 91.5356 114.113C93.5868 107.399 95.7679 103.577 97.443 101.806L95.3371 93.403C95.3371 93.403 100.308 87.4888 95.2141 77.8962L101.826 75.722L110.878 74.9357L114.844 74.6691C116.259 75.9955 118.488 80.7473 119.937 84.4463C120.867 86.8324 121.872 90.6476 118.515 97.7173Z" fill="#F5F5F5"/>
<path d="M95.2144 77.8956C91.3172 78.6614 89.5669 80.5758 88.008 84.8285C86.3261 89.43 84.3091 94.4006 84.3091 94.4006C85.4009 95.9784 86.9247 97.2079 88.6977 97.9416C90.4706 98.6752 92.4175 98.882 94.3051 98.5371L96.828 91.5017C96.828 91.5017 100.212 85.2935 95.2144 77.8956Z" fill="#92B1CE"/>
<path d="M96.4125 97.6282C96.5151 98.0385 99.291 101.731 100.652 102.578C102.012 103.426 98.2449 104.63 97.7116 106.783C96.6381 111.111 103.345 116.67 111.68 117.463C102.251 119.008 93.2742 116.096 91.5581 114.113C93.6093 107.399 95.7903 103.577 97.4654 101.806L96.4125 97.6282Z" fill="#E6E6E6"/>
<path d="M121.353 73.8274H108.684C106.647 73.8283 104.63 73.4278 102.748 72.6489C100.866 71.8699 99.1567 70.7277 97.7166 69.2876C96.2765 67.8475 95.1343 66.1377 94.3553 64.2559C93.5763 62.3741 93.1759 60.3573 93.1768 58.3207C93.1768 54.5852 94.6607 51.0027 97.3021 48.3613C99.9434 45.7199 103.526 44.236 107.261 44.236C109.112 44.2351 110.944 44.5988 112.653 45.3062C114.363 46.0136 115.917 47.0509 117.225 48.3589C118.534 49.6669 119.572 51.2198 120.28 52.9291C120.988 54.6384 121.353 56.4705 121.353 58.3207V73.8274Z" fill="#263238"/>
<path d="M116.321 50.3692C117.812 51.2512 119.651 54.9911 119.466 62.8402C119.309 69.486 117.155 71.1338 116.048 71.6055C114.94 72.0773 112.875 71.7901 110.851 71.4483V75.4412C110.725 76.2849 110.271 77.0445 109.586 77.5539C107.932 78.5863 105.976 78.1966 104.876 77.8C102.448 76.9249 101.97 75.7489 101.97 75.7489L102.011 66.5665C102.011 66.5665 100.821 67.7288 98.7905 65.958C97.1222 64.4948 96.5616 62.0334 97.8606 60.707C98.1989 60.3926 98.6071 60.1631 99.0515 60.0374C99.4959 59.9118 99.9638 59.8936 100.417 59.9845C100.869 60.0753 101.294 60.2725 101.656 60.5598C102.017 60.8471 102.305 61.2163 102.496 61.6369C102.496 61.6369 103.686 61.7326 104.876 59.5174C104.876 59.5174 104.835 53.5143 106.175 52.7349C110.448 50.2598 113.47 50.3692 116.321 50.3692Z" fill="#FFA8A7"/>
<path d="M110.872 60.7481C110.88 60.8591 110.867 60.9707 110.832 61.0764C110.796 61.182 110.741 61.2797 110.668 61.3636C110.594 61.4476 110.505 61.5162 110.405 61.5655C110.306 61.6147 110.197 61.6436 110.086 61.6506C109.913 61.6668 109.739 61.6309 109.587 61.5474C109.435 61.4639 109.311 61.3368 109.232 61.1823C109.153 61.0279 109.122 60.8532 109.143 60.6809C109.164 60.5086 109.236 60.3465 109.35 60.2157C109.464 60.0848 109.615 59.9911 109.782 59.9466C109.95 59.9022 110.127 59.9091 110.291 59.9664C110.455 60.0237 110.598 60.1288 110.702 60.2681C110.805 60.4075 110.864 60.5746 110.872 60.7481Z" fill="#263238"/>
<g style="mix-blend-mode:multiply" opacity="0.5">
<path d="M112.152 66.7026L115.215 67.6554C115.158 67.8557 115.061 68.0426 114.929 68.2051C114.797 68.3676 114.633 68.5023 114.446 68.6011C114.26 68.7 114.055 68.7609 113.845 68.7803C113.634 68.7997 113.421 68.7772 113.22 68.7141C112.814 68.576 112.477 68.2907 112.278 67.9167C112.08 67.5427 112.035 67.1083 112.152 66.7026Z" fill="#F28F8F"/>
</g>
<path d="M118.434 58.1435L116.745 56.9743C116.815 56.8597 116.908 56.7608 117.018 56.6836C117.127 56.6065 117.252 56.5528 117.383 56.5258C117.515 56.4989 117.651 56.4993 117.782 56.5271C117.913 56.5548 118.037 56.6093 118.147 56.6872C118.373 56.8462 118.529 57.0864 118.583 57.3577C118.636 57.629 118.583 57.9105 118.434 58.1435Z" fill="#263238"/>
<path d="M109.711 57.781L107.79 58.5194C107.734 58.397 107.705 58.2645 107.703 58.1303C107.701 57.996 107.727 57.8629 107.779 57.7391C107.831 57.6153 107.908 57.5035 108.005 57.4107C108.102 57.3179 108.217 57.2461 108.343 57.1998C108.602 57.1034 108.889 57.1099 109.143 57.218C109.397 57.3261 109.6 57.5276 109.711 57.781Z" fill="#263238"/>
<path d="M117.975 60.5631C117.978 60.7282 117.932 60.8904 117.843 61.0294C117.753 61.1684 117.625 61.2782 117.474 61.3449C117.323 61.4117 117.156 61.4325 116.993 61.4048C116.831 61.3771 116.68 61.3021 116.559 61.1891C116.439 61.0762 116.354 60.9303 116.316 60.7696C116.278 60.6089 116.288 60.4406 116.345 60.2856C116.402 60.1306 116.503 59.9959 116.636 59.8981C116.769 59.8003 116.928 59.7439 117.093 59.7358C117.32 59.7302 117.539 59.8139 117.704 59.9687C117.869 60.1235 117.966 60.337 117.975 60.5631Z" fill="#263238"/>
<g style="mix-blend-mode:multiply" opacity="0.5">
<path d="M113.962 60.0847L114.092 65.1168L116.745 64.2964L113.962 60.0847Z" fill="#F28F8F"/>
</g>
<g style="mix-blend-mode:multiply" opacity="0.5">
<path d="M110.879 71.4551C108.739 71.1748 104.336 69.9168 103.652 68.1733C103.925 69.0556 104.465 69.8318 105.197 70.3954C106.51 71.5235 110.879 72.7884 110.879 72.7884V71.4551Z" fill="#F28F8F"/>
</g>
<path d="M105.225 44.9882L104.904 41.2962C105.146 41.2598 105.392 41.2732 105.629 41.3357C105.865 41.3982 106.086 41.5085 106.278 41.6596C106.47 41.8108 106.629 41.9997 106.746 42.2147C106.862 42.4297 106.933 42.6662 106.955 42.9097C106.992 43.4127 106.832 43.9103 106.509 44.2979C106.187 44.6855 105.726 44.933 105.225 44.9882Z" fill="#263238"/>
<path d="M105.027 45.3573L102.04 43.1693C102.173 42.9656 102.347 42.7912 102.55 42.6568C102.754 42.5223 102.982 42.4305 103.222 42.387C103.462 42.3435 103.708 42.3492 103.945 42.4038C104.183 42.4584 104.407 42.5606 104.603 42.7044C105.001 43.0078 105.267 43.4523 105.346 43.9461C105.425 44.4399 105.311 44.9451 105.027 45.3573Z" fill="#263238"/>
<path d="M102.524 61.623V65.1168C103.155 65.1168 103.761 64.8661 104.207 64.4199C104.653 63.9737 104.904 63.3685 104.904 62.7375V59.5035L102.524 61.623Z" fill="#263238"/>
<path d="M112.042 45.0635C115.179 45.0635 118.188 46.3097 120.406 48.528C122.625 50.7462 123.871 53.7548 123.871 56.8919V58.4234H118.086C116.784 58.4239 115.525 57.9525 114.544 57.0965C113.562 56.2405 112.923 55.0578 112.747 53.7673L112.535 58.4234C111.464 58.4241 110.432 58.0236 109.642 57.3009C108.853 56.5782 108.362 55.5858 108.268 54.5194L108.2 53.7536C108.099 55.0245 107.522 56.2106 106.586 57.0759C105.65 57.9412 104.422 58.4223 103.147 58.4234H102.628L102.04 50.0684L112.042 45.0635Z" fill="#263238"/>
<path d="M192.44 210.469V209.567C192.078 210.64 190.389 215.262 187.866 217.573C185.849 219.412 183.08 221.539 182.396 223.59C181.712 225.641 186.225 226.441 188.112 226.106C190.3 225.723 193.137 224.479 194.676 222.585C195.763 221.252 196.453 219.672 197.226 218.626C197.999 217.58 199.783 216.404 200.2 215.208C200.433 214.524 200.159 213.081 199.838 211.851C199.516 210.62 199.222 209.478 198.833 209.581V210.264C197.922 210.982 196.792 211.364 195.633 211.345C194.703 211.372 192.433 211.187 192.44 210.469Z" fill="#263238"/>
<path d="M186.04 219.18C186.669 218.619 187.298 218.079 187.865 217.553C189.643 215.939 190.99 213.197 191.769 211.324C192.213 210.258 192.446 209.115 192.453 207.96V204.316H198.846V210.251V210.408H198.811C198.504 211.734 195.571 215.276 193.902 217.58C192.788 219.125 190.661 221.088 188.125 221.429C185.705 221.764 184.481 221.006 186.04 219.18Z" fill="#B16668"/>
<path d="M167.49 204.165V203.249C167.135 204.323 165.439 208.945 162.923 211.256C160.906 213.095 158.137 215.221 157.453 217.272C156.769 219.324 161.282 220.123 163.169 219.788C165.357 219.399 168.188 218.161 169.733 216.267C170.813 214.934 171.504 213.355 172.283 212.309C173.063 211.262 174.84 210.086 175.257 208.89C175.49 208.206 175.216 206.764 174.895 205.533C174.594 204.405 174.273 203.16 173.89 203.263V203.947C172.979 204.665 171.849 205.046 170.69 205.027C169.753 205.068 167.483 204.883 167.49 204.165Z" fill="#263238"/>
<path d="M161.099 212.876C161.721 212.315 162.351 211.775 162.925 211.248C164.696 209.635 166.049 206.893 166.822 205.02C167.27 203.955 167.503 202.811 167.506 201.656V198.011H173.899V203.939V204.097H173.864C173.557 205.423 170.624 208.958 168.955 211.269C167.834 212.814 165.714 214.776 163.178 215.118C160.764 215.46 159.54 214.701 161.099 212.876Z" fill="#B16668"/>
<path d="M197.559 111.111C202.516 121.941 197.382 160.086 197.382 160.086C197.532 161.843 199.535 165.303 200.287 173.036C201.169 182.17 198.92 205.116 198.92 205.116C197.945 205.681 196.848 206.001 195.722 206.046C194.596 206.091 193.476 205.861 192.459 205.376C192.459 205.376 186.34 170.786 185.198 161.706C184.193 153.782 182.278 136.347 182.278 136.347L176.809 161.645C177.603 164.201 178.179 166.82 178.532 169.473C179.051 174.82 173.875 199.701 173.875 199.701C173.875 199.701 171.667 200.508 167.476 199.892C167.476 199.892 165.65 166.869 165.165 160.435C164.351 149.618 167.216 115.884 169.206 109.484L197.559 111.111Z" fill="#263238"/>
<path d="M182.281 136.34L180.667 126.283C180.667 126.283 173.83 124.868 170.774 121.969C170.774 121.969 174.008 125.996 178.821 127.315L180.633 135.041L177.474 158.486L182.281 136.34Z" fill="#263238"/>
<path d="M178.944 73.1707C177.403 72.9164 175.821 73.0979 174.377 73.6947C172.933 74.2915 171.685 75.2799 170.773 76.5483C168.62 79.413 160.333 103.514 160.333 103.514H167.792L178 83.3171L178.944 73.1707Z" fill="#B16668"/>
<path d="M188.815 73.4647C195.173 73.9023 195.618 76.9722 197.204 80.3019C198.378 82.8912 198.486 85.8383 197.505 88.5066L193.081 101.319C193.081 101.319 195.132 106.331 197.56 111.069C186.442 117.271 172.563 114.009 169.219 109.483C169.083 108.526 169.903 101.019 170.471 96.1164C168.508 91.2004 167.995 88.0895 168.823 84.8418C170.354 78.8183 176.303 72.9451 178.942 73.1571L188.815 73.4647Z" fill="#F5F5F5"/>
<path d="M185.973 112.287C186.846 112.087 187.67 111.714 188.396 111.191C189.123 110.667 189.738 110.004 190.204 109.239C190.67 108.475 190.979 107.625 191.112 106.739C191.245 105.853 191.199 104.95 190.978 104.082C190.95 103.963 190.911 103.846 190.862 103.734C190.709 103.268 190.405 102.866 189.997 102.595C189.589 102.323 189.101 102.197 188.612 102.236C189.326 101.765 189.939 101.157 190.416 100.447C190.892 99.7369 191.223 98.939 191.388 98.0998L192.755 91.3242C192.755 91.3242 190.246 83.3657 190.499 80.6376L196.878 81.0068L197.706 81.5812C198.383 83.8483 198.319 86.2727 197.521 88.5004L193.097 101.313C193.097 101.313 195.148 106.325 197.576 111.063C193.959 113.008 189.968 114.155 185.87 114.427C181.773 114.698 177.665 114.087 173.823 112.636C177.859 113.287 181.981 113.168 185.973 112.287Z" fill="#E6E6E6"/>
<path d="M212.22 105.238C212.22 105.238 205.909 92.8214 201.738 83.3177C198.73 76.4805 198.053 74.9079 193.26 74.1626L191.572 73.9028C189.302 81.3622 190.888 84.7466 193.855 89.854L204.241 109.545C206.593 109.06 212.268 105.949 212.22 105.238Z" fill="#B16668"/>
<path d="M186.177 68.1937H181.672C178.493 68.1937 175.444 66.9309 173.197 64.6832C170.949 62.4354 169.686 59.3868 169.686 56.2081V54.1979C169.686 51.001 170.956 47.935 173.217 45.6745C175.477 43.4139 178.543 42.1439 181.74 42.1439H186.075C189.272 42.1439 192.338 43.4139 194.598 45.6745C196.859 47.935 198.129 51.001 198.129 54.1979V56.2081C198.129 59.3868 196.866 62.4354 194.618 64.6832C192.371 66.9309 189.322 68.1937 186.143 68.1937H186.177Z" fill="#263238"/>
<path d="M174.389 47.8941C172.885 48.7829 171.025 52.5639 171.21 60.4882C171.367 67.2023 173.541 68.8569 174.629 69.3356C175.716 69.8142 177.828 69.5202 179.88 69.1851V73.2123C179.88 73.2123 177.042 76.5009 177.227 78.347C177.411 80.193 181.329 80.6306 183.961 78.8256C185.68 77.5901 187.155 76.046 188.31 74.272V64.5358C188.31 64.5358 189.677 66.3819 191.954 64.8777C194.231 63.3735 194.306 59.6609 192.993 58.3208C191.681 56.9807 188.836 57.4115 188.31 59.2575C188.31 59.2575 185.042 59.3738 180.693 56.9807C179.001 56.0699 177.548 54.772 176.452 53.1929C175.357 51.6138 174.65 49.7982 174.389 47.8941Z" fill="#B16668"/>
<path d="M179.456 58.7991C179.453 58.9655 179.5 59.129 179.59 59.2692C179.679 59.4093 179.808 59.52 179.961 59.5872C180.113 59.6545 180.282 59.6755 180.446 59.6475C180.61 59.6195 180.762 59.5439 180.884 59.43C181.005 59.316 181.09 59.1689 181.128 59.0069C181.167 58.8449 181.157 58.6752 181.099 58.519C181.042 58.3628 180.939 58.2269 180.805 58.1284C180.671 58.0298 180.511 57.973 180.344 57.9649C180.231 57.9613 180.119 57.98 180.013 58.0199C179.907 58.0599 179.81 58.1203 179.727 58.1978C179.645 58.2753 179.578 58.3682 179.532 58.4714C179.485 58.5746 179.459 58.6859 179.456 58.7991Z" fill="#263238"/>
<path d="M178.731 64.618L175.666 65.5821C175.723 65.7807 175.821 65.966 175.953 66.1269C176.085 66.2878 176.249 66.4211 176.435 66.5189C176.621 66.6166 176.826 66.6769 177.036 66.6959C177.246 66.715 177.458 66.6926 177.659 66.63C178.065 66.489 178.401 66.2031 178.6 65.8299C178.798 65.4567 178.845 65.0238 178.731 64.618Z" fill="#9A4A4D"/>
<path d="M172.531 56.2081L174.24 55.0185C174.167 54.904 174.072 54.8054 173.961 54.7286C173.849 54.6518 173.723 54.5984 173.59 54.5716C173.457 54.5448 173.32 54.5451 173.188 54.5725C173.055 54.6 172.929 54.654 172.818 54.7313C172.589 54.8929 172.431 55.1368 172.377 55.412C172.324 55.6872 172.379 55.9724 172.531 56.2081Z" fill="#263238"/>
<path d="M172.927 58.1908C172.926 58.357 172.974 58.5199 173.064 58.6591C173.155 58.7984 173.285 58.908 173.437 58.9742C173.59 59.0405 173.758 59.0604 173.922 59.0317C174.085 59.0029 174.237 58.9267 174.358 58.8125C174.478 58.6983 174.563 58.5511 174.601 58.3893C174.638 58.2275 174.628 58.0581 174.57 57.9023C174.512 57.7464 174.41 57.611 174.276 57.5128C174.142 57.4145 173.982 57.3579 173.816 57.3498C173.587 57.3461 173.366 57.432 173.2 57.5892C173.034 57.7464 172.936 57.9623 172.927 58.1908Z" fill="#263238"/>
<path d="M177.057 57.706L176.92 62.786L174.247 61.9587L177.057 57.706Z" fill="#9A4A4D"/>
<path d="M179.887 69.185C182.041 68.8978 186.485 67.6193 187.176 65.869C186.902 66.7566 186.359 67.5376 185.624 68.1047C184.297 69.2465 179.887 70.5251 179.887 70.5251V69.185Z" fill="#9A4A4D"/>
<path d="M196.392 43.6691C193.616 44.8246 194.238 47.2039 195.4 49.9798C196.563 52.7557 197.828 54.8684 200.563 53.6788C201.297 53.4585 201.976 53.0864 202.558 52.5866C203.139 52.0868 203.608 51.4704 203.936 50.7774C204.264 50.0844 204.442 49.3303 204.459 48.564C204.477 47.7976 204.333 47.0362 204.037 46.329C203.741 45.6218 203.3 44.9847 202.742 44.459C202.185 43.9333 201.523 43.5307 200.799 43.2773C200.076 43.0239 199.307 42.9254 198.543 42.9882C197.779 43.051 197.037 43.2737 196.364 43.6418L196.392 43.6691Z" fill="#263238"/>
<path d="M193.951 46.1575L192.98 41.5287C193.278 41.4539 193.587 41.4395 193.89 41.4864C194.193 41.5333 194.484 41.6406 194.745 41.802C195.005 41.9633 195.231 42.1753 195.409 42.4256C195.586 42.6758 195.711 42.959 195.777 43.2586C195.905 43.8839 195.787 44.5347 195.447 45.0749C195.107 45.6151 194.571 46.003 193.951 46.1575Z" fill="#263238"/>
<path d="M216.733 103.514H71.8184V136.695H216.733V103.514Z" fill="#92B1CE"/>
<path d="M91.5294 127.76C91.404 127.643 91.314 127.494 91.2696 127.329L87.7485 115.897C87.7362 115.827 87.7362 115.755 87.7485 115.685C87.7485 115.459 87.8852 115.35 88.1655 115.35H90.1757C90.3289 115.334 90.4831 115.37 90.6132 115.453C90.7159 115.548 90.7814 115.676 90.7978 115.815L93.0678 123.794L95.6454 116.957C95.6947 116.814 95.7767 116.686 95.8847 116.581C96.0039 116.49 96.153 116.449 96.3018 116.464H97.4231C97.5652 116.452 97.7073 116.489 97.8265 116.567C97.9281 116.679 98.003 116.812 98.0453 116.957L100.602 123.794L102.893 115.815C102.927 115.682 102.99 115.558 103.077 115.453C103.209 115.369 103.366 115.332 103.522 115.35H105.525C105.805 115.35 105.942 115.459 105.942 115.685C105.951 115.755 105.951 115.827 105.942 115.897L102.366 127.315C102.33 127.484 102.244 127.639 102.12 127.76C101.981 127.839 101.822 127.875 101.662 127.862H100.055C99.9071 127.873 99.7595 127.832 99.6383 127.746C99.5246 127.62 99.4364 127.474 99.3785 127.315L96.7736 120.3L94.1617 127.315C94.1051 127.478 94.0115 127.625 93.8883 127.746C93.7617 127.832 93.6101 127.873 93.4575 127.862H91.9738C91.819 127.87 91.665 127.835 91.5294 127.76Z" fill="white"/>
<path d="M109.861 127.575C108.794 127.138 107.883 126.393 107.242 125.435C106.557 124.359 106.215 123.099 106.264 121.825C106.264 119.582 106.864 117.88 108.063 116.717C109.259 115.555 110.962 114.967 113.17 114.967C115.378 114.967 117.019 115.534 118.141 116.663C119.262 117.791 119.823 119.397 119.823 121.565C119.823 122.173 119.542 122.481 118.988 122.481H109.416C109.39 122.986 109.486 123.49 109.696 123.951C109.905 124.411 110.222 124.815 110.62 125.127C111.599 125.796 112.772 126.121 113.956 126.05C115.25 126.069 116.526 125.746 117.655 125.113C117.741 125.056 117.84 125.018 117.942 125.004C118.065 125.004 118.161 125.086 118.229 125.243L118.859 126.365C118.904 126.454 118.93 126.552 118.934 126.652C118.926 126.723 118.901 126.79 118.86 126.849C118.82 126.908 118.765 126.955 118.701 126.987C117.985 127.424 117.205 127.75 116.39 127.951C115.457 128.174 114.499 128.279 113.539 128.265C112.279 128.283 111.028 128.048 109.861 127.575ZM116.794 120.546C116.819 120.087 116.754 119.628 116.6 119.194C116.446 118.761 116.207 118.363 115.898 118.023C115.533 117.696 115.105 117.447 114.641 117.289C114.177 117.132 113.686 117.07 113.197 117.107C112.176 117.04 111.17 117.377 110.394 118.044C110.066 118.37 109.81 118.761 109.642 119.192C109.473 119.623 109.397 120.084 109.416 120.546H116.794Z" fill="white"/>
<path d="M122.617 127.643C122.459 127.452 122.378 127.208 122.392 126.96V111.111C122.37 110.847 122.451 110.585 122.617 110.38C122.718 110.292 122.835 110.226 122.962 110.186C123.089 110.146 123.223 110.133 123.356 110.147H124.723C124.997 110.121 125.27 110.205 125.482 110.38C125.567 110.48 125.631 110.597 125.671 110.722C125.711 110.848 125.726 110.98 125.714 111.111V126.939C125.729 127.186 125.651 127.43 125.496 127.623C125.278 127.799 125.001 127.882 124.723 127.855H123.356C123.225 127.871 123.092 127.86 122.965 127.824C122.838 127.787 122.72 127.726 122.617 127.643Z" fill="white"/>
<path d="M130.207 126.556C129.542 125.935 129.023 125.175 128.688 124.329C128.352 123.484 128.208 122.575 128.265 121.667C128.24 120.444 128.547 119.236 129.154 118.173C129.754 117.158 130.635 116.339 131.691 115.815C132.898 115.229 134.226 114.939 135.567 114.967C136.507 114.951 137.445 115.057 138.357 115.281C139.123 115.491 139.846 115.836 140.49 116.3C140.555 116.331 140.611 116.379 140.653 116.437C140.694 116.496 140.721 116.564 140.73 116.635C140.719 116.767 140.674 116.894 140.6 117.004L139.916 118.228C139.807 118.399 139.711 118.488 139.629 118.488C139.493 118.474 139.364 118.419 139.26 118.331C138.758 118.02 138.221 117.772 137.66 117.592C137.045 117.411 136.406 117.326 135.766 117.339C135.2 117.31 134.635 117.399 134.106 117.599C133.576 117.799 133.094 118.106 132.689 118.502C132.303 118.929 132.005 119.429 131.813 119.973C131.62 120.516 131.537 121.092 131.568 121.667C131.524 122.245 131.601 122.825 131.794 123.372C131.987 123.918 132.292 124.418 132.689 124.84C133.609 125.601 134.787 125.978 135.978 125.893C137.212 125.929 138.426 125.572 139.444 124.874C139.545 124.803 139.663 124.758 139.786 124.744C139.889 124.744 139.991 124.833 140.094 125.004L140.853 126.282C140.918 126.364 140.954 126.465 140.955 126.569C140.955 126.693 140.866 126.816 140.695 126.939C140.005 127.388 139.248 127.725 138.453 127.937C137.532 128.17 136.585 128.281 135.636 128.265C133.311 128.265 131.502 127.695 130.207 126.556Z" fill="white"/>
<path d="M144.833 126.481C143.647 125.139 142.993 123.41 142.993 121.62C142.993 119.829 143.647 118.1 144.833 116.758C146.057 115.569 147.8 114.967 150.063 114.967C152.326 114.967 154.07 115.569 155.3 116.758C156.494 118.096 157.154 119.827 157.154 121.62C157.154 123.413 156.494 125.143 155.3 126.481C154.07 127.67 152.319 128.265 150.063 128.265C147.807 128.265 146.057 127.67 144.833 126.481ZM152.873 124.744C153.579 123.862 153.926 122.746 153.844 121.62C153.926 120.503 153.578 119.398 152.873 118.529C152.098 117.846 151.1 117.469 150.067 117.469C149.033 117.469 148.035 117.846 147.26 118.529C146.55 119.396 146.2 120.502 146.282 121.62C146.203 122.743 146.553 123.854 147.26 124.73C148.029 125.426 149.029 125.811 150.067 125.811C151.104 125.811 152.104 125.426 152.873 124.73V124.744Z" fill="white"/>
<path d="M159.943 127.643C159.777 127.455 159.691 127.21 159.703 126.959V116.088C159.686 115.894 159.734 115.699 159.84 115.534C159.922 115.432 160.107 115.384 160.387 115.384H161.754C161.903 115.369 162.052 115.411 162.171 115.5C162.269 115.612 162.325 115.755 162.329 115.904L162.404 116.998C162.872 116.386 163.464 115.881 164.141 115.514C164.862 115.148 165.663 114.967 166.472 114.987C167.172 114.971 167.863 115.148 168.469 115.5C169.039 115.844 169.476 116.372 169.706 116.998C170.172 116.341 170.796 115.813 171.52 115.461C172.244 115.11 173.045 114.947 173.849 114.987C174.389 114.961 174.929 115.047 175.434 115.24C175.939 115.433 176.398 115.729 176.783 116.109C177.564 117.037 177.952 118.235 177.863 119.445V126.966C177.875 127.213 177.798 127.456 177.644 127.65C177.427 127.826 177.149 127.909 176.871 127.882H175.723C175.452 127.904 175.183 127.821 174.971 127.65C174.808 127.461 174.724 127.216 174.738 126.966V119.609C174.797 118.99 174.613 118.373 174.225 117.886C174.02 117.701 173.778 117.56 173.516 117.471C173.254 117.381 172.977 117.346 172.701 117.367C172.381 117.353 172.061 117.406 171.763 117.524C171.465 117.642 171.195 117.821 170.971 118.051C170.503 118.57 170.257 119.253 170.287 119.951V126.918C170.301 127.168 170.218 127.413 170.055 127.602C169.841 127.774 169.569 127.857 169.296 127.835H168.229C167.958 127.859 167.688 127.775 167.477 127.602C167.312 127.414 167.226 127.169 167.238 126.918V119.48C167.287 118.909 167.127 118.34 166.787 117.88C166.596 117.696 166.367 117.555 166.117 117.466C165.867 117.378 165.601 117.344 165.337 117.367C164.997 117.355 164.659 117.415 164.344 117.543C164.03 117.672 163.746 117.866 163.512 118.112C163.036 118.643 162.79 119.342 162.828 120.054V126.939C162.84 127.186 162.763 127.429 162.609 127.623C162.392 127.798 162.114 127.882 161.836 127.855H160.688C160.421 127.882 160.155 127.806 159.943 127.643Z" fill="white"/>
<path d="M183.899 127.575C182.838 127.147 181.926 126.415 181.281 125.469C180.595 124.393 180.254 123.134 180.303 121.859C180.303 119.617 180.902 117.914 182.101 116.752C183.298 115.59 185 115.002 187.209 115.002C189.417 115.002 191.058 115.569 192.179 116.697C193.3 117.825 193.861 119.432 193.861 121.599C193.861 122.208 193.581 122.516 193.027 122.516H183.469C183.443 123.021 183.538 123.525 183.748 123.985C183.957 124.446 184.274 124.849 184.672 125.162C185.651 125.832 186.825 126.157 188.008 126.085C189.302 126.103 190.578 125.78 191.707 125.148C191.794 125.09 191.892 125.053 191.995 125.039C192.118 125.039 192.213 125.121 192.282 125.278L192.911 126.399C192.957 126.488 192.982 126.586 192.986 126.686C192.979 126.757 192.953 126.825 192.913 126.884C192.872 126.942 192.817 126.99 192.753 127.021C192.037 127.459 191.258 127.784 190.443 127.985C189.509 128.208 188.551 128.314 187.591 128.3C186.325 128.309 185.069 128.062 183.899 127.575ZM190.832 120.546C190.858 120.088 190.792 119.628 190.638 119.195C190.485 118.762 190.246 118.364 189.937 118.024C189.571 117.697 189.144 117.448 188.68 117.29C188.216 117.133 187.725 117.071 187.236 117.107C186.215 117.039 185.208 117.376 184.433 118.044C184.107 118.372 183.854 118.763 183.688 119.194C183.522 119.625 183.447 120.085 183.469 120.546H190.832Z" fill="white"/>
<path d="M195.894 126.836V126.282C195.894 125.558 196.406 125.188 197.432 125.188H198.116C199.141 125.188 199.654 125.558 199.654 126.282V126.836C199.654 127.547 199.141 127.903 198.116 127.903H197.432C196.406 127.885 195.894 127.529 195.894 126.836ZM196.454 122.734C196.306 122.525 196.235 122.271 196.256 122.016L196.106 111.111C196.082 110.848 196.161 110.586 196.324 110.379C196.426 110.292 196.545 110.226 196.673 110.186C196.801 110.146 196.936 110.133 197.07 110.147H198.512C198.646 110.133 198.781 110.146 198.909 110.186C199.037 110.226 199.155 110.292 199.257 110.379C199.421 110.586 199.499 110.848 199.476 111.111L199.298 122.009C199.319 122.264 199.249 122.519 199.1 122.727C198.91 122.887 198.664 122.965 198.416 122.946H197.138C197.016 122.963 196.893 122.953 196.775 122.917C196.658 122.88 196.551 122.818 196.461 122.734H196.454Z" fill="white"/>
<path d="M71.8182 109.504C71.3943 110.687 70.4507 111.248 69.767 112.424C69.0833 113.6 68.7961 117.114 69.5687 118.577C70.1578 119.603 70.9853 120.473 71.9814 121.112C72.9775 121.751 74.1129 122.141 75.2915 122.249C76.2802 122.289 77.2565 122.016 78.081 121.469C78.4651 121.211 78.8046 120.893 79.0861 120.526C79.3432 120.132 79.537 119.701 79.6604 119.247C79.6702 119.211 79.689 119.178 79.7151 119.151C79.7521 119.128 79.7944 119.114 79.8382 119.11C80.1377 119.067 80.4194 118.942 80.6518 118.748C80.7677 118.651 80.8608 118.529 80.9246 118.392C80.9884 118.255 81.0213 118.106 81.021 117.955C80.9982 117.763 80.9299 117.579 80.8217 117.418C80.7134 117.257 80.5685 117.125 80.3988 117.032C80.0534 116.854 79.6886 116.716 79.3117 116.622C78.4024 116.328 77.5614 115.869 76.6726 115.534C74.8713 114.894 73.2179 113.896 71.8113 112.601L71.8182 109.504Z" fill="#FFA8A7"/>
<path d="M216.739 110.571C217.163 111.767 218.106 112.335 218.79 113.531C219.474 114.728 219.775 118.317 218.995 119.774C218.397 120.816 217.557 121.7 216.545 122.348C215.534 122.997 214.38 123.392 213.183 123.5C212.233 123.566 211.286 123.322 210.486 122.804C209.686 122.286 209.075 121.523 208.746 120.628C208.124 118.475 209.197 117.661 211.782 116.683C213.611 116.036 215.291 115.024 216.718 113.709L216.739 110.571Z" fill="#B16668"/>
<path d="M153.386 100.63C157.214 101.252 158.315 103.515 158.315 103.515H155.184C155.184 103.515 154.787 104.568 155.867 108.513C156.237 109.88 154.192 109.935 154.131 109.416C153.762 110.263 151.068 111.467 149.058 110.099C147.212 108.875 146.391 107.002 146.801 103.495C147.478 99.5905 152.702 100.52 153.386 100.63Z" fill="#B16668"/>
</svg>
