<svg width="44" height="44" viewBox="0 0 44 44" fill="none" xmlns="http://www.w3.org/2000/svg">
<g filter="url(#filter0_d_4796_9038)">
<rect x="2" y="1" width="40" height="40" rx="20" fill="white" shape-rendering="crispEdges"/>
<rect x="2.5" y="1.5" width="39" height="39" rx="19.5" stroke="#E4E4E7" shape-rendering="crispEdges"/>
<path d="M26.979 27.2655H23.9757C23.6679 27.2655 23.4126 27.0102 23.4126 26.7024C23.4126 26.3946 23.6679 26.1393 23.9757 26.1393H26.979C27.2868 26.1393 27.5421 26.3946 27.5421 26.7024C27.5421 27.0102 27.2868 27.2655 26.979 27.2655Z" fill="#18181B"/>
<path d="M25.4772 28.7671C25.1693 28.7671 24.9141 28.5118 24.9141 28.204V25.2007C24.9141 24.8929 25.1693 24.6376 25.4772 24.6376C25.785 24.6376 26.0403 24.8929 26.0403 25.2007V28.204C26.0403 28.5118 25.785 28.7671 25.4772 28.7671Z" fill="#18181B"/>
<path d="M22.2186 20.7859C22.1961 20.7859 22.1811 20.7859 22.1586 20.7859C22.121 20.7784 22.0685 20.7784 22.0234 20.7859C19.8461 20.7183 18.2018 19.0065 18.2018 16.8967C18.1943 15.8606 18.5997 14.8845 19.3355 14.1487C20.0713 13.4129 21.0474 12.9999 22.091 12.9999C24.2383 12.9999 25.9877 14.7493 25.9877 16.8967C25.9877 19.0065 24.3434 20.7108 22.2412 20.7859C22.2336 20.7859 22.2261 20.7859 22.2186 20.7859ZM22.091 14.1262C21.3477 14.1262 20.6569 14.419 20.1314 14.937C19.6133 15.4626 19.328 16.1534 19.328 16.8892C19.328 18.3908 20.4993 19.6071 21.9934 19.6522C22.0384 19.6447 22.136 19.6447 22.2336 19.6522C23.7128 19.5846 24.8615 18.3758 24.8615 16.8892C24.8615 15.3725 23.6152 14.1262 22.091 14.1262Z" fill="#18181B"/>
<path d="M22.0911 28.9999C20.5594 28.9999 19.1104 28.602 18.0142 27.8662C16.9705 27.1679 16.3999 26.2144 16.3999 25.1858C16.3999 24.1572 16.978 23.2111 18.0142 22.5204C20.2591 21.0188 23.9081 21.0188 26.153 22.5204C26.4083 22.6931 26.4834 23.046 26.3107 23.3012C26.138 23.564 25.7851 23.6316 25.5298 23.4589C23.6603 22.2126 20.5069 22.2126 18.6373 23.4589C17.9166 23.9394 17.5261 24.5476 17.5261 25.1858C17.5261 25.824 17.9166 26.4472 18.6373 26.9277C19.5458 27.5358 20.7697 27.8662 22.0836 27.8662C22.3914 27.8662 22.6467 28.1215 22.6467 28.4293C22.6467 28.7372 22.3989 28.9999 22.0911 28.9999Z" fill="#18181B"/>
</g>
<defs>
<filter id="filter0_d_4796_9038" x="0" y="0" width="44" height="44" filterUnits="userSpaceOnUse" color-interpolation-filters="sRGB">
<feFlood flood-opacity="0" result="BackgroundImageFix"/>
<feColorMatrix in="SourceAlpha" type="matrix" values="0 0 0 0 0 0 0 0 0 0 0 0 0 0 0 0 0 0 127 0" result="hardAlpha"/>
<feOffset dy="1"/>
<feGaussianBlur stdDeviation="1"/>
<feComposite in2="hardAlpha" operator="out"/>
<feColorMatrix type="matrix" values="0 0 0 0 0 0 0 0 0 0 0 0 0 0 0 0 0 0 0.02 0"/>
<feBlend mode="normal" in2="BackgroundImageFix" result="effect1_dropShadow_4796_9038"/>
<feBlend mode="normal" in="SourceGraphic" in2="effect1_dropShadow_4796_9038" result="shape"/>
</filter>
</defs>
</svg>
