<svg width="16" height="16" viewBox="0 0 16 16" fill="none" xmlns="http://www.w3.org/2000/svg">
<path d="M6.81496 3.2835V5.6835H9.18533V3.2835H6.81496ZM10.3705 3.2835V5.6835H12.7409V3.2835H10.3705ZM10.3705 6.8835V9.2835H12.7409V6.8835H10.3705ZM10.3705 10.4835V12.8835H12.7409V10.4835H10.3705ZM9.18533 12.8835V10.4835H6.81496V12.8835H9.18533ZM5.62977 12.8835V10.4835H3.2594V12.8835H5.62977ZM5.62977 9.2835V6.8835H3.2594V9.2835H5.62977ZM5.62977 5.6835V3.2835H3.2594V5.6835H5.62977ZM6.81496 9.2835H9.18533V6.8835H6.81496V9.2835ZM3.2594 2.0835H12.7409C13.0552 2.0835 13.3567 2.20992 13.5789 2.43497C13.8012 2.66001 13.9261 2.96524 13.9261 3.2835V12.8835C13.9261 13.2018 13.8012 13.507 13.5789 13.732C13.3567 13.9571 13.0552 14.0835 12.7409 14.0835H3.2594C2.6194 14.0835 2.07422 13.5435 2.07422 12.8835V3.2835C2.07422 2.96524 2.19909 2.66001 2.42135 2.43497C2.64362 2.20992 2.94507 2.0835 3.2594 2.0835Z" fill="#18181B"/>
</svg>
