<svg width="20" height="20" viewBox="0 0 20 20" fill="none" xmlns="http://www.w3.org/2000/svg">
<g id="vuesax/outline/arrow-right">
<g id="arrow-right">
<path id="Vector" d="M7.92656 16.001C7.79505 16.001 7.66354 15.9525 7.55972 15.8487C7.359 15.648 7.359 15.3158 7.55972 15.115L12.0725 10.6023C12.4047 10.27 12.4047 9.73018 12.0725 9.39795L7.55972 4.88519C7.359 4.68447 7.359 4.35224 7.55972 4.15152C7.76044 3.9508 8.09267 3.9508 8.29339 4.15152L12.8062 8.66428C13.1591 9.01727 13.3599 9.49485 13.3599 10.0001C13.3599 10.5054 13.1661 10.983 12.8062 11.3359L8.29339 15.8487C8.18957 15.9456 8.05806 16.001 7.92656 16.001Z" fill="#DC2626"/>
</g>
</g>
</svg>
