<svg width="12" height="12" viewBox="0 0 12 12" fill="none" xmlns="http://www.w3.org/2000/svg">
<circle cx="6" cy="6" r="5.5" fill="#12B76A" stroke="white"/>
<g clip-path="url(#clip0_4710_3859)">
<path d="M8.78333 6.17049L9.25 6.64049L7.07333 8.83716L5.91667 7.67049L6.38333 7.20049L7.07333 7.89383L8.78333 6.17049ZM5.41667 3.33716C5.77029 3.33716 6.10943 3.47763 6.35948 3.72768C6.60952 3.97773 6.75 4.31687 6.75 4.67049C6.75 5.02411 6.60952 5.36325 6.35948 5.6133C6.10943 5.86335 5.77029 6.00383 5.41667 6.00383C5.06305 6.00383 4.72391 5.86335 4.47386 5.6133C4.22381 5.36325 4.08333 5.02411 4.08333 4.67049C4.08333 4.31687 4.22381 3.97773 4.47386 3.72768C4.72391 3.47763 5.06305 3.33716 5.41667 3.33716ZM5.41667 4.00383C5.23986 4.00383 5.07029 4.07406 4.94526 4.19909C4.82024 4.32411 4.75 4.49368 4.75 4.67049C4.75 4.8473 4.82024 5.01687 4.94526 5.1419C5.07029 5.26692 5.23986 5.33716 5.41667 5.33716C5.59348 5.33716 5.76305 5.26692 5.88807 5.1419C6.0131 5.01687 6.08333 4.8473 6.08333 4.67049C6.08333 4.49368 6.0131 4.32411 5.88807 4.19909C5.76305 4.07406 5.59348 4.00383 5.41667 4.00383ZM5.41667 6.33716C5.64333 6.33716 5.91667 6.36716 6.22 6.42383L5.66333 6.98049L5.41667 6.97049C4.42667 6.97049 3.38333 7.45716 3.38333 7.67049V8.03716H5.45L6.08333 8.67049H2.75V7.67049C2.75 6.78383 4.52667 6.33716 5.41667 6.33716Z" fill="white"/>
</g>
<defs>
<clipPath id="clip0_4710_3859">
<rect width="8" height="8" fill="white" transform="translate(1.75 2.00385)"/>
</clipPath>
</defs>
</svg>
