<svg width="34" height="34" viewBox="0 0 34 34" fill="none" xmlns="http://www.w3.org/2000/svg">
<g filter="url(#filter0_d_4796_6181)">
<circle cx="17" cy="16" r="15" fill="white"/>
<circle cx="17" cy="16" r="14.5" stroke="#E4E4E7"/>
</g>
<path d="M14.975 21.6833C14.8166 21.6833 14.6583 21.625 14.5333 21.5L9.47495 16.4417C9.23328 16.2 9.23328 15.8 9.47495 15.5583L14.5333 10.5C14.775 10.2583 15.175 10.2583 15.4166 10.5C15.6583 10.7417 15.6583 11.1417 15.4166 11.3833L10.8 16L15.4166 20.6167C15.6583 20.8583 15.6583 21.2583 15.4166 21.5C15.3 21.625 15.1333 21.6833 14.975 21.6833Z" fill="#18181B"/>
<path d="M24.0832 16.625H10.0582C9.71656 16.625 9.43323 16.3417 9.43323 16C9.43323 15.6583 9.71656 15.375 10.0582 15.375H24.0832C24.4249 15.375 24.7082 15.6583 24.7082 16C24.7082 16.3417 24.4249 16.625 24.0832 16.625Z" fill="#18181B"/>
<defs>
<filter id="filter0_d_4796_6181" x="0" y="0" width="34" height="34" filterUnits="userSpaceOnUse" color-interpolation-filters="sRGB">
<feFlood flood-opacity="0" result="BackgroundImageFix"/>
<feColorMatrix in="SourceAlpha" type="matrix" values="0 0 0 0 0 0 0 0 0 0 0 0 0 0 0 0 0 0 127 0" result="hardAlpha"/>
<feOffset dy="1"/>
<feGaussianBlur stdDeviation="1"/>
<feComposite in2="hardAlpha" operator="out"/>
<feColorMatrix type="matrix" values="0 0 0 0 0 0 0 0 0 0 0 0 0 0 0 0 0 0 0.02 0"/>
<feBlend mode="normal" in2="BackgroundImageFix" result="effect1_dropShadow_4796_6181"/>
<feBlend mode="normal" in="SourceGraphic" in2="effect1_dropShadow_4796_6181" result="shape"/>
</filter>
</defs>
</svg>
