<svg width="21" height="20" viewBox="0 0 21 20" fill="none" xmlns="http://www.w3.org/2000/svg">
<g id="vuesax/outline/receipt-2">
<g id="receipt-2">
<path id="Vector" d="M10.0819 18.9585C9.42358 18.9585 8.79858 18.6168 8.36524 18.0335L7.51523 16.9168C7.34023 16.6835 7.10691 16.5502 6.85691 16.5335C6.61525 16.5168 6.35693 16.6335 6.1486 16.8418C5.43193 17.6085 4.73189 17.9752 4.07356 17.9585C3.62356 17.9418 3.23189 17.7418 2.93189 17.3752C2.89856 17.3335 2.86524 17.2752 2.84024 17.2168C2.51524 16.5168 2.36523 15.5668 2.36523 14.1418V5.87517C2.36523 4.45017 2.51524 3.50851 2.84024 2.80017C2.86524 2.75017 2.89023 2.70017 2.93189 2.6585C3.22356 2.2835 3.61527 2.08351 4.06527 2.05851C4.73193 2.03351 5.44026 2.41684 6.14026 3.16684C6.34859 3.39184 6.59857 3.50017 6.84857 3.48351C7.09857 3.46684 7.33189 3.33351 7.50689 3.10017L8.3569 1.97517C8.79024 1.39184 9.41523 1.05017 10.0736 1.05017C10.7319 1.05017 11.3569 1.39184 11.7902 1.97517L12.6319 3.09184C12.8069 3.3335 13.0486 3.46684 13.3069 3.48351C13.5486 3.50017 13.8069 3.3835 14.0152 3.16684C14.6986 2.4335 15.3736 2.05851 16.0236 2.05851C16.4902 2.05851 16.9236 2.26684 17.2236 2.6585C17.2569 2.70017 17.2902 2.75017 17.3152 2.8085C17.6402 3.5085 17.7902 4.45851 17.7902 5.88351V14.1502C17.7902 15.5752 17.6402 16.5168 17.3152 17.2252C17.2819 17.3002 17.2403 17.3668 17.1819 17.4252C16.9236 17.7585 16.4986 17.9668 16.0236 17.9668C15.3736 17.9668 14.6986 17.5918 14.0152 16.8585C13.8152 16.6418 13.5402 16.5252 13.3069 16.5418C13.0486 16.5585 12.8152 16.6918 12.6319 16.9335L11.7902 18.0502C11.3652 18.6168 10.7402 18.9585 10.0819 18.9585ZM6.81526 15.2752C6.84859 15.2752 6.89026 15.2752 6.92359 15.2752C7.54026 15.3085 8.11523 15.6335 8.5069 16.1585L9.35691 17.2835C9.76525 17.8335 10.3819 17.8335 10.7902 17.2918L11.6319 16.1752C12.0319 15.6418 12.6153 15.3252 13.2319 15.2918C13.8486 15.2585 14.4652 15.5168 14.9152 16.0002C15.5319 16.6585 15.9069 16.7085 16.0069 16.7085C16.0736 16.7085 16.1319 16.6918 16.1903 16.6418C16.4236 16.1168 16.5236 15.3252 16.5236 14.1418V5.87517C16.5236 4.7085 16.4153 3.91684 16.1903 3.39184C16.1236 3.31684 16.0569 3.30851 16.0069 3.30851C15.9069 3.30851 15.5319 3.35851 14.9152 4.01684C14.4652 4.50017 13.8486 4.7585 13.2319 4.72517C12.6069 4.69184 12.0236 4.36684 11.6236 3.84184L10.7819 2.72517C10.3736 2.17517 9.75691 2.17517 9.34857 2.72517L8.49856 3.85851C8.10689 4.38351 7.53192 4.70017 6.91525 4.73351C6.29859 4.76684 5.6819 4.50851 5.2319 4.03351C4.72357 3.48351 4.33193 3.30017 4.11526 3.30851C4.06526 3.30851 4.00691 3.32517 3.94025 3.39184C3.71525 3.91684 3.60689 4.7085 3.60689 5.87517V14.1418C3.60689 15.3168 3.71525 16.1085 3.94025 16.6335C4.01525 16.7002 4.06526 16.7085 4.11526 16.7168C4.3236 16.7252 4.71523 16.5418 5.22356 16.0002C5.66523 15.5252 6.24026 15.2752 6.81526 15.2752Z" fill="#71717A"/>
<path id="Vector_2" d="M13.8307 9.16675H7.16406C6.8224 9.16675 6.53906 8.88341 6.53906 8.54175C6.53906 8.20008 6.8224 7.91675 7.16406 7.91675H13.8307C14.1724 7.91675 14.4557 8.20008 14.4557 8.54175C14.4557 8.88341 14.1724 9.16675 13.8307 9.16675Z" fill="#71717A"/>
<path id="Vector_3" d="M12.1641 12.0835H7.16406C6.8224 12.0835 6.53906 11.8002 6.53906 11.4585C6.53906 11.1168 6.8224 10.8335 7.16406 10.8335H12.1641C12.5057 10.8335 12.7891 11.1168 12.7891 11.4585C12.7891 11.8002 12.5057 12.0835 12.1641 12.0835Z" fill="#71717A"/>
</g>
</g>
</svg>
