<svg width="44" height="44" viewBox="0 0 44 44" fill="none" xmlns="http://www.w3.org/2000/svg">
<g filter="url(#filter0_d_4762_2824)">
<rect x="2" y="1" width="40" height="40" rx="20" fill="#F7F7F7" shape-rendering="crispEdges"/>
<rect x="2.5" y="1.5" width="39" height="39" rx="19.5" stroke="#E4E4E7" shape-rendering="crispEdges"/>
<path d="M21.0819 29.9585C20.4236 29.9585 19.7986 29.6168 19.3652 29.0335L18.5152 27.9168C18.3402 27.6835 18.1069 27.5502 17.8569 27.5335C17.6152 27.5168 17.3569 27.6335 17.1486 27.8418C16.4319 28.6085 15.7319 28.9752 15.0736 28.9585C14.6236 28.9418 14.2319 28.7418 13.9319 28.3752C13.8986 28.3335 13.8652 28.2752 13.8402 28.2168C13.5152 27.5168 13.3652 26.5668 13.3652 25.1418V16.8752C13.3652 15.4502 13.5152 14.5085 13.8402 13.8002C13.8652 13.7502 13.8902 13.7002 13.9319 13.6585C14.2236 13.2835 14.6153 13.0835 15.0653 13.0585C15.7319 13.0335 16.4403 13.4168 17.1403 14.1668C17.3486 14.3918 17.5986 14.5002 17.8486 14.4835C18.0986 14.4668 18.3319 14.3335 18.5069 14.1002L19.3569 12.9752C19.7902 12.3918 20.4152 12.0502 21.0736 12.0502C21.7319 12.0502 22.3569 12.3918 22.7902 12.9752L23.6319 14.0918C23.8069 14.3335 24.0486 14.4668 24.3069 14.4835C24.5486 14.5002 24.8069 14.3835 25.0152 14.1668C25.6986 13.4335 26.3736 13.0585 27.0236 13.0585C27.4902 13.0585 27.9236 13.2668 28.2236 13.6585C28.2569 13.7002 28.2902 13.7502 28.3152 13.8085C28.6402 14.5085 28.7902 15.4585 28.7902 16.8835V25.1502C28.7902 26.5752 28.6402 27.5168 28.3152 28.2252C28.2819 28.3002 28.2403 28.3668 28.1819 28.4252C27.9236 28.7585 27.4986 28.9668 27.0236 28.9668C26.3736 28.9668 25.6986 28.5918 25.0152 27.8585C24.8152 27.6418 24.5402 27.5252 24.3069 27.5418C24.0486 27.5585 23.8152 27.6918 23.6319 27.9335L22.7902 29.0502C22.3652 29.6168 21.7402 29.9585 21.0819 29.9585ZM17.8153 26.2752C17.8486 26.2752 17.8903 26.2752 17.9236 26.2752C18.5403 26.3085 19.1152 26.6335 19.5069 27.1585L20.3569 28.2835C20.7652 28.8335 21.3819 28.8335 21.7902 28.2918L22.6319 27.1752C23.0319 26.6418 23.6153 26.3252 24.2319 26.2918C24.8486 26.2585 25.4652 26.5168 25.9152 27.0002C26.5319 27.6585 26.9069 27.7085 27.0069 27.7085C27.0736 27.7085 27.1319 27.6918 27.1903 27.6418C27.4236 27.1168 27.5236 26.3252 27.5236 25.1418V16.8752C27.5236 15.7085 27.4153 14.9168 27.1903 14.3918C27.1236 14.3168 27.0569 14.3085 27.0069 14.3085C26.9069 14.3085 26.5319 14.3585 25.9152 15.0168C25.4652 15.5002 24.8486 15.7585 24.2319 15.7252C23.6069 15.6918 23.0236 15.3668 22.6236 14.8418L21.7819 13.7252C21.3736 13.1752 20.7569 13.1752 20.3486 13.7252L19.4986 14.8585C19.1069 15.3835 18.5319 15.7002 17.9153 15.7335C17.2986 15.7668 16.6819 15.5085 16.2319 15.0335C15.7236 14.4835 15.3319 14.3002 15.1153 14.3085C15.0653 14.3085 15.0069 14.3252 14.9402 14.3918C14.7152 14.9168 14.6069 15.7085 14.6069 16.8752V25.1418C14.6069 26.3168 14.7152 27.1085 14.9402 27.6335C15.0152 27.7002 15.0653 27.7085 15.1153 27.7168C15.3236 27.7252 15.7152 27.5418 16.2236 27.0002C16.6652 26.5252 17.2403 26.2752 17.8153 26.2752Z" fill="#71717A"/>
<path d="M24.8307 20.1667H18.1641C17.8224 20.1667 17.5391 19.8834 17.5391 19.5417C17.5391 19.2001 17.8224 18.9167 18.1641 18.9167H24.8307C25.1724 18.9167 25.4557 19.2001 25.4557 19.5417C25.4557 19.8834 25.1724 20.1667 24.8307 20.1667Z" fill="#71717A"/>
<path d="M23.1641 23.0835H18.1641C17.8224 23.0835 17.5391 22.8002 17.5391 22.4585C17.5391 22.1168 17.8224 21.8335 18.1641 21.8335H23.1641C23.5057 21.8335 23.7891 22.1168 23.7891 22.4585C23.7891 22.8002 23.5057 23.0835 23.1641 23.0835Z" fill="#71717A"/>
</g>
<defs>
<filter id="filter0_d_4762_2824" x="0" y="0" width="44" height="44" filterUnits="userSpaceOnUse" color-interpolation-filters="sRGB">
<feFlood flood-opacity="0" result="BackgroundImageFix"/>
<feColorMatrix in="SourceAlpha" type="matrix" values="0 0 0 0 0 0 0 0 0 0 0 0 0 0 0 0 0 0 127 0" result="hardAlpha"/>
<feOffset dy="1"/>
<feGaussianBlur stdDeviation="1"/>
<feComposite in2="hardAlpha" operator="out"/>
<feColorMatrix type="matrix" values="0 0 0 0 0 0 0 0 0 0 0 0 0 0 0 0 0 0 0.02 0"/>
<feBlend mode="normal" in2="BackgroundImageFix" result="effect1_dropShadow_4762_2824"/>
<feBlend mode="normal" in="SourceGraphic" in2="effect1_dropShadow_4762_2824" result="shape"/>
</filter>
</defs>
</svg>
