<svg width="48" height="48" viewBox="0 0 48 48" fill="none" xmlns="http://www.w3.org/2000/svg">
<rect width="48" height="48" rx="24" fill="#6764FD"/>
<path d="M24 16C25.48 16 26.6667 14.8 26.6667 13.3333C26.6667 12.8267 26.5333 12.36 26.28 11.96L24 8L21.72 11.96C21.4667 12.36 21.3333 12.8267 21.3333 13.3333C21.3333 14.0406 21.6143 14.7189 22.1144 15.219C22.6145 15.719 23.2928 16 24 16ZM30.1333 29.3333L28.7067 27.8933L27.2667 29.3333C25.5333 31.0533 22.4933 31.0667 20.7467 29.3333L19.3333 27.8933L17.8667 29.3333C17 30.1867 15.84 30.6667 14.6133 30.6667C13.64 30.6667 12.7467 30.36 12 29.8533V36C12 36.3536 12.1405 36.6928 12.3905 36.9428C12.6406 37.1929 12.9797 37.3333 13.3333 37.3333H34.6667C35.0203 37.3333 35.3594 37.1929 35.6095 36.9428C35.8595 36.6928 36 36.3536 36 36V29.8533C35.2533 30.36 34.36 30.6667 33.3867 30.6667C32.16 30.6667 31 30.1867 30.1333 29.3333ZM32 20H25.3333V17.3333H22.6667V20H16C14.9391 20 13.9217 20.4214 13.1716 21.1716C12.4214 21.9217 12 22.9391 12 24V26.0533C12 27.4933 13.1733 28.6667 14.6133 28.6667C15.3333 28.6667 16 28.4 16.4533 27.9067L19.3333 25.0667L22.1467 27.9067C23.1333 28.8933 24.8533 28.8933 25.84 27.9067L28.6667 25.0667L31.5333 27.9067C32 28.4 32.6667 28.6667 33.3733 28.6667C34.8133 28.6667 36 27.4933 36 26.0533V24C36 22.9391 35.5786 21.9217 34.8284 21.1716C34.0783 20.4214 33.0609 20 32 20Z" fill="white"/>
</svg>
