<svg width="44" height="44" viewBox="0 0 44 44" fill="none" xmlns="http://www.w3.org/2000/svg">
<g filter="url(#filter0_d_4464_4866)">
<rect x="2" y="1" width="40" height="40" rx="20" fill="white" shape-rendering="crispEdges"/>
<rect x="2.5" y="1.5" width="39" height="39" rx="19.5" stroke="#E4E4E7" shape-rendering="crispEdges"/>
<path d="M18.667 15.7917C18.3253 15.7917 18.042 15.5084 18.042 15.1667V12.6667C18.042 12.325 18.3253 12.0417 18.667 12.0417C19.0087 12.0417 19.292 12.325 19.292 12.6667V15.1667C19.292 15.5084 19.0087 15.7917 18.667 15.7917Z" fill="#18181B"/>
<path d="M25.333 15.7917C24.9913 15.7917 24.708 15.5084 24.708 15.1667V12.6667C24.708 12.325 24.9913 12.0417 25.333 12.0417C25.6747 12.0417 25.958 12.325 25.958 12.6667V15.1667C25.958 15.5084 25.6747 15.7917 25.333 15.7917Z" fill="#18181B"/>
<path d="M19.0833 23.0833C18.975 23.0833 18.8667 23.0583 18.7667 23.0167C18.6583 22.975 18.575 22.9166 18.4917 22.8416C18.3417 22.6833 18.25 22.475 18.25 22.25C18.25 22.1416 18.275 22.0333 18.3167 21.9333C18.3583 21.8333 18.4167 21.7416 18.4917 21.6583C18.575 21.5833 18.6583 21.525 18.7667 21.4833C19.0667 21.3583 19.4417 21.425 19.675 21.6583C19.825 21.8166 19.9167 22.0333 19.9167 22.25C19.9167 22.3 19.9083 22.3583 19.9 22.4167C19.8917 22.4667 19.875 22.5166 19.85 22.5666C19.8333 22.6166 19.8083 22.6666 19.775 22.7166C19.75 22.7583 19.7083 22.8 19.675 22.8416C19.5167 22.9916 19.3 23.0833 19.0833 23.0833Z" fill="#18181B"/>
<path d="M22.0003 23.0833C21.892 23.0833 21.7837 23.0584 21.6837 23.0167C21.5753 22.975 21.492 22.9167 21.4087 22.8417C21.2587 22.6833 21.167 22.475 21.167 22.25C21.167 22.1417 21.192 22.0333 21.2337 21.9333C21.2753 21.8333 21.3337 21.7417 21.4087 21.6584C21.492 21.5834 21.5753 21.525 21.6837 21.4833C21.9837 21.35 22.3587 21.425 22.592 21.6584C22.742 21.8167 22.8337 22.0333 22.8337 22.25C22.8337 22.3 22.8253 22.3584 22.817 22.4167C22.8087 22.4667 22.792 22.5167 22.767 22.5667C22.7503 22.6167 22.7253 22.6667 22.692 22.7167C22.667 22.7583 22.6253 22.8 22.592 22.8417C22.4337 22.9917 22.217 23.0833 22.0003 23.0833Z" fill="#18181B"/>
<path d="M24.9163 23.0833C24.808 23.0833 24.6997 23.0584 24.5997 23.0167C24.4913 22.975 24.408 22.9167 24.3247 22.8417C24.2913 22.8 24.258 22.7583 24.2247 22.7167C24.1913 22.6667 24.1663 22.6167 24.1497 22.5667C24.1247 22.5167 24.108 22.4667 24.0997 22.4167C24.0913 22.3584 24.083 22.3 24.083 22.25C24.083 22.0333 24.1747 21.8167 24.3247 21.6584C24.408 21.5834 24.4913 21.525 24.5997 21.4833C24.908 21.35 25.2747 21.425 25.508 21.6584C25.658 21.8167 25.7497 22.0333 25.7497 22.25C25.7497 22.3 25.7413 22.3584 25.733 22.4167C25.7247 22.4667 25.708 22.5167 25.683 22.5667C25.6663 22.6167 25.6413 22.6667 25.608 22.7167C25.583 22.7583 25.5413 22.8 25.508 22.8417C25.3497 22.9917 25.133 23.0833 24.9163 23.0833Z" fill="#18181B"/>
<path d="M19.0833 26C18.975 26 18.8667 25.975 18.7667 25.9333C18.6667 25.8917 18.575 25.8333 18.4917 25.7583C18.3417 25.6 18.25 25.3833 18.25 25.1667C18.25 25.0583 18.275 24.95 18.3167 24.85C18.3583 24.7417 18.4167 24.65 18.4917 24.575C18.8 24.2667 19.3667 24.2667 19.675 24.575C19.825 24.7333 19.9167 24.95 19.9167 25.1667C19.9167 25.3833 19.825 25.6 19.675 25.7583C19.5167 25.9083 19.3 26 19.0833 26Z" fill="#18181B"/>
<path d="M22.0003 26C21.7837 26 21.567 25.9083 21.4087 25.7583C21.2587 25.6 21.167 25.3833 21.167 25.1667C21.167 25.0583 21.192 24.95 21.2337 24.85C21.2753 24.7417 21.3337 24.65 21.4087 24.575C21.717 24.2667 22.2837 24.2667 22.592 24.575C22.667 24.65 22.7253 24.7417 22.767 24.85C22.8087 24.95 22.8337 25.0583 22.8337 25.1667C22.8337 25.3833 22.742 25.6 22.592 25.7583C22.4337 25.9083 22.217 26 22.0003 26Z" fill="#18181B"/>
<path d="M24.9163 26C24.6997 26 24.483 25.9084 24.3247 25.7584C24.2497 25.6834 24.1913 25.5917 24.1497 25.4834C24.108 25.3834 24.083 25.275 24.083 25.1667C24.083 25.0584 24.108 24.95 24.1497 24.85C24.1913 24.7417 24.2497 24.6501 24.3247 24.5751C24.5163 24.3834 24.808 24.2917 25.0747 24.35C25.133 24.3584 25.183 24.375 25.233 24.4C25.283 24.4167 25.333 24.4417 25.383 24.4751C25.4247 24.5001 25.4663 24.5417 25.508 24.5751C25.658 24.7334 25.7497 24.95 25.7497 25.1667C25.7497 25.3834 25.658 25.6 25.508 25.7584C25.3497 25.9084 25.133 26 24.9163 26Z" fill="#18181B"/>
<path d="M29.0837 19.2H14.917C14.5753 19.2 14.292 18.9166 14.292 18.575C14.292 18.2333 14.5753 17.95 14.917 17.95H29.0837C29.4253 17.95 29.7087 18.2333 29.7087 18.575C29.7087 18.9166 29.4253 19.2 29.0837 19.2Z" fill="#18181B"/>
<path d="M25.3333 29.9584H18.6667C15.625 29.9584 13.875 28.2084 13.875 25.1667V18.0834C13.875 15.0417 15.625 13.2917 18.6667 13.2917H25.3333C28.375 13.2917 30.125 15.0417 30.125 18.0834V25.1667C30.125 28.2084 28.375 29.9584 25.3333 29.9584ZM18.6667 14.5417C16.2833 14.5417 15.125 15.7 15.125 18.0834V25.1667C15.125 27.55 16.2833 28.7084 18.6667 28.7084H25.3333C27.7167 28.7084 28.875 27.55 28.875 25.1667V18.0834C28.875 15.7 27.7167 14.5417 25.3333 14.5417H18.6667Z" fill="#18181B"/>
</g>
<defs>
<filter id="filter0_d_4464_4866" x="0" y="0" width="44" height="44" filterUnits="userSpaceOnUse" color-interpolation-filters="sRGB">
<feFlood flood-opacity="0" result="BackgroundImageFix"/>
<feColorMatrix in="SourceAlpha" type="matrix" values="0 0 0 0 0 0 0 0 0 0 0 0 0 0 0 0 0 0 127 0" result="hardAlpha"/>
<feOffset dy="1"/>
<feGaussianBlur stdDeviation="1"/>
<feComposite in2="hardAlpha" operator="out"/>
<feColorMatrix type="matrix" values="0 0 0 0 0 0 0 0 0 0 0 0 0 0 0 0 0 0 0.02 0"/>
<feBlend mode="normal" in2="BackgroundImageFix" result="effect1_dropShadow_4464_4866"/>
<feBlend mode="normal" in="SourceGraphic" in2="effect1_dropShadow_4464_4866" result="shape"/>
</filter>
</defs>
</svg>
