<svg width="21" height="20" viewBox="0 0 21 20" fill="none" xmlns="http://www.w3.org/2000/svg">
<path d="M7.77884 5.34884C7.47373 5.34884 7.2207 5.09581 7.2207 4.7907V2.55814C7.2207 2.25302 7.47373 2 7.77884 2C8.08396 2 8.33698 2.25302 8.33698 2.55814V4.7907C8.33698 5.09581 8.08396 5.34884 7.77884 5.34884Z" fill="#18181B"/>
<path d="M13.7329 5.34884C13.4278 5.34884 13.1748 5.09581 13.1748 4.7907V2.55814C13.1748 2.25302 13.4278 2 13.7329 2C14.0381 2 14.2911 2.25302 14.2911 2.55814V4.7907C14.2911 5.09581 14.0381 5.34884 13.7329 5.34884Z" fill="#18181B"/>
<path d="M13.7326 18H7.77907C5.06279 18 3.5 16.4372 3.5 13.7209V7.39534C3.5 4.67906 5.06279 3.11627 7.77907 3.11627H13.7326C16.4488 3.11627 18.0116 4.67906 18.0116 7.39534V13.7209C18.0116 16.4372 16.4488 18 13.7326 18ZM7.77907 4.23255C5.6507 4.23255 4.61628 5.26697 4.61628 7.39534V13.7209C4.61628 15.8493 5.6507 16.8837 7.77907 16.8837H13.7326C15.8609 16.8837 16.8953 15.8493 16.8953 13.7209V7.39534C16.8953 5.26697 15.8609 4.23255 13.7326 4.23255H7.77907Z" fill="#18181B"/>
<path d="M13.7323 9.81397H7.77884C7.47373 9.81397 7.2207 9.56095 7.2207 9.25583C7.2207 8.95072 7.47373 8.69769 7.77884 8.69769H13.7323C14.0374 8.69769 14.2905 8.95072 14.2905 9.25583C14.2905 9.56095 14.0374 9.81397 13.7323 9.81397Z" fill="#18181B"/>
<path d="M10.7556 13.5349H7.77884C7.47373 13.5349 7.2207 13.2818 7.2207 12.9767C7.2207 12.6716 7.47373 12.4186 7.77884 12.4186H10.7556C11.0607 12.4186 11.3137 12.6716 11.3137 12.9767C11.3137 13.2818 11.0607 13.5349 10.7556 13.5349Z" fill="#18181B"/>
</svg>
