<svg width="44" height="44" viewBox="0 0 44 44" fill="none" xmlns="http://www.w3.org/2000/svg">
<g filter="url(#filter0_d_4762_2865)">
<rect x="2" y="1" width="40" height="40" rx="20" fill="#F7F7F7" shape-rendering="crispEdges"/>
<rect x="2.5" y="1.5" width="39" height="39" rx="19.5" stroke="#E4E4E7" shape-rendering="crispEdges"/>
<path d="M19.2788 16.3488C18.9737 16.3488 18.7207 16.0958 18.7207 15.7907V13.5581C18.7207 13.253 18.9737 13 19.2788 13C19.584 13 19.837 13.253 19.837 13.5581V15.7907C19.837 16.0958 19.584 16.3488 19.2788 16.3488Z" fill="#71717A"/>
<path d="M25.2339 16.3488C24.9288 16.3488 24.6758 16.0958 24.6758 15.7907V13.5581C24.6758 13.253 24.9288 13 25.2339 13C25.539 13 25.7921 13.253 25.7921 13.5581V15.7907C25.7921 16.0958 25.539 16.3488 25.2339 16.3488Z" fill="#71717A"/>
<path d="M25.2326 29H19.2791C16.5628 29 15 27.4372 15 24.7209V18.3953C15 15.6791 16.5628 14.1163 19.2791 14.1163H25.2326C27.9488 14.1163 29.5116 15.6791 29.5116 18.3953V24.7209C29.5116 27.4372 27.9488 29 25.2326 29ZM19.2791 15.2326C17.1507 15.2326 16.1163 16.267 16.1163 18.3953V24.7209C16.1163 26.8493 17.1507 27.8837 19.2791 27.8837H25.2326C27.3609 27.8837 28.3953 26.8493 28.3953 24.7209V18.3953C28.3953 16.267 27.3609 15.2326 25.2326 15.2326H19.2791Z" fill="#71717A"/>
<path d="M25.2323 20.814H19.2788C18.9737 20.814 18.7207 20.5609 18.7207 20.2558C18.7207 19.9507 18.9737 19.6977 19.2788 19.6977H25.2323C25.5374 19.6977 25.7905 19.9507 25.7905 20.2558C25.7905 20.5609 25.5374 20.814 25.2323 20.814Z" fill="#71717A"/>
<path d="M22.2556 24.5349H19.2788C18.9737 24.5349 18.7207 24.2818 18.7207 23.9767C18.7207 23.6716 18.9737 23.4186 19.2788 23.4186H22.2556C22.5607 23.4186 22.8137 23.6716 22.8137 23.9767C22.8137 24.2818 22.5607 24.5349 22.2556 24.5349Z" fill="#71717A"/>
</g>
<defs>
<filter id="filter0_d_4762_2865" x="0" y="0" width="44" height="44" filterUnits="userSpaceOnUse" color-interpolation-filters="sRGB">
<feFlood flood-opacity="0" result="BackgroundImageFix"/>
<feColorMatrix in="SourceAlpha" type="matrix" values="0 0 0 0 0 0 0 0 0 0 0 0 0 0 0 0 0 0 127 0" result="hardAlpha"/>
<feOffset dy="1"/>
<feGaussianBlur stdDeviation="1"/>
<feComposite in2="hardAlpha" operator="out"/>
<feColorMatrix type="matrix" values="0 0 0 0 0 0 0 0 0 0 0 0 0 0 0 0 0 0 0.02 0"/>
<feBlend mode="normal" in2="BackgroundImageFix" result="effect1_dropShadow_4762_2865"/>
<feBlend mode="normal" in="SourceGraphic" in2="effect1_dropShadow_4762_2865" result="shape"/>
</filter>
</defs>
</svg>
