<svg width="44" height="44" viewBox="0 0 44 44" fill="none" xmlns="http://www.w3.org/2000/svg">
<g filter="url(#filter0_d_4796_9058)">
<rect x="2" y="1" width="40" height="40" rx="6" fill="#F7F7F7" shape-rendering="crispEdges"/>
<rect x="2.5" y="1.5" width="39" height="39" rx="5.5" stroke="#E4E4E7" shape-rendering="crispEdges"/>
<path d="M22.0003 29.9584C17.0587 29.9584 13.042 25.9417 13.042 21C13.042 16.0584 17.0587 12.0417 22.0003 12.0417C26.942 12.0417 30.9587 16.0584 30.9587 21C30.9587 25.9417 26.942 29.9584 22.0003 29.9584ZM22.0003 13.2917C17.7503 13.2917 14.292 16.75 14.292 21C14.292 25.25 17.7503 28.7084 22.0003 28.7084C26.2503 28.7084 29.7087 25.25 29.7087 21C29.7087 16.75 26.2503 13.2917 22.0003 13.2917Z" fill="#71717A"/>
<path d="M25.0919 24.275C24.9835 24.275 24.8752 24.25 24.7752 24.1834L22.1919 22.6417C21.5502 22.2584 21.0752 21.4167 21.0752 20.675V17.2584C21.0752 16.9167 21.3585 16.6334 21.7002 16.6334C22.0419 16.6334 22.3252 16.9167 22.3252 17.2584V20.675C22.3252 20.975 22.5752 21.4167 22.8335 21.5667L25.4169 23.1084C25.7169 23.2834 25.8085 23.6667 25.6335 23.9667C25.5085 24.1667 25.3002 24.275 25.0919 24.275Z" fill="#71717A"/>
</g>
<defs>
<filter id="filter0_d_4796_9058" x="0" y="0" width="44" height="44" filterUnits="userSpaceOnUse" color-interpolation-filters="sRGB">
<feFlood flood-opacity="0" result="BackgroundImageFix"/>
<feColorMatrix in="SourceAlpha" type="matrix" values="0 0 0 0 0 0 0 0 0 0 0 0 0 0 0 0 0 0 127 0" result="hardAlpha"/>
<feOffset dy="1"/>
<feGaussianBlur stdDeviation="1"/>
<feComposite in2="hardAlpha" operator="out"/>
<feColorMatrix type="matrix" values="0 0 0 0 0 0 0 0 0 0 0 0 0 0 0 0 0 0 0.02 0"/>
<feBlend mode="normal" in2="BackgroundImageFix" result="effect1_dropShadow_4796_9058"/>
<feBlend mode="normal" in="SourceGraphic" in2="effect1_dropShadow_4796_9058" result="shape"/>
</filter>
</defs>
</svg>
