<svg width="17" height="10" viewBox="0 0 17 10" fill="none" xmlns="http://www.w3.org/2000/svg">
<path d="M11.8489 9.30229H10.7251C10.42 9.30229 10.167 9.04926 10.167 8.74415C10.167 8.43903 10.42 8.18601 10.7251 8.18601H11.8489C13.7986 8.18601 15.3838 6.60089 15.3838 4.65111C15.3838 2.70134 13.7986 1.11622 11.8489 1.11622H10.7326C10.4275 1.11622 10.1744 0.863197 10.1744 0.55808C10.1744 0.252963 10.42 -6.10352e-05 10.7326 -6.10352e-05H11.8489C14.4163 -6.10352e-05 16.5 2.08367 16.5 4.65111C16.5 7.21856 14.4163 9.30229 11.8489 9.30229Z" fill="#18181B"/>
<path d="M6.26746 9.30235H5.15118C2.58373 9.30235 0.5 7.21862 0.5 4.65118C0.5 2.08373 2.58373 0 5.15118 0H6.26746C6.57257 0 6.8256 0.253024 6.8256 0.558141C6.8256 0.863258 6.57257 1.11628 6.26746 1.11628H5.15118C3.2014 1.11628 1.61628 2.7014 1.61628 4.65118C1.61628 6.60095 3.2014 8.18607 5.15118 8.18607H6.26746C6.57257 8.18607 6.8256 8.43909 6.8256 8.74421C6.8256 9.04933 6.57257 9.30235 6.26746 9.30235Z" fill="#18181B"/>
<path d="M11.4765 5.20906H5.52298C5.21787 5.20906 4.96484 4.95603 4.96484 4.65091C4.96484 4.3458 5.21787 4.09277 5.52298 4.09277H11.4765C11.7816 4.09277 12.0346 4.3458 12.0346 4.65091C12.0346 4.95603 11.7816 5.20906 11.4765 5.20906Z" fill="#18181B"/>
</svg>
