<svg width="21" height="20" viewBox="0 0 21 20" fill="none" xmlns="http://www.w3.org/2000/svg">
<path d="M13.8486 14.3022H12.7249C12.4198 14.3022 12.1667 14.0492 12.1667 13.7441C12.1667 13.439 12.4198 13.1859 12.7249 13.1859H13.8486C15.7984 13.1859 17.3835 11.6008 17.3835 9.65105C17.3835 7.70128 15.7984 6.11616 13.8486 6.11616H12.7323C12.4272 6.11616 12.1742 5.86314 12.1742 5.55802C12.1742 5.2529 12.4198 4.99988 12.7323 4.99988H13.8486C16.4161 4.99988 18.4998 7.0836 18.4998 9.65105C18.4998 12.2185 16.4161 14.3022 13.8486 14.3022Z" fill="white"/>
<path d="M8.26746 14.3024H7.15118C4.58373 14.3024 2.5 12.2186 2.5 9.65118C2.5 7.08373 4.58373 5 7.15118 5H8.26746C8.57257 5 8.8256 5.25302 8.8256 5.55814C8.8256 5.86326 8.57257 6.11628 8.26746 6.11628H7.15118C5.2014 6.11628 3.61628 7.7014 3.61628 9.65118C3.61628 11.6009 5.2014 13.1861 7.15118 13.1861H8.26746C8.57257 13.1861 8.8256 13.4391 8.8256 13.7442C8.8256 14.0493 8.57257 14.3024 8.26746 14.3024Z" fill="white"/>
<path d="M13.4766 10.2091H7.52311C7.21799 10.2091 6.96497 9.95603 6.96497 9.65091C6.96497 9.3458 7.21799 9.09277 7.52311 9.09277H13.4766C13.7817 9.09277 14.0348 9.3458 14.0348 9.65091C14.0348 9.95603 13.7817 10.2091 13.4766 10.2091Z" fill="white"/>
</svg>
