<svg width="21" height="20" viewBox="0 0 21 20" fill="none" xmlns="http://www.w3.org/2000/svg">
<path d="M17.0812 6.07825C17.0663 6.07825 17.044 6.07825 17.0216 6.07825C13.0849 5.68383 9.15558 5.53499 5.26348 5.92941L3.74534 6.07825C3.43278 6.10801 3.15743 5.88476 3.12766 5.5722C3.09789 5.25964 3.32115 4.99173 3.62627 4.96197L5.14441 4.81313C9.10348 4.41127 13.1146 4.56755 17.1333 4.96197C17.4384 4.99173 17.6616 5.26708 17.6319 5.5722C17.6095 5.86243 17.364 6.07825 17.0812 6.07825Z" fill="#71717A"/>
<path d="M7.7794 5.32664C7.74963 5.32664 7.71986 5.32664 7.68265 5.3192C7.38498 5.2671 7.1766 4.97687 7.2287 4.67919L7.39242 3.70431C7.51149 2.98989 7.67521 2.00012 9.40916 2.00012H11.3589C13.1003 2.00012 13.2641 3.0271 13.3757 3.71175L13.5394 4.67919C13.5915 4.98431 13.3831 5.27454 13.0854 5.3192C12.7803 5.37129 12.4901 5.16292 12.4454 4.86524L12.2817 3.8978C12.1775 3.25036 12.1552 3.12384 11.3664 3.12384H9.41661C8.62777 3.12384 8.61288 3.22803 8.50126 3.89036L8.33009 4.8578C8.28544 5.13315 8.0473 5.32664 7.7794 5.32664Z" fill="#71717A"/>
<path d="M12.7727 18.0001H7.99499C5.39778 18.0001 5.2936 16.5638 5.21173 15.4029L4.72801 7.9089C4.70569 7.60378 4.94383 7.33587 5.24894 7.31355C5.5615 7.29866 5.82197 7.52936 5.84429 7.83448L6.32801 15.3284C6.40988 16.4596 6.43964 16.8838 7.99499 16.8838H12.7727C14.3355 16.8838 14.3652 16.4596 14.4397 15.3284L14.9234 7.83448C14.9457 7.52936 15.2136 7.29866 15.5187 7.31355C15.8238 7.33587 16.062 7.59634 16.0397 7.9089L15.5559 15.4029C15.4741 16.5638 15.3699 18.0001 12.7727 18.0001Z" fill="#71717A"/>
<path d="M11.6193 13.9069H9.14115C8.83603 13.9069 8.58301 13.6539 8.58301 13.3488C8.58301 13.0437 8.83603 12.7906 9.14115 12.7906H11.6193C11.9244 12.7906 12.1774 13.0437 12.1774 13.3488C12.1774 13.6539 11.9244 13.9069 11.6193 13.9069Z" fill="#71717A"/>
<path d="M12.2439 10.9304H8.52298C8.21787 10.9304 7.96484 10.6773 7.96484 10.3722C7.96484 10.0671 8.21787 9.81409 8.52298 9.81409H12.2439C12.549 9.81409 12.8021 10.0671 12.8021 10.3722C12.8021 10.6773 12.549 10.9304 12.2439 10.9304Z" fill="#71717A"/>
</svg>
