<svg width="44" height="44" viewBox="0 0 44 44" fill="none" xmlns="http://www.w3.org/2000/svg">
<g filter="url(#filter0_d_4796_6063)">
<rect x="2" y="1" width="40" height="40" rx="20" fill="#FBE9E9" shape-rendering="crispEdges"/>
<rect x="2.5" y="1.5" width="39" height="39" rx="19.5" stroke="#F7D4D4" shape-rendering="crispEdges"/>
<path d="M28.9564 17.0782C28.9415 17.0782 28.9192 17.0782 28.8969 17.0782C24.9601 16.6838 21.0308 16.5349 17.1387 16.9293L15.6206 17.0782C15.308 17.108 15.0327 16.8847 15.0029 16.5721C14.9731 16.2596 15.1964 15.9917 15.5015 15.9619L17.0197 15.8131C20.9787 15.4112 24.9899 15.5675 29.0085 15.9619C29.3136 15.9917 29.5369 16.267 29.5071 16.5721C29.4848 16.8624 29.2392 17.0782 28.9564 17.0782Z" fill="#DC2626"/>
<path d="M19.6539 16.3266C19.6241 16.3266 19.5944 16.3266 19.5572 16.3191C19.2595 16.267 19.0511 15.9768 19.1032 15.6791L19.2669 14.7042C19.386 13.9898 19.5497 13.0001 21.2837 13.0001H23.2334C24.9748 13.0001 25.1386 14.027 25.2502 14.7117L25.4139 15.6791C25.466 15.9842 25.2576 16.2745 24.96 16.3191C24.6548 16.3712 24.3646 16.1629 24.32 15.8652L24.1562 14.8977C24.0521 14.2503 24.0297 14.1238 23.2409 14.1238H21.2911C20.5023 14.1238 20.4874 14.228 20.3758 14.8903L20.2046 15.8577C20.16 16.1331 19.9218 16.3266 19.6539 16.3266Z" fill="#DC2626"/>
<path d="M24.6474 29.0001H19.8697C17.2725 29.0001 17.1684 27.5638 17.0865 26.4029L16.6028 18.9089C16.5804 18.6038 16.8186 18.3359 17.1237 18.3135C17.4363 18.2987 17.6967 18.5294 17.719 18.8345L18.2028 26.3284C18.2846 27.4596 18.3144 27.8838 19.8697 27.8838H24.6474C26.2102 27.8838 26.24 27.4596 26.3144 26.3284L26.7981 18.8345C26.8205 18.5294 27.0884 18.2987 27.3935 18.3135C27.6986 18.3359 27.9367 18.5963 27.9144 18.9089L27.4307 26.4029C27.3488 27.5638 27.2446 29.0001 24.6474 29.0001Z" fill="#DC2626"/>
<path d="M23.494 24.907H21.0159C20.7108 24.907 20.4578 24.654 20.4578 24.3489C20.4578 24.0437 20.7108 23.7907 21.0159 23.7907H23.494C23.7992 23.7907 24.0522 24.0437 24.0522 24.3489C24.0522 24.654 23.7992 24.907 23.494 24.907Z" fill="#DC2626"/>
<path d="M24.1192 21.9303H20.3982C20.0931 21.9303 19.8401 21.6773 19.8401 21.3722C19.8401 21.067 20.0931 20.814 20.3982 20.814H24.1192C24.4243 20.814 24.6773 21.067 24.6773 21.3722C24.6773 21.6773 24.4243 21.9303 24.1192 21.9303Z" fill="#DC2626"/>
</g>
<defs>
<filter id="filter0_d_4796_6063" x="0" y="0" width="44" height="44" filterUnits="userSpaceOnUse" color-interpolation-filters="sRGB">
<feFlood flood-opacity="0" result="BackgroundImageFix"/>
<feColorMatrix in="SourceAlpha" type="matrix" values="0 0 0 0 0 0 0 0 0 0 0 0 0 0 0 0 0 0 127 0" result="hardAlpha"/>
<feOffset dy="1"/>
<feGaussianBlur stdDeviation="1"/>
<feComposite in2="hardAlpha" operator="out"/>
<feColorMatrix type="matrix" values="0 0 0 0 0 0 0 0 0 0 0 0 0 0 0 0 0 0 0.02 0"/>
<feBlend mode="normal" in2="BackgroundImageFix" result="effect1_dropShadow_4796_6063"/>
<feBlend mode="normal" in="SourceGraphic" in2="effect1_dropShadow_4796_6063" result="shape"/>
</filter>
</defs>
</svg>
