<svg width="21" height="20" viewBox="0 0 21 20" fill="none" xmlns="http://www.w3.org/2000/svg">
<path d="M17.4562 6.07825C17.4413 6.07825 17.419 6.07825 17.3966 6.07825C13.4599 5.68383 9.53058 5.53499 5.63848 5.92941L4.12034 6.07825C3.80778 6.10801 3.53243 5.88476 3.50266 5.5722C3.47289 5.25964 3.69615 4.99173 4.00127 4.96197L5.51941 4.81313C9.47848 4.41127 13.4896 4.56755 17.5083 4.96197C17.8134 4.99173 18.0366 5.26708 18.0069 5.5722C17.9845 5.86243 17.739 6.07825 17.4562 6.07825Z" fill="#DC2626"/>
<path d="M8.15391 5.32664C8.12414 5.32664 8.09437 5.32664 8.05716 5.3192C7.75949 5.2671 7.55112 4.97687 7.60321 4.67919L7.76693 3.70431C7.886 2.98989 8.04972 2.00012 9.78368 2.00012H11.7334C13.4748 2.00012 13.6386 3.0271 13.7502 3.71175L13.9139 4.67919C13.966 4.98431 13.7576 5.27454 13.46 5.3192C13.1548 5.37129 12.8646 5.16292 12.82 4.86524L12.6562 3.8978C12.5521 3.25036 12.5297 3.12384 11.7409 3.12384H9.79112C9.00228 3.12384 8.9874 3.22803 8.87577 3.89036L8.70461 4.8578C8.65995 5.13315 8.42181 5.32664 8.15391 5.32664Z" fill="#DC2626"/>
<path d="M13.1472 18.0001H8.3695C5.77229 18.0001 5.66811 16.5638 5.58625 15.4029L5.10253 7.9089C5.0802 7.60378 5.31834 7.33587 5.62346 7.31355C5.93601 7.29866 6.19648 7.52936 6.21881 7.83448L6.70253 15.3284C6.78439 16.4596 6.81415 16.8838 8.3695 16.8838H13.1472C14.71 16.8838 14.7397 16.4596 14.8142 15.3284L15.2979 7.83448C15.3202 7.52936 15.5881 7.29866 15.8932 7.31355C16.1983 7.33587 16.4365 7.59634 16.4142 7.9089L15.9304 15.4029C15.8486 16.5638 15.7444 18.0001 13.1472 18.0001Z" fill="#DC2626"/>
<path d="M11.9938 13.9069H9.51566C9.21054 13.9069 8.95752 13.6539 8.95752 13.3488C8.95752 13.0437 9.21054 12.7906 9.51566 12.7906H11.9938C12.2989 12.7906 12.5519 13.0437 12.5519 13.3488C12.5519 13.6539 12.2989 13.9069 11.9938 13.9069Z" fill="#DC2626"/>
<path d="M12.6189 10.9304H8.89798C8.59287 10.9304 8.33984 10.6773 8.33984 10.3722C8.33984 10.0671 8.59287 9.81409 8.89798 9.81409H12.6189C12.924 9.81409 13.1771 10.0671 13.1771 10.3722C13.1771 10.6773 12.924 10.9304 12.6189 10.9304Z" fill="#DC2626"/>
</svg>
