<svg width="21" height="21" viewBox="0 0 21 21" fill="none" xmlns="http://www.w3.org/2000/svg">
<path d="M13.125 11.502H7.58331C7.25873 11.502 6.98956 11.2328 6.98956 10.9082C6.98956 10.5836 7.25873 10.3145 7.58331 10.3145H13.125C13.4496 10.3145 13.7187 10.5836 13.7187 10.9082C13.7187 11.2328 13.4496 11.502 13.125 11.502Z" fill="#18181B"/>
<path d="M11.0508 14.6687H7.58331C7.25873 14.6687 6.98956 14.3995 6.98956 14.075C6.98956 13.7504 7.25873 13.4812 7.58331 13.4812H11.0508C11.3754 13.4812 11.6446 13.7504 11.6446 14.075C11.6446 14.3995 11.3754 14.6687 11.0508 14.6687Z" fill="#18181B"/>
<path d="M12.3333 6.59367H9.16665C8.40665 6.59367 6.98956 6.59367 6.98956 4.41659C6.98956 2.2395 8.40665 2.2395 9.16665 2.2395H12.3333C13.0933 2.2395 14.5104 2.2395 14.5104 4.41659C14.5104 5.17659 14.5104 6.59367 12.3333 6.59367ZM9.16665 3.427C8.3829 3.427 8.17706 3.427 8.17706 4.41659C8.17706 5.40617 8.3829 5.40617 9.16665 5.40617H12.3333C13.3229 5.40617 13.3229 5.20034 13.3229 4.41659C13.3229 3.427 13.1171 3.427 12.3333 3.427H9.16665Z" fill="#18181B"/>
<path d="M13.125 19.2605H8.375C3.92583 19.2605 3.03125 17.218 3.03125 13.9168V9.16676C3.03125 5.55676 4.3375 4.01301 7.55167 3.84676C7.86833 3.83092 8.16125 4.07634 8.17708 4.40884C8.19292 4.74134 7.93958 5.01051 7.615 5.02634C5.36667 5.15301 4.21875 5.82592 4.21875 9.16676V13.9168C4.21875 16.8459 4.79667 18.073 8.375 18.073H13.125C16.7033 18.073 17.2812 16.8459 17.2812 13.9168V9.16676C17.2812 5.82592 16.1333 5.15301 13.885 5.02634C13.5604 5.01051 13.3071 4.72551 13.3229 4.40092C13.3387 4.07634 13.6238 3.82301 13.9483 3.83884C17.1625 4.01301 18.4688 5.55675 18.4688 9.15884V13.9088C18.4688 17.218 17.5742 19.2605 13.125 19.2605Z" fill="#18181B"/>
</svg>
