<svg width="17" height="16" viewBox="0 0 17 16" fill="none" xmlns="http://www.w3.org/2000/svg">
<path d="M5.16797 10H6.5013C6.5013 10.72 7.41464 11.3333 8.5013 11.3333C9.58797 11.3333 10.5013 10.72 10.5013 10C10.5013 9.26667 9.80797 9 8.3413 8.64667C6.92797 8.29333 5.16797 7.85333 5.16797 6C5.16797 4.80667 6.14797 3.79333 7.5013 3.45333V2H9.5013V3.45333C10.8546 3.79333 11.8346 4.80667 11.8346 6H10.5013C10.5013 5.28 9.58797 4.66667 8.5013 4.66667C7.41464 4.66667 6.5013 5.28 6.5013 6C6.5013 6.73333 7.19464 7 8.6613 7.35333C10.0746 7.70667 11.8346 8.14667 11.8346 10C11.8346 11.1933 10.8546 12.2067 9.5013 12.5467V14H7.5013V12.5467C6.14797 12.2067 5.16797 11.1933 5.16797 10Z" fill="#18181B"/>
</svg>
