<svg width="20" height="20" viewBox="0 0 20 20" fill="none" xmlns="http://www.w3.org/2000/svg">
<g id="vuesax/outline/dollar-circle">
<g id="vuesax/outline/dollar-circle_2">
<g id="dollar-circle">
<path id="Vector" d="M11.1668 14.5167H9.07513C7.70846 14.5167 6.60013 13.3667 6.60013 11.95C6.60013 11.6083 6.88346 11.325 7.22513 11.325C7.5668 11.325 7.85013 11.6083 7.85013 11.95C7.85013 12.675 8.40013 13.2667 9.07513 13.2667H11.1668C11.7085 13.2667 12.1585 12.7833 12.1585 12.2C12.1585 11.475 11.9001 11.3333 11.4751 11.1833L8.1168 10C7.4668 9.775 6.5918 9.29167 6.5918 7.8C6.5918 6.51667 7.60013 5.48334 8.83346 5.48334H10.9251C12.2918 5.48334 13.4001 6.63334 13.4001 8.05C13.4001 8.39167 13.1168 8.675 12.7751 8.675C12.4335 8.675 12.1501 8.39167 12.1501 8.05C12.1501 7.325 11.6001 6.73334 10.9251 6.73334H8.83346C8.2918 6.73334 7.8418 7.21667 7.8418 7.8C7.8418 8.525 8.10013 8.66667 8.52513 8.81667L11.8835 10C12.5335 10.225 13.4085 10.7083 13.4085 12.2C13.4001 13.475 12.4001 14.5167 11.1668 14.5167Z" fill="#71717A"/>
<path id="Vector_2" d="M10 15.625C9.65833 15.625 9.375 15.3417 9.375 15V5C9.375 4.65833 9.65833 4.375 10 4.375C10.3417 4.375 10.625 4.65833 10.625 5V15C10.625 15.3417 10.3417 15.625 10 15.625Z" fill="#71717A"/>
<path id="Vector_3" d="M9.99935 18.9584C5.05768 18.9584 1.04102 14.9417 1.04102 10C1.04102 5.05835 5.05768 1.04169 9.99935 1.04169C14.941 1.04169 18.9577 5.05835 18.9577 10C18.9577 14.9417 14.941 18.9584 9.99935 18.9584ZM9.99935 2.29169C5.74935 2.29169 2.29102 5.75002 2.29102 10C2.29102 14.25 5.74935 17.7084 9.99935 17.7084C14.2493 17.7084 17.7077 14.25 17.7077 10C17.7077 5.75002 14.2493 2.29169 9.99935 2.29169Z" fill="#71717A"/>
</g>
</g>
</g>
</svg>
