<svg width="44" height="44" viewBox="0 0 44 44" fill="none" xmlns="http://www.w3.org/2000/svg">
<g filter="url(#filter0_d_4762_4568)">
<rect x="2" y="1" width="40" height="40" rx="20" fill="#F7F7F7" shape-rendering="crispEdges"/>
<rect x="2.5" y="1.5" width="39" height="39" rx="19.5" stroke="#E4E4E7" shape-rendering="crispEdges"/>
<path d="M23.1668 25.5167H21.0751C19.7085 25.5167 18.6001 24.3667 18.6001 22.95C18.6001 22.6083 18.8835 22.325 19.2251 22.325C19.5668 22.325 19.8501 22.6083 19.8501 22.95C19.8501 23.675 20.4001 24.2667 21.0751 24.2667H23.1668C23.7085 24.2667 24.1585 23.7833 24.1585 23.2C24.1585 22.475 23.9001 22.3333 23.4751 22.1833L20.1168 21C19.4668 20.775 18.5918 20.2917 18.5918 18.8C18.5918 17.5167 19.6001 16.4833 20.8335 16.4833H22.9251C24.2918 16.4833 25.4001 17.6333 25.4001 19.05C25.4001 19.3917 25.1168 19.675 24.7751 19.675C24.4335 19.675 24.1501 19.3917 24.1501 19.05C24.1501 18.325 23.6001 17.7333 22.9251 17.7333H20.8335C20.2918 17.7333 19.8418 18.2167 19.8418 18.8C19.8418 19.525 20.1001 19.6667 20.5251 19.8167L23.8835 21C24.5335 21.225 25.4085 21.7083 25.4085 23.2C25.4001 24.475 24.4001 25.5167 23.1668 25.5167Z" fill="#71717A"/>
<path d="M22 26.625C21.6583 26.625 21.375 26.3417 21.375 26V16C21.375 15.6583 21.6583 15.375 22 15.375C22.3417 15.375 22.625 15.6583 22.625 16V26C22.625 26.3417 22.3417 26.625 22 26.625Z" fill="#71717A"/>
<path d="M21.9993 29.9584C17.0577 29.9584 13.041 25.9417 13.041 21C13.041 16.0584 17.0577 12.0417 21.9993 12.0417C26.941 12.0417 30.9577 16.0584 30.9577 21C30.9577 25.9417 26.941 29.9584 21.9993 29.9584ZM21.9993 13.2917C17.7493 13.2917 14.291 16.75 14.291 21C14.291 25.25 17.7493 28.7084 21.9993 28.7084C26.2493 28.7084 29.7077 25.25 29.7077 21C29.7077 16.75 26.2493 13.2917 21.9993 13.2917Z" fill="#71717A"/>
</g>
<defs>
<filter id="filter0_d_4762_4568" x="0" y="0" width="44" height="44" filterUnits="userSpaceOnUse" color-interpolation-filters="sRGB">
<feFlood flood-opacity="0" result="BackgroundImageFix"/>
<feColorMatrix in="SourceAlpha" type="matrix" values="0 0 0 0 0 0 0 0 0 0 0 0 0 0 0 0 0 0 127 0" result="hardAlpha"/>
<feOffset dy="1"/>
<feGaussianBlur stdDeviation="1"/>
<feComposite in2="hardAlpha" operator="out"/>
<feColorMatrix type="matrix" values="0 0 0 0 0 0 0 0 0 0 0 0 0 0 0 0 0 0 0.02 0"/>
<feBlend mode="normal" in2="BackgroundImageFix" result="effect1_dropShadow_4762_4568"/>
<feBlend mode="normal" in="SourceGraphic" in2="effect1_dropShadow_4762_4568" result="shape"/>
</filter>
</defs>
</svg>
