<svg width="20" height="20" viewBox="0 0 20 20" fill="none" xmlns="http://www.w3.org/2000/svg">
<g id="Icon/ 20/ Horizontal Dot">
<path id="Vector" d="M13.333 10C13.333 9.55801 13.5086 9.13409 13.8212 8.82153C14.1337 8.50897 14.5576 8.33337 14.9997 8.33337C15.4417 8.33337 15.8656 8.50897 16.1782 8.82153C16.4907 9.13409 16.6663 9.55801 16.6663 10C16.6663 10.4421 16.4907 10.866 16.1782 11.1786C15.8656 11.4911 15.4417 11.6667 14.9997 11.6667C14.5576 11.6667 14.1337 11.4911 13.8212 11.1786C13.5086 10.866 13.333 10.4421 13.333 10ZM8.33301 10C8.33301 9.55801 8.5086 9.13409 8.82116 8.82153C9.13372 8.50897 9.55765 8.33337 9.99967 8.33337C10.4417 8.33337 10.8656 8.50897 11.1782 8.82153C11.4907 9.13409 11.6663 9.55801 11.6663 10C11.6663 10.4421 11.4907 10.866 11.1782 11.1786C10.8656 11.4911 10.4417 11.6667 9.99967 11.6667C9.55765 11.6667 9.13372 11.4911 8.82116 11.1786C8.5086 10.866 8.33301 10.4421 8.33301 10ZM3.33301 10C3.33301 9.55801 3.5086 9.13409 3.82116 8.82153C4.13372 8.50897 4.55765 8.33337 4.99967 8.33337C5.4417 8.33337 5.86563 8.50897 6.17819 8.82153C6.49075 9.13409 6.66634 9.55801 6.66634 10C6.66634 10.4421 6.49075 10.866 6.17819 11.1786C5.86563 11.4911 5.4417 11.6667 4.99967 11.6667C4.55765 11.6667 4.13372 11.4911 3.82116 11.1786C3.5086 10.866 3.33301 10.4421 3.33301 10Z" fill="#18181B"/>
</g>
</svg>
