<svg width="21" height="20" viewBox="0 0 21 20" fill="none" xmlns="http://www.w3.org/2000/svg">
<path d="M8.125 14.7916C8.04167 14.7916 7.96667 14.775 7.88333 14.7416C7.65 14.65 7.5 14.4166 7.5 14.1666V9.16663C7.5 8.82496 7.78333 8.54163 8.125 8.54163C8.46667 8.54163 8.75 8.82496 8.75 9.16663V12.6583L9.35 12.0583C9.59167 11.8166 9.99167 11.8166 10.2333 12.0583C10.475 12.3 10.475 12.7 10.2333 12.9416L8.56667 14.6083C8.45 14.725 8.28333 14.7916 8.125 14.7916Z" fill="#71717A"/>
<path d="M8.12454 14.7915C7.96621 14.7915 7.80788 14.7332 7.68288 14.6082L6.01621 12.9415C5.77454 12.6999 5.77454 12.2999 6.01621 12.0582C6.25788 11.8165 6.65788 11.8165 6.89954 12.0582L8.56621 13.7249C8.80788 13.9665 8.80788 14.3665 8.56621 14.6082C8.44121 14.7332 8.28288 14.7915 8.12454 14.7915Z" fill="#71717A"/>
<path d="M13.1253 18.9583H8.12533C3.60033 18.9583 1.66699 17.025 1.66699 12.5V7.49996C1.66699 2.97496 3.60033 1.04163 8.12533 1.04163H12.292C12.6337 1.04163 12.917 1.32496 12.917 1.66663C12.917 2.00829 12.6337 2.29163 12.292 2.29163H8.12533C4.28366 2.29163 2.91699 3.65829 2.91699 7.49996V12.5C2.91699 16.3416 4.28366 17.7083 8.12533 17.7083H13.1253C16.967 17.7083 18.3337 16.3416 18.3337 12.5V8.33329C18.3337 7.99163 18.617 7.70829 18.9587 7.70829C19.3003 7.70829 19.5837 7.99163 19.5837 8.33329V12.5C19.5837 17.025 17.6503 18.9583 13.1253 18.9583Z" fill="#71717A"/>
<path d="M18.9587 8.95828H15.6253C12.7753 8.95828 11.667 7.84995 11.667 4.99995V1.66662C11.667 1.41662 11.817 1.18328 12.0503 1.09162C12.2837 0.991617 12.5503 1.04995 12.7337 1.22495L19.4003 7.89162C19.5753 8.06662 19.6337 8.34162 19.5337 8.57495C19.4337 8.80828 19.2087 8.95828 18.9587 8.95828ZM12.917 3.17495V4.99995C12.917 7.14995 13.4753 7.70828 15.6253 7.70828H17.4503L12.917 3.17495Z" fill="#71717A"/>
</svg>
