<svg width="21" height="20" viewBox="0 0 21 20" fill="none" xmlns="http://www.w3.org/2000/svg">
<path d="M12.6137 17.9998H8.20046C4.20646 17.9998 2.5 16.2934 2.5 12.2994V7.88613C2.5 3.89213 4.20646 2.18567 8.20046 2.18567H9.67154C9.97312 2.18567 10.2232 2.43575 10.2232 2.73733C10.2232 3.0389 9.97312 3.28898 9.67154 3.28898H8.20046C4.8096 3.28898 3.60331 4.49527 3.60331 7.88613V12.2994C3.60331 15.6902 4.8096 16.8965 8.20046 16.8965H12.6137C16.0046 16.8965 17.2109 15.6902 17.2109 12.2994V10.8283C17.2109 10.5267 17.4609 10.2766 17.7625 10.2766C18.0641 10.2766 18.3142 10.5267 18.3142 10.8283V12.2994C18.3142 16.2934 16.6077 17.9998 12.6137 17.9998Z" fill="white"/>
<path d="M7.83198 14.2781C7.3833 14.2781 6.9714 14.1162 6.66983 13.822C6.30941 13.4616 6.15495 12.9394 6.23586 12.3877L6.55214 10.1737C6.61098 9.74711 6.89049 9.19545 7.19206 8.89388L12.9881 3.0978C14.4519 1.63407 15.9377 1.63407 17.4014 3.0978C18.2031 3.89954 18.5636 4.71599 18.49 5.53245C18.4238 6.19443 18.0707 6.84171 17.4014 7.5037L11.6053 13.2998C11.3037 13.6014 10.7521 13.8809 10.3255 13.9397L8.11149 14.256C8.01587 14.2781 7.92025 14.2781 7.83198 14.2781ZM13.7678 3.87747L7.97174 9.67355C7.83198 9.81331 7.67016 10.1369 7.64074 10.3282L7.32446 12.5422C7.29504 12.7555 7.33917 12.932 7.4495 13.0423C7.55983 13.1527 7.73636 13.1968 7.94967 13.1674L10.1637 12.8511C10.3549 12.8217 10.6859 12.6599 10.8183 12.5201L16.6144 6.72403C17.0925 6.24592 17.3426 5.81931 17.3793 5.42211C17.4235 4.94401 17.1734 4.43649 16.6144 3.87012C15.4375 2.69325 14.6284 3.02424 13.7678 3.87747Z" fill="white"/>
<path d="M16.1814 8.49666C16.1299 8.49666 16.0784 8.4893 16.0343 8.47459C14.0998 7.93029 12.5625 6.393 12.0182 4.45852C11.9373 4.16431 12.1065 3.86273 12.4007 3.77447C12.6949 3.69356 12.9965 3.86273 13.0774 4.15695C13.5188 5.72366 14.7618 6.96673 16.3285 7.40805C16.6227 7.48896 16.7919 7.79789 16.711 8.09211C16.6448 8.34219 16.4241 8.49666 16.1814 8.49666Z" fill="white"/>
</svg>
