<svg width="20" height="20" viewBox="0 0 20 20" fill="none" xmlns="http://www.w3.org/2000/svg">
<path d="M12.1137 17.9998H7.70046C3.70646 17.9998 2 16.2934 2 12.2994V7.88613C2 3.89213 3.70646 2.18567 7.70046 2.18567H9.17154C9.47312 2.18567 9.7232 2.43575 9.7232 2.73733C9.7232 3.0389 9.47312 3.28898 9.17154 3.28898H7.70046C4.3096 3.28898 3.10331 4.49527 3.10331 7.88613V12.2994C3.10331 15.6902 4.3096 16.8965 7.70046 16.8965H12.1137C15.5046 16.8965 16.7109 15.6902 16.7109 12.2994V10.8283C16.7109 10.5267 16.9609 10.2766 17.2625 10.2766C17.5641 10.2766 17.8142 10.5267 17.8142 10.8283V12.2994C17.8142 16.2934 16.1077 17.9998 12.1137 17.9998Z" fill="#18181B"/>
<path d="M7.33296 14.2781C6.88428 14.2781 6.47237 14.1162 6.1708 13.822C5.81039 13.4616 5.65592 12.9394 5.73683 12.3877L6.05312 10.1737C6.11196 9.74711 6.39147 9.19545 6.69304 8.89388L12.4891 3.0978C13.9528 1.63407 15.4386 1.63407 16.9024 3.0978C17.7041 3.89954 18.0645 4.71599 17.991 5.53245C17.9248 6.19443 17.5717 6.84171 16.9024 7.5037L11.1063 13.2998C10.8047 13.6014 10.2531 13.8809 9.82645 13.9397L7.61247 14.256C7.51685 14.2781 7.42123 14.2781 7.33296 14.2781ZM13.2688 3.87747L7.47271 9.67355C7.33296 9.81331 7.17114 10.1369 7.14172 10.3282L6.82544 12.5422C6.79601 12.7555 6.84015 12.932 6.95048 13.0423C7.06081 13.1527 7.23734 13.1968 7.45065 13.1674L9.66463 12.8511C9.85587 12.8217 10.1869 12.6599 10.3193 12.5201L16.1153 6.72403C16.5934 6.24592 16.8435 5.81931 16.8803 5.42211C16.9244 4.94401 16.6744 4.43649 16.1153 3.87012C14.9385 2.69325 14.1294 3.02424 13.2688 3.87747Z" fill="#18181B"/>
<path d="M15.6809 8.49666C15.6294 8.49666 15.578 8.4893 15.5338 8.47459C13.5993 7.93029 12.0621 6.393 11.5178 4.45852C11.4368 4.16431 11.606 3.86273 11.9002 3.77447C12.1945 3.69356 12.496 3.86273 12.5769 4.15695C13.0183 5.72366 14.2613 6.96673 15.828 7.40805C16.1223 7.48896 16.2914 7.79789 16.2105 8.09211C16.1443 8.34219 15.9237 8.49666 15.6809 8.49666Z" fill="#18181B"/>
</svg>
