<svg width="21" height="20" viewBox="0 0 21 20" fill="none" xmlns="http://www.w3.org/2000/svg">
<path d="M10.5038 13.1327C8.68977 13.1327 7.21729 11.6603 7.21729 9.84622C7.21729 8.03218 8.68977 6.55969 10.5038 6.55969C12.3179 6.55969 13.7903 8.03218 13.7903 9.84622C13.7903 11.6603 12.3179 13.1327 10.5038 13.1327ZM10.5038 7.69821C9.31975 7.69821 8.35581 8.66216 8.35581 9.84622C8.35581 11.0303 9.31975 11.9942 10.5038 11.9942C11.6879 11.9942 12.6518 11.0303 12.6518 9.84622C12.6518 8.66216 11.6879 7.69821 10.5038 7.69821Z" fill="#18181B"/>
<path d="M10.5038 16.6925C7.64991 16.6925 4.95541 15.0227 3.10342 12.1233C2.29886 10.8709 2.29886 8.82916 3.10342 7.5692C4.963 4.66977 7.6575 2.99994 10.5038 2.99994C13.3501 2.99994 16.0446 4.66977 17.8966 7.5692C18.7011 8.82157 18.7011 10.8633 17.8966 12.1233C16.0446 15.0227 13.3501 16.6925 10.5038 16.6925ZM10.5038 4.13846C8.05218 4.13846 5.70683 5.61095 4.06736 8.184C3.4981 9.07205 3.4981 10.6204 4.06736 11.5085C5.70683 14.0815 8.05218 15.554 10.5038 15.554C12.9554 15.554 15.3008 14.0815 16.9402 11.5085C17.5095 10.6204 17.5095 9.07205 16.9402 8.184C15.3008 5.61095 12.9554 4.13846 10.5038 4.13846Z" fill="#18181B"/>
</svg>
