<svg width="44" height="44" viewBox="0 0 44 44" fill="none" xmlns="http://www.w3.org/2000/svg">
<g filter="url(#filter0_d_4762_2816)">
<rect x="2" y="1" width="40" height="40" rx="20" fill="#F7F7F7" shape-rendering="crispEdges"/>
<rect x="2.5" y="1.5" width="39" height="39" rx="19.5" stroke="#E4E4E7" shape-rendering="crispEdges"/>
<path d="M23.9974 29.9584H18.9974C14.4724 29.9584 12.5391 28.0251 12.5391 23.5001V18.5001C12.5391 13.9751 14.4724 12.0417 18.9974 12.0417H23.9974C28.5224 12.0417 30.4557 13.9751 30.4557 18.5001V23.5001C30.4557 28.0251 28.5224 29.9584 23.9974 29.9584ZM18.9974 13.2917C15.1557 13.2917 13.7891 14.6584 13.7891 18.5001V23.5001C13.7891 27.3417 15.1557 28.7084 18.9974 28.7084H23.9974C27.8391 28.7084 29.2057 27.3417 29.2057 23.5001V18.5001C29.2057 14.6584 27.8391 13.2917 23.9974 13.2917H18.9974Z" fill="#71717A"/>
<path d="M18.9987 19.9585C17.732 19.9585 16.707 18.9335 16.707 17.6668C16.707 16.4001 17.732 15.3751 18.9987 15.3751C20.2654 15.3751 21.2904 16.4001 21.2904 17.6668C21.2904 18.9335 20.2654 19.9585 18.9987 19.9585ZM18.9987 16.6251C18.4237 16.6251 17.957 17.0918 17.957 17.6668C17.957 18.2418 18.4237 18.7085 18.9987 18.7085C19.5737 18.7085 20.0404 18.2418 20.0404 17.6668C20.0404 17.0918 19.5737 16.6251 18.9987 16.6251Z" fill="#71717A"/>
<path d="M13.724 27.4168C13.524 27.4168 13.324 27.3168 13.2073 27.1418C13.0157 26.8585 13.0907 26.4668 13.3823 26.2751L17.4907 23.5168C18.3907 22.9085 19.6323 22.9835 20.449 23.6751L20.724 23.9168C21.1407 24.2751 21.849 24.2751 22.2573 23.9168L25.724 20.9418C26.6073 20.1835 27.999 20.1835 28.8907 20.9418L30.249 22.1085C30.5073 22.3335 30.5407 22.7251 30.3157 22.9918C30.0907 23.2501 29.699 23.2835 29.4323 23.0585L28.074 21.8918C27.6573 21.5335 26.949 21.5335 26.5323 21.8918L23.0657 24.8668C22.1823 25.6251 20.7907 25.6251 19.899 24.8668L19.624 24.6251C19.2407 24.3001 18.6073 24.2668 18.1823 24.5585L14.074 27.3168C13.9657 27.3835 13.8407 27.4168 13.724 27.4168Z" fill="#71717A"/>
</g>
<defs>
<filter id="filter0_d_4762_2816" x="0" y="0" width="44" height="44" filterUnits="userSpaceOnUse" color-interpolation-filters="sRGB">
<feFlood flood-opacity="0" result="BackgroundImageFix"/>
<feColorMatrix in="SourceAlpha" type="matrix" values="0 0 0 0 0 0 0 0 0 0 0 0 0 0 0 0 0 0 127 0" result="hardAlpha"/>
<feOffset dy="1"/>
<feGaussianBlur stdDeviation="1"/>
<feComposite in2="hardAlpha" operator="out"/>
<feColorMatrix type="matrix" values="0 0 0 0 0 0 0 0 0 0 0 0 0 0 0 0 0 0 0.02 0"/>
<feBlend mode="normal" in2="BackgroundImageFix" result="effect1_dropShadow_4762_2816"/>
<feBlend mode="normal" in="SourceGraphic" in2="effect1_dropShadow_4762_2816" result="shape"/>
</filter>
</defs>
</svg>
