<svg width="16" height="16" viewBox="0 0 16 16" fill="none" xmlns="http://www.w3.org/2000/svg">
<rect width="16" height="16" fill="#1D1D1D"/>
<g id="Event Creation &#38; Invite Member">
<path d="M-4331 -734C-4331 -735.105 -4330.1 -736 -4329 -736H6893C6894.1 -736 6895 -735.105 6895 -734V846C6895 847.105 6894.1 848 6893 848H-4329C-4330.1 848 -4331 847.105 -4331 846V-734Z" fill="white" fill-opacity="0.1"/>
<path d="M-4329 -735H6893V-737H-4329V-735ZM6894 -734V846H6896V-734H6894ZM6893 847H-4329V849H6893V847ZM-4330 846V-734H-4332V846H-4330ZM-4329 847C-4329.55 847 -4330 846.552 -4330 846H-4332C-4332 847.657 -4330.66 849 -4329 849V847ZM6894 846C6894 846.552 6893.55 847 6893 847V849C6894.66 849 6896 847.657 6896 846H6894ZM6893 -735C6893.55 -735 6894 -734.552 6894 -734H6896C6896 -735.657 6894.66 -737 6893 -737V-735ZM-4329 -737C-4330.66 -737 -4332 -735.657 -4332 -734H-4330C-4330 -734.552 -4329.55 -735 -4329 -735V-737Z" fill="white" fill-opacity="0.1"/>
<g id="Group 13994">
<g id="5" clip-path="url(#clip0_4282_3015)">
<rect width="375" height="1012" transform="translate(-331 -530)" fill="white"/>
<g id="Frame 813142">
<rect width="375" height="907" transform="translate(-331 -425)" fill="white"/>
<g id="Frame 813213">
<g id="Frame 813212">
<g id="Frame 813204">
<g id="Frame 813198">
<g id="Frame 813197">
<g id="Frame 813196" filter="url(#filter0_d_4282_3015)">
<rect x="-12" y="-12" width="40" height="40" rx="20" fill="white" shape-rendering="crispEdges"/>
<rect x="-11.5" y="-11.5" width="39" height="39" rx="19.5" stroke="#E4E4E7" shape-rendering="crispEdges"/>
<g id="Icon/ 20/ Vuesax/ Search Map">
<g id="Group 13993">
<path id="Vector" d="M8 16C3.58698 16 0 12.413 0 8C0 3.58698 3.58698 0 8 0C12.413 0 16 3.58698 16 8C16 8.30512 15.747 8.55814 15.4419 8.55814C15.1367 8.55814 14.8837 8.30512 14.8837 8C14.8837 4.20465 11.7953 1.11628 8 1.11628C4.20465 1.11628 1.11628 4.20465 1.11628 8C1.11628 11.7953 4.20465 14.8837 8 14.8837C8.30512 14.8837 8.55814 15.1367 8.55814 15.4419C8.55814 15.747 8.30512 16 8 16Z" fill="#18181B"/>
<path id="Vector_2" d="M5.76768 15.2558H5.02349C4.71837 15.2558 4.46535 15.0028 4.46535 14.6977C4.46535 14.3926 4.70349 14.147 5.0086 14.1396C3.84023 10.1507 3.84023 5.84932 5.0086 1.86048C4.71093 1.85304 4.46535 1.60746 4.46535 1.30234C4.46535 0.997225 4.71837 0.744202 5.02349 0.744202H5.76768C5.94628 0.744202 6.11744 0.833502 6.22163 0.974898C6.32582 1.12373 6.35559 1.30978 6.29605 1.48094C4.89698 5.68559 4.89698 10.3219 6.29605 14.5265C6.35559 14.6977 6.32582 14.8837 6.22163 15.0326C6.11744 15.1814 5.94628 15.2558 5.76768 15.2558Z" fill="#18181B"/>
<path id="Vector_3" d="M11.3191 8.55814C11.014 8.55814 10.7609 8.30511 10.7609 8C10.7609 5.78232 10.4037 3.58697 9.70417 1.48092C9.60743 1.19069 9.76371 0.870679 10.0539 0.773934C10.3442 0.67719 10.6642 0.833493 10.7609 1.12373C11.4977 3.3414 11.8772 5.65581 11.8772 8C11.8772 8.30511 11.6242 8.55814 11.3191 8.55814Z" fill="#18181B"/>
<path id="Vector_4" d="M7.99995 11.8773C5.91623 11.8773 3.85484 11.5796 1.86042 10.9917C1.85298 11.2894 1.6074 11.5349 1.30228 11.5349C0.997164 11.5349 0.744141 11.2819 0.744141 10.9768V10.2326C0.744141 10.054 0.833441 9.88286 0.974836 9.77867C1.12367 9.67448 1.30973 9.64469 1.48089 9.70422C3.58694 10.4038 5.78228 10.761 7.99995 10.761C8.30507 10.761 8.55809 11.014 8.55809 11.3191C8.55809 11.6243 8.30507 11.8773 7.99995 11.8773Z" fill="#18181B"/>
<path id="Vector_5" d="M14.6978 6.32558C14.6383 6.32558 14.5788 6.31816 14.5192 6.29583C10.3146 4.89676 5.6783 4.89676 1.47365 6.29583C1.18342 6.39258 0.863418 6.23627 0.766674 5.94604C0.669929 5.65581 0.826209 5.3358 1.11644 5.23905C5.55179 3.75812 10.4337 3.75812 14.8616 5.23905C15.1518 5.3358 15.3081 5.65581 15.2113 5.94604C15.1518 6.17674 14.9285 6.32558 14.6978 6.32558Z" fill="#18181B"/>
<path id="Vector_6" d="M12.6138 15.5535C10.9915 15.5535 9.67432 14.2363 9.67432 12.614C9.67432 10.9917 10.9915 9.67444 12.6138 9.67444C14.2362 9.67444 15.5534 10.9917 15.5534 12.614C15.5534 14.2363 14.2362 15.5535 12.6138 15.5535ZM12.6138 10.7907C11.6092 10.7907 10.7906 11.6093 10.7906 12.614C10.7906 13.6186 11.6092 14.4372 12.6138 14.4372C13.6185 14.4372 14.4371 13.6186 14.4371 12.614C14.4371 11.6093 13.6185 10.7907 12.6138 10.7907Z" fill="#18181B"/>
<path id="Vector_7" d="M15.4418 16C15.3004 16 15.159 15.9479 15.0474 15.8363L14.3032 15.0921C14.0874 14.8763 14.0874 14.519 14.3032 14.3032C14.519 14.0874 14.8762 14.0874 15.0921 14.3032L15.8362 15.0474C16.0521 15.2632 16.0521 15.6205 15.8362 15.8363C15.7246 15.9479 15.5832 16 15.4418 16Z" fill="#18181B"/>
</g>
</g>
</g>
</g>
</g>
</g>
</g>
</g>
</g>
</g>
</g>
</g>
<defs>
<filter id="filter0_d_4282_3015" x="-14" y="-13" width="44" height="44" filterUnits="userSpaceOnUse" color-interpolation-filters="sRGB">
<feFlood flood-opacity="0" result="BackgroundImageFix"/>
<feColorMatrix in="SourceAlpha" type="matrix" values="0 0 0 0 0 0 0 0 0 0 0 0 0 0 0 0 0 0 127 0" result="hardAlpha"/>
<feOffset dy="1"/>
<feGaussianBlur stdDeviation="1"/>
<feComposite in2="hardAlpha" operator="out"/>
<feColorMatrix type="matrix" values="0 0 0 0 0 0 0 0 0 0 0 0 0 0 0 0 0 0 0.02 0"/>
<feBlend mode="normal" in2="BackgroundImageFix" result="effect1_dropShadow_4282_3015"/>
<feBlend mode="normal" in="SourceGraphic" in2="effect1_dropShadow_4282_3015" result="shape"/>
</filter>
<clipPath id="clip0_4282_3015">
<rect width="375" height="1012" fill="white" transform="translate(-331 -530)"/>
</clipPath>
</defs>
</svg>
