<svg width="44" height="44" viewBox="0 0 44 44" fill="none" xmlns="http://www.w3.org/2000/svg">
<g filter="url(#filter0_d_4796_9070)">
<rect x="2" y="1" width="40" height="40" rx="20" fill="white" shape-rendering="crispEdges"/>
<rect x="2.5" y="1.5" width="39" height="39" rx="19.5" stroke="#E4E4E7" shape-rendering="crispEdges"/>
<path d="M22 29C17.587 29 14 25.413 14 21C14 16.587 17.587 13 22 13C26.413 13 30 16.587 30 21C30 21.3051 29.747 21.5581 29.4419 21.5581C29.1367 21.5581 28.8837 21.3051 28.8837 21C28.8837 17.2047 25.7953 14.1163 22 14.1163C18.2047 14.1163 15.1163 17.2047 15.1163 21C15.1163 24.7953 18.2047 27.8837 22 27.8837C22.3051 27.8837 22.5581 28.1367 22.5581 28.4419C22.5581 28.747 22.3051 29 22 29Z" fill="#18181B"/>
<path d="M19.7677 28.2558H19.0235C18.7184 28.2558 18.4654 28.0028 18.4654 27.6977C18.4654 27.3926 18.7035 27.147 19.0086 27.1396C17.8402 23.1507 17.8402 18.8493 19.0086 14.8605C18.7109 14.853 18.4654 14.6075 18.4654 14.3023C18.4654 13.9972 18.7184 13.7442 19.0235 13.7442H19.7677C19.9463 13.7442 20.1174 13.8335 20.2216 13.9749C20.3258 14.1237 20.3556 14.3098 20.2961 14.4809C18.897 18.6856 18.897 23.3219 20.2961 27.5265C20.3556 27.6977 20.3258 27.8837 20.2216 28.0326C20.1174 28.1814 19.9463 28.2558 19.7677 28.2558Z" fill="#18181B"/>
<path d="M25.3188 21.5581C25.0137 21.5581 24.7607 21.3051 24.7607 21C24.7607 18.7823 24.4035 16.587 23.7039 14.4809C23.6072 14.1907 23.7635 13.8707 24.0537 13.7739C24.3439 13.6772 24.6639 13.8335 24.7607 14.1237C25.4974 16.3414 25.877 18.6558 25.877 21C25.877 21.3051 25.6239 21.5581 25.3188 21.5581Z" fill="#18181B"/>
<path d="M22 24.8773C19.9162 24.8773 17.8548 24.5796 15.8604 23.9917C15.853 24.2894 15.6074 24.5349 15.3023 24.5349C14.9972 24.5349 14.7441 24.2819 14.7441 23.9768V23.2326C14.7441 23.054 14.8334 22.8829 14.9748 22.7787C15.1237 22.6745 15.3097 22.6447 15.4809 22.7042C17.5869 23.4038 19.7823 23.761 22 23.761C22.3051 23.761 22.5581 24.014 22.5581 24.3191C22.5581 24.6243 22.3051 24.8773 22 24.8773Z" fill="#18181B"/>
<path d="M28.6976 19.3256C28.6381 19.3256 28.5785 19.3182 28.519 19.2958C24.3143 17.8968 19.6781 17.8968 15.4734 19.2958C15.1832 19.3926 14.8632 19.2363 14.7664 18.946C14.6697 18.6558 14.826 18.3358 15.1162 18.2391C19.5515 16.7581 24.4334 16.7581 28.8613 18.2391C29.1515 18.3358 29.3078 18.6558 29.2111 18.946C29.1515 19.1767 28.9283 19.3256 28.6976 19.3256Z" fill="#18181B"/>
<path d="M26.6138 28.5535C24.9915 28.5535 23.6743 27.2363 23.6743 25.614C23.6743 23.9917 24.9915 22.6744 26.6138 22.6744C28.2362 22.6744 29.5534 23.9917 29.5534 25.614C29.5534 27.2363 28.2362 28.5535 26.6138 28.5535ZM26.6138 23.7907C25.6092 23.7907 24.7906 24.6093 24.7906 25.614C24.7906 26.6186 25.6092 27.4372 26.6138 27.4372C27.6185 27.4372 28.4371 26.6186 28.4371 25.614C28.4371 24.6093 27.6185 23.7907 26.6138 23.7907Z" fill="#18181B"/>
<path d="M29.4416 29C29.3002 29 29.1588 28.9479 29.0472 28.8363L28.303 28.0921C28.0872 27.8763 28.0872 27.519 28.303 27.3032C28.5188 27.0874 28.876 27.0874 29.0918 27.3032L29.836 28.0474C30.0518 28.2632 30.0518 28.6205 29.836 28.8363C29.7244 28.9479 29.583 29 29.4416 29Z" fill="#18181B"/>
</g>
<defs>
<filter id="filter0_d_4796_9070" x="0" y="0" width="44" height="44" filterUnits="userSpaceOnUse" color-interpolation-filters="sRGB">
<feFlood flood-opacity="0" result="BackgroundImageFix"/>
<feColorMatrix in="SourceAlpha" type="matrix" values="0 0 0 0 0 0 0 0 0 0 0 0 0 0 0 0 0 0 127 0" result="hardAlpha"/>
<feOffset dy="1"/>
<feGaussianBlur stdDeviation="1"/>
<feComposite in2="hardAlpha" operator="out"/>
<feColorMatrix type="matrix" values="0 0 0 0 0 0 0 0 0 0 0 0 0 0 0 0 0 0 0.02 0"/>
<feBlend mode="normal" in2="BackgroundImageFix" result="effect1_dropShadow_4796_9070"/>
<feBlend mode="normal" in="SourceGraphic" in2="effect1_dropShadow_4796_9070" result="shape"/>
</filter>
</defs>
</svg>
