<svg width="34" height="34" viewBox="0 0 34 34" fill="none" xmlns="http://www.w3.org/2000/svg">
<g filter="url(#filter0_d_4795_11352)">
<path d="M17 31C25.2843 31 32 24.2843 32 16C32 7.71573 25.2843 1 17 1C8.71573 1 2 7.71573 2 16C2 24.2843 8.71573 31 17 31Z" fill="white"/>
<path d="M31.5 16C31.5 24.0081 25.0081 30.5 17 30.5C8.99187 30.5 2.5 24.0081 2.5 16C2.5 7.99187 8.99187 1.5 17 1.5C25.0081 1.5 31.5 7.99187 31.5 16Z" stroke="#D7D7DB"/>
</g>
<path d="M15.3229 17.936C15.2573 16.5592 15.218 15.1694 15.1 13.7926C15.0738 13.4779 14.8378 13.1764 14.6411 12.901C14.0117 12.0225 13.3299 11.1702 12.7005 10.2918C12.4383 9.93773 12.2023 9.4657 12.7267 9.16413C13.2643 8.86256 13.4741 9.3477 13.7364 9.70172C14.3264 10.5147 14.8902 11.3407 15.5458 12.1012C16.1621 12.8223 17.8666 12.8355 18.4829 12.1274C19.1516 11.3538 19.7416 10.5015 20.3316 9.66238C20.5808 9.32147 20.7774 8.88878 21.2757 9.15102C21.8002 9.43948 21.6035 9.8984 21.3413 10.2655C20.6988 11.1702 20.0038 12.0356 19.3745 12.9535C19.1516 13.2682 18.9287 13.6615 18.9287 14.0155C18.9024 16.4806 18.9418 18.9456 18.9549 21.4106C18.9549 21.6598 19.0467 21.9351 18.9549 22.1318C18.8107 22.4071 18.5484 22.6169 18.3255 22.8529C18.0764 22.6169 17.6568 22.394 17.6306 22.1318C17.5126 21.1615 17.5257 20.1781 17.4864 19.2078C17.4733 18.9325 17.4995 18.6571 17.4339 18.3949C17.3815 18.1982 17.1848 18.0409 17.0537 17.8573C16.9094 18.0409 16.6472 18.2244 16.6341 18.4211C16.5423 19.5619 16.5161 20.7026 16.4636 21.8433C16.4505 22.3285 16.4112 22.8398 15.7818 22.8398C15.1393 22.8398 15.1262 22.3154 15.1131 21.8433C15.1131 20.5452 15.3229 19.693 15.3229 18.3949C15.3885 18.3949 15.2573 17.936 15.3229 17.936Z" fill="#092948"/>
<path d="M14.2476 13.7271C14.4442 14.4089 14.4574 14.9202 13.828 15.3005C13.6444 15.4185 13.5264 15.7463 13.4871 16.0085C13.1068 18.1195 12.7528 20.2306 12.3857 22.3416C12.3595 22.5251 12.3988 22.7743 12.2939 22.8923C12.1103 23.1152 11.8481 23.2725 11.6252 23.4561C11.4547 23.2201 11.14 22.9709 11.1532 22.7349C11.1925 21.9744 11.3498 21.2271 11.4547 20.4797C11.4941 20.1519 11.5596 19.8372 11.5465 19.5094C11.5334 19.339 11.3761 19.1685 11.2712 18.998C11.14 19.1423 10.9171 19.2603 10.8778 19.4307C10.6549 20.2437 10.4845 21.0697 10.3009 21.8827C10.2616 22.04 10.2484 22.1973 10.196 22.3678C10.0911 22.7743 9.94687 23.2725 9.4355 23.0496C9.19949 22.9447 9.02903 22.394 9.06837 22.0662C9.14704 21.3451 9.39617 20.637 9.52729 19.9159C9.78952 18.4211 10.0386 16.9133 10.2353 15.4185C10.2747 15.0776 10.1435 14.6842 9.9862 14.3564C9.59285 13.4911 9.10771 12.6781 8.74057 11.7996C8.64879 11.5636 8.85858 11.1965 8.93725 10.8949C9.18638 11.0785 9.5404 11.1965 9.68463 11.4325C10.0518 12.0619 10.2878 12.7699 10.6549 13.3993C11.4023 14.6711 12.5561 14.8809 13.7755 14.0155C13.8935 13.9369 14.0378 13.8582 14.2476 13.7271Z" fill="#F38828"/>
<path d="M17.0275 12.0488C16.3981 12.0619 15.913 11.5898 15.8867 10.9342C15.8605 10.2655 16.3588 9.74106 17.0406 9.74106C17.6568 9.74106 18.1813 10.2393 18.2075 10.8556C18.2338 11.4981 17.6962 12.0356 17.0275 12.0488Z" fill="#092948"/>
<path d="M19.7809 13.609C20.5283 14.3433 21.2888 14.8153 22.2459 14.3957C22.6131 14.2253 23.0327 14.0024 23.2425 13.6746C23.6751 12.9928 23.9505 12.2192 24.3701 11.5111C24.5274 11.2489 24.8814 11.0915 25.1306 10.8817C25.183 11.2227 25.3797 11.6029 25.2748 11.8782C24.9732 12.665 24.6323 13.4517 24.1734 14.1335C23.78 14.7104 23.6883 15.2611 23.8194 15.8905C24.1996 17.8573 24.5799 19.8372 24.9601 21.8039C24.9994 21.9875 25.1043 22.1973 25.065 22.3546C24.9863 22.6038 24.8028 22.8267 24.6716 23.0627C24.4225 22.9053 24.0292 22.8005 23.9636 22.5907C23.7276 21.8433 23.5965 21.0566 23.426 20.2961C23.3736 20.0338 23.3605 19.7454 23.2425 19.5094C23.1376 19.3127 22.9147 19.1685 22.7442 18.998C22.6655 19.2078 22.4951 19.4176 22.5213 19.6143C22.6131 20.5321 22.7442 21.4499 22.8884 22.3546C22.954 22.8005 23.0458 23.2987 22.482 23.4167C21.8133 23.5478 21.7739 22.9709 21.6952 22.5251C21.3281 20.3616 20.9741 18.1982 20.5938 16.0347C20.5414 15.7594 20.4234 15.3791 20.2267 15.2611C19.5187 14.9071 19.6105 14.3695 19.7809 13.609Z" fill="#F38828"/>
<path d="M21.7605 12.0093C22.2981 12.0225 22.639 12.3502 22.7177 12.9403C22.7833 13.5041 22.3112 14.0023 21.7343 14.0023C21.118 14.0023 20.7771 13.6614 20.6985 13.0714C20.6329 12.5207 21.1049 12.0356 21.7605 12.0093Z" fill="#F38828"/>
<path d="M12.4252 13.9237C11.8221 13.95 11.3631 13.5173 11.3763 12.9404C11.3894 12.3372 11.7303 11.9832 12.3334 11.9307C12.9103 11.8783 13.3693 12.3241 13.3824 12.9141C13.3693 13.4911 12.9759 13.9106 12.4252 13.9237Z" fill="#F38828"/>
<defs>
<filter id="filter0_d_4795_11352" x="0" y="0" width="34" height="34" filterUnits="userSpaceOnUse" color-interpolation-filters="sRGB">
<feFlood flood-opacity="0" result="BackgroundImageFix"/>
<feColorMatrix in="SourceAlpha" type="matrix" values="0 0 0 0 0 0 0 0 0 0 0 0 0 0 0 0 0 0 127 0" result="hardAlpha"/>
<feOffset dy="1"/>
<feGaussianBlur stdDeviation="1"/>
<feComposite in2="hardAlpha" operator="out"/>
<feColorMatrix type="matrix" values="0 0 0 0 0 0 0 0 0 0 0 0 0 0 0 0 0 0 0.02 0"/>
<feBlend mode="normal" in2="BackgroundImageFix" result="effect1_dropShadow_4795_11352"/>
<feBlend mode="normal" in="SourceGraphic" in2="effect1_dropShadow_4795_11352" result="shape"/>
</filter>
</defs>
</svg>
