<svg width="17" height="16" viewBox="0 0 17 16" fill="none" xmlns="http://www.w3.org/2000/svg">
<path d="M8.1665 11.9999H9.49984V10.6666H8.1665V11.9999ZM8.83317 1.33325C7.95769 1.33325 7.09079 1.50569 6.28195 1.84072C5.47311 2.17575 4.73818 2.66682 4.11913 3.28587C2.86888 4.53612 2.1665 6.23181 2.1665 7.99992C2.1665 9.76803 2.86888 11.4637 4.11913 12.714C4.73818 13.333 5.47311 13.8241 6.28195 14.1591C7.09079 14.4941 7.95769 14.6666 8.83317 14.6666C10.6013 14.6666 12.297 13.9642 13.5472 12.714C14.7975 11.4637 15.4998 9.76803 15.4998 7.99992C15.4998 7.12444 15.3274 6.25753 14.9924 5.4487C14.6573 4.63986 14.1663 3.90493 13.5472 3.28587C12.9282 2.66682 12.1932 2.17575 11.3844 1.84072C10.5756 1.50569 9.70865 1.33325 8.83317 1.33325ZM8.83317 13.3333C5.89317 13.3333 3.49984 10.9399 3.49984 7.99992C3.49984 5.05992 5.89317 2.66659 8.83317 2.66659C11.7732 2.66659 14.1665 5.05992 14.1665 7.99992C14.1665 10.9399 11.7732 13.3333 8.83317 13.3333ZM8.83317 3.99992C8.12593 3.99992 7.44765 4.28087 6.94755 4.78097C6.44746 5.28106 6.1665 5.95934 6.1665 6.66659H7.49984C7.49984 6.31296 7.64031 5.97383 7.89036 5.72378C8.14041 5.47373 8.47955 5.33325 8.83317 5.33325C9.18679 5.33325 9.52593 5.47373 9.77598 5.72378C10.026 5.97383 10.1665 6.31296 10.1665 6.66659C10.1665 7.99992 8.1665 7.83325 8.1665 9.99992H9.49984C9.49984 8.49992 11.4998 8.33325 11.4998 6.66659C11.4998 5.95934 11.2189 5.28106 10.7188 4.78097C10.2187 4.28087 9.54042 3.99992 8.83317 3.99992Z" fill="white"/>
</svg>
