<svg width="21" height="20" viewBox="0 0 21 20" fill="none" xmlns="http://www.w3.org/2000/svg">
<g id="vuesax/outline/home-2">
<g id="home-2">
<path id="Vector" d="M15.3224 18.9584H5.6724C3.38906 18.9584 1.53906 17.1001 1.53906 14.8167V8.64173C1.53906 7.50839 2.23906 6.08339 3.13906 5.38339L7.63073 1.88339C8.98073 0.833393 11.1391 0.783393 12.5391 1.76673L17.6891 5.37506C18.6807 6.06673 19.4557 7.55006 19.4557 8.75839V14.8251C19.4557 17.1001 17.6057 18.9584 15.3224 18.9584ZM8.3974 2.86673L3.90573 6.36673C3.31406 6.83339 2.78906 7.89173 2.78906 8.64173V14.8167C2.78906 16.4084 4.08073 17.7084 5.6724 17.7084H15.3224C16.9141 17.7084 18.2057 16.4167 18.2057 14.8251V8.75839C18.2057 7.95839 17.6307 6.85006 16.9724 6.40006L11.8224 2.79173C10.8724 2.12506 9.30573 2.15839 8.3974 2.86673Z" fill="#71717A"/>
<path id="Vector_2" d="M10.498 15.6251C10.1564 15.6251 9.87305 15.3418 9.87305 15.0001V12.5001C9.87305 12.1585 10.1564 11.8751 10.498 11.8751C10.8397 11.8751 11.123 12.1585 11.123 12.5001V15.0001C11.123 15.3418 10.8397 15.6251 10.498 15.6251Z" fill="#71717A"/>
</g>
</g>
</svg>
