<svg width="21" height="20" viewBox="0 0 21 20" fill="none" xmlns="http://www.w3.org/2000/svg">
<path d="M17.1979 5.68336L12.3979 2.32503C11.0896 1.40836 9.08125 1.45836 7.82292 2.43336L3.64792 5.6917C2.81458 6.3417 2.15625 7.67503 2.15625 8.72503V14.475C2.15625 16.6 3.88125 18.3334 6.00625 18.3334H14.9896C17.1146 18.3334 18.8396 16.6084 18.8396 14.4834V8.83336C18.8396 7.70836 18.1146 6.32503 17.1979 5.68336ZM11.1229 15C11.1229 15.3417 10.8396 15.625 10.4979 15.625C10.1563 15.625 9.87292 15.3417 9.87292 15V12.5C9.87292 12.1584 10.1563 11.875 10.4979 11.875C10.8396 11.875 11.1229 12.1584 11.1229 12.5V15Z" fill="#18181B"/>
</svg>
