<svg width="15" height="15" viewBox="0 0 15 15" fill="none" xmlns="http://www.w3.org/2000/svg">
<rect width="15" height="15" rx="2" fill="white"/>
<path d="M13.3333 1.66667V13.3333H1.66667V1.66667H13.3333ZM13.3333 0H1.66667C0.75 0 0 0.75 0 1.66667V13.3333C0 14.2583 0.75 15 1.66667 15H13.3333C14.2583 15 15 14.2583 15 13.3333V1.66667C15 0.75 14.2583 0 13.3333 0ZM7.5 4.16667C5.65833 4.16667 4.16667 5.65833 4.16667 7.5C4.16667 9.34167 5.65833 10.8333 7.5 10.8333C9.34167 10.8333 10.8333 9.34167 10.8333 7.5C10.8333 5.65833 9.34167 4.16667 7.5 4.16667Z" fill="#259743"/>
</svg>
