<svg width="21" height="20" viewBox="0 0 21 20" fill="none" xmlns="http://www.w3.org/2000/svg">
<path d="M12.9974 18.9584H7.9974C3.4724 18.9584 1.53906 17.0251 1.53906 12.5001V7.50008C1.53906 2.97508 3.4724 1.04175 7.9974 1.04175H12.9974C17.5224 1.04175 19.4557 2.97508 19.4557 7.50008V12.5001C19.4557 17.0251 17.5224 18.9584 12.9974 18.9584ZM7.9974 2.29175C4.15573 2.29175 2.78906 3.65841 2.78906 7.50008V12.5001C2.78906 16.3417 4.15573 17.7084 7.9974 17.7084H12.9974C16.8391 17.7084 18.2057 16.3417 18.2057 12.5001V7.50008C18.2057 3.65841 16.8391 2.29175 12.9974 2.29175H7.9974Z" fill="#18181B"/>
<path d="M7.9987 8.95846C6.73203 8.95846 5.70703 7.93346 5.70703 6.66679C5.70703 5.40012 6.73203 4.37512 7.9987 4.37512C9.26536 4.37512 10.2904 5.40012 10.2904 6.66679C10.2904 7.93346 9.26536 8.95846 7.9987 8.95846ZM7.9987 5.62512C7.4237 5.62512 6.95703 6.09179 6.95703 6.66679C6.95703 7.24179 7.4237 7.70846 7.9987 7.70846C8.5737 7.70846 9.04036 7.24179 9.04036 6.66679C9.04036 6.09179 8.5737 5.62512 7.9987 5.62512Z" fill="#18181B"/>
<path d="M2.724 16.4168C2.524 16.4168 2.324 16.3168 2.20733 16.1418C2.01566 15.8585 2.09066 15.4668 2.38233 15.2751L6.49066 12.5168C7.39066 11.9085 8.63233 11.9835 9.449 12.6751L9.724 12.9168C10.1407 13.2751 10.849 13.2751 11.2573 12.9168L14.724 9.9418C15.6073 9.18346 16.999 9.18346 17.8907 9.9418L19.249 11.1085C19.5073 11.3335 19.5407 11.7251 19.3157 11.9918C19.0907 12.2501 18.699 12.2835 18.4323 12.0585L17.074 10.8918C16.6573 10.5335 15.949 10.5335 15.5323 10.8918L12.0657 13.8668C11.1823 14.6251 9.79066 14.6251 8.899 13.8668L8.624 13.6251C8.24066 13.3001 7.60733 13.2668 7.18233 13.5585L3.074 16.3168C2.96566 16.3835 2.84066 16.4168 2.724 16.4168Z" fill="#18181B"/>
</svg>
