<svg width="21" height="20" viewBox="0 0 21 20" fill="none" xmlns="http://www.w3.org/2000/svg">
<path d="M15.479 16.2655H12.4757C12.1679 16.2655 11.9126 16.0102 11.9126 15.7024C11.9126 15.3946 12.1679 15.1393 12.4757 15.1393H15.479C15.7868 15.1393 16.0421 15.3946 16.0421 15.7024C16.0421 16.0102 15.7868 16.2655 15.479 16.2655Z" fill="#18181B"/>
<path d="M13.9772 17.7671C13.6693 17.7671 13.4141 17.5118 13.4141 17.204V14.2007C13.4141 13.8929 13.6693 13.6376 13.9772 13.6376C14.285 13.6376 14.5403 13.8929 14.5403 14.2007V17.204C14.5403 17.5118 14.285 17.7671 13.9772 17.7671Z" fill="#18181B"/>
<path d="M10.7186 9.78591C10.6961 9.78591 10.6811 9.78591 10.6586 9.78591C10.621 9.7784 10.5685 9.7784 10.5234 9.78591C8.34605 9.71834 6.70176 8.00647 6.70176 5.89668C6.69425 4.86055 7.0997 3.88449 7.8355 3.14869C8.5713 2.41289 9.54736 1.99994 10.591 1.99994C12.7383 1.99994 14.4877 3.74934 14.4877 5.89668C14.4877 8.00647 12.8434 9.71083 10.7412 9.78591C10.7336 9.78591 10.7261 9.78591 10.7186 9.78591ZM10.591 3.12616C9.84768 3.12616 9.15693 3.41898 8.63136 3.93705C8.1133 4.46262 7.82799 5.15337 7.82799 5.88917C7.82799 7.3908 8.99926 8.60713 10.4934 8.65218C10.5384 8.64467 10.636 8.64467 10.7336 8.65218C12.2128 8.5846 13.3615 7.37579 13.3615 5.88917C13.3615 4.37252 12.1152 3.12616 10.591 3.12616Z" fill="#18181B"/>
<path d="M10.5911 17.9999C9.05943 17.9999 7.61035 17.602 6.51416 16.8662C5.47052 16.1679 4.8999 15.2144 4.8999 14.1858C4.8999 13.1572 5.47803 12.2111 6.51416 11.5204C8.7591 10.0188 12.4081 10.0188 14.653 11.5204C14.9083 11.6931 14.9834 12.046 14.8107 12.3012C14.638 12.564 14.2851 12.6316 14.0298 12.4589C12.1603 11.2126 9.00687 11.2126 7.13734 12.4589C6.41655 12.9394 6.02613 13.5476 6.02613 14.1858C6.02613 14.824 6.41655 15.4472 7.13734 15.9277C8.04582 16.5358 9.26966 16.8662 10.5836 16.8662C10.8914 16.8662 11.1467 17.1215 11.1467 17.4293C11.1467 17.7372 10.8989 17.9999 10.5911 17.9999Z" fill="#18181B"/>
</svg>
