<svg width="21" height="20" viewBox="0 0 21 20" fill="none" xmlns="http://www.w3.org/2000/svg">
<g id="vuesax/bold/sms">
<g id="sms">
<path id="Vector" d="M14.5 3H6.5C4.1 3 2.5 4.2 2.5 7V12.6C2.5 15.4 4.1 16.6 6.5 16.6H14.5C16.9 16.6 18.5 15.4 18.5 12.6V7C18.5 4.2 16.9 3 14.5 3ZM14.876 7.872L12.372 9.872C11.844 10.296 11.172 10.504 10.5 10.504C9.828 10.504 9.148 10.296 8.628 9.872L6.124 7.872C5.868 7.664 5.828 7.28 6.028 7.024C6.236 6.768 6.612 6.72 6.868 6.928L9.372 8.928C9.98 9.416 11.012 9.416 11.62 8.928L14.124 6.928C14.38 6.72 14.764 6.76 14.964 7.024C15.172 7.28 15.132 7.664 14.876 7.872Z" fill="#18181B"/>
</g>
</g>
</svg>
