<svg width="21" height="20" viewBox="0 0 21 20" fill="none" xmlns="http://www.w3.org/2000/svg">
<g id="vuesax/outline/sms">
<g id="sms">
<g id="Group 14439">
<path id="Vector" d="M14.2209 16.7674H6.77907C4.06279 16.7674 2.5 15.2047 2.5 12.4884V7.27907C2.5 4.56279 4.06279 3 6.77907 3H14.2209C16.9372 3 18.5 4.56279 18.5 7.27907V12.4884C18.5 15.2047 16.9372 16.7674 14.2209 16.7674ZM6.77907 4.11628C4.6507 4.11628 3.61628 5.1507 3.61628 7.27907V12.4884C3.61628 14.6167 4.6507 15.6512 6.77907 15.6512H14.2209C16.3493 15.6512 17.3837 14.6167 17.3837 12.4884V7.27907C17.3837 5.1507 16.3493 4.11628 14.2209 4.11628H6.77907Z" fill="#71717A"/>
<path id="Vector_2" d="M10.4998 10.5312C9.87472 10.5312 9.24216 10.3377 8.75844 9.94332L6.42914 8.08285C6.191 7.88936 6.14635 7.53959 6.33984 7.30145C6.53333 7.06331 6.8831 7.01867 7.12124 7.21216L9.45053 9.07262C10.0161 9.52657 10.9761 9.52657 11.5417 9.07262L13.871 7.21216C14.1091 7.01867 14.4663 7.05587 14.6524 7.30145C14.8459 7.53959 14.8087 7.89681 14.5631 8.08285L12.2338 9.94332C11.7575 10.3377 11.125 10.5312 10.4998 10.5312Z" fill="#71717A"/>
</g>
</g>
</g>
</svg>
