<svg width="21" height="20" viewBox="0 0 21 20" fill="none" xmlns="http://www.w3.org/2000/svg">
<path d="M13.8489 14.3023H12.7251C12.42 14.3023 12.167 14.0493 12.167 13.7441C12.167 13.439 12.42 13.186 12.7251 13.186H13.8489C15.7986 13.186 17.3838 11.6009 17.3838 9.65111C17.3838 7.70134 15.7986 6.11622 13.8489 6.11622H12.7326C12.4275 6.11622 12.1744 5.8632 12.1744 5.55808C12.1744 5.25296 12.42 4.99994 12.7326 4.99994H13.8489C16.4163 4.99994 18.5 7.08367 18.5 9.65111C18.5 12.2186 16.4163 14.3023 13.8489 14.3023Z" fill="#18181B"/>
<path d="M8.26746 14.3024H7.15118C4.58373 14.3024 2.5 12.2186 2.5 9.65118C2.5 7.08373 4.58373 5 7.15118 5H8.26746C8.57257 5 8.8256 5.25302 8.8256 5.55814C8.8256 5.86326 8.57257 6.11628 8.26746 6.11628H7.15118C5.2014 6.11628 3.61628 7.7014 3.61628 9.65118C3.61628 11.6009 5.2014 13.1861 7.15118 13.1861H8.26746C8.57257 13.1861 8.8256 13.4391 8.8256 13.7442C8.8256 14.0493 8.57257 14.3024 8.26746 14.3024Z" fill="#18181B"/>
<path d="M13.4765 10.2091H7.52298C7.21787 10.2091 6.96484 9.95603 6.96484 9.65091C6.96484 9.3458 7.21787 9.09277 7.52298 9.09277H13.4765C13.7816 9.09277 14.0346 9.3458 14.0346 9.65091C14.0346 9.95603 13.7816 10.2091 13.4765 10.2091Z" fill="#18181B"/>
</svg>
