<svg width="20" height="20" viewBox="0 0 20 20" fill="none" xmlns="http://www.w3.org/2000/svg">
<path d="M9.97473 11.6104C8.39035 11.6104 7.09607 10.3235 7.09607 8.7317C7.09607 7.13988 8.39035 5.86047 9.97473 5.86047C11.5591 5.86047 12.8534 7.14732 12.8534 8.73914C12.8534 10.331 11.5591 11.6104 9.97473 11.6104ZM9.97473 6.97623C9.00774 6.97623 8.21183 7.7647 8.21183 8.73914C8.21183 9.71357 9.0003 10.502 9.97473 10.502C10.9492 10.502 11.7376 9.71357 11.7376 8.73914C11.7376 7.7647 10.9417 6.97623 9.97473 6.97623Z" fill="#71717A"/>
<path d="M9.97472 18C8.87384 18 7.76552 17.5834 6.90266 16.7578C4.70833 14.6453 2.28341 11.2757 3.19834 7.26639C4.024 3.62901 7.2002 2 9.97472 2C9.97472 2 9.97472 2 9.98216 2C12.7567 2 15.9329 3.62901 16.7585 7.27383C17.666 11.2831 15.2411 14.6453 13.0468 16.7578C12.1839 17.5834 11.0756 18 9.97472 18ZM9.97472 3.11576C7.81015 3.11576 5.02819 4.26871 4.29178 7.51185C3.48844 11.0153 5.6902 14.0353 7.68369 15.947C8.97054 17.1892 10.9863 17.1892 12.2732 15.947C14.2592 14.0353 16.461 11.0153 15.6725 7.51185C14.9287 4.26871 12.1393 3.11576 9.97472 3.11576Z" fill="#71717A"/>
</svg>
