<svg width="16" height="16" viewBox="0 0 16 16" fill="none" xmlns="http://www.w3.org/2000/svg">
<g id="Group 13991">
<path id="Vector" d="M10.6588 15.6496H10.5598C7.17694 15.6496 5.54647 14.3162 5.26456 11.3296C5.23409 11.0172 5.46266 10.7353 5.78266 10.7048C6.09504 10.6743 6.37694 10.9105 6.40742 11.2229C6.62837 13.6153 7.75599 14.5067 10.5674 14.5067H10.6665C13.7674 14.5067 14.8646 13.4096 14.8646 10.3086V5.34101C14.8646 2.24006 13.7674 1.14292 10.6665 1.14292H10.5674C7.74075 1.14292 6.61313 2.04958 6.40742 4.48768C6.36933 4.80006 6.11028 5.03625 5.78266 5.00577C5.46266 4.98291 5.23409 4.70101 5.25694 4.38863C5.51599 1.35625 7.15409 6.10352e-05 10.5598 6.10352e-05H10.6588C14.3998 6.10352e-05 15.9998 1.60006 15.9998 5.34101V10.3086C15.9998 14.0496 14.3998 15.6496 10.6588 15.6496Z" fill="#71717A"/>
<path id="Vector_2" d="M10.3848 8.39627H0.571428C0.259047 8.39627 0 8.13723 0 7.82485C0 7.51247 0.259047 7.25342 0.571428 7.25342H10.3848C10.6971 7.25342 10.9562 7.51247 10.9562 7.82485C10.9562 8.13723 10.7048 8.39627 10.3848 8.39627Z" fill="#71717A"/>
<path id="Vector_3" d="M8.68573 10.9487C8.54097 10.9487 8.39621 10.8953 8.28193 10.781C8.06097 10.5601 8.06097 10.1944 8.28193 9.97341L10.4305 7.82484L8.28193 5.67627C8.06097 5.45532 8.06097 5.08961 8.28193 4.86866C8.50288 4.6477 8.86859 4.6477 9.08954 4.86866L11.6419 7.42104C11.8629 7.64199 11.8629 8.0077 11.6419 8.22865L9.08954 10.781C8.97526 10.8953 8.8305 10.9487 8.68573 10.9487Z" fill="#71717A"/>
</g>
</svg>
