<svg xmlns="http://www.w3.org/2000/svg" xmlns:xlink="http://www.w3.org/1999/xlink" width="66.86" height="71.651" viewBox="0 0 66.86 71.651">
  <defs>
    <clipPath id="clip-path">
      <path id="Path_8" data-name="Path 8" d="M34.747,21.186a14.189,14.189,0,0,0-7.263,12.581V60.644a14.527,14.527,0,0,0,21.79,12.581L60.912,66.5,54.9,63.031l-8.63,4.983a8.51,8.51,0,0,1-12.77-7.37V33.767A8.51,8.51,0,0,1,46.265,26.4L54.9,31.379l6.016,3.474h0l8.629,4.983a8.509,8.509,0,0,1,0,14.739l-8.63,4.982,6.017,3.474,5.622-3.246a14.525,14.525,0,0,0,0-25.16l-5.622-3.246-6.017-3.473h0l-11.641-6.72a14.19,14.19,0,0,0-14.527,0M34.055,9.548A6.028,6.028,0,1,0,40.083,3.52a6.028,6.028,0,0,0-6.028,6.028" fill="none"/>
    </clipPath>
    <clipPath id="clip-path-2">
      <path id="Path_9" data-name="Path 9" d="M49.274,34.625a14.526,14.526,0,0,0,0,25.161L54.9,63.031,60.913,66.5l6.015-3.474-6.015-3.474-8.63-4.982a8.508,8.508,0,0,1,0-14.739l8.629-4.983h0L54.9,31.379ZM72.551,21.186,60.913,27.905h0l6.014,3.473L75.56,26.4a8.509,8.509,0,0,1,12.764,7.37V60.644a8.509,8.509,0,0,1-12.764,7.37l-8.63-4.983L60.913,66.5l11.638,6.72a14.527,14.527,0,0,0,21.79-12.581V33.767a14.527,14.527,0,0,0-21.79-12.581M75.713,9.548A6.028,6.028,0,1,0,81.741,3.52a6.028,6.028,0,0,0-6.028,6.028" fill="none"/>
    </clipPath>
    <linearGradient id="linear-gradient" x1="-0.338" y1="1.229" x2="-0.325" y2="1.229" gradientUnits="objectBoundingBox">
      <stop offset="0" stop-color="#ffcd03"/>
      <stop offset="1" stop-color="#f16122"/>
    </linearGradient>
  </defs>
  <g id="Group_7" data-name="Group 7" transform="translate(-1311.516 -284.48)">
    <g id="Group_5" data-name="Group 5" transform="translate(1284.033 280.96)" clip-path="url(#clip-path)">
      <rect id="Rectangle_169" data-name="Rectangle 169" width="6.126" height="66.383" transform="matrix(0.696, -0.718, 0.718, 0.696, 0.001, 41.362)" fill="#00d0ff"/>
      <rect id="Rectangle_170" data-name="Rectangle 170" width="0.465" height="66.384" transform="matrix(0.696, -0.718, 0.718, 0.696, 4.168, 37.062)" fill="#00d0ff"/>
      <rect id="Rectangle_171" data-name="Rectangle 171" width="0.465" height="66.384" transform="matrix(0.696, -0.718, 0.718, 0.696, 4.383, 36.839)" fill="#00cfff"/>
      <rect id="Rectangle_172" data-name="Rectangle 172" width="0.465" height="66.384" transform="matrix(0.696, -0.718, 0.718, 0.696, 4.599, 36.617)" fill="#00cfff"/>
      <rect id="Rectangle_173" data-name="Rectangle 173" width="0.466" height="66.383" transform="matrix(0.696, -0.718, 0.718, 0.696, 4.815, 36.394)" fill="#00ceff"/>
      <rect id="Rectangle_174" data-name="Rectangle 174" width="0.465" height="66.384" transform="matrix(0.696, -0.718, 0.718, 0.696, 5.031, 36.171)" fill="#00ceff"/>
      <rect id="Rectangle_175" data-name="Rectangle 175" width="0.465" height="66.384" transform="matrix(0.696, -0.718, 0.718, 0.696, 5.247, 35.949)" fill="#00ceff"/>
      <rect id="Rectangle_176" data-name="Rectangle 176" width="0.465" height="66.384" transform="matrix(0.696, -0.718, 0.718, 0.696, 5.462, 35.726)" fill="#00cdff"/>
      <rect id="Rectangle_177" data-name="Rectangle 177" width="0.465" height="66.384" transform="matrix(0.695, -0.719, 0.719, 0.695, 5.642, 35.54)" fill="#00cdff"/>
      <rect id="Rectangle_178" data-name="Rectangle 178" width="0.465" height="66.384" transform="matrix(0.695, -0.719, 0.719, 0.695, 5.858, 35.318)" fill="#0cf"/>
      <rect id="Rectangle_179" data-name="Rectangle 179" width="0.465" height="66.383" transform="matrix(0.696, -0.718, 0.718, 0.696, 6.11, 35.058)" fill="#01ccff"/>
      <rect id="Rectangle_180" data-name="Rectangle 180" width="0.465" height="66.384" transform="matrix(0.696, -0.718, 0.718, 0.696, 6.325, 34.835)" fill="#01ccff"/>
      <rect id="Rectangle_181" data-name="Rectangle 181" width="0.465" height="66.384" transform="matrix(0.696, -0.718, 0.718, 0.696, 6.541, 34.612)" fill="#01cbff"/>
      <rect id="Rectangle_182" data-name="Rectangle 182" width="0.465" height="66.384" transform="matrix(0.696, -0.718, 0.718, 0.696, 6.757, 34.39)" fill="#01cbff"/>
      <rect id="Rectangle_183" data-name="Rectangle 183" width="0.465" height="66.384" transform="matrix(0.695, -0.719, 0.719, 0.695, 6.937, 34.204)" fill="#01caff"/>
      <rect id="Rectangle_184" data-name="Rectangle 184" width="0.466" height="66.383" transform="matrix(0.696, -0.718, 0.718, 0.696, 7.188, 33.945)" fill="#01caff"/>
      <rect id="Rectangle_185" data-name="Rectangle 185" width="0.465" height="66.384" transform="matrix(0.696, -0.718, 0.718, 0.696, 7.404, 33.722)" fill="#01c9ff"/>
      <rect id="Rectangle_186" data-name="Rectangle 186" width="0.465" height="66.384" transform="matrix(0.696, -0.718, 0.718, 0.696, 7.62, 33.499)" fill="#01c9ff"/>
      <rect id="Rectangle_187" data-name="Rectangle 187" width="0.465" height="66.384" transform="translate(7.836 33.276) rotate(-45.891)" fill="#01c9ff"/>
      <rect id="Rectangle_188" data-name="Rectangle 188" width="0.466" height="66.383" transform="translate(8.051 33.054) rotate(-45.891)" fill="#01c8ff"/>
      <rect id="Rectangle_189" data-name="Rectangle 189" width="0.465" height="66.384" transform="translate(8.267 32.831) rotate(-45.891)" fill="#01c8ff"/>
      <rect id="Rectangle_190" data-name="Rectangle 190" width="0.465" height="66.383" transform="translate(8.483 32.608) rotate(-45.891)" fill="#01c7ff"/>
      <rect id="Rectangle_191" data-name="Rectangle 191" width="0.465" height="66.384" transform="translate(8.699 32.386) rotate(-45.891)" fill="#01c7ff"/>
      <rect id="Rectangle_192" data-name="Rectangle 192" width="0.465" height="66.384" transform="translate(8.915 32.163) rotate(-45.891)" fill="#01c7ff"/>
      <rect id="Rectangle_193" data-name="Rectangle 193" width="0.465" height="66.384" transform="matrix(0.695, -0.719, 0.719, 0.695, 9.095, 31.978)" fill="#01c6ff"/>
      <rect id="Rectangle_194" data-name="Rectangle 194" width="0.465" height="66.384" transform="translate(9.346 31.718) rotate(-45.891)" fill="#01c6ff"/>
      <rect id="Rectangle_195" data-name="Rectangle 195" width="0.465" height="66.384" transform="translate(9.562 31.495) rotate(-45.891)" fill="#01c5ff"/>
      <rect id="Rectangle_196" data-name="Rectangle 196" width="0.465" height="66.384" transform="translate(9.778 31.272) rotate(-45.891)" fill="#01c5ff"/>
      <rect id="Rectangle_197" data-name="Rectangle 197" width="0.465" height="66.384" transform="translate(9.993 31.05) rotate(-45.891)" fill="#02c5ff"/>
      <rect id="Rectangle_198" data-name="Rectangle 198" width="0.465" height="66.384" transform="translate(10.209 30.827) rotate(-45.891)" fill="#02c4ff"/>
      <rect id="Rectangle_199" data-name="Rectangle 199" width="0.465" height="66.384" transform="matrix(0.695, -0.719, 0.719, 0.695, 10.389, 30.642)" fill="#02c4ff"/>
      <rect id="Rectangle_200" data-name="Rectangle 200" width="0.465" height="66.384" transform="translate(10.641 30.382) rotate(-45.891)" fill="#02c3ff"/>
      <rect id="Rectangle_201" data-name="Rectangle 201" width="0.465" height="66.384" transform="translate(10.857 30.159) rotate(-45.891)" fill="#02c3ff"/>
      <rect id="Rectangle_202" data-name="Rectangle 202" width="0.465" height="66.384" transform="translate(11.072 29.936) rotate(-45.891)" fill="#02c3ff"/>
      <rect id="Rectangle_203" data-name="Rectangle 203" width="0.465" height="66.384" transform="translate(11.288 29.714) rotate(-45.891)" fill="#02c2ff"/>
      <rect id="Rectangle_204" data-name="Rectangle 204" width="0.465" height="66.384" transform="matrix(0.695, -0.719, 0.719, 0.695, 11.468, 29.528)" fill="#02c2ff"/>
      <rect id="Rectangle_205" data-name="Rectangle 205" width="0.465" height="66.384" transform="translate(11.719 29.269) rotate(-45.891)" fill="#02c1ff"/>
      <rect id="Rectangle_206" data-name="Rectangle 206" width="0.465" height="66.384" transform="translate(11.935 29.046) rotate(-45.891)" fill="#02c1ff"/>
      <rect id="Rectangle_207" data-name="Rectangle 207" width="0.465" height="66.384" transform="translate(12.151 28.823) rotate(-45.891)" fill="#02c1ff"/>
      <rect id="Rectangle_208" data-name="Rectangle 208" width="0.465" height="66.384" transform="translate(12.367 28.6) rotate(-45.891)" fill="#02c0ff"/>
      <rect id="Rectangle_209" data-name="Rectangle 209" width="0.465" height="66.384" transform="translate(12.583 28.378) rotate(-45.891)" fill="#02c0ff"/>
      <rect id="Rectangle_210" data-name="Rectangle 210" width="0.466" height="66.383" transform="translate(12.798 28.155) rotate(-45.891)" fill="#02bfff"/>
      <rect id="Rectangle_211" data-name="Rectangle 211" width="0.465" height="66.384" transform="translate(13.014 27.932) rotate(-45.891)" fill="#02bfff"/>
      <rect id="Rectangle_212" data-name="Rectangle 212" width="0.465" height="66.384" transform="translate(13.23 27.71) rotate(-45.891)" fill="#02beff"/>
      <rect id="Rectangle_213" data-name="Rectangle 213" width="0.465" height="66.384" transform="translate(13.446 27.487) rotate(-45.891)" fill="#02beff"/>
      <rect id="Rectangle_214" data-name="Rectangle 214" width="0.465" height="66.383" transform="matrix(0.695, -0.719, 0.719, 0.695, 13.626, 27.301)" fill="#02beff"/>
      <rect id="Rectangle_215" data-name="Rectangle 215" width="0.465" height="66.384" transform="matrix(0.695, -0.719, 0.719, 0.695, 13.842, 27.079)" fill="#03bdff"/>
      <rect id="Rectangle_216" data-name="Rectangle 216" width="0.465" height="66.383" transform="translate(14.093 26.819) rotate(-45.891)" fill="#03bdff"/>
      <rect id="Rectangle_217" data-name="Rectangle 217" width="0.465" height="66.384" transform="translate(14.309 26.596) rotate(-45.891)" fill="#03bcff"/>
      <rect id="Rectangle_218" data-name="Rectangle 218" width="0.465" height="66.384" transform="translate(14.525 26.374) rotate(-45.891)" fill="#03bcff"/>
      <rect id="Rectangle_219" data-name="Rectangle 219" width="0.465" height="66.384" transform="translate(14.74 26.151) rotate(-45.891)" fill="#03bcff"/>
      <rect id="Rectangle_220" data-name="Rectangle 220" width="0.465" height="66.384" transform="matrix(0.695, -0.719, 0.719, 0.695, 14.92, 25.965)" fill="#03bbff"/>
      <rect id="Rectangle_221" data-name="Rectangle 221" width="0.466" height="66.383" transform="translate(15.172 25.706) rotate(-45.891)" fill="#03bbff"/>
      <rect id="Rectangle_222" data-name="Rectangle 222" width="0.465" height="66.384" transform="translate(15.388 25.483) rotate(-45.891)" fill="#03baff"/>
      <rect id="Rectangle_223" data-name="Rectangle 223" width="0.465" height="66.384" transform="translate(15.603 25.26) rotate(-45.891)" fill="#03baff"/>
      <rect id="Rectangle_224" data-name="Rectangle 224" width="0.465" height="66.384" transform="translate(15.819 25.038) rotate(-45.891)" fill="#03baff"/>
      <rect id="Rectangle_225" data-name="Rectangle 225" width="0.466" height="66.383" transform="translate(16.035 24.815) rotate(-45.891)" fill="#03b9ff"/>
      <rect id="Rectangle_226" data-name="Rectangle 226" width="0.465" height="66.384" transform="translate(16.251 24.593) rotate(-45.891)" fill="#03b9ff"/>
      <rect id="Rectangle_227" data-name="Rectangle 227" width="0.465" height="66.383" transform="translate(16.467 24.37) rotate(-45.891)" fill="#03b8ff"/>
      <rect id="Rectangle_228" data-name="Rectangle 228" width="0.465" height="66.384" transform="translate(16.682 24.147) rotate(-45.891)" fill="#03b8ff"/>
      <rect id="Rectangle_229" data-name="Rectangle 229" width="0.465" height="66.384" transform="translate(16.898 23.924) rotate(-45.891)" fill="#03b8ff"/>
      <rect id="Rectangle_230" data-name="Rectangle 230" width="0.465" height="66.384" transform="matrix(0.695, -0.719, 0.719, 0.695, 17.078, 23.739)" fill="#03b7ff"/>
      <rect id="Rectangle_231" data-name="Rectangle 231" width="0.465" height="66.384" transform="translate(17.329 23.479) rotate(-45.891)" fill="#03b7ff"/>
      <rect id="Rectangle_232" data-name="Rectangle 232" width="0.465" height="66.384" transform="translate(17.545 23.256) rotate(-45.891)" fill="#03b6ff"/>
      <rect id="Rectangle_233" data-name="Rectangle 233" width="0.465" height="66.384" transform="translate(17.761 23.033) rotate(-45.891)" fill="#04b6ff"/>
      <rect id="Rectangle_234" data-name="Rectangle 234" width="0.465" height="66.384" transform="translate(17.977 22.811) rotate(-45.891)" fill="#04b5ff"/>
      <rect id="Rectangle_235" data-name="Rectangle 235" width="0.465" height="66.384" transform="translate(18.193 22.588) rotate(-45.891)" fill="#04b5ff"/>
      <rect id="Rectangle_236" data-name="Rectangle 236" width="0.465" height="66.384" transform="matrix(0.695, -0.719, 0.719, 0.695, 18.373, 22.403)" fill="#04b5ff"/>
      <rect id="Rectangle_237" data-name="Rectangle 237" width="0.465" height="66.384" transform="translate(18.624 22.143) rotate(-45.891)" fill="#04b4ff"/>
      <rect id="Rectangle_238" data-name="Rectangle 238" width="0.465" height="66.383" transform="translate(18.84 21.92) rotate(-45.891)" fill="#04b4ff"/>
      <rect id="Rectangle_239" data-name="Rectangle 239" width="0.465" height="66.384" transform="translate(19.056 21.698) rotate(-45.891)" fill="#04b3ff"/>
      <rect id="Rectangle_240" data-name="Rectangle 240" width="0.465" height="66.383" transform="translate(19.272 21.475) rotate(-45.891)" fill="#04b3ff"/>
      <rect id="Rectangle_241" data-name="Rectangle 241" width="0.465" height="66.384" transform="matrix(0.695, -0.719, 0.719, 0.695, 19.452, 21.289)" fill="#04b3ff"/>
      <rect id="Rectangle_242" data-name="Rectangle 242" width="0.465" height="66.384" transform="translate(19.703 21.03) rotate(-45.891)" fill="#04b2ff"/>
      <rect id="Rectangle_243" data-name="Rectangle 243" width="0.465" height="66.384" transform="translate(19.919 20.807) rotate(-45.891)" fill="#04b2ff"/>
      <rect id="Rectangle_244" data-name="Rectangle 244" width="0.465" height="66.384" transform="translate(20.135 20.584) rotate(-45.891)" fill="#04b1ff"/>
      <rect id="Rectangle_245" data-name="Rectangle 245" width="0.465" height="66.384" transform="translate(20.35 20.362) rotate(-45.891)" fill="#04b1ff"/>
      <rect id="Rectangle_246" data-name="Rectangle 246" width="0.465" height="66.384" transform="translate(20.566 20.139) rotate(-45.891)" fill="#04b1ff"/>
      <rect id="Rectangle_247" data-name="Rectangle 247" width="0.466" height="66.383" transform="translate(20.782 19.917) rotate(-45.891)" fill="#04b0ff"/>
      <rect id="Rectangle_248" data-name="Rectangle 248" width="0.465" height="66.384" transform="translate(20.998 19.693) rotate(-45.891)" fill="#04b0ff"/>
      <rect id="Rectangle_249" data-name="Rectangle 249" width="0.465" height="66.384" transform="translate(21.214 19.471) rotate(-45.891)" fill="#04afff"/>
      <rect id="Rectangle_250" data-name="Rectangle 250" width="0.465" height="66.384" transform="translate(21.429 19.248) rotate(-45.891)" fill="#04afff"/>
      <rect id="Rectangle_251" data-name="Rectangle 251" width="0.465" height="66.383" transform="matrix(0.695, -0.719, 0.719, 0.695, 21.61, 19.062)" fill="#05afff"/>
      <rect id="Rectangle_252" data-name="Rectangle 252" width="0.465" height="66.384" transform="matrix(0.695, -0.719, 0.719, 0.695, 21.825, 18.84)" fill="#05aeff"/>
      <rect id="Rectangle_253" data-name="Rectangle 253" width="0.465" height="66.384" transform="translate(22.077 18.58) rotate(-45.891)" fill="#05aeff"/>
      <rect id="Rectangle_254" data-name="Rectangle 254" width="0.465" height="66.384" transform="translate(22.292 18.357) rotate(-45.891)" fill="#05adff"/>
      <rect id="Rectangle_255" data-name="Rectangle 255" width="0.465" height="66.384" transform="translate(22.508 18.135) rotate(-45.891)" fill="#05adff"/>
      <rect id="Rectangle_256" data-name="Rectangle 256" width="0.465" height="66.384" transform="translate(22.724 17.912) rotate(-45.891)" fill="#05adff"/>
      <rect id="Rectangle_257" data-name="Rectangle 257" width="0.465" height="66.384" transform="matrix(0.695, -0.719, 0.719, 0.695, 22.904, 17.726)" fill="#05acff"/>
      <rect id="Rectangle_258" data-name="Rectangle 258" width="0.465" height="66.384" transform="translate(23.155 17.467) rotate(-45.891)" fill="#05acff"/>
      <rect id="Rectangle_259" data-name="Rectangle 259" width="0.465" height="66.384" transform="translate(23.371 17.244) rotate(-45.891)" fill="#05abff"/>
      <rect id="Rectangle_260" data-name="Rectangle 260" width="0.465" height="66.384" transform="translate(23.587 17.021) rotate(-45.891)" fill="#05abff"/>
      <rect id="Rectangle_261" data-name="Rectangle 261" width="0.465" height="66.384" transform="translate(23.803 16.799) rotate(-45.891)" fill="#05aaff"/>
      <rect id="Rectangle_262" data-name="Rectangle 262" width="0.465" height="66.383" transform="translate(24.019 16.576) rotate(-45.891)" fill="#05aaff"/>
      <rect id="Rectangle_263" data-name="Rectangle 263" width="0.465" height="66.384" transform="translate(24.234 16.354) rotate(-45.891)" fill="#05aaff"/>
      <rect id="Rectangle_264" data-name="Rectangle 264" width="0.465" height="66.383" transform="translate(24.45 16.131) rotate(-45.891)" fill="#05a9ff"/>
      <rect id="Rectangle_265" data-name="Rectangle 265" width="0.465" height="66.384" transform="translate(24.666 15.908) rotate(-45.891)" fill="#05a9ff"/>
      <rect id="Rectangle_266" data-name="Rectangle 266" width="0.465" height="66.384" transform="translate(24.882 15.685) rotate(-45.891)" fill="#05a8ff"/>
      <rect id="Rectangle_267" data-name="Rectangle 267" width="0.465" height="66.384" transform="matrix(0.695, -0.719, 0.719, 0.695, 25.062, 15.5)" fill="#05a8ff"/>
      <rect id="Rectangle_268" data-name="Rectangle 268" width="0.465" height="66.384" transform="translate(25.313 15.24) rotate(-45.891)" fill="#05a8ff"/>
      <rect id="Rectangle_269" data-name="Rectangle 269" width="0.465" height="66.384" transform="translate(25.529 15.017) rotate(-45.891)" fill="#05a7ff"/>
      <rect id="Rectangle_270" data-name="Rectangle 270" width="0.465" height="66.384" transform="translate(25.745 14.795) rotate(-45.891)" fill="#06a7ff"/>
      <rect id="Rectangle_271" data-name="Rectangle 271" width="0.465" height="66.384" transform="translate(25.96 14.572) rotate(-45.891)" fill="#06a6ff"/>
      <rect id="Rectangle_272" data-name="Rectangle 272" width="0.465" height="66.384" transform="translate(26.176 14.349) rotate(-45.891)" fill="#06a6ff"/>
      <rect id="Rectangle_273" data-name="Rectangle 273" width="0.465" height="66.383" transform="matrix(0.695, -0.719, 0.719, 0.695, 26.356, 14.164)" fill="#06a6ff"/>
      <rect id="Rectangle_274" data-name="Rectangle 274" width="0.465" height="66.384" transform="translate(26.608 13.904) rotate(-45.891)" fill="#06a5ff"/>
      <rect id="Rectangle_275" data-name="Rectangle 275" width="0.465" height="66.383" transform="translate(26.824 13.681) rotate(-45.891)" fill="#06a5ff"/>
      <rect id="Rectangle_276" data-name="Rectangle 276" width="0.465" height="66.384" transform="translate(27.039 13.459) rotate(-45.891)" fill="#06a4ff"/>
      <rect id="Rectangle_277" data-name="Rectangle 277" width="0.465" height="66.384" transform="translate(27.255 13.236) rotate(-45.891)" fill="#06a4ff"/>
      <rect id="Rectangle_278" data-name="Rectangle 278" width="0.465" height="66.384" transform="matrix(0.695, -0.719, 0.719, 0.695, 27.435, 13.05)" fill="#06a4ff"/>
      <rect id="Rectangle_279" data-name="Rectangle 279" width="0.465" height="66.384" transform="translate(27.686 12.791) rotate(-45.891)" fill="#06a3ff"/>
      <rect id="Rectangle_280" data-name="Rectangle 280" width="0.465" height="66.384" transform="translate(27.902 12.568) rotate(-45.891)" fill="#06a3ff"/>
      <rect id="Rectangle_281" data-name="Rectangle 281" width="0.465" height="66.384" transform="translate(28.118 12.345) rotate(-45.891)" fill="#06a2ff"/>
      <rect id="Rectangle_282" data-name="Rectangle 282" width="0.465" height="66.384" transform="translate(28.334 12.123) rotate(-45.891)" fill="#06a2ff"/>
      <rect id="Rectangle_283" data-name="Rectangle 283" width="0.465" height="66.384" transform="translate(28.55 11.9) rotate(-45.891)" fill="#06a2ff"/>
      <rect id="Rectangle_284" data-name="Rectangle 284" width="0.466" height="66.383" transform="translate(28.765 11.678) rotate(-45.891)" fill="#06a1ff"/>
      <rect id="Rectangle_285" data-name="Rectangle 285" width="0.465" height="66.384" transform="translate(28.981 11.455) rotate(-45.891)" fill="#06a1ff"/>
      <rect id="Rectangle_286" data-name="Rectangle 286" width="0.465" height="66.383" transform="translate(29.197 11.232) rotate(-45.891)" fill="#06a0ff"/>
      <rect id="Rectangle_287" data-name="Rectangle 287" width="0.465" height="66.384" transform="translate(29.413 11.009) rotate(-45.891)" fill="#06a0ff"/>
      <rect id="Rectangle_288" data-name="Rectangle 288" width="0.465" height="66.384" transform="matrix(0.695, -0.719, 0.719, 0.695, 29.593, 10.823)" fill="#079fff"/>
      <rect id="Rectangle_289" data-name="Rectangle 289" width="0.465" height="66.384" transform="matrix(0.695, -0.719, 0.719, 0.695, 29.809, 10.601)" fill="#079fff"/>
      <rect id="Rectangle_290" data-name="Rectangle 290" width="0.465" height="66.384" transform="translate(30.06 10.341) rotate(-45.891)" fill="#079fff"/>
      <rect id="Rectangle_291" data-name="Rectangle 291" width="0.465" height="66.384" transform="translate(30.276 10.119) rotate(-45.891)" fill="#079eff"/>
      <rect id="Rectangle_292" data-name="Rectangle 292" width="0.465" height="66.384" transform="translate(30.492 9.896) rotate(-45.891)" fill="#079eff"/>
      <rect id="Rectangle_293" data-name="Rectangle 293" width="0.465" height="66.384" transform="translate(30.707 9.673) rotate(-45.891)" fill="#079dff"/>
      <rect id="Rectangle_294" data-name="Rectangle 294" width="0.465" height="66.384" transform="matrix(0.695, -0.719, 0.719, 0.695, 30.887, 9.488)" fill="#079dff"/>
      <rect id="Rectangle_295" data-name="Rectangle 295" width="0.466" height="66.383" transform="translate(31.139 9.228) rotate(-45.891)" fill="#079dff"/>
      <rect id="Rectangle_296" data-name="Rectangle 296" width="0.465" height="66.384" transform="translate(31.355 9.005) rotate(-45.891)" fill="#079cff"/>
      <rect id="Rectangle_297" data-name="Rectangle 297" width="0.465" height="66.383" transform="translate(31.571 8.782) rotate(-45.891)" fill="#079cff"/>
      <rect id="Rectangle_298" data-name="Rectangle 298" width="0.465" height="66.384" transform="translate(31.786 8.56) rotate(-45.891)" fill="#079bff"/>
      <rect id="Rectangle_299" data-name="Rectangle 299" width="0.465" height="66.383" transform="translate(32.002 8.337) rotate(-45.891)" fill="#079bff"/>
      <rect id="Rectangle_300" data-name="Rectangle 300" width="0.465" height="66.384" transform="translate(32.218 8.115) rotate(-45.891)" fill="#079bff"/>
      <rect id="Rectangle_301" data-name="Rectangle 301" width="0.465" height="66.384" transform="translate(32.434 7.892) rotate(-45.891)" fill="#079aff"/>
      <rect id="Rectangle_302" data-name="Rectangle 302" width="0.465" height="66.384" transform="translate(32.649 7.669) rotate(-45.891)" fill="#079aff"/>
      <rect id="Rectangle_303" data-name="Rectangle 303" width="0.465" height="66.384" transform="translate(32.865 7.446) rotate(-45.891)" fill="#0799ff"/>
      <rect id="Rectangle_304" data-name="Rectangle 304" width="0.465" height="66.384" transform="matrix(0.695, -0.719, 0.719, 0.695, 33.045, 7.261)" fill="#0799ff"/>
      <rect id="Rectangle_305" data-name="Rectangle 305" width="0.465" height="66.384" transform="translate(33.296 7.001) rotate(-45.891)" fill="#0799ff"/>
      <rect id="Rectangle_306" data-name="Rectangle 306" width="0.465" height="66.384" transform="translate(33.512 6.779) rotate(-45.891)" fill="#0898ff"/>
      <rect id="Rectangle_307" data-name="Rectangle 307" width="0.465" height="66.384" transform="translate(33.728 6.556) rotate(-45.891)" fill="#0898ff"/>
      <rect id="Rectangle_308" data-name="Rectangle 308" width="0.465" height="66.384" transform="translate(33.944 6.333) rotate(-45.891)" fill="#0897ff"/>
      <rect id="Rectangle_309" data-name="Rectangle 309" width="0.465" height="66.384" transform="matrix(0.695, -0.719, 0.719, 0.695, 34.124, 6.147)" fill="#0897ff"/>
      <rect id="Rectangle_310" data-name="Rectangle 310" width="0.465" height="66.383" transform="matrix(0.695, -0.719, 0.719, 0.695, 34.34, 5.925)" fill="#0896ff"/>
      <rect id="Rectangle_311" data-name="Rectangle 311" width="0.465" height="66.384" transform="translate(34.591 5.665) rotate(-45.891)" fill="#0896ff"/>
      <rect id="Rectangle_312" data-name="Rectangle 312" width="0.465" height="66.383" transform="translate(34.807 5.442) rotate(-45.891)" fill="#0896ff"/>
      <rect id="Rectangle_313" data-name="Rectangle 313" width="0.465" height="66.384" transform="translate(35.023 5.22) rotate(-45.891)" fill="#0895ff"/>
      <rect id="Rectangle_314" data-name="Rectangle 314" width="0.465" height="66.384" transform="translate(35.238 4.997) rotate(-45.891)" fill="#0895ff"/>
      <rect id="Rectangle_315" data-name="Rectangle 315" width="0.465" height="66.384" transform="matrix(0.695, -0.719, 0.719, 0.695, 35.419, 4.812)" fill="#0894ff"/>
      <rect id="Rectangle_316" data-name="Rectangle 316" width="0.465" height="66.384" transform="translate(35.67 4.552) rotate(-45.891)" fill="#0894ff"/>
      <rect id="Rectangle_317" data-name="Rectangle 317" width="0.465" height="66.384" transform="translate(35.886 4.329) rotate(-45.891)" fill="#0894ff"/>
      <rect id="Rectangle_318" data-name="Rectangle 318" width="0.465" height="66.384" transform="translate(36.102 4.106) rotate(-45.891)" fill="#0893ff"/>
      <rect id="Rectangle_319" data-name="Rectangle 319" width="0.465" height="66.384" transform="translate(36.317 3.884) rotate(-45.891)" fill="#0893ff"/>
      <rect id="Rectangle_320" data-name="Rectangle 320" width="0.465" height="66.384" transform="matrix(0.695, -0.719, 0.719, 0.695, 36.497, 3.698)" fill="#0892ff"/>
      <rect id="Rectangle_321" data-name="Rectangle 321" width="0.465" height="66.383" transform="translate(36.749 3.439) rotate(-45.891)" fill="#0892ff"/>
      <rect id="Rectangle_322" data-name="Rectangle 322" width="0.465" height="66.384" transform="translate(36.965 3.216) rotate(-45.891)" fill="#0892ff"/>
      <rect id="Rectangle_323" data-name="Rectangle 323" width="0.465" height="66.383" transform="translate(37.181 2.993) rotate(-45.891)" fill="#0891ff"/>
      <rect id="Rectangle_324" data-name="Rectangle 324" width="0.465" height="66.384" transform="translate(37.396 2.77) rotate(-45.891)" fill="#0991ff"/>
      <rect id="Rectangle_325" data-name="Rectangle 325" width="0.465" height="66.384" transform="matrix(0.695, -0.719, 0.719, 0.695, 37.576, 2.585)" fill="#0990ff"/>
      <rect id="Rectangle_326" data-name="Rectangle 326" width="0.465" height="66.384" transform="translate(37.828 2.325) rotate(-45.891)" fill="#0990ff"/>
      <rect id="Rectangle_327" data-name="Rectangle 327" width="0.465" height="66.384" transform="translate(38.044 2.102) rotate(-45.891)" fill="#0990ff"/>
      <rect id="Rectangle_328" data-name="Rectangle 328" width="0.465" height="66.384" transform="translate(38.259 1.88) rotate(-45.891)" fill="#098fff"/>
      <rect id="Rectangle_329" data-name="Rectangle 329" width="0.465" height="66.384" transform="translate(38.475 1.657) rotate(-45.891)" fill="#098fff"/>
      <rect id="Rectangle_330" data-name="Rectangle 330" width="0.465" height="66.384" transform="translate(38.691 1.434) rotate(-45.891)" fill="#098eff"/>
      <rect id="Rectangle_331" data-name="Rectangle 331" width="0.465" height="66.384" transform="matrix(0.695, -0.719, 0.719, 0.695, 38.871, 1.249)" fill="#098eff"/>
      <rect id="Rectangle_332" data-name="Rectangle 332" width="0.465" height="66.384" transform="translate(39.122 0.989) rotate(-45.891)" fill="#098eff"/>
      <rect id="Rectangle_333" data-name="Rectangle 333" width="0.465" height="66.384" transform="translate(39.338 0.766) rotate(-45.891)" fill="#098dff"/>
      <rect id="Rectangle_334" data-name="Rectangle 334" width="0.465" height="66.384" transform="translate(39.554 0.543) rotate(-45.891)" fill="#098dff"/>
      <rect id="Rectangle_335" data-name="Rectangle 335" width="0.465" height="66.384" transform="translate(39.77 0.321) rotate(-45.891)" fill="#098cff"/>
      <path id="Path_7" data-name="Path 7" d="M39.973.111l-.037.038,47.674,46.2.036-.039Z" fill="#098cff" fill-rule="evenodd"/>
    </g>
    <g id="Group_7-2" data-name="Group 7" transform="translate(1284.033 280.96)" clip-path="url(#clip-path-2)">
      <rect id="Rectangle_336" data-name="Rectangle 336" width="81.376" height="65.748" transform="translate(27.828 72.997) rotate(-78.463)" fill="url(#linear-gradient)"/>
    </g>
    <path id="Path_10" data-name="Path 10" d="M52.757,32.614l.384.222,5.632,3.252,2.139-1.235L54.9,31.379Z" transform="translate(1284.033 280.96)" fill="#ff7a00" fill-rule="evenodd"/>
    <path id="Path_11" data-name="Path 11" d="M52.757,64.266l.384.222,5.632,3.252L60.912,66.5l-6.017-3.474Z" transform="translate(1284.033 280.96)" fill="#0892ff" fill-rule="evenodd"/>
  </g>
</svg>
