<svg width="21" height="20" viewBox="0 0 21 20" fill="none" xmlns="http://www.w3.org/2000/svg">
<path d="M10.3753 18.0416C10.117 18.0416 9.86699 18.0083 9.65866 17.9333C6.47533 16.8416 1.41699 12.9666 1.41699 7.24158C1.41699 4.32492 3.77533 1.95825 6.67533 1.95825C8.08366 1.95825 9.40033 2.50825 10.3753 3.49159C11.3503 2.50825 12.667 1.95825 14.0753 1.95825C16.9753 1.95825 19.3337 4.33325 19.3337 7.24158C19.3337 12.9749 14.2753 16.8416 11.092 17.9333C10.8837 18.0083 10.6337 18.0416 10.3753 18.0416ZM6.67533 3.20825C4.46699 3.20825 2.66699 5.01658 2.66699 7.24158C2.66699 12.9333 8.14199 16.0999 10.067 16.7583C10.217 16.8083 10.542 16.8083 10.692 16.7583C12.6087 16.0999 18.092 12.9416 18.092 7.24158C18.092 5.01658 16.292 3.20825 14.0837 3.20825C12.817 3.20825 11.642 3.79992 10.8837 4.82492C10.6503 5.14159 10.117 5.14159 9.88366 4.82492C9.10866 3.79159 7.94199 3.20825 6.67533 3.20825Z" fill="#71717A"/>
</svg>
