<svg width="21" height="20" viewBox="0 0 21 20" fill="none" xmlns="http://www.w3.org/2000/svg">
<path d="M2.6487 15.8417L2.63203 15.8583C2.40703 15.3667 2.26536 14.8083 2.20703 14.1917C2.26536 14.8 2.4237 15.35 2.6487 15.8417Z" fill="#18181B"/>
<path d="M7.99701 8.65002C9.09237 8.65002 9.98034 7.76205 9.98034 6.66668C9.98034 5.57132 9.09237 4.68335 7.99701 4.68335C6.90164 4.68335 6.01367 5.57132 6.01367 6.66668C6.01367 7.76205 6.90164 8.65002 7.99701 8.65002Z" fill="#18181B"/>
<path d="M13.9891 1.66663H7.00573C3.9724 1.66663 2.16406 3.47496 2.16406 6.50829V13.4916C2.16406 14.4 2.3224 15.1916 2.63073 15.8583C3.3474 17.4416 4.88073 18.3333 7.00573 18.3333H13.9891C17.0224 18.3333 18.8307 16.525 18.8307 13.4916V11.5833V6.50829C18.8307 3.47496 17.0224 1.66663 13.9891 1.66663ZM17.4724 10.4166C16.8224 9.85829 15.7724 9.85829 15.1224 10.4166L11.6557 13.3916C11.0057 13.95 9.95573 13.95 9.30573 13.3916L9.0224 13.1583C8.43073 12.6416 7.48906 12.5916 6.8224 13.0416L3.70573 15.1333C3.5224 14.6666 3.41406 14.125 3.41406 13.4916V6.50829C3.41406 4.15829 4.65573 2.91663 7.00573 2.91663H13.9891C16.3391 2.91663 17.5807 4.15829 17.5807 6.50829V10.5083L17.4724 10.4166Z" fill="#18181B"/>
</svg>
