<svg width="56" height="55" viewBox="0 0 56 55" fill="none" xmlns="http://www.w3.org/2000/svg">
<g filter="url(#filter0_d_9018_5459)">
<rect x="4" y="2" width="48" height="48" rx="24" fill="#F7F7F7" shape-rendering="crispEdges"/>
<rect x="4.5" y="2.5" width="47" height="47" rx="23.5" stroke="#E4E4E7" shape-rendering="crispEdges"/>
<path d="M18.5798 33.0098L18.5598 33.0298C18.2898 32.4398 18.1198 31.7698 18.0498 31.0298C18.1198 31.7598 18.3098 32.4198 18.5798 33.0098Z" fill="#18181B"/>
<path d="M25.0001 24.3801C26.3146 24.3801 27.3801 23.3146 27.3801 22.0001C27.3801 20.6857 26.3146 19.6201 25.0001 19.6201C23.6857 19.6201 22.6201 20.6857 22.6201 22.0001C22.6201 23.3146 23.6857 24.3801 25.0001 24.3801Z" fill="#18181B"/>
<path d="M32.19 16H23.81C20.17 16 18 18.17 18 21.81V30.19C18 31.28 18.19 32.23 18.56 33.03C19.42 34.93 21.26 36 23.81 36H32.19C35.83 36 38 33.83 38 30.19V27.9V21.81C38 18.17 35.83 16 32.19 16ZM36.37 26.5C35.59 25.83 34.33 25.83 33.55 26.5L29.39 30.07C28.61 30.74 27.35 30.74 26.57 30.07L26.23 29.79C25.52 29.17 24.39 29.11 23.59 29.65L19.85 32.16C19.63 31.6 19.5 30.95 19.5 30.19V21.81C19.5 18.99 20.99 17.5 23.81 17.5H32.19C35.01 17.5 36.5 18.99 36.5 21.81V26.61L36.37 26.5Z" fill="#18181B"/>
</g>
<defs>
<filter id="filter0_d_9018_5459" x="0.8" y="0.4" width="54.4" height="54.4" filterUnits="userSpaceOnUse" color-interpolation-filters="sRGB">
<feFlood flood-opacity="0" result="BackgroundImageFix"/>
<feColorMatrix in="SourceAlpha" type="matrix" values="0 0 0 0 0 0 0 0 0 0 0 0 0 0 0 0 0 0 127 0" result="hardAlpha"/>
<feOffset dy="1.6"/>
<feGaussianBlur stdDeviation="1.6"/>
<feComposite in2="hardAlpha" operator="out"/>
<feColorMatrix type="matrix" values="0 0 0 0 0 0 0 0 0 0 0 0 0 0 0 0 0 0 0.02 0"/>
<feBlend mode="normal" in2="BackgroundImageFix" result="effect1_dropShadow_9018_5459"/>
<feBlend mode="normal" in="SourceGraphic" in2="effect1_dropShadow_9018_5459" result="shape"/>
</filter>
</defs>
</svg>
