<svg width="21" height="20" viewBox="0 0 21 20" fill="none" xmlns="http://www.w3.org/2000/svg">
<g id="vuesax/outline/user-square">
<g id="user-square">
<g id="Group 14437">
<path id="Vector" d="M12.8998 18.6H8.09982C7.04382 18.6 6.16382 18.496 5.41982 18.272C5.14782 18.192 4.97182 17.928 4.98782 17.648C5.18782 15.256 7.61182 13.376 10.4998 13.376C13.3878 13.376 15.8038 15.248 16.0118 17.648C16.0358 17.936 15.8598 18.192 15.5798 18.272C14.8358 18.496 13.9558 18.6 12.8998 18.6ZM6.27582 17.248C6.80382 17.352 7.40382 17.4 8.09982 17.4H12.8998C13.5958 17.4 14.1958 17.352 14.7238 17.248C14.2998 15.712 12.5478 14.576 10.4998 14.576C8.45182 14.576 6.69982 15.712 6.27582 17.248Z" fill="#71717A"/>
<path id="Vector_2" d="M12.9 2H8.1C4.1 2 2.5 3.6 2.5 7.6V12.4C2.5 15.424 3.412 17.08 5.588 17.696C5.764 15.616 7.9 13.976 10.5 13.976C13.1 13.976 15.236 15.616 15.412 17.696C17.588 17.08 18.5 15.424 18.5 12.4V7.6C18.5 3.6 16.9 2 12.9 2ZM10.5 11.736C8.916 11.736 7.636 10.448 7.636 8.86401C7.636 7.28001 8.916 6 10.5 6C12.084 6 13.364 7.28001 13.364 8.86401C13.364 10.448 12.084 11.736 10.5 11.736Z" stroke="#71717A" stroke-width="1.2" stroke-linecap="round" stroke-linejoin="round"/>
<path id="Vector_3" d="M10.4996 12.3359C8.58765 12.3359 7.03564 10.7759 7.03564 8.86392C7.03564 6.95192 8.58765 5.3999 10.4996 5.3999C12.4116 5.3999 13.9636 6.95192 13.9636 8.86392C13.9636 10.7759 12.4116 12.3359 10.4996 12.3359ZM10.4996 6.5999C9.25165 6.5999 8.23564 7.61592 8.23564 8.86392C8.23564 10.1199 9.25165 11.1359 10.4996 11.1359C11.7476 11.1359 12.7636 10.1199 12.7636 8.86392C12.7636 7.61592 11.7476 6.5999 10.4996 6.5999Z" fill="#71717A"/>
</g>
</g>
</g>
</svg>
