<svg width="17" height="16" viewBox="0 0 17 16" fill="none" xmlns="http://www.w3.org/2000/svg">
<g id="vuesax/outline/people">
<g id="people">
<g id="Group 14011">
<path id="Vector" d="M12.2987 5.40604C12.2797 5.40604 12.267 5.40604 12.248 5.40604H12.2164C11.0191 5.36803 10.126 4.44319 10.126 3.30299C10.126 2.13744 11.0761 1.1936 12.2354 1.1936C13.3946 1.1936 14.3447 2.14378 14.3447 3.30299C14.3384 4.44953 13.4452 5.37436 12.305 5.41237C12.305 5.40603 12.305 5.40604 12.2987 5.40604ZM12.2354 2.13744C11.5956 2.13744 11.0761 2.65687 11.0761 3.29665C11.0761 3.92377 11.5639 4.43053 12.191 4.45586C12.1974 4.44953 12.248 4.44953 12.305 4.45586C12.9195 4.42419 13.3946 3.91743 13.4009 3.29665C13.4009 2.65687 12.8815 2.13744 12.2354 2.13744Z" fill="#18181B"/>
<path id="Vector_2" d="M12.3049 10.0745C12.0579 10.0745 11.8108 10.0555 11.5638 10.0112C11.3041 9.96684 11.133 9.7198 11.1774 9.46008C11.2217 9.20037 11.4687 9.02934 11.7285 9.07368C12.5076 9.2067 13.3311 9.06102 13.8822 8.69362C14.1799 8.49725 14.3383 8.2502 14.3383 8.00315C14.3383 7.75611 14.1736 7.5154 13.8822 7.31903C13.3311 6.95163 12.4949 6.80594 11.7095 6.94529C11.4497 6.99597 11.2027 6.8186 11.1584 6.55889C11.114 6.29918 11.285 6.05214 11.5448 6.0078C12.5773 5.8241 13.6478 6.02046 14.4079 6.52722C14.9654 6.90095 15.2884 7.43305 15.2884 8.00315C15.2884 8.56692 14.9717 9.10536 14.4079 9.48543C13.8315 9.86549 13.084 10.0745 12.3049 10.0745Z" fill="#18181B"/>
<path id="Vector_3" d="M4.67835 5.40596C4.67201 5.40596 4.66568 5.40596 4.66568 5.40596C3.52547 5.36795 2.63231 4.44311 2.62598 3.30291C2.62598 2.13736 3.57615 1.18719 4.73536 1.18719C5.89457 1.18719 6.84474 2.13737 6.84474 3.29658C6.84474 4.44312 5.95158 5.36795 4.81137 5.40596L4.67835 4.93087L4.72269 5.40596C4.71002 5.40596 4.69102 5.40596 4.67835 5.40596ZM4.74169 4.45579C4.7797 4.45579 4.81137 4.45578 4.84938 4.46212C5.41315 4.43678 5.90724 3.93002 5.90724 3.30291C5.90724 2.66313 5.38781 2.1437 4.74803 2.1437C4.10825 2.1437 3.58882 2.66313 3.58882 3.30291C3.58882 3.92369 4.07024 4.42411 4.68468 4.46212C4.69102 4.45578 4.71635 4.45579 4.74169 4.45579Z" fill="#18181B"/>
<path id="Vector_4" d="M4.67201 10.0745C3.89287 10.0745 3.14541 9.86549 2.56897 9.48543C2.01153 9.11169 1.68848 8.57325 1.68848 8.00315C1.68848 7.43938 2.01153 6.90095 2.56897 6.52722C3.32911 6.02046 4.39963 5.8241 5.43215 6.0078C5.69187 6.05214 5.8629 6.29918 5.81856 6.55889C5.77421 6.8186 5.52717 6.99597 5.26746 6.94529C4.48198 6.80594 3.65217 6.95163 3.09473 7.31903C2.79701 7.5154 2.63865 7.75611 2.63865 8.00315C2.63865 8.2502 2.80335 8.49725 3.09473 8.69362C3.64583 9.06102 4.46931 9.2067 5.24845 9.07368C5.50817 9.02934 5.75521 9.2067 5.79955 9.46008C5.84389 9.7198 5.67286 9.96684 5.41315 10.0112C5.1661 10.0555 4.91906 10.0745 4.67201 10.0745Z" fill="#18181B"/>
<path id="Vector_5" d="M8.49792 10.1379C8.47892 10.1379 8.46625 10.1379 8.44724 10.1379H8.41557C7.21836 10.0999 6.3252 9.17503 6.3252 8.03483C6.3252 6.86928 7.27537 5.92545 8.43458 5.92545C9.59379 5.92545 10.544 6.87562 10.544 8.03483C10.5376 9.18137 9.64446 10.1062 8.50425 10.1442C8.50425 10.1379 8.50426 10.1379 8.49792 10.1379ZM8.43458 6.86929C7.79479 6.86929 7.27537 7.38871 7.27537 8.0285C7.27537 8.65561 7.76312 9.16237 8.39024 9.18771C8.39657 9.18137 8.44724 9.18137 8.50425 9.18771C9.1187 9.15603 9.59379 8.64928 9.60012 8.0285C9.60012 7.39505 9.08069 6.86929 8.43458 6.86929Z" fill="#18181B"/>
<path id="Vector_6" d="M8.49769 14.8126C7.73755 14.8126 6.97741 14.6162 6.3883 14.2172C5.83087 13.8434 5.50781 13.3113 5.50781 12.7412C5.50781 12.1775 5.82454 11.6327 6.3883 11.259C7.57285 10.4735 9.42886 10.4735 10.6071 11.259C11.1645 11.6327 11.4876 12.1648 11.4876 12.7349C11.4876 13.2987 11.1708 13.8434 10.6071 14.2172C10.018 14.6099 9.25782 14.8126 8.49769 14.8126ZM6.91407 12.0571C6.61635 12.2535 6.45798 12.5005 6.45798 12.7476C6.45798 12.9946 6.62268 13.2353 6.91407 13.4317C7.76922 14.0081 9.21982 14.0081 10.075 13.4317C10.3727 13.2353 10.5311 12.9883 10.5311 12.7412C10.5311 12.4942 10.3664 12.2535 10.075 12.0571C9.22615 11.4807 7.77556 11.487 6.91407 12.0571Z" fill="#18181B"/>
</g>
</g>
</g>
</svg>
