<svg width="21" height="20" viewBox="0 0 21 20" fill="none" xmlns="http://www.w3.org/2000/svg">
<g id="vuesax/bold/user-square">
<g id="user-square">
<g id="Group">
<path id="Vector" d="M5.47963 17.3503L5.47967 17.3502L5.47046 17.3472C4.64342 17.0812 4.00898 16.603 3.57755 15.9447C3.14391 15.2831 2.9 14.4156 2.9 13.352V6.648C2.9 5.27155 3.30874 4.22094 4.01484 3.51484C4.72094 2.80874 5.77155 2.4 7.148 2.4H13.852C15.2285 2.4 16.2791 2.80874 16.9852 3.51484C17.6913 4.22094 18.1 5.27155 18.1 6.648V13.352C18.1 14.4156 17.8561 15.2831 17.4225 15.9447C16.991 16.603 16.3566 17.0812 15.5295 17.3472L15.5295 17.3471L15.5204 17.3503C15.044 17.5163 14.4822 17.6 13.852 17.6H7.148C6.51781 17.6 5.95603 17.5163 5.47963 17.3503ZM14.9194 16.7731L15.0752 17.0799L15.4018 16.9717C16.1553 16.722 16.7421 16.2863 17.1343 15.6578C17.5225 15.0358 17.7 14.2576 17.7 13.352V6.648C17.7 5.45274 17.3835 4.47377 16.7048 3.79516C16.0262 3.11654 15.0473 2.8 13.852 2.8H7.148C5.95274 2.8 4.97377 3.11654 4.29516 3.79516C3.61654 4.47377 3.3 5.45274 3.3 6.648V13.36C3.3 14.2663 3.47974 15.0462 3.86766 15.6678C4.25967 16.2959 4.84477 16.7307 5.59293 16.9726L5.65294 16.992H5.716H5.724H5.96893L6.08027 16.7738C6.78509 15.393 8.46485 14.376 10.5 14.376C12.5353 14.376 14.2225 15.401 14.9194 16.7731Z" fill="#18181B" stroke="#18181B" stroke-width="0.8"/>
<path id="Vector_2" d="M10.4997 6.80005C8.91574 6.80005 7.63574 8.08005 7.63574 9.66405C7.63574 11.248 8.91574 12.536 10.4997 12.536C12.0837 12.536 13.3637 11.248 13.3637 9.66405C13.3637 8.08005 12.0837 6.80005 10.4997 6.80005Z" fill="#18181B"/>
</g>
</g>
</g>
</svg>
