<svg width="34" height="34" viewBox="0 0 34 34" fill="none" xmlns="http://www.w3.org/2000/svg">
<g filter="url(#filter0_d_4732_1241)">
<circle cx="17" cy="16" r="15" fill="white"/>
<circle cx="17" cy="16" r="14.5" stroke="#E4E4E7"/>
</g>
<path d="M20.3333 16C20.3333 15.558 20.5088 15.1341 20.8214 14.8215C21.134 14.5089 21.5579 14.3333 21.9999 14.3333C22.4419 14.3333 22.8659 14.5089 23.1784 14.8215C23.491 15.1341 23.6666 15.558 23.6666 16C23.6666 16.442 23.491 16.866 23.1784 17.1785C22.8659 17.4911 22.4419 17.6667 21.9999 17.6667C21.5579 17.6667 21.134 17.4911 20.8214 17.1785C20.5088 16.866 20.3333 16.442 20.3333 16ZM15.3333 16C15.3333 15.558 15.5088 15.1341 15.8214 14.8215C16.134 14.5089 16.5579 14.3333 16.9999 14.3333C17.4419 14.3333 17.8659 14.5089 18.1784 14.8215C18.491 15.1341 18.6666 15.558 18.6666 16C18.6666 16.442 18.491 16.866 18.1784 17.1785C17.8659 17.4911 17.4419 17.6667 16.9999 17.6667C16.5579 17.6667 16.134 17.4911 15.8214 17.1785C15.5088 16.866 15.3333 16.442 15.3333 16ZM10.3333 16C10.3333 15.558 10.5088 15.1341 10.8214 14.8215C11.134 14.5089 11.5579 14.3333 11.9999 14.3333C12.4419 14.3333 12.8659 14.5089 13.1784 14.8215C13.491 15.1341 13.6666 15.558 13.6666 16C13.6666 16.442 13.491 16.866 13.1784 17.1785C12.8659 17.4911 12.4419 17.6667 11.9999 17.6667C11.5579 17.6667 11.134 17.4911 10.8214 17.1785C10.5088 16.866 10.3333 16.442 10.3333 16Z" fill="#18181B"/>
<defs>
<filter id="filter0_d_4732_1241" x="0" y="0" width="34" height="34" filterUnits="userSpaceOnUse" color-interpolation-filters="sRGB">
<feFlood flood-opacity="0" result="BackgroundImageFix"/>
<feColorMatrix in="SourceAlpha" type="matrix" values="0 0 0 0 0 0 0 0 0 0 0 0 0 0 0 0 0 0 127 0" result="hardAlpha"/>
<feOffset dy="1"/>
<feGaussianBlur stdDeviation="1"/>
<feComposite in2="hardAlpha" operator="out"/>
<feColorMatrix type="matrix" values="0 0 0 0 0 0 0 0 0 0 0 0 0 0 0 0 0 0 0.02 0"/>
<feBlend mode="normal" in2="BackgroundImageFix" result="effect1_dropShadow_4732_1241"/>
<feBlend mode="normal" in="SourceGraphic" in2="effect1_dropShadow_4732_1241" result="shape"/>
</filter>
</defs>
</svg>
