<svg width="44" height="44" viewBox="0 0 44 44" fill="none" xmlns="http://www.w3.org/2000/svg">
<g filter="url(#filter0_d_4796_10284)">
<rect x="2" y="1" width="40" height="40" rx="20" fill="#F7F7F7" shape-rendering="crispEdges"/>
<rect x="2.5" y="1.5" width="39" height="39" rx="19.5" stroke="#E4E4E7" shape-rendering="crispEdges"/>
<path d="M18.667 29.5999C18.4337 29.5999 18.192 29.5416 17.9753 29.4249C17.5003 29.1749 17.2087 28.6749 17.2087 28.1416V26.9583C14.692 26.6999 13.042 24.8499 13.042 22.1999V17.1999C13.042 14.3333 14.967 12.4083 17.8337 12.4083H26.167C29.0337 12.4083 30.9587 14.3333 30.9587 17.1999V22.1999C30.9587 25.0665 29.0337 26.9915 26.167 26.9915H23.0253L19.4753 29.3583C19.2336 29.5166 18.9503 29.5999 18.667 29.5999ZM17.8337 13.6499C15.6837 13.6499 14.292 15.0416 14.292 17.1916V22.1916C14.292 24.3416 15.6837 25.7333 17.8337 25.7333C18.1753 25.7333 18.4587 26.0166 18.4587 26.3583V28.1333C18.4587 28.2416 18.5253 28.2916 18.567 28.3166C18.6087 28.3416 18.692 28.3666 18.7837 28.3083L22.492 25.8416C22.592 25.775 22.717 25.7333 22.842 25.7333H26.1753C28.3253 25.7333 29.717 24.3416 29.717 22.1916V17.1916C29.717 15.0416 28.3253 13.6499 26.1753 13.6499H17.8337Z" fill="#18181B"/>
<path d="M21.9995 21.0917C21.6579 21.0917 21.3745 20.8083 21.3745 20.4667V20.2917C21.3745 19.325 22.0828 18.85 22.3495 18.6667C22.6578 18.4584 22.7578 18.3167 22.7578 18.1C22.7578 17.6834 22.4162 17.3417 21.9995 17.3417C21.5829 17.3417 21.2412 17.6834 21.2412 18.1C21.2412 18.4417 20.9579 18.725 20.6162 18.725C20.2745 18.725 19.9912 18.4417 19.9912 18.1C19.9912 16.9917 20.8912 16.0917 21.9995 16.0917C23.1079 16.0917 24.0078 16.9917 24.0078 18.1C24.0078 19.05 23.3079 19.525 23.0495 19.7C22.7245 19.9167 22.6245 20.0584 22.6245 20.2917V20.4667C22.6245 20.8167 22.3412 21.0917 21.9995 21.0917Z" fill="#18181B"/>
<path d="M22 23.1666C21.65 23.1666 21.375 22.8833 21.375 22.5416C21.375 22.2 21.6583 21.9166 22 21.9166C22.3417 21.9166 22.625 22.2 22.625 22.5416C22.625 22.8833 22.35 23.1666 22 23.1666Z" fill="#18181B"/>
</g>
<defs>
<filter id="filter0_d_4796_10284" x="0" y="0" width="44" height="44" filterUnits="userSpaceOnUse" color-interpolation-filters="sRGB">
<feFlood flood-opacity="0" result="BackgroundImageFix"/>
<feColorMatrix in="SourceAlpha" type="matrix" values="0 0 0 0 0 0 0 0 0 0 0 0 0 0 0 0 0 0 127 0" result="hardAlpha"/>
<feOffset dy="1"/>
<feGaussianBlur stdDeviation="1"/>
<feComposite in2="hardAlpha" operator="out"/>
<feColorMatrix type="matrix" values="0 0 0 0 0 0 0 0 0 0 0 0 0 0 0 0 0 0 0.02 0"/>
<feBlend mode="normal" in2="BackgroundImageFix" result="effect1_dropShadow_4796_10284"/>
<feBlend mode="normal" in="SourceGraphic" in2="effect1_dropShadow_4796_10284" result="shape"/>
</filter>
</defs>
</svg>
