<svg width="17" height="16" viewBox="0 0 17 16" fill="none" xmlns="http://www.w3.org/2000/svg">
<g id="message">
<g id="Group 16763">
<path id="Vector" d="M5.85068 12.4675H5.53164C2.9793 12.4675 1.70312 11.8294 1.70312 8.639V5.44857C1.70312 2.89623 2.9793 1.62006 5.53164 1.62006H10.6363C13.1887 1.62006 14.4648 2.89623 14.4648 5.44857V8.639C14.4648 11.1913 13.1887 12.4675 10.6363 12.4675H10.3173C10.1195 12.4675 9.92805 12.5632 9.80681 12.7227L8.84969 13.9989C8.42855 14.5604 7.73942 14.5604 7.31828 13.9989L6.36115 12.7227C6.25906 12.5824 6.02297 12.4675 5.85068 12.4675Z" stroke="#18181B" stroke-width="0.957129" stroke-miterlimit="10" stroke-linecap="round" stroke-linejoin="round"/>
<path id="Vector_2" d="M10.6339 7.36284H10.6396" stroke="#18181B" stroke-width="1.27617" stroke-linecap="round" stroke-linejoin="round"/>
<path id="Vector_3" d="M8.08019 7.36284H8.08592" stroke="#18181B" stroke-width="1.27617" stroke-linecap="round" stroke-linejoin="round"/>
<path id="Vector_4" d="M5.52843 7.36284H5.53416" stroke="#18181B" stroke-width="1.27617" stroke-linecap="round" stroke-linejoin="round"/>
</g>
</g>
</svg>
