<svg width="44" height="44" viewBox="0 0 44 44" fill="none" xmlns="http://www.w3.org/2000/svg">
<g filter="url(#filter0_d_4762_2854)">
<rect x="2" y="1" width="40" height="40" rx="20" fill="#F7F7F7" shape-rendering="crispEdges"/>
<rect x="2.5" y="1.5" width="39" height="39" rx="19.5" stroke="#E4E4E7" shape-rendering="crispEdges"/>
<path d="M21.4974 30.0084C20.9224 30.0084 20.3807 29.7167 19.9974 29.2084L18.7474 27.5417C18.7224 27.5084 18.6224 27.4667 18.5807 27.4584H18.1641C14.6891 27.4584 12.5391 26.5167 12.5391 21.8334V17.6667C12.5391 13.9834 14.4807 12.0417 18.1641 12.0417H24.8307C28.5141 12.0417 30.4557 13.9834 30.4557 17.6667V21.8334C30.4557 25.5167 28.5141 27.4584 24.8307 27.4584H24.4141C24.3474 27.4584 24.2891 27.4917 24.2474 27.5417L22.9974 29.2084C22.6141 29.7167 22.0724 30.0084 21.4974 30.0084ZM18.1641 13.2917C15.1807 13.2917 13.7891 14.6834 13.7891 17.6667V21.8334C13.7891 25.6001 15.0807 26.2084 18.1641 26.2084H18.5807C19.0057 26.2084 19.4891 26.4501 19.7474 26.7917L20.9974 28.4584C21.2891 28.8417 21.7057 28.8417 21.9974 28.4584L23.2474 26.7917C23.5224 26.4251 23.9557 26.2084 24.4141 26.2084H24.8307C27.8141 26.2084 29.2057 24.8167 29.2057 21.8334V17.6667C29.2057 14.6834 27.8141 13.2917 24.8307 13.2917H18.1641Z" fill="#71717A"/>
<path d="M21.4974 21.0002C21.0307 21.0002 20.6641 20.6252 20.6641 20.1668C20.6641 19.7085 21.0391 19.3335 21.4974 19.3335C21.9557 19.3335 22.3307 19.7085 22.3307 20.1668C22.3307 20.6252 21.9641 21.0002 21.4974 21.0002Z" fill="#71717A"/>
<path d="M24.8314 21.0001C24.3647 21.0001 23.998 20.6251 23.998 20.1668C23.998 19.7084 24.373 19.3334 24.8314 19.3334C25.2897 19.3334 25.6647 19.7084 25.6647 20.1668C25.6647 20.6251 25.298 21.0001 24.8314 21.0001Z" fill="#71717A"/>
<path d="M18.1654 21.0002C17.6987 21.0002 17.332 20.6252 17.332 20.1668C17.332 19.7085 17.707 19.3335 18.1654 19.3335C18.6237 19.3335 18.9987 19.7085 18.9987 20.1668C18.9987 20.6252 18.632 21.0002 18.1654 21.0002Z" fill="#71717A"/>
</g>
<defs>
<filter id="filter0_d_4762_2854" x="0" y="0" width="44" height="44" filterUnits="userSpaceOnUse" color-interpolation-filters="sRGB">
<feFlood flood-opacity="0" result="BackgroundImageFix"/>
<feColorMatrix in="SourceAlpha" type="matrix" values="0 0 0 0 0 0 0 0 0 0 0 0 0 0 0 0 0 0 127 0" result="hardAlpha"/>
<feOffset dy="1"/>
<feGaussianBlur stdDeviation="1"/>
<feComposite in2="hardAlpha" operator="out"/>
<feColorMatrix type="matrix" values="0 0 0 0 0 0 0 0 0 0 0 0 0 0 0 0 0 0 0.02 0"/>
<feBlend mode="normal" in2="BackgroundImageFix" result="effect1_dropShadow_4762_2854"/>
<feBlend mode="normal" in="SourceGraphic" in2="effect1_dropShadow_4762_2854" result="shape"/>
</filter>
</defs>
</svg>
