<svg width="48" height="48" viewBox="0 0 48 48" fill="none" xmlns="http://www.w3.org/2000/svg">
<rect width="48" height="48" rx="24" fill="#34A853"/>
<path d="M29.333 24.0003C29.333 23.293 29.614 22.6148 30.1141 22.1147C30.6142 21.6146 31.2924 21.3336 31.9997 21.3336C32.7069 21.3336 33.3852 21.6146 33.8853 22.1147C34.3854 22.6148 34.6663 23.293 34.6663 24.0003C34.6663 24.7075 34.3854 25.3858 33.8853 25.8859C33.3852 26.386 32.7069 26.667 31.9997 26.667C31.2924 26.667 30.6142 26.386 30.1141 25.8859C29.614 25.3858 29.333 24.7075 29.333 24.0003ZM21.333 24.0003C21.333 23.293 21.614 22.6148 22.1141 22.1147C22.6142 21.6146 23.2924 21.3336 23.9997 21.3336C24.7069 21.3336 25.3852 21.6146 25.8853 22.1147C26.3854 22.6148 26.6663 23.293 26.6663 24.0003C26.6663 24.7075 26.3854 25.3858 25.8853 25.8859C25.3852 26.386 24.7069 26.667 23.9997 26.667C23.2924 26.667 22.6142 26.386 22.1141 25.8859C21.614 25.3858 21.333 24.7075 21.333 24.0003ZM13.333 24.0003C13.333 23.293 13.614 22.6148 14.1141 22.1147C14.6142 21.6146 15.2924 21.3336 15.9997 21.3336C16.7069 21.3336 17.3852 21.6146 17.8853 22.1147C18.3854 22.6148 18.6663 23.293 18.6663 24.0003C18.6663 24.7075 18.3854 25.3858 17.8853 25.8859C17.3852 26.386 16.7069 26.667 15.9997 26.667C15.2924 26.667 14.6142 26.386 14.1141 25.8859C13.614 25.3858 13.333 24.7075 13.333 24.0003Z" fill="white"/>
</svg>
