<svg width="12" height="12" viewBox="0 0 12 12" fill="none" xmlns="http://www.w3.org/2000/svg">
<circle cx="6" cy="6" r="5.5" fill="#DC2626" stroke="white"/>
<path d="M2.48682 4.95998L2.96015 4.48665L3.66682 5.19665L4.37348 4.48665L4.84682 4.95998L4.13682 5.66665L4.84682 6.37331L4.37348 6.84665L3.66682 6.13665L2.96015 6.84665L2.48682 6.37331L3.19682 5.66665L2.48682 4.95998ZM7.00015 3.33331C7.35377 3.33331 7.69291 3.47379 7.94296 3.72384C8.19301 3.97389 8.33348 4.31302 8.33348 4.66665C8.33348 5.02027 8.19301 5.35941 7.94296 5.60946C7.69291 5.8595 7.35377 5.99998 7.00015 5.99998C6.64653 5.99998 6.30739 5.8595 6.05734 5.60946C5.80729 5.35941 5.66682 5.02027 5.66682 4.66665C5.66682 4.31302 5.80729 3.97389 6.05734 3.72384C6.30739 3.47379 6.64653 3.33331 7.00015 3.33331ZM7.00015 3.96665C6.8145 3.96665 6.63645 4.0404 6.50518 4.17167C6.3739 4.30295 6.30015 4.48099 6.30015 4.66665C6.30015 4.8523 6.3739 5.03035 6.50518 5.16162C6.63645 5.2929 6.8145 5.36665 7.00015 5.36665C7.38682 5.36665 7.70015 5.05331 7.70015 4.66665C7.70015 4.27998 7.38682 3.96665 7.00015 3.96665ZM7.00015 6.33331C7.89015 6.33331 9.66682 6.77665 9.66682 7.66665V8.66665H4.33348V7.66665C4.33348 6.77665 6.11015 6.33331 7.00015 6.33331ZM7.00015 6.96665C6.00015 6.96665 4.96682 7.45331 4.96682 7.66665V8.03331H9.03348V7.66665C9.03348 7.45331 7.99015 6.96665 7.00015 6.96665Z" fill="white"/>
</svg>
