<svg width="20" height="20" viewBox="0 0 20 20" fill="none" xmlns="http://www.w3.org/2000/svg">
<g id="vuesax/outline/notification">
<g id="notification">
<path id="Vector" d="M10.0143 16.3094C8.29075 16.3094 6.56722 16.0357 4.93246 15.4883C4.3111 15.2738 3.83769 14.8374 3.63057 14.2678C3.41605 13.6982 3.49002 13.0695 3.83029 12.5073L4.68096 11.0944C4.85849 10.7985 5.02122 10.2068 5.02122 9.85909V7.7213C5.02122 4.96955 7.26255 2.72821 10.0143 2.72821C12.766 2.72821 15.0073 4.96955 15.0073 7.7213L15.0073 9.85909C15.0073 10.1994 15.1701 10.7985 15.3476 11.1018L16.1909 12.5073C16.509 13.0399 16.5681 13.6834 16.3536 14.2678C16.1391 14.8522 15.6731 15.296 15.0887 15.4883C13.4613 16.0357 11.7378 16.3094 10.0143 16.3094ZM10.0143 3.83779C7.87651 3.83779 6.13079 5.57612 6.13079 7.7213L6.13079 9.85909C6.13079 10.3991 5.90888 11.198 5.63519 11.664L4.78452 13.0769C4.62178 13.3506 4.5774 13.639 4.67356 13.8831C4.76233 14.1347 4.98424 14.327 5.28752 14.4305C8.37952 15.4661 11.6564 15.4661 14.7484 14.4305C15.0147 14.3418 15.2219 14.142 15.318 13.8758C15.4142 13.6095 15.392 13.321 15.2441 13.0769L14.3934 11.664C14.1123 11.1832 13.8978 10.3917 13.8978 9.85169L13.8978 7.7213C13.8978 5.57612 12.1594 3.83779 10.0143 3.83779Z" fill="#18181B"/>
<path id="Vector_2" d="M11.39 4.03753C11.3382 4.03753 11.2865 4.03013 11.2347 4.01534C11.0202 3.95616 10.813 3.91178 10.6133 3.88219C9.98456 3.80082 9.378 3.8452 8.80842 4.01534C8.6013 4.08191 8.37938 4.01534 8.23884 3.86C8.09829 3.70466 8.05391 3.48274 8.13528 3.28302C8.43856 2.50632 9.17827 1.99591 10.0215 1.99591C10.8648 1.99591 11.6045 2.49892 11.9078 3.28302C11.9818 3.48274 11.9448 3.70466 11.8043 3.86C11.6933 3.97835 11.538 4.03753 11.39 4.03753Z" fill="#18181B"/>
<path id="Vector_3" d="M10.0142 17.9959C9.28184 17.9959 8.57172 17.7 8.05392 17.1822C7.53612 16.6644 7.24023 15.9543 7.24023 15.222H8.3498C8.3498 15.6584 8.52733 16.0875 8.83801 16.3981C9.14869 16.7088 9.57773 16.8863 10.0142 16.8863C10.9314 16.8863 11.6785 16.1392 11.6785 15.222L12.7881 15.222C12.7881 16.7532 11.5454 17.9959 10.0142 17.9959Z" fill="#18181B"/>
</g>
</g>
</svg>
