<svg width="12" height="12" viewBox="0 0 12 12" fill="none" xmlns="http://www.w3.org/2000/svg">
<circle cx="6" cy="6" r="5.5" fill="#F29126" stroke="white"/>
<g clip-path="url(#clip0_4710_3875)">
<path d="M5.49951 8.00002H6.16618V7.33335H5.49951V8.00002ZM5.83285 2.66669C5.39511 2.66669 4.96165 2.75291 4.55723 2.92042C4.15282 3.08794 3.78535 3.33347 3.47582 3.643C2.8507 4.26812 2.49951 5.11597 2.49951 6.00002C2.49951 6.88408 2.8507 7.73192 3.47582 8.35704C3.78535 8.66657 4.15282 8.9121 4.55723 9.07962C4.96165 9.24714 5.39511 9.33335 5.83285 9.33335C6.7169 9.33335 7.56475 8.98216 8.18987 8.35704C8.81499 7.73192 9.16618 6.88408 9.16618 6.00002C9.16618 5.56228 9.07996 5.12883 8.91244 4.72441C8.74493 4.31999 8.4994 3.95253 8.18987 3.643C7.88034 3.33347 7.51288 3.08794 7.10846 2.92042C6.70404 2.75291 6.27059 2.66669 5.83285 2.66669ZM5.83285 8.66669C4.36285 8.66669 3.16618 7.47002 3.16618 6.00002C3.16618 4.53002 4.36285 3.33335 5.83285 3.33335C7.30285 3.33335 8.49951 4.53002 8.49951 6.00002C8.49951 7.47002 7.30285 8.66669 5.83285 8.66669ZM5.83285 4.00002C5.47922 4.00002 5.14008 4.1405 4.89004 4.39054C4.63999 4.64059 4.49951 4.97973 4.49951 5.33335H5.16618C5.16618 5.15654 5.23642 4.98697 5.36144 4.86195C5.48647 4.73693 5.65603 4.66669 5.83285 4.66669C6.00966 4.66669 6.17923 4.73693 6.30425 4.86195C6.42927 4.98697 6.49951 5.15654 6.49951 5.33335C6.49951 6.00002 5.49951 5.91669 5.49951 7.00002H6.16618C6.16618 6.25002 7.16618 6.16669 7.16618 5.33335C7.16618 4.97973 7.0257 4.64059 6.77565 4.39054C6.52561 4.1405 6.18647 4.00002 5.83285 4.00002Z" fill="white"/>
</g>
<defs>
<clipPath id="clip0_4710_3875">
<rect width="8" height="8" fill="white" transform="translate(1.83301 2)"/>
</clipPath>
</defs>
</svg>
