<svg width="17" height="16" viewBox="0 0 17 16" fill="none" xmlns="http://www.w3.org/2000/svg">
<path d="M13.4183 2.00003L14.8301 3.4118L4.24184 14L2.83008 12.5883L13.4183 2.00003ZM5.30067 2.35297C6.47243 2.35297 7.41831 3.29885 7.41831 4.47062C7.41831 5.64238 6.47243 6.58827 5.30067 6.58827C4.1289 6.58827 3.18302 5.64238 3.18302 4.47062C3.18302 3.29885 4.1289 2.35297 5.30067 2.35297ZM12.3595 9.4118C13.5313 9.4118 14.4771 10.3577 14.4771 11.5294C14.4771 12.7012 13.5313 13.6471 12.3595 13.6471C11.1877 13.6471 10.2418 12.7012 10.2418 11.5294C10.2418 10.3577 11.1877 9.4118 12.3595 9.4118ZM5.30067 3.76474C4.91243 3.76474 4.59478 4.08238 4.59478 4.47062C4.59478 4.85885 4.91243 5.1765 5.30067 5.1765C5.6889 5.1765 6.00655 4.85885 6.00655 4.47062C6.00655 4.08238 5.6889 3.76474 5.30067 3.76474ZM12.3595 10.8236C11.9713 10.8236 11.6536 11.1412 11.6536 11.5294C11.6536 11.9177 11.9713 12.2353 12.3595 12.2353C12.7477 12.2353 13.0654 11.9177 13.0654 11.5294C13.0654 11.1412 12.7477 10.8236 12.3595 10.8236Z" fill="#18181B"/>
</svg>
