<svg width="16" height="16" viewBox="0 0 16 16" fill="none" xmlns="http://www.w3.org/2000/svg">
<path d="M12.9091 10.7271H5.27273V3.09076H12.9091M12.9091 1.99985H5.27273C4.9834 1.99985 4.70592 2.11478 4.50134 2.31937C4.29675 2.52395 4.18182 2.80143 4.18182 3.09076V10.7271C4.18182 11.0164 4.29675 11.2939 4.50134 11.4985C4.70592 11.7031 4.9834 11.818 5.27273 11.818H12.9091C13.1984 11.818 13.4759 11.7031 13.6805 11.4985C13.8851 11.2939 14 11.0164 14 10.7271V3.09076C14 2.80143 13.8851 2.52395 13.6805 2.31937C13.4759 2.11478 13.1984 1.99985 12.9091 1.99985ZM3.09091 4.18167H2V12.9089C2 13.1983 2.11493 13.4757 2.31952 13.6803C2.52411 13.8849 2.80158 13.9998 3.09091 13.9998H11.8182V12.9089H3.09091M10.16 7.06712L8.66 8.99803L7.59091 7.71076L6.09091 9.63621H12.0909L10.16 7.06712Z" fill="#18181B"/>
</svg>
