<svg width="20" height="20" viewBox="0 0 20 20" fill="none" xmlns="http://www.w3.org/2000/svg">
<path d="M10 18C5.58698 18 2 14.413 2 10C2 5.58698 5.58698 2 10 2C14.413 2 18 5.58698 18 10C18 14.413 14.413 18 10 18ZM10 3.11628C6.20465 3.11628 3.11628 6.20465 3.11628 10C3.11628 13.7953 6.20465 16.8837 10 16.8837C13.7953 16.8837 16.8837 13.7953 16.8837 10C16.8837 6.20465 13.7953 3.11628 10 3.11628Z" fill="#18181B"/>
<path d="M12.9765 10.5582H7.02298C6.71787 10.5582 6.46484 10.3052 6.46484 10C6.46484 9.69492 6.71787 9.44189 7.02298 9.44189H12.9765C13.2816 9.44189 13.5346 9.69492 13.5346 10C13.5346 10.3052 13.2816 10.5582 12.9765 10.5582Z" fill="#18181B"/>
<path d="M9.99955 13.5349C9.69443 13.5349 9.44141 13.2818 9.44141 12.9767V7.02323C9.44141 6.71811 9.69443 6.46509 9.99955 6.46509C10.3047 6.46509 10.5577 6.71811 10.5577 7.02323V12.9767C10.5577 13.2818 10.3047 13.5349 9.99955 13.5349Z" fill="#18181B"/>
</svg>
