<svg width="44" height="44" viewBox="0 0 44 44" fill="none" xmlns="http://www.w3.org/2000/svg">
<g filter="url(#filter0_d_4796_9065)">
<rect x="2" y="1" width="40" height="40" rx="6" fill="#F7F7F7" shape-rendering="crispEdges"/>
<rect x="2.5" y="1.5" width="39" height="39" rx="5.5" stroke="#E4E4E7" shape-rendering="crispEdges"/>
<path d="M21.9749 22.6104C20.3905 22.6104 19.0962 21.3235 19.0962 19.7317C19.0962 18.1399 20.3905 16.8605 21.9749 16.8605C23.5592 16.8605 24.8535 18.1473 24.8535 19.7391C24.8535 21.331 23.5592 22.6104 21.9749 22.6104ZM21.9749 17.9762C21.0079 17.9762 20.212 18.7647 20.212 19.7391C20.212 20.7136 21.0004 21.502 21.9749 21.502C22.9493 21.502 23.7378 20.7136 23.7378 19.7391C23.7378 18.7647 22.9418 17.9762 21.9749 17.9762Z" fill="#71717A"/>
<path d="M21.9747 29C20.8738 29 19.7655 28.5834 18.9027 27.7578C16.7083 25.6453 14.2834 22.2757 15.1983 18.2664C16.024 14.629 19.2002 13 21.9747 13C21.9747 13 21.9747 13 21.9822 13C24.7567 13 27.9329 14.629 28.7585 18.2738C29.666 22.2831 27.2411 25.6453 25.0468 27.7578C24.1839 28.5834 23.0756 29 21.9747 29ZM21.9747 14.1158C19.8101 14.1158 17.0282 15.2687 16.2918 18.5119C15.4884 22.0153 17.6902 25.0353 19.6837 26.947C20.9705 28.1892 22.9863 28.1892 24.2732 26.947C26.2592 25.0353 28.461 22.0153 27.6725 18.5119C26.9287 15.2687 24.1393 14.1158 21.9747 14.1158Z" fill="#71717A"/>
</g>
<defs>
<filter id="filter0_d_4796_9065" x="0" y="0" width="44" height="44" filterUnits="userSpaceOnUse" color-interpolation-filters="sRGB">
<feFlood flood-opacity="0" result="BackgroundImageFix"/>
<feColorMatrix in="SourceAlpha" type="matrix" values="0 0 0 0 0 0 0 0 0 0 0 0 0 0 0 0 0 0 127 0" result="hardAlpha"/>
<feOffset dy="1"/>
<feGaussianBlur stdDeviation="1"/>
<feComposite in2="hardAlpha" operator="out"/>
<feColorMatrix type="matrix" values="0 0 0 0 0 0 0 0 0 0 0 0 0 0 0 0 0 0 0.02 0"/>
<feBlend mode="normal" in2="BackgroundImageFix" result="effect1_dropShadow_4796_9065"/>
<feBlend mode="normal" in="SourceGraphic" in2="effect1_dropShadow_4796_9065" result="shape"/>
</filter>
</defs>
</svg>
