<svg width="56" height="55" viewBox="0 0 56 55" fill="none" xmlns="http://www.w3.org/2000/svg">
<g filter="url(#filter0_d_5175_11702)">
<rect x="4" y="2" width="48" height="48" rx="24" fill="#F7F7F7" shape-rendering="crispEdges"/>
<rect x="4.5" y="2.5" width="47" height="47" rx="23.5" stroke="#E4E4E7" shape-rendering="crispEdges"/>
<g clip-path="url(#clip0_5175_11702)">
<path d="M36.2886 24.7597C36.2842 23.5652 35.2933 22.6 34.0963 22.5711H33.2939V22.33C33.2939 21.4393 33.2939 20.5485 33.2939 19.6578C33.2876 16.6073 31.1798 14.1368 28.1669 13.6445C25.0268 13.134 21.8836 15.3984 21.3844 18.5366C21.325 18.9306 21.2938 19.3283 21.291 19.7267C21.2779 20.6663 21.2867 21.6009 21.2867 22.5674H20.644C19.2509 22.5674 18.2831 23.5326 18.2831 24.922C18.2831 28.337 18.2831 31.7519 18.2831 35.1665C18.2831 36.4193 18.9314 37.243 20.1498 37.5374C20.1704 37.5463 20.1895 37.5586 20.2061 37.5737H34.3712C34.5178 37.5274 34.6663 37.4867 34.8097 37.434C35.681 37.1208 36.2861 36.3065 36.2886 35.3776C36.2978 31.839 36.2978 28.2997 36.2886 24.7597ZM23.2936 19.6403C23.3043 17.5782 24.681 15.9665 26.7168 15.6314C28.797 15.2863 30.9098 16.8034 31.2268 18.8924C31.2951 19.3446 31.2844 19.8107 31.2894 20.2704C31.2988 21.0327 31.2894 21.795 31.2894 22.573H23.2924V22.0093C23.293 21.2188 23.2898 20.4295 23.2936 19.6403ZM28.4926 30.146C28.3235 30.2713 28.2778 30.3966 28.2796 30.5908C28.2878 31.2798 28.2934 31.9688 28.2746 32.6528C28.2596 33.1734 27.7986 33.5818 27.2774 33.5755C27.0287 33.5735 26.7898 33.478 26.6081 33.308C26.4265 33.138 26.3155 32.9059 26.2971 32.6578C26.2827 32.4167 26.2915 32.1743 26.2902 31.9319C26.2902 31.7991 26.2902 31.6663 26.2902 31.5335C26.2902 31.2053 26.2815 30.877 26.2934 30.5494C26.3018 30.4741 26.2886 30.3979 26.2553 30.3298C26.2221 30.2617 26.1701 30.2045 26.1055 30.1648C25.7786 29.932 25.5317 29.6039 25.3984 29.2254C25.2651 28.8469 25.2519 28.4364 25.3607 28.0501C25.4706 27.6465 25.7043 27.2874 26.029 27.0236C26.3536 26.7597 26.7528 26.6043 27.1705 26.5792C27.5881 26.5541 28.003 26.6605 28.357 26.8836C28.7109 27.1067 28.9859 27.4352 29.1434 27.8228C29.3112 28.2267 29.3385 28.6752 29.2209 29.0965C29.1034 29.5178 28.8478 29.8874 28.4951 30.146H28.4926Z" fill="#18181B"/>
</g>
</g>
<defs>
<filter id="filter0_d_5175_11702" x="0.8" y="0.4" width="54.4" height="54.4" filterUnits="userSpaceOnUse" color-interpolation-filters="sRGB">
<feFlood flood-opacity="0" result="BackgroundImageFix"/>
<feColorMatrix in="SourceAlpha" type="matrix" values="0 0 0 0 0 0 0 0 0 0 0 0 0 0 0 0 0 0 127 0" result="hardAlpha"/>
<feOffset dy="1.6"/>
<feGaussianBlur stdDeviation="1.6"/>
<feComposite in2="hardAlpha" operator="out"/>
<feColorMatrix type="matrix" values="0 0 0 0 0 0 0 0 0 0 0 0 0 0 0 0 0 0 0.02 0"/>
<feBlend mode="normal" in2="BackgroundImageFix" result="effect1_dropShadow_5175_11702"/>
<feBlend mode="normal" in="SourceGraphic" in2="effect1_dropShadow_5175_11702" result="shape"/>
</filter>
<clipPath id="clip0_5175_11702">
<rect width="18.0136" height="24" fill="white" transform="translate(18.2831 13.575)"/>
</clipPath>
</defs>
</svg>
