<svg width="56" height="55" viewBox="0 0 56 55" fill="none" xmlns="http://www.w3.org/2000/svg">
<g filter="url(#filter0_d_9018_5476)">
<rect x="4" y="2" width="48" height="48" rx="24" fill="#F7F7F7" shape-rendering="crispEdges"/>
<rect x="4.5" y="2.5" width="47" height="47" rx="23.5" stroke="#E4E4E7" shape-rendering="crispEdges"/>
<path d="M35.5 17.67C35.5 17.66 35.5 17.65 35.48 17.64C35.26 17.36 34.97 17.21 34.63 17.21C34.1 17.21 33.46 17.56 32.77 18.3C31.95 19.18 30.69 19.11 29.97 18.15L28.96 16.81C28.56 16.27 28.03 16 27.5 16C26.97 16 26.44 16.27 26.04 16.81L25.02 18.16C24.31 19.11 23.06 19.18 22.24 18.31L22.23 18.3C21.1 17.09 20.09 16.91 19.52 17.64C19.5 17.65 19.5 17.66 19.5 17.67C19.14 18.44 19 19.52 19 21.04V30.96C19 32.48 19.14 33.56 19.5 34.33C19.5 34.34 19.51 34.36 19.52 34.37C20.1 35.09 21.1 34.91 22.23 33.7L22.24 33.69C23.06 32.82 24.31 32.89 25.02 33.84L26.04 35.19C26.44 35.73 26.97 36 27.5 36C28.03 36 28.56 35.73 28.96 35.19L29.97 33.85C30.69 32.89 31.95 32.82 32.77 33.7C33.46 34.44 34.1 34.79 34.63 34.79C34.97 34.79 35.26 34.65 35.48 34.37C35.49 34.36 35.5 34.34 35.5 34.33C35.86 33.56 36 32.48 36 30.96V21.04C36 19.52 35.86 18.44 35.5 17.67ZM30 28.5H24C23.59 28.5 23.25 28.16 23.25 27.75C23.25 27.34 23.59 27 24 27H30C30.41 27 30.75 27.34 30.75 27.75C30.75 28.16 30.41 28.5 30 28.5ZM32 25H24C23.59 25 23.25 24.66 23.25 24.25C23.25 23.84 23.59 23.5 24 23.5H32C32.41 23.5 32.75 23.84 32.75 24.25C32.75 24.66 32.41 25 32 25Z" fill="#18181B"/>
</g>
<defs>
<filter id="filter0_d_9018_5476" x="0.8" y="0.4" width="54.4" height="54.4" filterUnits="userSpaceOnUse" color-interpolation-filters="sRGB">
<feFlood flood-opacity="0" result="BackgroundImageFix"/>
<feColorMatrix in="SourceAlpha" type="matrix" values="0 0 0 0 0 0 0 0 0 0 0 0 0 0 0 0 0 0 127 0" result="hardAlpha"/>
<feOffset dy="1.6"/>
<feGaussianBlur stdDeviation="1.6"/>
<feComposite in2="hardAlpha" operator="out"/>
<feColorMatrix type="matrix" values="0 0 0 0 0 0 0 0 0 0 0 0 0 0 0 0 0 0 0.02 0"/>
<feBlend mode="normal" in2="BackgroundImageFix" result="effect1_dropShadow_9018_5476"/>
<feBlend mode="normal" in="SourceGraphic" in2="effect1_dropShadow_9018_5476" result="shape"/>
</filter>
</defs>
</svg>
