<svg width="44" height="44" viewBox="0 0 44 44" fill="none" xmlns="http://www.w3.org/2000/svg">
<g filter="url(#filter0_d_8586_29043)">
<rect x="2" y="1" width="40" height="40" rx="20" fill="white" shape-rendering="crispEdges"/>
<rect x="2.5" y="1.5" width="39" height="39" rx="19.5" stroke="#E4E4E7" shape-rendering="crispEdges"/>
<path d="M22 29.5C17.3112 29.5 13.5 25.6888 13.5 21C13.5 16.3112 17.3112 12.5 22 12.5C26.6888 12.5 30.5 16.3112 30.5 21C30.5 25.6888 26.6888 29.5 22 29.5ZM22 13.686C17.9674 13.686 14.686 16.9674 14.686 21C14.686 25.0326 17.9674 28.314 22 28.314C26.0326 28.314 29.314 25.0326 29.314 21C29.314 16.9674 26.0326 13.686 22 13.686Z" fill="#18181B"/>
<path d="M22.0007 25.325C20.8938 25.325 19.7868 24.906 18.9408 24.0599C18.7194 23.8385 18.5217 23.5934 18.3398 23.3008C18.1659 23.0241 18.2528 22.6604 18.5296 22.4864C18.8063 22.3125 19.1701 22.3994 19.344 22.6762C19.4784 22.8976 19.6207 23.0715 19.7789 23.2297C21.0045 24.4553 22.997 24.4553 24.2226 23.2297C24.697 22.7553 24.9975 22.1385 25.1003 21.4506C25.1477 21.1264 25.4482 20.8892 25.7724 20.9446C26.0966 20.992 26.318 21.2925 26.2784 21.6167C26.144 22.5576 25.7249 23.4036 25.0687 24.0678C24.2147 24.906 23.1077 25.325 22.0007 25.325Z" fill="#18181B"/>
<path d="M18.316 21.0634C18.2844 21.0634 18.2607 21.0634 18.2291 21.0555C17.9049 21.008 17.6756 20.7075 17.723 20.3834C17.8574 19.4424 18.2765 18.5964 18.9328 17.9322C20.617 16.248 23.3607 16.248 25.0528 17.9322C25.2742 18.1536 25.4719 18.3987 25.6537 18.6992C25.8277 18.976 25.7407 19.3396 25.464 19.5136C25.1872 19.6876 24.8235 19.6006 24.6495 19.3238C24.5151 19.1104 24.3728 18.9285 24.2146 18.7703C22.9891 17.5448 20.9965 17.5448 19.7709 18.7703C19.2965 19.2448 18.996 19.8615 18.8933 20.5494C18.8616 20.8499 18.6086 21.0634 18.316 21.0634Z" fill="#18181B"/>
<path d="M18.6946 25.6889C18.3704 25.6889 18.1016 25.4201 18.1016 25.0959V22.9847C18.1016 22.6606 18.3704 22.3917 18.6946 22.3917H20.8057C21.1299 22.3917 21.3988 22.6606 21.3988 22.9847C21.3988 23.3089 21.1299 23.5778 20.8057 23.5778H19.2876V25.0959C19.2876 25.4201 19.0267 25.6889 18.6946 25.6889Z" fill="#18181B"/>
<path d="M25.3057 19.6085H23.1946C22.8704 19.6085 22.6016 19.3396 22.6016 19.0155C22.6016 18.6913 22.8704 18.4224 23.1946 18.4224H24.7127V16.9043C24.7127 16.5801 24.9815 16.3113 25.3057 16.3113C25.6299 16.3113 25.8988 16.5801 25.8988 16.9043V19.0155C25.8988 19.3475 25.6299 19.6085 25.3057 19.6085Z" fill="#18181B"/>
</g>
<defs>
<filter id="filter0_d_8586_29043" x="0" y="0" width="44" height="44" filterUnits="userSpaceOnUse" color-interpolation-filters="sRGB">
<feFlood flood-opacity="0" result="BackgroundImageFix"/>
<feColorMatrix in="SourceAlpha" type="matrix" values="0 0 0 0 0 0 0 0 0 0 0 0 0 0 0 0 0 0 127 0" result="hardAlpha"/>
<feOffset dy="1"/>
<feGaussianBlur stdDeviation="1"/>
<feComposite in2="hardAlpha" operator="out"/>
<feColorMatrix type="matrix" values="0 0 0 0 0 0 0 0 0 0 0 0 0 0 0 0 0 0 0.02 0"/>
<feBlend mode="normal" in2="BackgroundImageFix" result="effect1_dropShadow_8586_29043"/>
<feBlend mode="normal" in="SourceGraphic" in2="effect1_dropShadow_8586_29043" result="shape"/>
</filter>
</defs>
</svg>
