<svg width="21" height="20" viewBox="0 0 21 20" fill="none" xmlns="http://www.w3.org/2000/svg">
<g id="vuesax/bold/setting-2">
<g id="setting-2">
<path id="Vector" d="M17.2474 7.68336C15.7391 7.68336 15.1224 6.61669 15.8724 5.30836C16.3057 4.55003 16.0474 3.58336 15.2891 3.15003L13.8474 2.32503C13.1891 1.93336 12.3391 2.1667 11.9474 2.82503L11.8557 2.98336C11.1057 4.2917 9.8724 4.2917 9.11406 2.98336L9.0224 2.82503C8.6474 2.1667 7.7974 1.93336 7.13906 2.32503L5.6974 3.15003C4.93906 3.58336 4.68073 4.55836 5.11406 5.3167C5.8724 6.61669 5.25573 7.68336 3.7474 7.68336C2.88073 7.68336 2.16406 8.39169 2.16406 9.26669V10.7334C2.16406 11.6 2.8724 12.3167 3.7474 12.3167C5.25573 12.3167 5.8724 13.3834 5.11406 14.6917C4.68073 15.45 4.93906 16.4167 5.6974 16.85L7.13906 17.675C7.7974 18.0667 8.6474 17.8334 9.03906 17.175L9.13073 17.0167C9.88073 15.7084 11.1141 15.7084 11.8724 17.0167L11.9641 17.175C12.3557 17.8334 13.2057 18.0667 13.8641 17.675L15.3057 16.85C16.0641 16.4167 16.3224 15.4417 15.8891 14.6917C15.1307 13.3834 15.7474 12.3167 17.2557 12.3167C18.1224 12.3167 18.8391 11.6084 18.8391 10.7334V9.26669C18.8307 8.40003 18.1224 7.68336 17.2474 7.68336ZM10.4974 12.7084C9.00573 12.7084 7.78906 11.4917 7.78906 10C7.78906 8.50836 9.00573 7.2917 10.4974 7.2917C11.9891 7.2917 13.2057 8.50836 13.2057 10C13.2057 11.4917 11.9891 12.7084 10.4974 12.7084Z" fill="#18181B"/>
</g>
</g>
</svg>
