<svg width="44" height="44" viewBox="0 0 44 44" fill="none" xmlns="http://www.w3.org/2000/svg">
<g filter="url(#filter0_d_9198_9278)">
<rect x="2" y="1" width="40" height="40" rx="20" fill="#F7F7F7" shape-rendering="crispEdges"/>
<rect x="2.5" y="1.5" width="39" height="39" rx="19.5" stroke="#E4E4E7" shape-rendering="crispEdges"/>
<path d="M22.001 23.7884C20.462 23.7884 19.2129 22.5393 19.2129 21.0003C19.2129 19.4612 20.462 18.2122 22.001 18.2122C23.54 18.2122 24.7891 19.4612 24.7891 21.0003C24.7891 22.5393 23.54 23.7884 22.001 23.7884ZM22.001 19.3274C21.0791 19.3274 20.3281 20.0783 20.3281 21.0003C20.3281 21.9222 21.0791 22.6731 22.001 22.6731C22.9229 22.6731 23.6739 21.9222 23.6739 21.0003C23.6739 20.0783 22.9229 19.3274 22.001 19.3274Z" fill="#18181B"/>
<path d="M24.3875 28.5764C24.2313 28.5764 24.0752 28.5541 23.9191 28.5169C23.4581 28.3906 23.0715 28.1006 22.8261 27.6917L22.7369 27.543C22.2983 26.7846 21.696 26.7846 21.2574 27.543L21.1756 27.6842C20.9302 28.1006 20.5436 28.398 20.0827 28.5169C19.6142 28.6433 19.131 28.5764 18.7221 28.3311L17.4432 27.595C16.9897 27.3348 16.6626 26.911 16.5213 26.398C16.3875 25.885 16.4544 25.3571 16.7146 24.9036C16.9302 24.5244 16.9897 24.1824 16.8633 23.9668C16.7369 23.7511 16.4172 23.6248 15.9786 23.6248C14.8931 23.6248 14.0083 22.74 14.0083 21.6545V20.3459C14.0083 19.2604 14.8931 18.3757 15.9786 18.3757C16.4172 18.3757 16.7369 18.2493 16.8633 18.0337C16.9897 17.8181 16.9377 17.4761 16.7146 17.0969C16.4544 16.6433 16.3875 16.108 16.5213 15.6025C16.6551 15.0894 16.9823 14.6656 17.4432 14.4054L18.7295 13.6694C19.5696 13.1712 20.6774 13.4612 21.183 14.3162L21.2722 14.4649C21.7109 15.2233 22.3131 15.2233 22.7518 14.4649L22.8336 14.3236C23.3392 13.4612 24.447 13.1712 25.2945 13.6768L26.5734 14.4129C27.0269 14.6731 27.354 15.0969 27.4953 15.6099C27.6291 16.1229 27.5622 16.6508 27.302 17.1043C27.0864 17.4835 27.0269 17.8255 27.1533 18.0411C27.2797 18.2567 27.5994 18.3831 28.038 18.3831C29.1235 18.3831 30.0083 19.2679 30.0083 20.3534V21.6619C30.0083 22.7474 29.1235 23.6322 28.038 23.6322C27.5994 23.6322 27.2797 23.7586 27.1533 23.9742C27.0269 24.1898 27.0789 24.5318 27.302 24.911C27.5622 25.3645 27.6366 25.8998 27.4953 26.4054C27.3615 26.9184 27.0343 27.3422 26.5734 27.6024L25.2871 28.3385C25.0046 28.4946 24.6997 28.5764 24.3875 28.5764ZM22.0009 25.8255C22.6626 25.8255 23.2797 26.2419 23.7035 26.9779L23.7853 27.1192C23.8745 27.2753 24.0232 27.3868 24.2016 27.4314C24.38 27.4761 24.5585 27.4538 24.7072 27.3645L25.9934 26.621C26.1867 26.5095 26.3354 26.3236 26.3949 26.1006C26.4544 25.8775 26.4247 25.6471 26.3131 25.4538C25.8893 24.7251 25.8373 23.9742 26.1644 23.4017C26.4916 22.8292 27.1682 22.5021 28.0157 22.5021C28.4916 22.5021 28.8708 22.1229 28.8708 21.6471V20.3385C28.8708 19.8701 28.4916 19.4835 28.0157 19.4835C27.1682 19.4835 26.4916 19.1564 26.1644 18.5839C25.8373 18.0114 25.8893 17.2604 26.3131 16.5318C26.4247 16.3385 26.4544 16.108 26.3949 15.885C26.3354 15.6619 26.1942 15.4835 26.0009 15.3645L24.7146 14.6285C24.3949 14.4352 23.9711 14.5467 23.7778 14.8738L23.696 15.0151C23.2722 15.7512 22.6551 16.1675 21.9934 16.1675C21.3317 16.1675 20.7146 15.7512 20.2908 15.0151L20.209 14.8664C20.0232 14.5541 19.6068 14.4426 19.2871 14.6285L18.0009 15.372C17.8076 15.4835 17.6589 15.6694 17.5994 15.8924C17.5399 16.1155 17.5696 16.3459 17.6812 16.5393C18.105 17.2679 18.157 18.0188 17.8299 18.5913C17.5027 19.1638 16.8261 19.4909 15.9786 19.4909C15.5027 19.4909 15.1235 19.8701 15.1235 20.3459V21.6545C15.1235 22.1229 15.5027 22.5095 15.9786 22.5095C16.8261 22.5095 17.5027 22.8367 17.8299 23.4091C18.157 23.9816 18.105 24.7326 17.6812 25.4612C17.5696 25.6545 17.5399 25.885 17.5994 26.108C17.6589 26.3311 17.8001 26.5095 17.9934 26.6285L19.2797 27.3645C19.4358 27.4612 19.6217 27.4835 19.7927 27.4389C19.9711 27.3943 20.1198 27.2753 20.2165 27.1192L20.2983 26.9779C20.7221 26.2493 21.3392 25.8255 22.0009 25.8255Z" fill="#18181B"/>
</g>
<defs>
<filter id="filter0_d_9198_9278" x="0" y="0" width="44" height="44" filterUnits="userSpaceOnUse" color-interpolation-filters="sRGB">
<feFlood flood-opacity="0" result="BackgroundImageFix"/>
<feColorMatrix in="SourceAlpha" type="matrix" values="0 0 0 0 0 0 0 0 0 0 0 0 0 0 0 0 0 0 127 0" result="hardAlpha"/>
<feOffset dy="1"/>
<feGaussianBlur stdDeviation="1"/>
<feComposite in2="hardAlpha" operator="out"/>
<feColorMatrix type="matrix" values="0 0 0 0 0 0 0 0 0 0 0 0 0 0 0 0 0 0 0.02 0"/>
<feBlend mode="normal" in2="BackgroundImageFix" result="effect1_dropShadow_9198_9278"/>
<feBlend mode="normal" in="SourceGraphic" in2="effect1_dropShadow_9198_9278" result="shape"/>
</filter>
</defs>
</svg>
