<svg width="21" height="20" viewBox="0 0 21 20" fill="none" xmlns="http://www.w3.org/2000/svg">
<g id="vuesax/outline/setting-2">
<g id="setting-2">
<path id="Vector" d="M10.498 13.1251C8.77305 13.1251 7.37305 11.7251 7.37305 10.0001C7.37305 8.27512 8.77305 6.87512 10.498 6.87512C12.223 6.87512 13.623 8.27512 13.623 10.0001C13.623 11.7251 12.223 13.1251 10.498 13.1251ZM10.498 8.12512C9.46471 8.12512 8.62305 8.96679 8.62305 10.0001C8.62305 11.0335 9.46471 11.8751 10.498 11.8751C11.5314 11.8751 12.373 11.0335 12.373 10.0001C12.373 8.96679 11.5314 8.12512 10.498 8.12512Z" fill="#71717A"/>
<path id="Vector_2" d="M13.1724 18.4919C12.9974 18.4919 12.8224 18.4669 12.6474 18.4252C12.1307 18.2835 11.6974 17.9585 11.4224 17.5002L11.3224 17.3335C10.8307 16.4835 10.1557 16.4835 9.66406 17.3335L9.5724 17.4919C9.2974 17.9585 8.86406 18.2919 8.3474 18.4252C7.8224 18.5669 7.28073 18.4919 6.8224 18.2169L5.38906 17.3919C4.88073 17.1002 4.51406 16.6252 4.35573 16.0502C4.20573 15.4752 4.28073 14.8835 4.5724 14.3752C4.81406 13.9502 4.88073 13.5669 4.73906 13.3252C4.5974 13.0835 4.23906 12.9419 3.7474 12.9419C2.53073 12.9419 1.53906 11.9502 1.53906 10.7335V9.26686C1.53906 8.0502 2.53073 7.05853 3.7474 7.05853C4.23906 7.05853 4.5974 6.91686 4.73906 6.6752C4.88073 6.43353 4.8224 6.0502 4.5724 5.6252C4.28073 5.11686 4.20573 4.51686 4.35573 3.9502C4.50573 3.3752 4.8724 2.9002 5.38906 2.60853L6.83073 1.78353C7.7724 1.2252 9.01406 1.5502 9.58073 2.50853L9.68073 2.6752C10.1724 3.5252 10.8474 3.5252 11.3391 2.6752L11.4307 2.51686C11.9974 1.5502 13.2391 1.2252 14.1891 1.79186L15.6224 2.61686C16.1307 2.90853 16.4974 3.38353 16.6557 3.95853C16.8057 4.53353 16.7307 5.1252 16.4391 5.63353C16.1974 6.05853 16.1307 6.44186 16.2724 6.68353C16.4141 6.9252 16.7724 7.06686 17.2641 7.06686C18.4807 7.06686 19.4724 8.05853 19.4724 9.2752V10.7419C19.4724 11.9585 18.4807 12.9502 17.2641 12.9502C16.7724 12.9502 16.4141 13.0919 16.2724 13.3335C16.1307 13.5752 16.1891 13.9585 16.4391 14.3835C16.7307 14.8919 16.8141 15.4919 16.6557 16.0585C16.5057 16.6335 16.1391 17.1085 15.6224 17.4002L14.1807 18.2252C13.8641 18.4002 13.5224 18.4919 13.1724 18.4919ZM10.4974 15.4085C11.2391 15.4085 11.9307 15.8752 12.4057 16.7002L12.4974 16.8585C12.5974 17.0335 12.7641 17.1585 12.9641 17.2085C13.1641 17.2585 13.3641 17.2335 13.5307 17.1335L14.9724 16.3002C15.1891 16.1752 15.3557 15.9669 15.4224 15.7169C15.4891 15.4669 15.4557 15.2085 15.3307 14.9919C14.8557 14.1752 14.7974 13.3335 15.1641 12.6919C15.5307 12.0502 16.2891 11.6835 17.2391 11.6835C17.7724 11.6835 18.1974 11.2585 18.1974 10.7252V9.25853C18.1974 8.73353 17.7724 8.3002 17.2391 8.3002C16.2891 8.3002 15.5307 7.93353 15.1641 7.29186C14.7974 6.6502 14.8557 5.80853 15.3307 4.99186C15.4557 4.7752 15.4891 4.51686 15.4224 4.26686C15.3557 4.01686 15.1974 3.81686 14.9807 3.68353L13.5391 2.85853C13.1807 2.64186 12.7057 2.76686 12.4891 3.13353L12.3974 3.29186C11.9224 4.11686 11.2307 4.58353 10.4891 4.58353C9.7474 4.58353 9.05573 4.11686 8.58073 3.29186L8.48906 3.1252C8.28073 2.7752 7.81406 2.6502 7.45573 2.85853L6.01406 3.69186C5.7974 3.81686 5.63073 4.0252 5.56406 4.2752C5.4974 4.5252 5.53073 4.78353 5.65573 5.0002C6.13073 5.81686 6.18906 6.65853 5.8224 7.3002C5.45573 7.94186 4.6974 8.30853 3.7474 8.30853C3.21406 8.30853 2.78906 8.73353 2.78906 9.26686V10.7335C2.78906 11.2585 3.21406 11.6919 3.7474 11.6919C4.6974 11.6919 5.45573 12.0585 5.8224 12.7002C6.18906 13.3419 6.13073 14.1835 5.65573 15.0002C5.53073 15.2169 5.4974 15.4752 5.56406 15.7252C5.63073 15.9752 5.78906 16.1752 6.00573 16.3085L7.4474 17.1335C7.6224 17.2419 7.83073 17.2669 8.0224 17.2169C8.2224 17.1669 8.38906 17.0335 8.4974 16.8585L8.58906 16.7002C9.06406 15.8835 9.75573 15.4085 10.4974 15.4085Z" fill="#71717A"/>
</g>
</g>
</svg>
