<svg width="21" height="20" viewBox="0 0 21 20" fill="none" xmlns="http://www.w3.org/2000/svg">
<path d="M18.0584 10.8916C17.7417 10.8916 17.475 10.65 17.4334 10.3333C17.2334 8.44996 16.2167 6.74163 14.65 5.6583C14.3667 5.4583 14.3 5.07496 14.4917 4.79163C14.6917 4.5083 15.0834 4.44163 15.3584 4.6333C17.225 5.92496 18.425 7.9583 18.6667 10.2C18.7 10.5416 18.4584 10.85 18.1084 10.8916C18.1 10.8916 18.075 10.8916 18.0584 10.8916Z" fill="#71717A"/>
<path d="M3.78325 10.9333C3.75825 10.9333 3.74159 10.9333 3.71659 10.9333C3.37492 10.8917 3.12492 10.5833 3.15825 10.2417C3.38325 8.00001 4.57492 5.97501 6.41659 4.66668C6.69992 4.46668 7.09159 4.53334 7.29159 4.81668C7.49159 5.10001 7.42492 5.49168 7.14159 5.69168C5.59159 6.78334 4.59159 8.49168 4.39992 10.375C4.37492 10.6917 4.09992 10.9333 3.78325 10.9333Z" fill="#71717A"/>
<path d="M10.9253 18.8416C9.69196 18.8416 8.51696 18.5583 7.41696 18.0083C7.10863 17.8499 6.98363 17.4749 7.14196 17.1666C7.3003 16.8583 7.6753 16.7333 7.98363 16.8916C9.78363 17.7999 11.9503 17.8166 13.767 16.9416C14.0753 16.7916 14.4503 16.9249 14.6003 17.2333C14.7503 17.5416 14.617 17.9166 14.3086 18.0666C13.242 18.5833 12.1086 18.8416 10.9253 18.8416Z" fill="#71717A"/>
<path d="M10.9251 7.03324C9.30007 7.03324 7.9834 5.71657 7.9834 4.09157C7.9834 2.46657 9.30007 1.1499 10.9251 1.1499C12.5501 1.1499 13.8667 2.46657 13.8667 4.09157C13.8667 5.71657 12.5417 7.03324 10.9251 7.03324ZM10.9251 2.40824C9.99173 2.40824 9.2334 3.16657 9.2334 4.0999C9.2334 5.03324 9.99173 5.79157 10.9251 5.79157C11.8584 5.79157 12.6167 5.03324 12.6167 4.0999C12.6167 3.16657 11.8501 2.40824 10.9251 2.40824Z" fill="#71717A"/>
<path d="M4.89967 17.2249C3.27467 17.2249 1.95801 15.9082 1.95801 14.2832C1.95801 12.6666 3.27467 11.3416 4.89967 11.3416C6.52467 11.3416 7.84134 12.6582 7.84134 14.2832C7.84134 15.8999 6.52467 17.2249 4.89967 17.2249ZM4.89967 12.5916C3.96634 12.5916 3.20801 13.3499 3.20801 14.2832C3.20801 15.2166 3.96634 15.9749 4.89967 15.9749C5.83301 15.9749 6.59134 15.2166 6.59134 14.2832C6.59134 13.3499 5.83301 12.5916 4.89967 12.5916Z" fill="#71717A"/>
<path d="M16.8499 17.2249C15.2249 17.2249 13.9082 15.9082 13.9082 14.2832C13.9082 12.6666 15.2249 11.3416 16.8499 11.3416C18.4749 11.3416 19.7915 12.6582 19.7915 14.2832C19.7832 15.8999 18.4665 17.2249 16.8499 17.2249ZM16.8499 12.5916C15.9165 12.5916 15.1582 13.3499 15.1582 14.2832C15.1582 15.2166 15.9165 15.9749 16.8499 15.9749C17.7832 15.9749 18.5415 15.2166 18.5415 14.2832C18.5332 13.3499 17.7832 12.5916 16.8499 12.5916Z" fill="#71717A"/>
</svg>
