<svg width="20" height="20" viewBox="0 0 20 20" fill="none" xmlns="http://www.w3.org/2000/svg">
<g id="account-circle-outline 1">
<path id="Vector" d="M10.0003 1.66663C8.90598 1.66663 7.82234 1.88217 6.8113 2.30096C5.80025 2.71975 4.88159 3.33358 4.10777 4.1074C2.54497 5.67021 1.66699 7.78982 1.66699 9.99996C1.66699 12.2101 2.54497 14.3297 4.10777 15.8925C4.88159 16.6663 5.80025 17.2802 6.8113 17.699C7.82234 18.1177 8.90598 18.3333 10.0003 18.3333C12.2105 18.3333 14.3301 17.4553 15.8929 15.8925C17.4557 14.3297 18.3337 12.2101 18.3337 9.99996C18.3337 8.90561 18.1181 7.82198 17.6993 6.81093C17.2805 5.79988 16.6667 4.88122 15.8929 4.1074C15.1191 3.33358 14.2004 2.71975 13.1894 2.30096C12.1783 1.88217 11.0947 1.66663 10.0003 1.66663ZM5.89199 15.2333C6.25033 14.4833 8.43366 13.75 10.0003 13.75C11.567 13.75 13.7503 14.4833 14.1087 15.2333C12.9753 16.1333 11.5503 16.6666 10.0003 16.6666C8.45033 16.6666 7.02533 16.1333 5.89199 15.2333ZM15.3003 14.025C14.1087 12.575 11.217 12.0833 10.0003 12.0833C8.78366 12.0833 5.89199 12.575 4.70033 14.025C3.85033 12.9166 3.33366 11.5166 3.33366 9.99996C3.33366 6.32496 6.32533 3.33329 10.0003 3.33329C13.6753 3.33329 16.667 6.32496 16.667 9.99996C16.667 11.5166 16.1503 12.9166 15.3003 14.025ZM10.0003 4.99996C8.38366 4.99996 7.08366 6.29996 7.08366 7.91663C7.08366 9.53329 8.38366 10.8333 10.0003 10.8333C11.617 10.8333 12.917 9.53329 12.917 7.91663C12.917 6.29996 11.617 4.99996 10.0003 4.99996ZM10.0003 9.16663C9.66881 9.16663 9.35086 9.03493 9.11644 8.80051C8.88202 8.56609 8.75033 8.24815 8.75033 7.91663C8.75033 7.58511 8.88202 7.26716 9.11644 7.03274C9.35086 6.79832 9.66881 6.66663 10.0003 6.66663C10.3318 6.66663 10.6498 6.79832 10.8842 7.03274C11.1186 7.26716 11.2503 7.58511 11.2503 7.91663C11.2503 8.24815 11.1186 8.56609 10.8842 8.80051C10.6498 9.03493 10.3318 9.16663 10.0003 9.16663Z" fill="#18181B"/>
</g>
</svg>
