<svg xmlns="http://www.w3.org/2000/svg" width="48.001" height="48.005" viewBox="0 0 48.001 48.005">
  <g id="Group_40" data-name="Group 40" transform="translate(-1.999 -1.993)">
    <path id="Path_249" data-name="Path 249" d="M31.677,42.8h-.088v-4H33.9a.8.8,0,1,0,0-1.6H31.589V34.8a.8.8,0,0,0-1.6,0v2.4H29.9a3.616,3.616,0,1,0,0,7.2h.088v4H27.677a.8.8,0,1,0,0,1.6h2.312v2.4a.8.8,0,0,0,1.6,0V50h.088a3.616,3.616,0,1,0,0-7.2Zm-1.776,0a2.021,2.021,0,1,1,0-4h.088v4Zm1.776,5.6h-.088v-4h.088a2.024,2.024,0,1,1,0,4Z" transform="translate(-4.789 -6.402)" fill="#fff"/>
    <path id="Path_250" data-name="Path 250" d="M48.663,16.166,35.655,15.6a.8.8,0,0,0-.6,1.368l1.7,1.7-3.56,3.56V12.4h2.4a.8.8,0,0,0,.544-1.392l-9.6-8.8a.8.8,0,0,0-1.088,0l-9.6,8.8A.8.8,0,0,0,16.4,12.4h2.4v9.824l-3.56-3.56,1.7-1.7a.8.8,0,0,0-.632-1.368L3.3,16.166a.8.8,0,0,0-.8.8L2,29.942a.8.8,0,0,0,1.368.6l1.7-1.7L13.2,36.99V37.2a12.8,12.8,0,0,0,25.6,0V36.99l8.136-8.152,1.7,1.7a.8.8,0,0,0,1.368-.6l-.568-13.008A.8.8,0,0,0,48.663,16.166ZM18.456,10.8,26,3.887,33.543,10.8H32.4a.8.8,0,0,0-.8.8V25.7a12.8,12.8,0,0,0-2.4-.88V11.6a.8.8,0,0,0-1.6,0V24.51a11.488,11.488,0,0,0-3.2,0V11.6a.8.8,0,0,0-1.6,0V24.822a12.8,12.8,0,0,0-2.4.88V11.6a.8.8,0,0,0-.8-.8ZM5.656,27.142a.8.8,0,0,0-1.136,0l-.8.8.448-10.216,10.216-.448-.8.8a.8.8,0,0,0,0,1.136L18.8,24.478v2.144a12.8,12.8,0,0,0-5.384,8.3ZM26,48.4A11.2,11.2,0,1,1,37.2,37.2,11.2,11.2,0,0,1,26,48.4ZM47.5,27.142a.8.8,0,0,0-1.136,0l-7.784,7.784a12.8,12.8,0,0,0-5.384-8.3V24.478l5.256-5.248a.8.8,0,0,0,0-1.136l-.8-.8,10.216.448.448,10.216Z" transform="translate(0)" fill="#fff"/>
  </g>
</svg>
