<svg width="21" height="20" viewBox="0 0 21 20" fill="none" xmlns="http://www.w3.org/2000/svg">
<g id="receipt-2">
<path id="Vector" d="M16.75 3.05829C16.75 3.04996 16.75 3.04163 16.7333 3.03329C16.55 2.79996 16.3083 2.67496 16.025 2.67496C15.5833 2.67496 15.05 2.96663 14.475 3.58329C13.7917 4.31663 12.7417 4.25829 12.1417 3.45829L11.3 2.34163C10.9667 1.89163 10.525 1.66663 10.0833 1.66663C9.64167 1.66663 9.2 1.89163 8.86667 2.34163L8.01667 3.46663C7.425 4.25829 6.38333 4.31663 5.7 3.59163L5.69167 3.58329C4.75 2.57496 3.90833 2.42496 3.43333 3.03329C3.41667 3.04163 3.41667 3.04996 3.41667 3.05829C3.11667 3.69996 3 4.59996 3 5.86663V14.1333C3 15.4 3.11667 16.3 3.41667 16.9416C3.41667 16.95 3.425 16.9666 3.43333 16.975C3.91667 17.575 4.75 17.425 5.69167 16.4166L5.7 16.4083C6.38333 15.6833 7.425 15.7416 8.01667 16.5333L8.86667 17.6583C9.2 18.1083 9.64167 18.3333 10.0833 18.3333C10.525 18.3333 10.9667 18.1083 11.3 17.6583L12.1417 16.5416C12.7417 15.7416 13.7917 15.6833 14.475 16.4166C15.05 17.0333 15.5833 17.325 16.025 17.325C16.3083 17.325 16.55 17.2083 16.7333 16.975C16.7417 16.9666 16.75 16.95 16.75 16.9416C17.05 16.3 17.1667 15.4 17.1667 14.1333V5.86663C17.1667 4.59996 17.05 3.69996 16.75 3.05829ZM12.1667 12.0833H7.16667C6.825 12.0833 6.54167 11.8 6.54167 11.4583C6.54167 11.1166 6.825 10.8333 7.16667 10.8333H12.1667C12.5083 10.8333 12.7917 11.1166 12.7917 11.4583C12.7917 11.8 12.5083 12.0833 12.1667 12.0833ZM13.8333 9.16663H7.16667C6.825 9.16663 6.54167 8.88329 6.54167 8.54163C6.54167 8.19996 6.825 7.91663 7.16667 7.91663H13.8333C14.175 7.91663 14.4583 8.19996 14.4583 8.54163C14.4583 8.88329 14.175 9.16663 13.8333 9.16663Z" fill="#18181B"/>
</g>
</svg>
