<svg width="17" height="16" viewBox="0 0 17 16" fill="none" xmlns="http://www.w3.org/2000/svg">
<path d="M1.47412 5.92008L2.42079 4.97341L3.83412 6.39342L5.24745 4.97341L6.19412 5.92008L4.77412 7.33342L6.19412 8.74675L5.24745 9.69342L3.83412 8.27342L2.42079 9.69342L1.47412 8.74675L2.89412 7.33342L1.47412 5.92008ZM10.5008 2.66675C11.208 2.66675 11.8863 2.9477 12.3864 3.4478C12.8865 3.94789 13.1675 4.62617 13.1675 5.33342C13.1675 6.04066 12.8865 6.71894 12.3864 7.21903C11.8863 7.71913 11.208 8.00008 10.5008 8.00008C9.79354 8.00008 9.11527 7.71913 8.61517 7.21903C8.11507 6.71894 7.83412 6.04066 7.83412 5.33342C7.83412 4.62617 8.11507 3.94789 8.61517 3.4478C9.11527 2.9477 9.79354 2.66675 10.5008 2.66675ZM10.5008 3.93341C10.1295 3.93341 9.77339 4.08091 9.51084 4.34347C9.24829 4.60602 9.10079 4.96211 9.10079 5.33342C9.10079 5.70472 9.24829 6.06081 9.51084 6.32336C9.77339 6.58592 10.1295 6.73342 10.5008 6.73342C11.2741 6.73342 11.9008 6.10675 11.9008 5.33342C11.9008 4.56008 11.2741 3.93341 10.5008 3.93341ZM10.5008 8.66675C12.2808 8.66675 15.8341 9.55342 15.8341 11.3334V13.3334H5.16745V11.3334C5.16745 9.55342 8.72079 8.66675 10.5008 8.66675ZM10.5008 9.93342C8.50079 9.93342 6.43412 10.9067 6.43412 11.3334V12.0667H14.5675V11.3334C14.5675 10.9067 12.4808 9.93342 10.5008 9.93342Z" fill="white"/>
</svg>
