<svg width="20" height="20" viewBox="0 0 20 20" fill="none" xmlns="http://www.w3.org/2000/svg">
<path d="M14.979 16.2655H11.9757C11.6679 16.2655 11.4126 16.0102 11.4126 15.7024C11.4126 15.3946 11.6679 15.1393 11.9757 15.1393H14.979C15.2868 15.1393 15.5421 15.3946 15.5421 15.7024C15.5421 16.0102 15.2868 16.2655 14.979 16.2655Z" fill="white"/>
<path d="M13.4772 17.7671C13.1693 17.7671 12.9141 17.5118 12.9141 17.204V14.2007C12.9141 13.8929 13.1693 13.6376 13.4772 13.6376C13.785 13.6376 14.0403 13.8929 14.0403 14.2007V17.204C14.0403 17.5118 13.785 17.7671 13.4772 17.7671Z" fill="white"/>
<path d="M10.2186 9.78597C10.1961 9.78597 10.1811 9.78597 10.1586 9.78597C10.121 9.77846 10.0685 9.77846 10.0234 9.78597C7.84605 9.7184 6.20176 8.00653 6.20176 5.89674C6.19425 4.86061 6.5997 3.88455 7.3355 3.14875C8.0713 2.41295 9.04736 2 10.091 2C12.2383 2 13.9877 3.7494 13.9877 5.89674C13.9877 8.00653 12.3434 9.71089 10.2412 9.78597C10.2336 9.78597 10.2261 9.78597 10.2186 9.78597ZM10.091 3.12623C9.34768 3.12623 8.65693 3.41904 8.13136 3.93711C7.6133 4.46268 7.32799 5.15343 7.32799 5.88923C7.32799 7.39086 8.49926 8.60719 9.99339 8.65224C10.0384 8.64473 10.136 8.64473 10.2336 8.65224C11.7128 8.58466 12.8615 7.37585 12.8615 5.88923C12.8615 4.37258 11.6152 3.12623 10.091 3.12623Z" fill="white"/>
<path d="M10.0911 17.9999C8.55943 17.9999 7.11035 17.602 6.01416 16.8662C4.97052 16.1679 4.3999 15.2144 4.3999 14.1858C4.3999 13.1572 4.97803 12.2111 6.01416 11.5204C8.2591 10.0188 11.9081 10.0188 14.153 11.5204C14.4083 11.6931 14.4834 12.046 14.3107 12.3012C14.138 12.564 13.7851 12.6316 13.5298 12.4589C11.6603 11.2126 8.50687 11.2126 6.63734 12.4589C5.91655 12.9394 5.52613 13.5476 5.52613 14.1858C5.52613 14.824 5.91655 15.4472 6.63734 15.9277C7.54582 16.5358 8.76966 16.8662 10.0836 16.8662C10.3914 16.8662 10.6467 17.1215 10.6467 17.4293C10.6467 17.7372 10.3989 17.9999 10.0911 17.9999Z" fill="white"/>
</svg>
