<svg width="17" height="16" viewBox="0 0 17 16" fill="none" xmlns="http://www.w3.org/2000/svg">
<g id="vuesax/linear/user-search">
<g id="user-search">
<g id="Group 16762">
<path id="Vector" d="M8.56426 8.00001C10.3316 8.00001 11.7643 6.56732 11.7643 4.80001C11.7643 3.0327 10.3316 1.60001 8.56426 1.60001C6.79695 1.60001 5.36426 3.0327 5.36426 4.80001C5.36426 6.56732 6.79695 8.00001 8.56426 8.00001Z" stroke="#18181B" stroke-width="0.960001" stroke-linecap="round" stroke-linejoin="round"/>
<path id="Vector_2" d="M3.06641 14.4C3.06641 11.9232 5.53043 9.92001 8.56403 9.92001" stroke="#18181B" stroke-width="0.960001" stroke-linecap="round" stroke-linejoin="round"/>
<g id="Group">
<path id="Vector_3" d="M12.5324 14.016C13.6635 14.016 14.5804 13.0991 14.5804 11.968C14.5804 10.8369 13.6635 9.92001 12.5324 9.92001C11.4013 9.92001 10.4844 10.8369 10.4844 11.968C10.4844 13.0991 11.4013 14.016 12.5324 14.016Z" stroke="#18181B" stroke-width="0.960001" stroke-linecap="round" stroke-linejoin="round"/>
<path id="Vector_4" d="M14.9642 14.4L14.3242 13.76" stroke="#18181B" stroke-width="0.960001" stroke-linecap="round" stroke-linejoin="round"/>
</g>
</g>
</g>
</g>
</svg>
