<svg width="17" height="16" viewBox="0 0 17 16" fill="none" xmlns="http://www.w3.org/2000/svg">
<path d="M14.4002 8.34111L15.3335 9.28111L10.9802 13.6744L8.66683 11.3411L9.60016 10.4011L10.9802 11.7878L14.4002 8.34111ZM7.66683 2.67444C8.37407 2.67444 9.05235 2.95539 9.55245 3.45549C10.0525 3.95558 10.3335 4.63386 10.3335 5.34111C10.3335 6.04835 10.0525 6.72663 9.55245 7.22672C9.05235 7.72682 8.37407 8.00777 7.66683 8.00777C6.95959 8.00777 6.28131 7.72682 5.78121 7.22672C5.28111 6.72663 5.00016 6.04835 5.00016 5.34111C5.00016 4.63386 5.28111 3.95558 5.78121 3.45549C6.28131 2.95539 6.95959 2.67444 7.66683 2.67444ZM7.66683 4.00777C7.31321 4.00777 6.97407 4.14825 6.72402 4.3983C6.47397 4.64834 6.3335 4.98748 6.3335 5.34111C6.3335 5.69473 6.47397 6.03387 6.72402 6.28391C6.97407 6.53396 7.31321 6.67444 7.66683 6.67444C8.02045 6.67444 8.35959 6.53396 8.60964 6.28391C8.85969 6.03387 9.00016 5.69473 9.00016 5.34111C9.00016 4.98748 8.85969 4.64834 8.60964 4.3983C8.35959 4.14825 8.02045 4.00777 7.66683 4.00777ZM7.66683 8.67444C8.12016 8.67444 8.66683 8.73444 9.2735 8.84777L8.16016 9.96111L7.66683 9.94111C5.68683 9.94111 3.60016 10.9144 3.60016 11.3411V12.0744H7.7335L9.00016 13.3411H2.3335V11.3411C2.3335 9.56777 5.88683 8.67444 7.66683 8.67444Z" fill="white"/>
</svg>
