<svg width="48" height="48" viewBox="0 0 48 48" fill="none" xmlns="http://www.w3.org/2000/svg">
<rect width="48" height="48" rx="24" fill="#FD6612"/>
<path d="M27.9998 32.72C30.8398 32.28 33.9998 32 37.3332 32V37.3334H14.6665C14.6665 36.4667 18.9332 34.48 25.3332 33.2V24.5334C24.2132 24.8667 23.2665 25.6134 22.6665 26.6C21.8532 25.24 20.3598 24.3334 18.6665 24.3334C16.9732 24.3334 15.4798 25.24 14.6665 26.6C14.7065 21.8267 19.3332 17.9067 25.3332 17.3867V17.3334C25.3332 16.9797 25.4736 16.6406 25.7237 16.3905C25.9737 16.1405 26.3129 16 26.6665 16C27.0201 16 27.3593 16.1405 27.6093 16.3905C27.8594 16.6406 27.9998 16.9797 27.9998 17.3334V17.3867C33.9998 17.9067 38.6132 21.8267 38.6665 26.6C37.8532 25.24 36.3598 24.3334 34.6665 24.3334C32.9732 24.3334 31.4798 25.24 30.6665 26.6C30.0665 25.6134 29.1198 24.8667 27.9998 24.52V32.72ZM17.3332 10.6667C17.3332 11.5422 17.1607 12.4091 16.8257 13.2179C16.4907 14.0267 15.9996 14.7617 15.3805 15.3807C14.7615 15.9998 14.0266 16.4909 13.2177 16.8259C12.4089 17.1609 11.542 17.3334 10.6665 17.3334V10.6667H17.3332Z" fill="white"/>
</svg>
