<svg width="15" height="15" viewBox="0 0 15 15" fill="none" xmlns="http://www.w3.org/2000/svg">
<rect width="15" height="15" rx="2" fill="white"/>
<path d="M13.3333 13.3333H1.66667V1.66667H13.3333M13.3333 0H1.66667C1.22464 0 0.800716 0.175595 0.488155 0.488155C0.175595 0.800716 0 1.22464 0 1.66667V13.3333C0 13.7754 0.175595 14.1993 0.488155 14.5118C0.800716 14.8244 1.22464 15 1.66667 15H13.3333C13.7754 15 14.1993 14.8244 14.5118 14.5118C14.8244 14.1993 15 13.7754 15 13.3333V1.66667C15 0.741667 14.25 0 13.3333 0ZM5.83333 4.16667V10.8333L10 7.5L5.83333 4.16667Z" fill="#A35D42"/>
</svg>
