<svg xmlns="http://www.w3.org/2000/svg" width="164" height="54" viewBox="0 0 164 54">
  <g id="Group_7" data-name="Group 7" transform="translate(0.5 0.5)">
    <rect id="Rectangle_671" data-name="Rectangle 671" width="163" height="53" rx="5.5"/>
    <rect id="Rectangle_672" data-name="Rectangle 672" width="163" height="53" rx="5.5" fill="none" stroke="#fff" stroke-width="1" opacity="0.201"/>
    <path id="Path_24" data-name="Path 24" d="M158.9,23.348a7.339,7.339,0,0,1,1-3.594,7.556,7.556,0,0,1,2.649-2.679,7.783,7.783,0,0,0-2.693-2.342,7.984,7.984,0,0,0-3.483-.917c-2.6-.266-5.117,1.518-6.441,1.518-1.35,0-3.388-1.491-5.584-1.447a8.368,8.368,0,0,0-4.016,1.17,8.118,8.118,0,0,0-2.9,2.951c-2.992,5.058-.761,12.492,2.105,16.581,1.435,2,3.111,4.239,5.3,4.159,2.146-.087,2.947-1.336,5.539-1.336,2.566,0,3.318,1.336,5.555,1.286,2.3-.036,3.754-2.011,5.139-4.032a16.4,16.4,0,0,0,2.349-4.672,7.362,7.362,0,0,1-3.283-2.659A7.1,7.1,0,0,1,158.9,23.348Z" transform="translate(-126.158 4.268)" fill="#fff"/>
    <path id="Path_25" data-name="Path 25" d="M150.98,13.273A7.248,7.248,0,0,0,152.7,8a7.73,7.73,0,0,0-4.963,2.507,6.952,6.952,0,0,0-1.4,2.367,6.831,6.831,0,0,0-.367,2.711,6.465,6.465,0,0,0,2.776-.594A6.326,6.326,0,0,0,150.98,13.273Z" transform="translate(-122.468 2.122)" fill="#fff"/>
    <path id="Path_26" data-name="Path 26" d="M164.791,8.619h2.837c2.451,0,3.645,1.458,3.645,4.1s-1.2,4.12-3.645,4.12h-2.837Zm1.368,1.15V15.69h1.319c1.627,0,2.392-.982,2.392-2.951s-.772-2.97-2.392-2.97Zm9.438.6a2.67,2.67,0,0,1,2.825,2.867v.825a2.832,2.832,0,1,1-5.662.006v-.825A2.707,2.707,0,0,1,175.6,10.366Zm.005,1.078c-.951,0-1.494.8-1.494,1.861v.711c0,1.066.506,1.855,1.494,1.855s1.476-.783,1.476-1.855V13.3C177.079,12.239,176.555,11.444,175.6,11.444Zm12.638-.97-1.675,6.367H185.2l-1.331-4.7h-.036l-1.308,4.7h-1.368l-1.746-6.367h1.439l1.024,4.855h.06l1.283-4.855h1.26l1.319,4.855h.06l1.042-4.855Zm1.325,6.367V10.474h1.313v1.144h.066a1.812,1.812,0,0,1,1.916-1.241A1.96,1.96,0,0,1,195,12.54v4.3h-1.338V12.931c0-.97-.506-1.415-1.258-1.415-.988,0-1.506.759-1.506,1.789v3.536Zm7.463,0V8.185h1.336v8.656Zm5.927-6.475a2.67,2.67,0,0,1,2.825,2.867v.825a2.832,2.832,0,1,1-5.662.006v-.825A2.706,2.706,0,0,1,202.956,10.366Zm.005,1.078c-.951,0-1.494.8-1.494,1.861v.711c0,1.066.506,1.855,1.494,1.855s1.476-.783,1.476-1.855V13.3C204.438,12.239,203.913,11.444,202.961,11.444Zm6.283,5.493a1.9,1.9,0,0,1-2.085-1.946c0-1.126.783-1.885,2.253-1.885h1.608v-.6c0-.729-.463-1.072-1.2-1.072s-1.049.3-1.151.723H207.4c.078-1.066.88-1.783,2.463-1.783,1.361,0,2.488.566,2.488,2.15v4.313h-1.271v-.825h-.06A1.927,1.927,0,0,1,209.244,16.937Zm.415-1.036a1.272,1.272,0,0,0,1.361-1.211V14h-1.4c-.777,0-1.121.391-1.121.921C208.5,15.588,209.057,15.9,209.66,15.9Zm6.812-5.512a1.832,1.832,0,0,1,1.831,1.042h.066V8.185h1.338v8.656h-1.3V15.823h-.067a1.871,1.871,0,0,1-1.885,1.1c-1.464,0-2.415-1.042-2.415-2.723v-1.09A2.42,2.42,0,0,1,216.472,10.39Zm.374,1.1c-.892,0-1.446.663-1.446,1.819V14c0,1.162.561,1.825,1.476,1.825s1.493-.657,1.493-1.741v-.964A1.516,1.516,0,0,0,216.846,11.486Zm10.2-1.12a2.67,2.67,0,0,1,2.825,2.867v.825a2.832,2.832,0,1,1-5.662.006v-.825A2.707,2.707,0,0,1,227.049,10.366Zm.005,1.078c-.951,0-1.494.8-1.494,1.861v.711c0,1.066.507,1.855,1.494,1.855s1.476-.783,1.476-1.855V13.3C228.531,12.239,228.007,11.444,227.055,11.444Zm4.542,5.4V10.474h1.313v1.144h.066a1.812,1.812,0,0,1,1.916-1.241,1.96,1.96,0,0,1,2.144,2.162v4.3H235.7V12.931c0-.97-.506-1.415-1.258-1.415-.988,0-1.506.759-1.506,1.789v3.536Zm10.613-6.325V8.926h1.308v1.59h1.427v1.048h-1.427v3.379c0,.693.259.885.975.885.181,0,.422-.012.525-.024v1.024a7.884,7.884,0,0,1-.855.054c-1.549,0-1.97-.554-1.97-1.831V11.564h-.97V10.516Zm4.422,6.325V8.185h1.331v3.433h.066a1.878,1.878,0,0,1,1.934-1.241,1.971,1.971,0,0,1,2.126,2.168v4.295h-1.331v-3.9a1.239,1.239,0,0,0-1.3-1.422c-.958,0-1.5.753-1.5,1.789v3.536Zm9.944.108a2.618,2.618,0,0,1-2.813-2.861v-.861a2.731,2.731,0,1,1,5.457,0v.747h-4.133v.313a1.447,1.447,0,0,0,1.482,1.59c.7,0,1.181-.331,1.272-.729h1.306A2.343,2.343,0,0,1,256.576,16.949ZM255.088,13.1h2.825v-.084a1.423,1.423,0,1,0-2.825,0Z" transform="translate(-115.486 2.191)" fill="#fff"/>
    <path id="Path_27" data-name="Path 27" d="M166.958,35.045h-2.782L169.838,18.6H172.9l5.65,16.444h-2.891L174.2,30.491h-5.77Zm4.422-13.6h-.108l-2.229,6.951h4.541Zm14.847,13.782a3.978,3.978,0,0,1-3.577-1.952h-.1v6H179.88V22.311h2.6v1.867h.1a4.126,4.126,0,0,1,3.71-2.036c2.855,0,4.892,2.156,4.892,5.963v1.132C191.179,33.021,189.167,35.225,186.227,35.225Zm-.614-2.2c1.7,0,2.855-1.361,2.855-3.927V28.2c0-2.47-1.084-3.879-2.9-3.879-1.867,0-3.036,1.518-3.036,3.867v.9C182.529,31.5,183.709,33.021,185.613,33.021Zm14.21,2.2a3.978,3.978,0,0,1-3.577-1.952h-.1v6h-2.674V22.311h2.6v1.867h.1a4.126,4.126,0,0,1,3.71-2.036c2.855,0,4.891,2.156,4.891,5.963v1.132C204.774,33.021,202.763,35.225,199.823,35.225Zm-.614-2.2c1.7,0,2.855-1.361,2.855-3.927V28.2c0-2.47-1.084-3.879-2.9-3.879-1.868,0-3.036,1.518-3.036,3.867v.9C196.125,31.5,197.3,33.021,199.209,33.021Zm11.108-2.542h2.674c.121,1.422,1.373,2.638,3.7,2.638,2.133,0,3.4-1,3.4-2.554,0-1.253-.844-1.928-2.6-2.349l-2.7-.675c-2.119-.494-4.023-1.759-4.023-4.433,0-3.144,2.747-4.867,5.939-4.867s5.854,1.723,5.914,4.795h-2.626c-.121-1.4-1.192-2.554-3.324-2.554-1.881,0-3.157.891-3.157,2.421,0,1.072.747,1.843,2.277,2.193l2.687.663c2.47.6,4.349,1.771,4.349,4.566,0,3.229-2.614,5.048-6.337,5.048C211.907,35.37,210.377,32.7,210.317,30.479Zm15.763-8.168v-3.1h2.626v3.1h2.482v2.144h-2.482V31.25c0,1.385.518,1.771,1.952,1.771a4.5,4.5,0,0,0,.6-.024v2.048a8.964,8.964,0,0,1-1.265.084c-3.1,0-3.952-1.108-3.952-3.662V24.455h-1.759V22.311Zm12.331-.217c3.662,0,5.65,2.578,5.65,6.048v1.024c0,3.59-1.975,6.1-5.65,6.1s-5.673-2.506-5.673-6.1V28.142C232.737,24.684,234.747,22.094,238.41,22.094Zm0,2.144c-1.988,0-2.976,1.626-2.976,3.939v.976c0,2.277.976,3.951,2.976,3.951s2.963-1.662,2.963-3.951v-.976C241.373,25.853,240.4,24.239,238.41,24.239Zm7.91,10.806V22.311h2.674v1.674h.1a3.161,3.161,0,0,1,3.048-1.855,4.891,4.891,0,0,1,.9.072v2.361a5.537,5.537,0,0,0-1.144-.1c-2.145,0-2.867,1.325-2.867,3.036v7.541Zm13.209.217c-3.409,0-5.577-2.253-5.577-6.023V27.949c0-3.554,2.119-5.855,5.469-5.855,3.4,0,5.444,2.385,5.444,5.975v1.217h-8.276v.3c0,2.144,1.157,3.566,2.976,3.566a2.508,2.508,0,0,0,2.615-1.771h2.541C264.336,33.442,262.673,35.261,259.529,35.261Zm-2.94-7.843h5.662v-.024a2.856,2.856,0,1,0-5.662,0Z" transform="translate(-115.714 5.918)" fill="#fff"/>
  </g>
</svg>
