<svg xmlns="http://www.w3.org/2000/svg" width="17.996" height="17.996" viewBox="0 0 17.996 17.996">
  <path id="Path_259" data-name="Path 259" d="M16.785,4.1H15.631V2.942a.692.692,0,1,0-1.384,0V4.1h-6V2.942a.692.692,0,1,0-1.384,0V4.1H5.711A3.465,3.465,0,0,0,2.25,7.556v9.229a3.465,3.465,0,0,0,3.461,3.461H16.785a3.465,3.465,0,0,0,3.461-3.461V7.556A3.465,3.465,0,0,0,16.785,4.1Zm2.076,12.689a2.079,2.079,0,0,1-2.076,2.076H5.711a2.079,2.079,0,0,1-2.076-2.076V11.017H18.861Zm0-7.152H3.634V7.556A2.079,2.079,0,0,1,5.711,5.48H6.864V6.634a.692.692,0,1,0,1.384,0V5.48h6V6.634a.692.692,0,1,0,1.384,0V5.48h1.154a2.079,2.079,0,0,1,2.076,2.076ZM9.02,14.572a.188.188,0,0,1,.11-.34h1.311a.231.231,0,0,0,.22-.162l.406-1.3a.189.189,0,0,1,.361,0l.406,1.3a.231.231,0,0,0,.22.162h1.311a.188.188,0,0,1,.11.34l-1.018.735a.231.231,0,0,0-.087.248l.4,1.452a.189.189,0,0,1-.3.2l-1.085-.823a.231.231,0,0,0-.279,0l-1.085.823a.189.189,0,0,1-.3-.2l.4-1.452a.231.231,0,0,0-.087-.248L9.02,14.572Z" transform="translate(-2.25 -2.25)"/>
</svg>
