<svg xmlns="http://www.w3.org/2000/svg" width="18" height="18" viewBox="0 0 18 18">
  <path id="Path_206" data-name="Path 206" d="M2.506,5.227A2.721,2.721,0,0,1,5.227,2.506h6.7a.628.628,0,0,0,0-1.256h-6.7A3.977,3.977,0,0,0,1.25,5.227V15.273A3.977,3.977,0,0,0,5.227,19.25H15.273a3.977,3.977,0,0,0,3.977-3.977v-6.7a.628.628,0,1,0-1.256,0v2.938q-.057-.045-.118-.086L15.883,10.1a3.349,3.349,0,0,0-4.226.418L8.842,13.332a3.349,3.349,0,0,1-4.226.418L2.506,12.343ZM16.738,1.878a.628.628,0,0,0-1.256,0V3.762H13.6a.628.628,0,0,0,0,1.256h1.884V6.9a.628.628,0,0,0,1.256,0V5.017h1.884a.628.628,0,0,0,0-1.256H16.738ZM7.32,9.413A2.093,2.093,0,1,0,5.227,7.32,2.093,2.093,0,0,0,7.32,9.413Z" transform="translate(-1.25 -1.25)" fill="#011233" fill-rule="evenodd"/>
</svg>
