<svg xmlns="http://www.w3.org/2000/svg" width="164" height="54" viewBox="0 0 164 54">
  <g id="Group_8" data-name="Group 8" transform="translate(0.802 0.5)">
    <rect id="Rectangle_673" data-name="Rectangle 673" width="163" height="53" rx="5.5" transform="translate(-0.302)"/>
    <rect id="Rectangle_674" data-name="Rectangle 674" width="163" height="53" rx="5.5" transform="translate(-0.302)" fill="none" stroke="#fff" stroke-width="1" opacity="0.201"/>
    <path id="Path_28" data-name="Path 28" d="M21.406,19.462,8.09,33.914s0,.006,0,.009a3.61,3.61,0,0,0,3.473,2.724,3.526,3.526,0,0,0,1.825-.506l.042-.026,14.988-8.844Z" transform="translate(2.728 6.37)" fill="#ea4335"/>
    <path id="Path_29" data-name="Path 29" d="M31.358,18.706l-.012-.009-6.471-3.836L17.584,21.5l7.317,7.48,6.436-3.8a3.721,3.721,0,0,0,.021-6.472Z" transform="translate(6.247 4.665)" fill="#fbbc04"/>
    <path id="Path_30" data-name="Path 30" d="M8.123,9.993A3.687,3.687,0,0,0,8,10.94V36.479a3.617,3.617,0,0,0,.124.945L21.9,23.341Z" transform="translate(2.695 2.861)" fill="#4285f4"/>
    <path id="Path_31" data-name="Path 31" d="M21.5,24.448,28.4,17.4,13.425,8.526A3.54,3.54,0,0,0,11.566,8a3.614,3.614,0,0,0-3.476,2.728s0,0,0,0Z" transform="translate(2.728 2.122)" fill="#34a853"/>
    <path id="Path_32" data-name="Path 32" d="M46.294,13.2a4.427,4.427,0,0,1-1.22,3.276,4.726,4.726,0,0,1-3.6,1.453,5.055,5.055,0,0,1-5.1-5.126,5.055,5.055,0,0,1,5.1-5.126,5.447,5.447,0,0,1,2.042.384,4.082,4.082,0,0,1,1.576,1.083l-.9.9A2.973,2.973,0,0,0,43,9.2a3.752,3.752,0,0,0-1.535-.315A3.692,3.692,0,0,0,38.755,10a3.863,3.863,0,0,0-1.1,2.81,3.863,3.863,0,0,0,1.1,2.81,3.692,3.692,0,0,0,2.714,1.11,3.649,3.649,0,0,0,2.44-.822,3.277,3.277,0,0,0,1.124-2.262H41.469V12.464h4.756A4.216,4.216,0,0,1,46.294,13.2Zm7.262-5.3V9.105H49.087v3.111h4.03V13.4h-4.03v3.111h4.468v1.206H47.826V7.9ZM58.6,9.105v8.608H57.338V9.105H54.6V7.9H61.34V9.105Zm8.331,8.608H65.669V7.9H66.93Zm5.323-8.608v8.608H70.991V9.105H68.25V7.9h6.744V9.105Zm16.41,3.7a4.974,4.974,0,0,1-1.453,3.646,5.1,5.1,0,0,1-7.182,0,4.974,4.974,0,0,1-1.453-3.646A4.974,4.974,0,0,1,80.027,9.16a5.079,5.079,0,0,1,7.182.014A4.957,4.957,0,0,1,88.662,12.806Zm-8.8,0a3.887,3.887,0,0,0,1.069,2.81,3.6,3.6,0,0,0,2.687,1.11,3.557,3.557,0,0,0,2.673-1.11,3.83,3.83,0,0,0,1.083-2.81A3.83,3.83,0,0,0,86.291,10a3.557,3.557,0,0,0-2.673-1.11A3.6,3.6,0,0,0,80.932,10,3.887,3.887,0,0,0,79.863,12.806Zm11.549,4.907H90.15V7.9h1.535l4.77,7.635h.055l-.055-1.892V7.9h1.261v9.814H96.4l-4.989-8h-.055l.055,1.892Z" transform="translate(13.211 2.003)" fill="#fff"/>
    <path id="Path_33" data-name="Path 33" d="M114.838,35.639h2.233V20.546h-2.233Zm20.109-9.656-2.559,6.544h-.077l-2.656-6.544h-2.406l3.983,9.146-2.27,5.088h2.327l6.139-14.234Zm-12.661,7.942c-.732,0-1.752-.368-1.752-1.282,0-1.164,1.27-1.611,2.367-1.611a3.954,3.954,0,0,1,2.04.5A2.715,2.715,0,0,1,122.286,33.924Zm.269-8.272a4.183,4.183,0,0,0-3.983,2.311l1.981.834a2.112,2.112,0,0,1,2.04-1.107,2.155,2.155,0,0,1,2.348,1.943v.155a4.9,4.9,0,0,0-2.328-.582c-2.136,0-4.311,1.184-4.311,3.4a3.468,3.468,0,0,0,3.714,3.321,3.142,3.142,0,0,0,2.849-1.477h.077v1.165H127.1V29.827C127.1,27.147,125.114,25.653,122.555,25.653Zm-13.8,2.167h-3.175V22.646h3.175a2.587,2.587,0,1,1,0,5.174Zm-.057-7.274h-5.349V35.639h2.231V29.921H108.7a4.692,4.692,0,1,0,0-9.375ZM79.53,33.927A2.935,2.935,0,0,1,76.7,30.835,2.959,2.959,0,0,1,79.53,27.7a2.884,2.884,0,0,1,2.717,3.132A2.858,2.858,0,0,1,79.53,33.927Zm2.564-7.1h-.078a3.513,3.513,0,0,0-2.679-1.147,5.142,5.142,0,0,0,0,10.27,3.453,3.453,0,0,0,2.679-1.168h.078v.74c0,1.964-1.041,3.015-2.718,3.015a2.819,2.819,0,0,1-2.564-1.829l-1.947.817a4.851,4.851,0,0,0,4.511,3.034c2.621,0,4.838-1.556,4.838-5.349v-9.22h-2.12Zm3.662,8.811h2.236V20.545H85.756Zm5.531-4.979a2.806,2.806,0,0,1,2.66-3,1.966,1.966,0,0,1,1.889,1.089Zm6.939-1.712a4.738,4.738,0,0,0-4.356-3.267,4.859,4.859,0,0,0-4.8,5.135,5.064,5.064,0,0,0,9.29,2.859l-1.735-1.168a2.9,2.9,0,0,1-2.507,1.42,2.588,2.588,0,0,1-2.467-1.555l6.8-2.841ZM44.019,27.256v2.178h5.165a4.566,4.566,0,0,1-1.175,2.742,5.266,5.266,0,0,1-3.99,1.6,5.8,5.8,0,0,1,0-11.593,5.477,5.477,0,0,1,3.893,1.556L49.435,22.2A7.5,7.5,0,0,0,44.019,20a7.975,7.975,0,1,0,0,15.95A7.028,7.028,0,0,0,51.4,28.617a7.1,7.1,0,0,0-.116-1.361Zm13.255,6.671A2.959,2.959,0,0,1,54.4,30.816a2.881,2.881,0,1,1,5.744,0A2.959,2.959,0,0,1,57.274,33.927Zm0-8.246a5.135,5.135,0,1,0,5.108,5.135A5.038,5.038,0,0,0,57.274,25.681Zm11.142,8.246a2.959,2.959,0,0,1-2.873-3.111,2.881,2.881,0,1,1,5.744,0A2.958,2.958,0,0,1,68.416,33.927Zm0-8.246a5.135,5.135,0,1,0,5.108,5.135A5.038,5.038,0,0,0,68.416,25.681Z" transform="translate(13.073 6.57)" fill="#fff"/>
  </g>
</svg>
