<svg id="Layer_1-2" xmlns="http://www.w3.org/2000/svg" xmlns:xlink="http://www.w3.org/1999/xlink" width="268.32" height="71.712" viewBox="0 0 268.32 71.712">
  <defs>
    <clipPath id="clip-path">
      <path id="Path_14" data-name="Path 14" d="M33.43,24.39h0L21.79,17.67a14.18,14.18,0,0,0-14.53,0A14.168,14.168,0,0,0,0,30.25V57.13A14.191,14.191,0,0,0,7.26,69.71a14.18,14.18,0,0,0,14.53,0l11.64-6.72-6.02-3.47L18.78,64.5a8.187,8.187,0,0,1-8.51,0,8.172,8.172,0,0,1-4.25-7.37V30.25a8.191,8.191,0,0,1,4.25-7.37,8.187,8.187,0,0,1,8.51,0l8.63,4.98,6.02,3.47h0l8.63,4.98a8.505,8.505,0,0,1,0,14.74l-8.63,4.98,6.02,3.47,5.62-3.25a14.529,14.529,0,0,0,0-25.16l-5.62-3.25-6.02-3.47h0ZM12.6,0A6.03,6.03,0,1,1,6.57,6.03,6.03,6.03,0,0,1,12.6,0Z" fill="none"/>
    </clipPath>
    <linearGradient id="linear-gradient" x1="0.506" y1="0.681" x2="0.663" y2="0.122" gradientUnits="objectBoundingBox">
      <stop offset="0" stop-color="#ffcd03"/>
      <stop offset="1" stop-color="#f16122"/>
    </linearGradient>
  </defs>
  <g id="Group_5" data-name="Group 5" clip-path="url(#clip-path)">
    <rect id="Rectangle_336" data-name="Rectangle 336" width="6.13" height="66.38" transform="matrix(0.696, -0.718, 0.718, 0.696, -27.489, 37.85)" fill="#00d0ff"/>
    <rect id="Rectangle_337" data-name="Rectangle 337" width="0.47" height="66.38" transform="matrix(0.696, -0.718, 0.718, 0.696, -23.322, 33.545)" fill="#00d0ff"/>
    <rect id="Rectangle_338" data-name="Rectangle 338" width="0.47" height="66.38" transform="matrix(0.696, -0.718, 0.718, 0.696, -23.113, 33.331)" fill="#00cfff"/>
    <rect id="Rectangle_339" data-name="Rectangle 339" width="0.46" height="66.38" transform="translate(-22.893 33.114) rotate(-45.91)" fill="#00cfff"/>
    <rect id="Rectangle_340" data-name="Rectangle 340" width="0.47" height="66.38" transform="matrix(0.696, -0.718, 0.718, 0.696, -22.68, 32.886)" fill="#00ceff"/>
    <rect id="Rectangle_341" data-name="Rectangle 341" width="0.46" height="66.38" transform="matrix(0.696, -0.718, 0.718, 0.696, -22.469, 32.655)" fill="#00ceff"/>
    <rect id="Rectangle_342" data-name="Rectangle 342" width="0.47" height="66.38" transform="translate(-22.252 32.441) rotate(-45.91)" fill="#00ceff"/>
    <rect id="Rectangle_343" data-name="Rectangle 343" width="0.47" height="66.38" transform="matrix(0.696, -0.718, 0.718, 0.696, -22.029, 32.213)" fill="#00cdff"/>
    <rect id="Rectangle_344" data-name="Rectangle 344" width="0.47" height="66.38" transform="matrix(0.695, -0.719, 0.719, 0.695, -21.831, 32.017)" fill="#00cdff"/>
    <rect id="Rectangle_345" data-name="Rectangle 345" width="0.46" height="66.38" transform="translate(-21.615 31.782) rotate(-45.92)" fill="#0cf"/>
    <rect id="Rectangle_346" data-name="Rectangle 346" width="0.47" height="66.38" transform="translate(-21.392 31.554) rotate(-45.91)" fill="#01ccff"/>
    <rect id="Rectangle_347" data-name="Rectangle 347" width="0.47" height="66.38" transform="matrix(0.696, -0.718, 0.718, 0.696, -21.161, 31.329)" fill="#01ccff"/>
    <rect id="Rectangle_348" data-name="Rectangle 348" width="0.47" height="66.38" transform="matrix(0.696, -0.718, 0.718, 0.696, -20.944, 31.105)" fill="#01cbff"/>
    <rect id="Rectangle_349" data-name="Rectangle 349" width="0.47" height="66.38" transform="matrix(0.696, -0.718, 0.718, 0.696, -20.734, 30.874)" fill="#01cbff"/>
    <rect id="Rectangle_350" data-name="Rectangle 350" width="0.47" height="66.38" transform="translate(-20.531 30.674) rotate(-45.92)" fill="#01caff"/>
    <rect id="Rectangle_351" data-name="Rectangle 351" width="0.47" height="66.38" transform="matrix(0.696, -0.718, 0.718, 0.696, -20.302, 30.432)" fill="#01caff"/>
    <rect id="Rectangle_352" data-name="Rectangle 352" width="0.46" height="66.38" transform="matrix(0.696, -0.718, 0.718, 0.696, -20.091, 30.211)" fill="#01c9ff"/>
    <rect id="Rectangle_353" data-name="Rectangle 353" width="0.47" height="66.38" transform="translate(-19.882 29.994) rotate(-45.91)" fill="#01c9ff"/>
    <rect id="Rectangle_354" data-name="Rectangle 354" width="0.47" height="66.38" transform="matrix(0.696, -0.718, 0.718, 0.696, -19.66, 29.769)" fill="#01c9ff"/>
    <rect id="Rectangle_355" data-name="Rectangle 355" width="0.47" height="66.38" transform="matrix(0.696, -0.718, 0.718, 0.696, -19.456, 29.563)" fill="#01c8ff"/>
    <rect id="Rectangle_356" data-name="Rectangle 356" width="0.47" height="66.38" transform="matrix(0.696, -0.718, 0.718, 0.696, -19.225, 29.317)" fill="#01c8ff"/>
    <rect id="Rectangle_357" data-name="Rectangle 357" width="0.47" height="66.38" transform="translate(-19.023 29.107) rotate(-45.91)" fill="#01c7ff"/>
    <rect id="Rectangle_358" data-name="Rectangle 358" width="0.47" height="66.38" transform="matrix(0.696, -0.718, 0.718, 0.696, -18.79, 28.879)" fill="#01c7ff"/>
    <rect id="Rectangle_359" data-name="Rectangle 359" width="0.47" height="66.38" transform="translate(-18.59 28.672) rotate(-45.91)" fill="#01c7ff"/>
    <rect id="Rectangle_360" data-name="Rectangle 360" width="0.46" height="66.38" transform="translate(-18.371 28.431) rotate(-45.92)" fill="#01c6ff"/>
    <rect id="Rectangle_361" data-name="Rectangle 361" width="0.47" height="66.38" transform="matrix(0.696, -0.718, 0.718, 0.696, -18.14, 28.199)" fill="#01c6ff"/>
    <rect id="Rectangle_362" data-name="Rectangle 362" width="0.47" height="66.38" transform="matrix(0.696, -0.718, 0.718, 0.696, -17.923, 27.978)" fill="#01c5ff"/>
    <rect id="Rectangle_363" data-name="Rectangle 363" width="0.47" height="66.38" transform="matrix(0.696, -0.718, 0.718, 0.696, -17.707, 27.764)" fill="#01c5ff"/>
    <rect id="Rectangle_364" data-name="Rectangle 364" width="0.47" height="66.38" transform="matrix(0.696, -0.718, 0.718, 0.696, -17.506, 27.533)" fill="#02c5ff"/>
    <rect id="Rectangle_365" data-name="Rectangle 365" width="0.47" height="66.38" transform="matrix(0.696, -0.718, 0.718, 0.696, -17.281, 27.312)" fill="#02c4ff"/>
    <rect id="Rectangle_366" data-name="Rectangle 366" width="0.47" height="66.38" transform="matrix(0.695, -0.719, 0.719, 0.695, -17.086, 27.123)" fill="#02c4ff"/>
    <rect id="Rectangle_367" data-name="Rectangle 367" width="0.46" height="66.38" transform="matrix(0.696, -0.718, 0.718, 0.696, -16.854, 26.87)" fill="#02c3ff"/>
    <rect id="Rectangle_368" data-name="Rectangle 368" width="0.47" height="66.38" transform="translate(-16.646 26.66) rotate(-45.92)" fill="#02c3ff"/>
    <rect id="Rectangle_369" data-name="Rectangle 369" width="0.47" height="66.38" transform="matrix(0.696, -0.718, 0.718, 0.696, -16.412, 26.418)" fill="#02c3ff"/>
    <rect id="Rectangle_370" data-name="Rectangle 370" width="0.47" height="66.38" transform="translate(-16.214 26.218) rotate(-45.91)" fill="#02c2ff"/>
    <rect id="Rectangle_371" data-name="Rectangle 371" width="0.46" height="66.38" transform="translate(-16.002 25.984) rotate(-45.92)" fill="#02c2ff"/>
    <rect id="Rectangle_372" data-name="Rectangle 372" width="0.47" height="66.38" transform="matrix(0.696, -0.718, 0.718, 0.696, -15.77, 25.752)" fill="#02c1ff"/>
    <rect id="Rectangle_373" data-name="Rectangle 373" width="0.47" height="66.38" transform="matrix(0.696, -0.718, 0.718, 0.696, -15.561, 25.538)" fill="#02c1ff"/>
    <rect id="Rectangle_374" data-name="Rectangle 374" width="0.47" height="66.38" transform="matrix(0.696, -0.718, 0.718, 0.696, -15.336, 25.317)" fill="#02c1ff"/>
    <rect id="Rectangle_375" data-name="Rectangle 375" width="0.47" height="66.38" transform="matrix(0.696, -0.718, 0.718, 0.696, -15.128, 25.079)" fill="#02c0ff"/>
    <rect id="Rectangle_376" data-name="Rectangle 376" width="0.46" height="66.38" transform="translate(-14.919 24.869) rotate(-45.91)" fill="#02c0ff"/>
    <rect id="Rectangle_377" data-name="Rectangle 377" width="0.47" height="66.38" transform="translate(-14.694 24.648) rotate(-45.91)" fill="#02bfff"/>
    <rect id="Rectangle_378" data-name="Rectangle 378" width="0.46" height="66.38" transform="matrix(0.696, -0.718, 0.718, 0.696, -14.476, 24.427)" fill="#02bfff"/>
    <rect id="Rectangle_379" data-name="Rectangle 379" width="0.47" height="66.38" transform="translate(-14.278 24.206) rotate(-45.91)" fill="#02beff"/>
    <rect id="Rectangle_380" data-name="Rectangle 380" width="0.47" height="66.38" transform="matrix(0.696, -0.718, 0.718, 0.696, -14.044, 23.971)" fill="#02beff"/>
    <rect id="Rectangle_381" data-name="Rectangle 381" width="0.47" height="66.38" transform="matrix(0.695, -0.719, 0.719, 0.695, -13.853, 23.782)" fill="#02beff"/>
    <rect id="Rectangle_382" data-name="Rectangle 382" width="0.46" height="66.38" transform="translate(-13.626 23.53) rotate(-45.92)" fill="#03bdff"/>
    <rect id="Rectangle_383" data-name="Rectangle 383" width="0.47" height="66.38" transform="translate(-13.408 23.319) rotate(-45.91)" fill="#03bdff"/>
    <rect id="Rectangle_384" data-name="Rectangle 384" width="0.47" height="66.38" transform="matrix(0.696, -0.718, 0.718, 0.696, -13.174, 23.077)" fill="#03bcff"/>
    <rect id="Rectangle_385" data-name="Rectangle 385" width="0.47" height="66.38" transform="matrix(0.696, -0.718, 0.718, 0.696, -12.966, 22.87)" fill="#03bcff"/>
    <rect id="Rectangle_386" data-name="Rectangle 386" width="0.47" height="66.38" transform="matrix(0.696, -0.718, 0.718, 0.696, -12.758, 22.639)" fill="#03bcff"/>
    <rect id="Rectangle_387" data-name="Rectangle 387" width="0.46" height="66.38" transform="translate(-12.542 22.432) rotate(-45.92)" fill="#03bbff"/>
    <rect id="Rectangle_388" data-name="Rectangle 388" width="0.47" height="66.38" transform="matrix(0.696, -0.718, 0.718, 0.696, -12.314, 22.197)" fill="#03bbff"/>
    <rect id="Rectangle_389" data-name="Rectangle 389" width="0.46" height="66.38" transform="matrix(0.696, -0.718, 0.718, 0.696, -12.099, 21.976)" fill="#03baff"/>
    <rect id="Rectangle_390" data-name="Rectangle 390" width="0.47" height="66.38" transform="translate(-11.898 21.759) rotate(-45.91)" fill="#03baff"/>
    <rect id="Rectangle_391" data-name="Rectangle 391" width="0.47" height="66.38" transform="matrix(0.696, -0.718, 0.718, 0.696, -11.673, 21.517)" fill="#03baff"/>
    <rect id="Rectangle_392" data-name="Rectangle 392" width="0.47" height="66.38" transform="matrix(0.696, -0.718, 0.718, 0.696, -11.476, 21.328)" fill="#03b9ff"/>
    <rect id="Rectangle_393" data-name="Rectangle 393" width="0.47" height="66.38" transform="matrix(0.696, -0.718, 0.718, 0.696, -11.24, 21.079)" fill="#03b9ff"/>
    <rect id="Rectangle_394" data-name="Rectangle 394" width="0.47" height="66.38" transform="translate(-11.032 20.865) rotate(-45.91)" fill="#03b8ff"/>
    <rect id="Rectangle_395" data-name="Rectangle 395" width="0.47" height="66.38" transform="matrix(0.696, -0.718, 0.718, 0.696, -10.814, 20.644)" fill="#03b8ff"/>
    <rect id="Rectangle_396" data-name="Rectangle 396" width="0.47" height="66.38" transform="matrix(0.696, -0.718, 0.718, 0.696, -10.589, 20.413)" fill="#03b8ff"/>
    <rect id="Rectangle_397" data-name="Rectangle 397" width="0.47" height="66.38" transform="translate(-10.399 20.196) rotate(-45.92)" fill="#03b7ff"/>
    <rect id="Rectangle_398" data-name="Rectangle 398" width="0.47" height="66.38" transform="matrix(0.696, -0.718, 0.718, 0.696, -10.162, 19.964)" fill="#03b7ff"/>
    <rect id="Rectangle_399" data-name="Rectangle 399" width="0.47" height="66.38" transform="matrix(0.696, -0.718, 0.718, 0.696, -9.943, 19.743)" fill="#03b6ff"/>
    <rect id="Rectangle_400" data-name="Rectangle 400" width="0.47" height="66.38" transform="matrix(0.696, -0.718, 0.718, 0.696, -9.729, 19.529)" fill="#04b6ff"/>
    <rect id="Rectangle_401" data-name="Rectangle 401" width="0.47" height="66.38" transform="translate(-9.522 19.305) rotate(-45.91)" fill="#04b5ff"/>
    <rect id="Rectangle_402" data-name="Rectangle 402" width="0.47" height="66.38" transform="matrix(0.696, -0.718, 0.718, 0.696, -9.303, 19.077)" fill="#04b5ff"/>
    <rect id="Rectangle_403" data-name="Rectangle 403" width="0.47" height="66.38" transform="matrix(0.695, -0.719, 0.719, 0.695, -9.101, 18.871)" fill="#04b5ff"/>
    <rect id="Rectangle_404" data-name="Rectangle 404" width="0.46" height="66.38" transform="matrix(0.696, -0.718, 0.718, 0.696, -8.869, 18.632)" fill="#04b4ff"/>
    <rect id="Rectangle_405" data-name="Rectangle 405" width="0.47" height="66.38" transform="translate(-8.664 18.425) rotate(-45.92)" fill="#04b4ff"/>
    <rect id="Rectangle_406" data-name="Rectangle 406" width="0.47" height="66.38" transform="matrix(0.696, -0.718, 0.718, 0.696, -8.436, 18.183)" fill="#04b3ff"/>
    <rect id="Rectangle_407" data-name="Rectangle 407" width="0.47" height="66.38" transform="translate(-8.23 17.973) rotate(-45.91)" fill="#04b3ff"/>
    <rect id="Rectangle_408" data-name="Rectangle 408" width="0.46" height="66.38" transform="translate(-8.006 17.749) rotate(-45.92)" fill="#04b3ff"/>
    <rect id="Rectangle_409" data-name="Rectangle 409" width="0.47" height="66.38" transform="matrix(0.696, -0.718, 0.718, 0.696, -7.792, 17.517)" fill="#04b2ff"/>
    <rect id="Rectangle_410" data-name="Rectangle 410" width="0.47" height="66.38" transform="matrix(0.696, -0.718, 0.718, 0.696, -7.566, 17.296)" fill="#04b2ff"/>
    <rect id="Rectangle_411" data-name="Rectangle 411" width="0.47" height="66.38" transform="matrix(0.696, -0.718, 0.718, 0.696, -7.358, 17.082)" fill="#04b1ff"/>
    <rect id="Rectangle_412" data-name="Rectangle 412" width="0.47" height="66.38" transform="matrix(0.696, -0.718, 0.718, 0.696, -7.14, 16.844)" fill="#04b1ff"/>
    <rect id="Rectangle_413" data-name="Rectangle 413" width="0.46" height="66.38" transform="translate(-6.928 16.627) rotate(-45.91)" fill="#04b1ff"/>
    <rect id="Rectangle_414" data-name="Rectangle 414" width="0.47" height="66.38" transform="translate(-6.72 16.413) rotate(-45.91)" fill="#04b0ff"/>
    <rect id="Rectangle_415" data-name="Rectangle 415" width="0.46" height="66.38" transform="matrix(0.696, -0.718, 0.718, 0.696, -6.493, 16.185)" fill="#04b0ff"/>
    <rect id="Rectangle_416" data-name="Rectangle 416" width="0.47" height="66.38" transform="translate(-6.294 15.971) rotate(-45.91)" fill="#04afff"/>
    <rect id="Rectangle_417" data-name="Rectangle 417" width="0.47" height="66.38" transform="matrix(0.696, -0.718, 0.718, 0.696, -6.065, 15.736)" fill="#04afff"/>
    <rect id="Rectangle_418" data-name="Rectangle 418" width="0.47" height="66.38" transform="matrix(0.695, -0.719, 0.719, 0.695, -5.865, 15.538)" fill="#05afff"/>
    <rect id="Rectangle_419" data-name="Rectangle 419" width="0.46" height="66.38" transform="translate(-5.637 15.302) rotate(-45.92)" fill="#05aeff"/>
    <rect id="Rectangle_420" data-name="Rectangle 420" width="0.46" height="66.38" transform="matrix(0.696, -0.718, 0.718, 0.696, -5.414, 15.063)" fill="#05aeff"/>
    <rect id="Rectangle_421" data-name="Rectangle 421" width="0.47" height="66.38" transform="matrix(0.696, -0.718, 0.718, 0.696, -5.194, 14.842)" fill="#05adff"/>
    <rect id="Rectangle_422" data-name="Rectangle 422" width="0.47" height="66.38" transform="matrix(0.696, -0.718, 0.718, 0.696, -4.981, 14.618)" fill="#05adff"/>
    <rect id="Rectangle_423" data-name="Rectangle 423" width="0.47" height="66.38" transform="matrix(0.696, -0.718, 0.718, 0.696, -4.782, 14.404)" fill="#05adff"/>
    <rect id="Rectangle_424" data-name="Rectangle 424" width="0.46" height="66.38" transform="translate(-4.57 14.187) rotate(-45.92)" fill="#05acff"/>
    <rect id="Rectangle_425" data-name="Rectangle 425" width="0.47" height="66.38" transform="translate(-4.35 13.966) rotate(-45.91)" fill="#05acff"/>
    <rect id="Rectangle_426" data-name="Rectangle 426" width="0.46" height="66.38" transform="matrix(0.696, -0.718, 0.718, 0.696, -4.121, 13.731)" fill="#05abff"/>
    <rect id="Rectangle_427" data-name="Rectangle 427" width="0.47" height="66.38" transform="translate(-3.917 13.517) rotate(-45.91)" fill="#05abff"/>
    <rect id="Rectangle_428" data-name="Rectangle 428" width="0.47" height="66.38" transform="matrix(0.696, -0.718, 0.718, 0.696, -3.683, 13.282)" fill="#05aaff"/>
    <rect id="Rectangle_429" data-name="Rectangle 429" width="0.47" height="66.38" transform="matrix(0.696, -0.718, 0.718, 0.696, -3.489, 13.086)" fill="#05aaff"/>
    <rect id="Rectangle_430" data-name="Rectangle 430" width="0.47" height="66.38" transform="matrix(0.696, -0.718, 0.718, 0.696, -3.262, 12.844)" fill="#05aaff"/>
    <rect id="Rectangle_431" data-name="Rectangle 431" width="0.47" height="66.38" transform="translate(-3.048 12.63) rotate(-45.91)" fill="#05a9ff"/>
    <rect id="Rectangle_432" data-name="Rectangle 432" width="0.47" height="66.38" transform="matrix(0.696, -0.718, 0.718, 0.696, -2.831, 12.392)" fill="#05a9ff"/>
    <rect id="Rectangle_433" data-name="Rectangle 433" width="0.47" height="66.38" transform="matrix(0.696, -0.718, 0.718, 0.696, -2.613, 12.178)" fill="#05a8ff"/>
    <rect id="Rectangle_434" data-name="Rectangle 434" width="0.47" height="66.38" transform="translate(-2.403 11.961) rotate(-45.92)" fill="#05a8ff"/>
    <rect id="Rectangle_435" data-name="Rectangle 435" width="0.47" height="66.38" transform="matrix(0.696, -0.718, 0.718, 0.696, -2.184, 11.729)" fill="#05a8ff"/>
    <rect id="Rectangle_436" data-name="Rectangle 436" width="0.47" height="66.38" transform="matrix(0.696, -0.718, 0.718, 0.696, -1.956, 11.5)" fill="#05a7ff"/>
    <rect id="Rectangle_437" data-name="Rectangle 437" width="0.47" height="66.38" transform="matrix(0.696, -0.718, 0.718, 0.696, -1.751, 11.284)" fill="#06a7ff"/>
    <rect id="Rectangle_438" data-name="Rectangle 438" width="0.47" height="66.38" transform="translate(-1.548 11.07) rotate(-45.91)" fill="#06a6ff"/>
    <rect id="Rectangle_439" data-name="Rectangle 439" width="0.47" height="66.38" transform="matrix(0.696, -0.718, 0.718, 0.696, -1.317, 10.835)" fill="#06a6ff"/>
    <rect id="Rectangle_440" data-name="Rectangle 440" width="0.47" height="66.38" transform="matrix(0.695, -0.719, 0.719, 0.695, -1.123, 10.637)" fill="#06a6ff"/>
    <rect id="Rectangle_441" data-name="Rectangle 441" width="0.46" height="66.38" transform="matrix(0.696, -0.718, 0.718, 0.696, -0.884, 10.39)" fill="#06a5ff"/>
    <rect id="Rectangle_442" data-name="Rectangle 442" width="0.47" height="66.38" transform="translate(-0.679 10.183) rotate(-45.91)" fill="#06a5ff"/>
    <rect id="Rectangle_443" data-name="Rectangle 443" width="0.47" height="66.38" transform="matrix(0.696, -0.718, 0.718, 0.696, -0.448, 9.948)" fill="#06a4ff"/>
    <rect id="Rectangle_444" data-name="Rectangle 444" width="0.47" height="66.38" transform="matrix(0.696, -0.718, 0.718, 0.696, -0.243, 9.731)" fill="#06a4ff"/>
    <rect id="Rectangle_445" data-name="Rectangle 445" width="0.47" height="66.38" transform="translate(-0.034 9.514) rotate(-45.92)" fill="#06a4ff"/>
    <rect id="Rectangle_446" data-name="Rectangle 446" width="0.47" height="66.38" transform="matrix(0.696, -0.718, 0.718, 0.696, 0.193, 9.275)" fill="#06a3ff"/>
    <rect id="Rectangle_447" data-name="Rectangle 447" width="0.47" height="66.38" transform="matrix(0.696, -0.718, 0.718, 0.696, 0.412, 9.061)" fill="#06a3ff"/>
    <rect id="Rectangle_448" data-name="Rectangle 448" width="0.47" height="66.38" transform="matrix(0.696, -0.718, 0.718, 0.696, 0.627, 8.83)" fill="#06a2ff"/>
    <rect id="Rectangle_449" data-name="Rectangle 449" width="0.47" height="66.38" transform="translate(0.839 8.63) rotate(-45.91)" fill="#06a2ff"/>
    <rect id="Rectangle_450" data-name="Rectangle 450" width="0.46" height="66.38" transform="translate(1.046 8.392) rotate(-45.91)" fill="#06a2ff"/>
    <rect id="Rectangle_451" data-name="Rectangle 451" width="0.47" height="66.38" transform="translate(1.264 8.178) rotate(-45.91)" fill="#06a1ff"/>
    <rect id="Rectangle_452" data-name="Rectangle 452" width="0.46" height="66.38" transform="matrix(0.696, -0.718, 0.718, 0.696, 1.483, 7.95)" fill="#06a1ff"/>
    <rect id="Rectangle_453" data-name="Rectangle 453" width="0.47" height="66.38" transform="translate(1.697 7.729) rotate(-45.91)" fill="#06a0ff"/>
    <rect id="Rectangle_454" data-name="Rectangle 454" width="0.47" height="66.38" transform="matrix(0.696, -0.718, 0.718, 0.696, 1.923, 7.501)" fill="#06a0ff"/>
    <rect id="Rectangle_455" data-name="Rectangle 455" width="0.47" height="66.38" transform="matrix(0.695, -0.719, 0.719, 0.695, 2.12, 7.296)" fill="#079fff"/>
    <rect id="Rectangle_456" data-name="Rectangle 456" width="0.46" height="66.38" transform="translate(2.345 7.067) rotate(-45.92)" fill="#079fff"/>
    <rect id="Rectangle_457" data-name="Rectangle 457" width="0.46" height="66.38" transform="matrix(0.696, -0.718, 0.718, 0.696, 2.564, 6.828)" fill="#079fff"/>
    <rect id="Rectangle_458" data-name="Rectangle 458" width="0.47" height="66.38" transform="matrix(0.696, -0.718, 0.718, 0.696, 2.793, 6.599)" fill="#079eff"/>
    <rect id="Rectangle_459" data-name="Rectangle 459" width="0.47" height="66.38" transform="matrix(0.696, -0.718, 0.718, 0.696, 2.997, 6.383)" fill="#079eff"/>
    <rect id="Rectangle_460" data-name="Rectangle 460" width="0.47" height="66.38" transform="matrix(0.696, -0.718, 0.718, 0.696, 3.218, 6.169)" fill="#079dff"/>
    <rect id="Rectangle_461" data-name="Rectangle 461" width="0.46" height="66.38" transform="translate(3.412 5.952) rotate(-45.92)" fill="#079dff"/>
    <rect id="Rectangle_462" data-name="Rectangle 462" width="0.47" height="66.38" transform="translate(3.641 5.724) rotate(-45.91)" fill="#079dff"/>
    <rect id="Rectangle_463" data-name="Rectangle 463" width="0.46" height="66.38" transform="matrix(0.696, -0.718, 0.718, 0.696, 3.857, 5.496)" fill="#079cff"/>
    <rect id="Rectangle_464" data-name="Rectangle 464" width="0.47" height="66.38" transform="translate(4.074 5.289) rotate(-45.91)" fill="#079cff"/>
    <rect id="Rectangle_465" data-name="Rectangle 465" width="0.47" height="66.38" transform="matrix(0.696, -0.718, 0.718, 0.696, 4.304, 5.039)" fill="#079bff"/>
    <rect id="Rectangle_466" data-name="Rectangle 466" width="0.47" height="66.38" transform="matrix(0.696, -0.718, 0.718, 0.696, 4.492, 4.842)" fill="#079bff"/>
    <rect id="Rectangle_467" data-name="Rectangle 467" width="0.47" height="66.38" transform="matrix(0.696, -0.718, 0.718, 0.696, 4.733, 4.602)" fill="#079bff"/>
    <rect id="Rectangle_468" data-name="Rectangle 468" width="0.46" height="66.38" transform="matrix(0.696, -0.718, 0.718, 0.696, 4.935, 4.381)" fill="#079aff"/>
    <rect id="Rectangle_469" data-name="Rectangle 469" width="0.47" height="66.38" transform="matrix(0.696, -0.718, 0.718, 0.696, 5.16, 4.16)" fill="#079aff"/>
    <rect id="Rectangle_470" data-name="Rectangle 470" width="0.47" height="66.38" transform="matrix(0.696, -0.718, 0.718, 0.696, 5.363, 3.943)" fill="#0799ff"/>
    <rect id="Rectangle_471" data-name="Rectangle 471" width="0.47" height="66.38" transform="translate(5.579 3.726) rotate(-45.92)" fill="#0799ff"/>
    <rect id="Rectangle_472" data-name="Rectangle 472" width="0.47" height="66.38" transform="matrix(0.696, -0.718, 0.718, 0.696, 5.801, 3.487)" fill="#0799ff"/>
    <rect id="Rectangle_473" data-name="Rectangle 473" width="0.47" height="66.38" transform="translate(6.01 3.277) rotate(-45.91)" fill="#0898ff"/>
    <rect id="Rectangle_474" data-name="Rectangle 474" width="0.47" height="66.38" transform="matrix(0.696, -0.718, 0.718, 0.696, 6.234, 3.042)" fill="#0898ff"/>
    <rect id="Rectangle_475" data-name="Rectangle 475" width="0.47" height="66.38" transform="translate(6.443 2.842) rotate(-45.91)" fill="#0897ff"/>
    <rect id="Rectangle_476" data-name="Rectangle 476" width="0.46" height="66.38" transform="translate(6.656 2.601) rotate(-45.92)" fill="#0897ff"/>
    <rect id="Rectangle_477" data-name="Rectangle 477" width="0.47" height="66.38" transform="matrix(0.695, -0.719, 0.719, 0.695, 6.865, 2.402)" fill="#0896ff"/>
    <rect id="Rectangle_478" data-name="Rectangle 478" width="0.46" height="66.38" transform="matrix(0.696, -0.718, 0.718, 0.696, 7.104, 2.155)" fill="#0896ff"/>
    <rect id="Rectangle_479" data-name="Rectangle 479" width="0.47" height="66.38" transform="translate(7.309 1.948) rotate(-45.91)" fill="#0896ff"/>
    <rect id="Rectangle_480" data-name="Rectangle 480" width="0.47" height="66.38" transform="matrix(0.696, -0.718, 0.718, 0.696, 7.53, 1.703)" fill="#0895ff"/>
    <rect id="Rectangle_481" data-name="Rectangle 481" width="0.47" height="66.38" transform="matrix(0.696, -0.718, 0.718, 0.696, 7.74, 1.489)" fill="#0895ff"/>
    <rect id="Rectangle_482" data-name="Rectangle 482" width="0.47" height="66.38" transform="translate(7.948 1.279) rotate(-45.92)" fill="#0894ff"/>
    <rect id="Rectangle_483" data-name="Rectangle 483" width="0.47" height="66.38" transform="matrix(0.696, -0.718, 0.718, 0.696, 8.172, 1.04)" fill="#0894ff"/>
    <rect id="Rectangle_484" data-name="Rectangle 484" width="0.47" height="66.38" transform="matrix(0.696, -0.718, 0.718, 0.696, 8.397, 0.809)" fill="#0894ff"/>
    <rect id="Rectangle_485" data-name="Rectangle 485" width="0.47" height="66.38" transform="matrix(0.696, -0.718, 0.718, 0.696, 8.605, 0.595)" fill="#0893ff"/>
    <rect id="Rectangle_486" data-name="Rectangle 486" width="0.47" height="66.38" transform="translate(8.819 0.388) rotate(-45.91)" fill="#0893ff"/>
    <rect id="Rectangle_487" data-name="Rectangle 487" width="0.46" height="66.38" transform="translate(9.03 0.157) rotate(-45.91)" fill="#0892ff"/>
    <rect id="Rectangle_488" data-name="Rectangle 488" width="0.47" height="66.38" transform="translate(9.245 -0.074) rotate(-45.91)" fill="#0892ff"/>
    <rect id="Rectangle_489" data-name="Rectangle 489" width="0.46" height="66.38" transform="matrix(0.696, -0.718, 0.718, 0.696, 9.469, -0.285)" fill="#0892ff"/>
    <rect id="Rectangle_490" data-name="Rectangle 490" width="0.47" height="66.38" transform="translate(9.689 -0.509) rotate(-45.91)" fill="#0891ff"/>
    <rect id="Rectangle_491" data-name="Rectangle 491" width="0.47" height="66.38" transform="matrix(0.696, -0.718, 0.718, 0.696, 9.908, -0.751)" fill="#0991ff"/>
    <rect id="Rectangle_492" data-name="Rectangle 492" width="0.46" height="66.38" transform="translate(10.109 -0.954) rotate(-45.92)" fill="#0990ff"/>
    <rect id="Rectangle_493" data-name="Rectangle 493" width="0.47" height="66.38" transform="matrix(0.696, -0.718, 0.718, 0.696, 10.341, -1.186)" fill="#0990ff"/>
    <rect id="Rectangle_494" data-name="Rectangle 494" width="0.46" height="66.38" transform="matrix(0.696, -0.718, 0.718, 0.696, 10.542, -1.407)" fill="#0990ff"/>
    <rect id="Rectangle_495" data-name="Rectangle 495" width="0.47" height="66.38" transform="matrix(0.696, -0.718, 0.718, 0.696, 10.767, -1.638)" fill="#098fff"/>
    <rect id="Rectangle_496" data-name="Rectangle 496" width="0.47" height="66.38" transform="matrix(0.696, -0.718, 0.718, 0.696, 10.981, -1.86)" fill="#098fff"/>
    <rect id="Rectangle_497" data-name="Rectangle 497" width="0.47" height="66.38" transform="translate(11.199 -2.059) rotate(-45.91)" fill="#098eff"/>
    <rect id="Rectangle_498" data-name="Rectangle 498" width="0.46" height="66.38" transform="translate(11.401 -2.29) rotate(-45.92)" fill="#098eff"/>
    <rect id="Rectangle_499" data-name="Rectangle 499" width="0.47" height="66.38" transform="translate(11.625 -2.511) rotate(-45.91)" fill="#098eff"/>
    <rect id="Rectangle_500" data-name="Rectangle 500" width="0.46" height="66.38" transform="matrix(0.696, -0.718, 0.718, 0.696, 11.852, -2.747)" fill="#098dff"/>
    <rect id="Rectangle_501" data-name="Rectangle 501" width="0.47" height="66.38" transform="translate(12.058 -2.956) rotate(-45.91)" fill="#098dff"/>
    <rect id="Rectangle_502" data-name="Rectangle 502" width="0.47" height="66.38" transform="matrix(0.696, -0.718, 0.718, 0.696, 12.278, -3.198)" fill="#098cff"/>
    <path id="Path_13" data-name="Path 13" d="M12.49-3.41l-.04.04,47.68,46.2.03-.04Z" fill="#098cff" fill-rule="evenodd"/>
  </g>
  <path id="Path_15" data-name="Path 15" d="M33.43,24.39h0l11.64-6.72A14.525,14.525,0,0,1,66.86,30.25V57.13A14.525,14.525,0,0,1,45.07,69.71L33.43,62.99l6.02-3.47-6.02-3.47L24.8,51.07a8.505,8.505,0,0,1,0-14.74l8.63-4.98h0l-6.02-3.47-5.62,3.25a14.529,14.529,0,0,0,0,25.16l5.62,3.25h0l6.02,3.47,6.02-3.47,8.63,4.98a8.515,8.515,0,0,0,12.77-7.37V30.27A8.515,8.515,0,0,0,48.08,22.9l-8.63,4.98-6.01-3.47h0ZM54.26,0a6.03,6.03,0,1,0,6.03,6.03A6.03,6.03,0,0,0,54.26,0Z" fill-rule="evenodd" fill="url(#linear-gradient)"/>
  <path id="Path_16" data-name="Path 16" d="M25.27,29.1l.39.22,5.63,3.25,2.14-1.24-6.02-3.47Z" fill="#ff7a00" fill-rule="evenodd"/>
  <path id="Path_17" data-name="Path 17" d="M25.27,60.75l.39.22,5.63,3.25,2.14-1.23-6.02-3.48Z" fill="#0892ff" fill-rule="evenodd"/>
  <path id="Path_18" data-name="Path 18" d="M89.01,18.84V60.38H82.2V18.84Zm25.58,8.07a14.818,14.818,0,0,1,6.96,1.61,11.484,11.484,0,0,1,4.81,4.78,15.668,15.668,0,0,1,1.73,7.65V60.38h-6.75V41.97q0-4.425-2.21-6.78a7.885,7.885,0,0,0-6.04-2.36,8,8,0,0,0-6.07,2.36c-1.49,1.57-2.24,3.84-2.24,6.78V60.38H97.97V27.45h6.81v3.77a11.307,11.307,0,0,1,4.27-3.17,13.62,13.62,0,0,1,5.53-1.14h0Zm34.9,27.37,9.32-26.84h7.23L153.49,60.37h-8.13L132.87,27.44h7.29l9.32,26.84h0Zm25.17-31.2a4.3,4.3,0,0,1-4.37-4.37,4.3,4.3,0,0,1,4.37-4.37,4.081,4.081,0,0,1,3.05,1.26,4.215,4.215,0,0,1,1.26,3.11,4.215,4.215,0,0,1-1.26,3.11,4.144,4.144,0,0,1-3.05,1.26ZM178,27.45V60.38h-6.81V27.45Zm16.92,5.56V51.24a3.487,3.487,0,0,0,.87,2.66,4.3,4.3,0,0,0,2.96.81h4.18v5.68h-5.38q-4.605,0-7.05-2.15c-1.63-1.43-2.45-3.77-2.45-6.99V33.02h-3.88V27.46h3.88V19.27h6.87v8.19h8.01v5.56h-8.01Zm28.57,27.91a16.915,16.915,0,0,1-8.43-2.12,15.266,15.266,0,0,1-5.92-5.98,18.085,18.085,0,0,1-2.15-8.94,17.63,17.63,0,0,1,2.21-8.91,15.3,15.3,0,0,1,6.04-5.98,18.534,18.534,0,0,1,17.1,0,15.3,15.3,0,0,1,6.04,5.98,17.736,17.736,0,0,1,2.21,8.91,17.365,17.365,0,0,1-2.27,8.91,15.754,15.754,0,0,1-6.19,6.01,17.887,17.887,0,0,1-8.64,2.12h0Zm0-5.92a10.1,10.1,0,0,0,4.93-1.26,9.616,9.616,0,0,0,3.74-3.77,12.074,12.074,0,0,0,1.43-6.1,12.463,12.463,0,0,0-1.37-6.07,9.33,9.33,0,0,0-3.65-3.74,9.934,9.934,0,0,0-4.9-1.26,9.767,9.767,0,0,0-4.87,1.26,9.007,9.007,0,0,0-3.56,3.74,12.786,12.786,0,0,0-1.31,6.07q0,5.325,2.72,8.22a8.983,8.983,0,0,0,6.84,2.9h0Zm29.89-.18h14.94v5.56H245.49V54.82l15-21.82h-15V27.44h22.83V33L253.38,54.82Z" fill="#fff" fill-rule="evenodd"/>
</svg>
