<svg xmlns="http://www.w3.org/2000/svg" xmlns:xlink="http://www.w3.org/1999/xlink" width="18.004" height="18.004" viewBox="0 0 18.004 18.004">
  <defs>
    <clipPath id="clip-path">
      <path id="path3864" d="M0-682.665H18v18H0Z" transform="translate(0 682.665)" fill="#011233"/>
    </clipPath>
  </defs>
  <g id="g3858" transform="translate(0 682.665)">
    <g id="g3860" transform="translate(0 -682.665)">
      <g id="g3862" clip-path="url(#clip-path)">
        <g id="g3868" transform="translate(0 0)">
          <path id="path3870" d="M-407.848-644.662h-.022a.527.527,0,0,1-.485-.382l-2.257-7.9-7.9-2.257a.528.528,0,0,1-.382-.485.527.527,0,0,1,.34-.515l16.949-6.429a.527.527,0,0,1,.56.12.527.527,0,0,1,.12.56L-407.355-645A.528.528,0,0,1-407.848-644.662Zm-8.847-11.118,6.654,1.9a.527.527,0,0,1,.362.362l1.9,6.654,5.449-14.367Z" transform="translate(418.895 662.666)" fill="#011233"/>
        </g>
        <g id="g3872" transform="translate(8.182 0)">
          <path id="path3874" d="M-19.472-342.592a.526.526,0,0,1-.373-.154.527.527,0,0,1,0-.746l8.767-8.767a.527.527,0,0,1,.746,0,.527.527,0,0,1,0,.746l-8.767,8.767A.526.526,0,0,1-19.472-342.592Z" transform="translate(20 352.414)" fill="#011233"/>
        </g>
      </g>
    </g>
    <g id="g3876" transform="translate(5.26 -674.733)">
      <path id="path3878" d="M-158.178-157.652h-3.757a.527.527,0,0,1-.527-.527v-3.757a.527.527,0,0,1,.527-.527.527.527,0,0,1,.527.527v3.23h3.23a.527.527,0,0,1,.527.527A.527.527,0,0,1-158.178-157.652Z" transform="translate(162.462 162.464)" fill="#011233"/>
    </g>
    <g id="g3880" transform="translate(0 -682.665)">
      <g id="g3882" clip-path="url(#clip-path)">
        <g id="g3888" transform="translate(0 14.136)">
          <path id="path3890" d="M-19.472-122.8a.526.526,0,0,1-.373-.154.527.527,0,0,1,0-.746l2.813-2.813a.527.527,0,0,1,.746,0,.527.527,0,0,1,0,.746l-2.813,2.813A.526.526,0,0,1-19.472-122.8Z" transform="translate(20 126.666)" fill="#011233"/>
        </g>
        <g id="g3892" transform="translate(3.165 14.136)">
          <path id="path3894" d="M-19.472-122.8a.526.526,0,0,1-.373-.154.527.527,0,0,1,0-.746l2.813-2.813a.527.527,0,0,1,.746,0,.527.527,0,0,1,0,.746l-2.813,2.813A.526.526,0,0,1-19.472-122.8Z" transform="translate(20 126.666)" fill="#011233"/>
        </g>
        <g id="g3896" transform="translate(0 10.971)">
          <path id="path3898" d="M-19.472-122.8a.526.526,0,0,1-.373-.154.527.527,0,0,1,0-.746l2.813-2.813a.527.527,0,0,1,.746,0,.527.527,0,0,1,0,.746l-2.813,2.813A.526.526,0,0,1-19.472-122.8Z" transform="translate(20 126.666)" fill="#011233"/>
        </g>
      </g>
    </g>
  </g>
</svg>
